<svg fill="none" height="234" viewBox="0 0 217 234" width="217" xmlns="http://www.w3.org/2000/svg"><path d="m0 0h217v234h-217z" fill="#fff"/><path d="m20 27.6367h172v56.9611c0 2.4673-2 4.4675-4.468 4.4675h-163.0645c-2.4673 0-4.4675-2.0002-4.4675-4.4675z" fill="#e6e6e6"/><path d="m43.4541 89.0645h40.2078v34.6235c0 1.234-1.0001 2.234-2.2338 2.234h-35.7402c-1.2337 0-2.2338-1-2.2338-2.234z" fill="#100f0f"/><path clip-rule="evenodd" d="m63.5583 96.6035 2.4842 2.4843c.2617.2617.2617.686 0 .9472-.2617.262-.686.262-.9477 0l-.8677-.8673v7.0953h2.011c1.1104 0 2.0104-.9 2.0104-2.011v-.67h-.335c-.5552 0-1.0052-.45-1.0052-1.005v-2.01c0-.555.45-1.0055 1.0052-1.0055h2.0104c.5551 0 1.0052.4505 1.0052 1.0055v2.01c0 .555-.4501 1.005-1.0052 1.005h-.3351v.67c0 1.851-1.5001 3.351-3.3507 3.351h-2.011v4.137c.781.276 1.3406 1.021 1.3406 1.896 0 1.111-.9001 2.011-2.0104 2.011s-2.0104-.9-2.0104-2.011c0-.875.5593-1.62 1.3399-1.896v-1.457h-2.0097c-1.8505 0-3.3506-1.5-3.3506-3.351v-.784c-.7812-.276-1.341-1.021-1.341-1.896 0-1.111.9001-2.011 2.0104-2.011s2.0104.9 2.0104 2.011c0 .875-.5591 1.619-1.3396 1.896v.784c0 1.111.9001 2.011 2.0104 2.011h2.0097v-9.7726l-.8651.8646c-.2617.262-.686.262-.9477 0-.2617-.2612-.2617-.6855 0-.9472zm-5.3624 6.9785c-.3701 0-.6701.3-.6701.67s.3.67.6701.67.6702-.3.6702-.67-.3001-.67-.6702-.67zm5.3614 9.384c-.3701 0-.6701.3-.6701.67s.3.67.6701.67.6701-.3.6701-.67-.3-.67-.6701-.67zm4.6912-10.724v-1.34h1.3403v1.34z" fill="#8f8f8f" fill-rule="evenodd"/><path d="m54.623 125.922h16.7533v6.701c0 .617-.5001 1.117-1.1169 1.117h-14.5195c-.6168 0-1.1169-.5-1.1169-1.117z" fill="#100f0f"/><path d="m63.5584 133.74v40.208c0 5.026 0 10.052-7.8182 10.052" stroke="#000" stroke-linecap="round" stroke-linejoin="round" stroke-width="5.02597"/><path d="m128.337 89.0645h40.208v34.6235c0 1.234-1 2.234-2.234 2.234h-35.74c-1.234 0-2.234-1-2.234-2.234z" fill="#100f0f"/><path clip-rule="evenodd" d="m148.441 96.6035 2.484 2.4843c.262.2617.262.686 0 .9472-.261.262-.686.262-.947 0l-.868-.8673v7.0953h2.011c1.11 0 2.01-.9 2.01-2.011v-.67h-.335c-.555 0-1.005-.45-1.005-1.005v-2.01c0-.555.45-1.0055 1.005-1.0055h2.011c.555 0 1.005.4505 1.005 1.0055v2.01c0 .555-.45 1.005-1.005 1.005h-.335v.67c0 1.851-1.501 3.351-3.351 3.351h-2.011v4.137c.781.276 1.341 1.021 1.341 1.896 0 1.111-.901 2.011-2.011 2.011s-2.01-.9-2.01-2.011c0-.875.559-1.62 1.34-1.896v-1.457h-2.01c-1.851 0-3.351-1.5-3.351-3.351v-.784c-.781-.276-1.341-1.021-1.341-1.896 0-1.111.9-2.011 2.011-2.011 1.11 0 2.01.9 2.01 2.011 0 .875-.559 1.619-1.339 1.896v.784c0 1.111.9 2.011 2.01 2.011h2.01v-9.7726l-.865.8646c-.262.262-.686.262-.948 0-.262-.2612-.262-.6855 0-.9472zm-5.362 6.9785c-.37 0-.67.3-.67.67s.3.67.67.67.67-.3.67-.67-.3-.67-.67-.67zm5.361 9.384c-.37 0-.67.3-.67.67s.3.67.67.67.67-.3.67-.67-.3-.67-.67-.67zm4.691-10.724v-1.34h1.341v1.34z" fill="#8f8f8f" fill-rule="evenodd"/><path d="m139.506 125.922h16.753v6.701c0 .617-.5 1.117-1.117 1.117h-14.519c-.617 0-1.117-.5-1.117-1.117z" fill="#100f0f"/><path d="m147.323 133.74v40.208c0 5.026 0 10.052 7.819 10.052" stroke="#000" stroke-linecap="round" stroke-linejoin="round" stroke-width="5.02597"/><path d="m48.7547 74.5924c-.0603 0-.1005.0402-.1005.1005v6.6343c0 .0603.0402.1005.1005.1005h1.1359c.0603 0 .1005-.0402.1005-.1005v-2.2717c0-.0503.0201-.0704.1407-.0704h.4724c1.3571 0 2.3824-.3719 2.3824-2.2818 0-1.5982-.8947-2.1109-2.2718-2.1109zm1.3067 3.3875c-.0603 0-.0703-.0201-.0703-.0703v-2.2818c0-.0402.01-.0704.0703-.0704h.5026c.7841 0 1.1158.2513 1.1158 1.1761 0 1.0253-.3317 1.2464-1.1359 1.2464zm5.6071.0302c0-.965.1005-1.8496.3216-2.1612.1609-.2211.4423-.2513.9751-.2513.5126 0 .784.0302.9449.2513.2211.3116.3216 1.1962.3216 2.1612 0 .9549-.1005 1.8495-.3216 2.1611-.1609.2212-.4323.2513-.965.2513-.5127 0-.7941-.0301-.955-.2513-.2211-.3116-.3216-1.2062-.3216-2.1611zm3.9604 0c0-1.2766-.2412-2.3622-.6835-2.8849-.4222-.5026-1.0052-.6333-1.9802-.6333-.9751 0-1.5882.1307-2.0205.6333-.4322.5227-.6735 1.6083-.6735 2.8849s.2413 2.3622.6735 2.8849c.4323.5026 1.0153.6333 1.9903.6333.9751 0 1.5882-.1307 2.0104-.6333.4423-.5227.6835-1.6083.6835-2.8849zm5.1111 3.3272c.0301.0703.0603.0904.1206.0904h1.3369c.0804 0 .0804-.0502.0502-.1005l-1.3369-2.4627c-.1105-.1809-.1608-.2915-.1608-.392 0-.0402.0302-.0805.1005-.1408.6936-.402.8846-.9448.8846-1.8495 0-1.3771-.774-1.8898-2.3019-1.8898h-2.0405c-.0604 0-.1006.0402-.1006.1005v6.6343c0 .0603.0402.1005.1006.1005h1.1358c.0603 0 .1005-.0402.1005-.1005v-2.4125c0-.0502.0302-.0703.0805-.0703h.7036c.0603.01.0804.0402.1608.191zm-1.548-3.3976h-.4926c-.0502-.01-.0704-.0301-.0704-.0804v-2.2315c0-.0402.0202-.0604.1307-.0604h.4323c.9046 0 1.1459.2312 1.1459 1.1359 0 .8946-.2815 1.2364-1.1459 1.2364zm5.0562 3.3875c0 .0603.0402.1005.1005.1005h1.1359c.0603 0 .1005-.0402.1005-.1005v-5.5688c0-.0402.0201-.0603.0603-.0603h1.2967c.0603 0 .1005-.0402.1005-.1005v-.9047c0-.0603-.0402-.1005-.1005-.1005h-4.0409c-.0603 0-.1005.0402-.1005.1005v.9047c0 .0603.0402.1005.1005.1005h1.2867c.0402 0 .0603.0201.0603.0603zm6.3397-6.4232c-.0603.0201-.1005.0503-.1005.1106v.9047c0 .0603.0402.1005.1005.1005l1.3972-.3016c.0302 0 .0503.0201.0603.0503v4.4832c0 .0402-.0201.0603-.0603.0603h-1.2967c-.0603 0-.1005.0402-.1005.1005v.9147c0 .0603.0402.1005.1005.1005h3.8599c.0604 0 .1006-.0402.1006-.1005v-.9147c0-.0603-.0402-.1005-.1006-.1005h-1.1459c-.0402 0-.0603-.0201-.0603-.0603v-5.5588c0-.0603-.0402-.1005-.1005-.1005h-1.0856c-.0603 0-.1407.0101-.2011.0302z" fill="#707075"/><path d="m68.1658 51.243c0-1.0608.1105-2.0332.3536-2.3758.1768-.2431.4862-.2762 1.0719-.2762.5635 0 .8619.0331 1.0387.2762.2431.3426.3536 1.315.3536 2.3758 0 1.0497-.1105 2.0332-.3536 2.3757-.1768.2431-.4752.2763-1.0608.2763-.5636 0-.873-.0332-1.0498-.2763-.2431-.3425-.3536-1.326-.3536-2.3757zm4.3537 0c0-1.4034-.2652-2.5968-.7514-3.1714-.4641-.5525-1.105-.6961-2.1768-.6961-1.0719 0-1.7459.1436-2.2211.6961-.4751.5746-.7403 1.768-.7403 3.1714 0 1.4033.2652 2.5967.7403 3.1713.4752.5525 1.1161.6962 2.1879.6962 1.0719 0 1.7459-.1437 2.21-.6962.4862-.5746.7514-1.768.7514-3.1713zm2.5071 3.6465c0 .0663.0442.1105.1105.1105h1.2486c.0663 0 .1105-.0442.1105-.1105v-6.1217c0-.0442.0221-.0663.0663-.0663h1.4255c.0663 0 .1105-.0442.1105-.1105v-.9945c0-.0663-.0442-.1105-.1105-.1105h-4.4421c-.0663 0-.1105.0442-.1105.1105v.9945c0 .0663.0442.1105.1105.1105h1.4144c.0442 0 .0663.0221.0663.0663zm6.1756-2.6299c.0663 0 .1105-.0442.1105-.1105v-.9393c0-.0663-.0442-.1105-.1105-.1105h-2.7183c-.0663 0-.1105.0442-.1105.1105v.9393c0 .0663.0442.1105.1105.1105zm4.0908-4.8841c-.5967 0-1.5138.0884-1.9669.221-.0663.0221-.0884.0442-.0884.1105l.1105.9945c.0111.0884.0442.1215.1105.1105.3757-.0995 1.0608-.1879 1.5139-.1879.7624 0 1.2044.0884 1.2044.7846 0 .5856-.2099.8508-1.2707 1.6133-1.5249 1.1934-1.9669 1.7238-1.9669 3.0387v.8288c0 .0884.0773.1105.1657.1105h4.4863c.0663 0 .1105-.0442.1105-.1105v-.9945c0-.0663-.0442-.1105-.1105-.1105h-2.9835c-.0884 0-.0994-.0221-.0994-.1216 0-.6519.2541-1.0718 1.4696-1.9448 1.2929-.9282 1.7459-1.326 1.7459-2.5083 0-1.4476-.7514-1.8343-2.431-1.8343zm12.2167.221c0-.0663-.0442-.1105-.1105-.1105h-1.2376c-.0663 0-.1105.0442-.1105.1105v5.2708c0 .873-.5525 1.0056-1.2155 1.0056s-1.2266-.1326-1.2266-.9945v-5.2819c0-.0663-.0442-.1105-.1105-.1105h-1.2486c-.0663 0-.1105.0442-.1105.1105v5.7128c0 1.1934.8508 1.8012 2.6741 1.8012 1.6022 0 2.6962-.6078 2.6962-1.8012zm5.8333 1.1823c.044 0 .066-.0331.066-.0663l.066-.9613c0-.0332-.011-.0774-.055-.0995-.265-.1105-1.072-.221-1.702-.221-1.602 0-2.4195.4199-2.4195 1.9006 0 .7735.1989 1.2818 1.1385 1.989 1.513 1.1492 1.558 1.3481 1.558 1.757 0 .6077-.277.7956-.929.7956-.574 0-1.1487-.0553-1.7012-.1547-.0553 0-.0774.0331-.0774.0773l-.0773.9945c0 .0442.0331.0774.0994.0884.431.0995 1.2045.199 2.0775.199 1.392 0 2.144-.5747 2.144-2.0001 0-1.0829-.487-1.5691-1.415-2.2211-1.16-.8177-1.304-1.0166-1.304-1.4586 0-.5525.232-.7735.895-.7735.487 0 1.238.0553 1.636.1547zm2.057-1.2928c-.067 0-.111.0442-.111.1105v7.293c0 .0663.044.1105.111.1105h2.718c1.105 0 2.221-.4973 2.221-2.0001 0-1.1934-.519-1.6133-1.072-1.8343-.055-.0221-.066-.0442-.066-.0884 0-.0552.022-.0773.132-.1436.431-.2542.851-.5415.851-1.5691 0-1.4255-.928-1.8785-2.409-1.8785zm1.447 3.2376c-.066 0-.099-.011-.099-.0884v-2.0111c0-.0442.022-.0773.077-.0773h.696c.906 0 1.172.2873 1.172.9945 0 .9061-.398 1.1492-1.128 1.1823zm-.022 3.1935c-.055 0-.077-.0111-.077-.0774v-2.0884c0-.0774.033-.0995.099-.0995h.674c.752 0 1.304.1989 1.304 1.1382 0 .9171-.32 1.1271-1.381 1.1271zm7.968-6.4311c-.067 0-.111.0442-.111.1105v7.293c0 .0663.044.1105.111.1105h1.248c.067 0 .111-.0442.111-.1105v-2.4973c0-.0553.022-.0774.154-.0774h.52c1.492 0 2.619-.4088 2.619-2.5083 0-1.757-.984-2.3205-2.498-2.3205zm1.436 3.7238c-.066 0-.077-.0221-.077-.0773v-2.5084c0-.0442.011-.0773.077-.0773h.553c.861 0 1.226.2762 1.226 1.2928 0 1.1271-.365 1.3702-1.249 1.3702zm6.164.0332c0-1.0608.11-2.0332.353-2.3758.177-.2431.487-.2762 1.072-.2762.564 0 .862.0331 1.039.2762.243.3426.354 1.315.354 2.3758 0 1.0497-.111 2.0332-.354 2.3757-.177.2431-.475.2763-1.061.2763-.563 0-.873-.0332-1.05-.2763-.243-.3425-.353-1.326-.353-2.3757zm4.354 0c0-1.4034-.266-2.5968-.752-3.1714-.464-.5525-1.105-.6961-2.177-.6961s-1.746.1436-2.221.6961c-.475.5746-.74 1.768-.74 3.1714 0 1.4033.265 2.5967.74 3.1713.475.5525 1.116.6962 2.188.6962s1.746-.1437 2.21-.6962c.486-.5746.752-1.768.752-3.1713zm5.618 3.6575c.033.0774.066.0995.133.0995h1.469c.089 0 .089-.0553.056-.1105l-1.47-2.7073c-.122-.1989-.177-.3204-.177-.4309 0-.0442.033-.0884.111-.1547.762-.442.972-1.0387.972-2.0332 0-1.5139-.851-2.0774-2.53-2.0774h-2.244c-.066 0-.11.0442-.11.1105v7.293c0 .0663.044.1105.11.1105h1.249c.066 0 .111-.0442.111-.1105v-2.652c0-.0553.033-.0774.088-.0774h.773c.067.0111.089.0442.177.21zm-1.702-3.7349h-.541c-.055-.011-.077-.0331-.077-.0884v-2.4531c0-.0442.022-.0663.143-.0663h.475c.995 0 1.26.2542 1.26 1.2487 0 .9834-.309 1.3591-1.26 1.3591zm5.559 3.7239c0 .0663.044.1105.11.1105h1.249c.066 0 .11-.0442.11-.1105v-6.1217c0-.0442.022-.0663.066-.0663h1.426c.066 0 .11-.0442.11-.1105v-.9945c0-.0663-.044-.1105-.11-.1105h-4.442c-.066 0-.111.0442-.111.1105v.9945c0 .0663.045.1105.111.1105h1.414c.044 0 .067.0221.067.0663zm8.257-6.1107c.044 0 .066-.0331.066-.0663l.066-.9613c0-.0332-.011-.0774-.055-.0995-.265-.1105-1.072-.221-1.702-.221-1.602 0-2.42.4199-2.42 1.9006 0 .7735.199 1.2818 1.138 1.989 1.514 1.1492 1.558 1.3481 1.558 1.757 0 .6077-.276.7956-.928.7956-.574 0-1.149-.0553-1.701-.1547-.056 0-.078.0331-.078.0773l-.077.9945c0 .0442.033.0774.099.0884.431.0995 1.205.199 2.078.199 1.392 0 2.143-.5747 2.143-2.0001 0-1.0829-.486-1.5691-1.414-2.2211-1.16-.8177-1.304-1.0166-1.304-1.4586 0-.5525.232-.7735.895-.7735.486 0 1.238.0553 1.636.1547z" fill="#16212d"/><path d="m29.3024 206.899c0 .061.0402.101.1005.101h1.1359c.0603 0 .1005-.04.1005-.101v-5.568c0-.041.0201-.061.0603-.061h1.2967c.0603 0 .1005-.04.1005-.1v-.905c0-.06-.0402-.1-.1005-.1h-4.0409c-.0603 0-.1005.04-.1005.1v.905c0 .06.0402.1.1005.1h1.2867c.0402 0 .0603.02.0603.061zm4.0131 0c0 .061.0402.101.1006.101h3.6388c.0603 0 .1005-.04.1005-.101v-.914c0-.061-.0402-.101-.1005-.101h-2.3321c-.0402 0-.0603-.02-.0603-.06v-1.759c0-.04.0201-.06.0603-.06h2.0204c.0604 0 .1006-.041.1006-.101v-.834c0-.061-.0402-.101-.1006-.101h-2.0204c-.0402 0-.0603-.02-.0603-.06v-1.588c0-.041.0201-.061.0603-.061h2.1712c.0603 0 .1005-.04.1005-.1v-.895c0-.06-.0402-.1-.1005-.1h-3.4779c-.0604 0-.1006.04-.1006.1zm8.565-2.935c-.0302.101-.0402.131-.1005.131-.0503 0-.0603-.02-.1005-.131l-1.0756-3.699c-.0201-.05-.0503-.1-.1106-.1h-1.7792c-.0603 0-.1005.04-.1005.1v6.634c0 .061.0402.101.1005.101h1.1158c.0603 0 .1005-.04.1005-.101l-.0603-5.116c0-.121.0101-.151.0603-.151.0503 0 .0603.02.1005.131l1.0253 3.538c.0503.151.0704.151.191.151h.9449c.1106 0 .1206-.02.1709-.171l1.1158-3.518c.0201-.091.0502-.131.0904-.131.0503 0 .0603.02.0603.121l-.0603 5.146c0 .061.0402.101.1005.101h1.146c.0603 0 .1005-.04.1005-.101v-6.634c0-.06-.0402-.1-.1005-.1h-1.6888c-.0603 0-.1206.05-.1306.1zm5.0079-3.799c-.0603 0-.1005.04-.1005.1v6.634c0 .061.0402.101.1005.101h1.1359c.0603 0 .1005-.04.1005-.101v-2.271c0-.051.0201-.071.1407-.071h.4725c1.357 0 2.3823-.372 2.3823-2.281 0-1.599-.8946-2.111-2.2718-2.111zm1.3068 3.387c-.0603 0-.0704-.02-.0704-.07v-2.282c0-.04.0101-.07.0704-.07h.5026c.784 0 1.1157.251 1.1157 1.176 0 1.025-.3317 1.246-1.1358 1.246zm4.4209 3.347c0 .061.0402.101.1005.101h3.6388c.0603 0 .1005-.04.1005-.101v-.914c0-.061-.0402-.101-.1005-.101h-2.3321c-.0402 0-.0603-.02-.0603-.06v-1.759c0-.04.0201-.06.0603-.06h2.0205c.0603 0 .1005-.041.1005-.101v-.834c0-.061-.0402-.101-.1005-.101h-2.0205c-.0402 0-.0603-.02-.0603-.06v-1.588c0-.041.0201-.061.0603-.061h2.1713c.0603 0 .1005-.04.1005-.1v-.895c0-.06-.0402-.1-.1005-.1h-3.478c-.0603 0-.1005.04-.1005.1zm8.7459.011c.0301.07.0603.09.1206.09h1.3369c.0804 0 .0804-.05.0503-.101l-1.337-2.462c-.1105-.181-.1608-.292-.1608-.392 0-.04.0302-.081.1005-.141.6936-.402.8846-.945.8846-1.85 0-1.377-.774-1.889-2.3019-1.889h-2.0405c-.0604 0-.1006.04-.1006.1v6.634c0 .061.0402.101.1006.101h1.1358c.0603 0 .1006-.04.1006-.101v-2.412c0-.05.0301-.07.0804-.07h.7036c.0603.01.0804.04.1608.191zm-1.548-3.398h-.4926c-.0502-.01-.0703-.03-.0703-.08v-2.232c0-.04.0201-.06.1306-.06h.4323c.9046 0 1.1459.231 1.1459 1.136 0 .894-.2815 1.236-1.1459 1.236zm7.8987 3.387c.0202.081.0604.101.1307.101h1.2867c.0502 0 .0703-.02.0703-.06 0-.01 0-.03 0-.041-.2111-.884-1.3268-5.136-1.7591-6.634-.0201-.06-.0502-.1-.1206-.1h-1.9199c-.0603 0-.1005.04-.1206.1-.4222 1.397-1.5179 5.418-1.8194 6.634-.0101.011-.0101.031-.0101.041 0 .04.0302.06.0804.06h1.1661c.0603 0 .1005-.02.1306-.101l.382-1.558c.0101-.05.0503-.07.1005-.07h1.9602c.0502 0 .0703.02.0804.07zm-2.2114-2.643c-.0402 0-.0603-.01-.0603-.06.1106-.513.5026-2.111.7137-2.895.01-.041.0402-.051.1709-.051s.1608.01.1709.051c.191.784.5528 2.382.6634 2.895 0 .05-.0201.06-.0603.06zm5.3639 2.643c0 .061.0402.101.1005.101h1.1359c.0603 0 .1005-.04.1005-.101v-5.568c0-.041.0201-.061.0603-.061h1.2967c.0603 0 .1006-.04.1006-.1v-.905c0-.06-.0403-.1-.1006-.1h-4.0408c-.0604 0-.1006.04-.1006.1v.905c0 .06.0402.1.1006.1h1.2866c.0402 0 .0603.02.0603.061zm8.8381-6.634c0-.06-.0402-.1-.1005-.1h-1.1258c-.0603 0-.1005.04-.1005.1v4.795c0 .794-.5026.915-1.1058.915-.6031 0-1.1157-.121-1.1157-.905v-4.805c0-.06-.0402-.1-.1005-.1h-1.1359c-.0603 0-.1005.04-.1005.1v5.197c0 1.086.774 1.639 2.4325 1.639 1.4576 0 2.4527-.553 2.4527-1.639zm5.256 6.645c.0302.07.0603.09.1206.09h1.3369c.0805 0 .0805-.05.0503-.101l-1.3369-2.462c-.1106-.181-.1608-.292-.1608-.392 0-.04.0301-.081.1005-.141.6936-.402.8845-.945.8845-1.85 0-1.377-.774-1.889-2.3019-1.889h-2.0405c-.0603 0-.1005.04-.1005.1v6.634c0 .061.0402.101.1005.101h1.1359c.0603 0 .1005-.04.1005-.101v-2.412c0-.05.0301-.07.0804-.07h.7036c.0604.01.0805.04.1609.191zm-1.548-3.398h-.4925c-.0503-.01-.0704-.03-.0704-.08v-2.232c0-.04.0201-.06.1307-.06h.4322c.9047 0 1.1459.231 1.1459 1.136 0 .894-.2814 1.236-1.1459 1.236zm4.3505 3.387c0 .061.0402.101.1005.101h3.6388c.0603 0 .1005-.04.1005-.101v-.914c0-.061-.0402-.101-.1005-.101h-2.3321c-.0402 0-.0603-.02-.0603-.06v-1.759c0-.04.0201-.06.0603-.06h2.0205c.0603 0 .1005-.041.1005-.101v-.834c0-.061-.0402-.101-.1005-.101h-2.0205c-.0402 0-.0603-.02-.0603-.06v-1.588c0-.041.0201-.061.0603-.061h2.1712c.0604 0 .1006-.04.1006-.1v-.895c0-.06-.0402-.1-.1006-.1h-3.4779c-.0603 0-.1005.04-.1005.1zm-46.755 9.065c-.0301.101-.0402.131-.1005.131-.0502 0-.0603-.02-.1005-.131l-1.0756-3.699c-.0201-.05-.0502-.1-.1105-.1h-1.7792c-.0603 0-.1005.04-.1005.1v6.634c0 .061.0402.101.1005.101h1.1157c.0604 0 .1006-.04.1006-.101l-.0603-5.116c0-.121.01-.151.0603-.151.0502 0 .0603.02.1005.131l1.0253 3.538c.0502.151.0703.151.191.151h.9449c.1105 0 .1206-.02.1708-.171l1.1158-3.518c.0201-.091.0503-.131.0905-.131.0502 0 .0603.02.0603.121l-.0603 5.146c0 .061.0402.101.1005.101h1.1459c.0603 0 .1005-.04.1005-.101v-6.634c0-.06-.0402-.1-.1005-.1h-1.6887c-.0603 0-.1206.05-.1307.1zm6.0936-.382c0-.965.1005-1.849.3216-2.161.1609-.221.4423-.251.9751-.251.5126 0 .784.03.9449.251.2211.312.3216 1.196.3216 2.161 0 .955-.1005 1.85-.3216 2.162-.1609.221-.4323.251-.965.251-.5127 0-.7941-.03-.955-.251-.2211-.312-.3216-1.207-.3216-2.162zm3.9604 0c0-1.276-.2412-2.362-.6835-2.885-.4222-.502-1.0052-.633-1.9802-.633-.9751 0-1.5882.131-2.0205.633-.4322.523-.6735 1.609-.6735 2.885 0 1.277.2413 2.363.6735 2.885.4323.503 1.0153.634 1.9903.634.9751 0 1.5882-.131 2.0104-.634.4423-.522.6835-1.608.6835-2.885zm5.3825-.05c0 1.407-.2312 2.433-1.2565 2.433h-1.0756c-.0402 0-.0503-.01-.0503-.061v-4.654c0-.04.0202-.06.0604-.06h1.0554c1.0354 0 1.2666.985 1.2666 2.342zm-3.6187-3.367c-.0604 0-.1006.04-.1006.1v6.634c0 .061.0402.101.1006.101h2.533c2.0406 0 2.4628-1.769 2.4628-3.418 0-1.638-.4222-3.417-2.4628-3.417zm11.4655.1c0-.06-.0402-.1-.1006-.1h-1.1258c-.0603 0-.1005.04-.1005.1v4.795c0 .794-.5026.915-1.1057.915s-1.1158-.121-1.1158-.905v-4.805c0-.06-.0402-.1-.1005-.1h-1.1359c-.0603 0-.1005.04-.1005.1v5.197c0 1.086.774 1.639 2.4326 1.639 1.4575 0 2.4527-.553 2.4527-1.639zm1.8081 6.634c0 .061.0402.101.1006.101h2.9653c.0603 0 .1005-.04.1005-.101v-.914c0-.061-.0402-.101-.1005-.101h-1.6686c-.0403 0-.0604-.02-.0604-.06v-5.559c0-.06-.0402-.1-.1005-.1h-1.1358c-.0604 0-.1006.04-.1006.1zm4.4146 0c0 .061.0403.101.1006.101h3.6388c.0603 0 .1005-.04.1005-.101v-.914c0-.061-.0402-.101-.1005-.101h-2.3321c-.0402 0-.0603-.02-.0603-.06v-1.759c0-.04.0201-.06.0603-.06h2.0205c.0603 0 .1005-.041.1005-.101v-.834c0-.061-.0402-.101-.1005-.101h-2.0205c-.0402 0-.0603-.02-.0603-.06v-1.588c0-.041.0201-.061.0603-.061h2.1712c.0603 0 .1006-.04.1006-.1v-.895c0-.06-.0403-.1-.1006-.1h-3.4779c-.0603 0-.1006.04-.1006.1zm7.7327-6.423c-.0603.02-.1006.051-.1006.111v.905c0 .06.0403.1.1006.1l1.3972-.302c.0301 0 .0502.021.0603.051v4.483c0 .04-.0201.06-.0603.06h-1.2967c-.0603 0-.1005.04-.1005.101v.914c0 .061.0402.101.1005.101h3.8599c.0603 0 .1006-.04.1006-.101v-.914c0-.061-.0403-.101-.1006-.101h-1.1459c-.0402 0-.0603-.02-.0603-.06v-5.559c0-.06-.0402-.1-.1005-.1h-1.0856c-.0603 0-.1408.01-.2011.03z" fill="#006cfa"/><path d="m120.302 206.899c0 .061.041.101.101.101h1.136c.06 0 .1-.04.1-.101v-5.568c0-.041.02-.061.061-.061h1.296c.061 0 .101-.04.101-.1v-.905c0-.06-.04-.1-.101-.1h-4.041c-.06 0-.1.04-.1.1v.905c0 .06.04.1.1.1h1.287c.04 0 .06.02.06.061zm4.014 0c0 .061.04.101.1.101h3.639c.06 0 .1-.04.1-.101v-.914c0-.061-.04-.101-.1-.101h-2.332c-.04 0-.061-.02-.061-.06v-1.759c0-.04.021-.06.061-.06h2.02c.061 0 .101-.041.101-.101v-.834c0-.061-.04-.101-.101-.101h-2.02c-.04 0-.061-.02-.061-.06v-1.588c0-.041.021-.061.061-.061h2.171c.06 0 .101-.04.101-.1v-.895c0-.06-.041-.1-.101-.1h-3.478c-.06 0-.1.04-.1.1zm8.564-2.935c-.03.101-.04.131-.1.131-.05 0-.06-.02-.101-.131l-1.075-3.699c-.02-.05-.05-.1-.111-.1h-1.779c-.06 0-.1.04-.1.1v6.634c0 .061.04.101.1.101h1.116c.06 0 .1-.04.1-.101l-.06-5.116c0-.121.01-.151.06-.151.051 0 .061.02.101.131l1.025 3.538c.05.151.071.151.191.151h.945c.111 0 .121-.02.171-.171l1.116-3.518c.02-.091.05-.131.09-.131.05 0 .061.02.061.121l-.061 5.146c0 .061.04.101.101.101h1.146c.06 0 .1-.04.1-.101v-6.634c0-.06-.04-.1-.1-.1h-1.689c-.06 0-.121.05-.131.1zm5.008-3.799c-.06 0-.1.04-.1.1v6.634c0 .061.04.101.1.101h1.136c.061 0 .101-.04.101-.101v-2.271c0-.051.02-.071.141-.071h.472c1.357 0 2.382-.372 2.382-2.281 0-1.599-.894-2.111-2.271-2.111zm1.307 3.387c-.06 0-.07-.02-.07-.07v-2.282c0-.04.01-.07.07-.07h.503c.784 0 1.116.251 1.116 1.176 0 1.025-.332 1.246-1.136 1.246zm4.421 3.347c0 .061.04.101.101.101h3.638c.061 0 .101-.04.101-.101v-.914c0-.061-.04-.101-.101-.101h-2.332c-.04 0-.06-.02-.06-.06v-1.759c0-.04.02-.06.06-.06h2.021c.06 0 .1-.041.1-.101v-.834c0-.061-.04-.101-.1-.101h-2.021c-.04 0-.06-.02-.06-.06v-1.588c0-.041.02-.061.06-.061h2.172c.06 0 .1-.04.1-.1v-.895c0-.06-.04-.1-.1-.1h-3.478c-.061 0-.101.04-.101.1zm8.746.011c.03.07.06.09.121.09h1.336c.081 0 .081-.05.051-.101l-1.337-2.462c-.111-.181-.161-.292-.161-.392 0-.04.03-.081.101-.141.693-.402.884-.945.884-1.85 0-1.377-.774-1.889-2.302-1.889h-2.04c-.061 0-.101.04-.101.1v6.634c0 .061.04.101.101.101h1.136c.06 0 .1-.04.1-.101v-2.412c0-.05.03-.07.08-.07h.704c.06.01.081.04.161.191zm-1.548-3.398h-.493c-.05-.01-.07-.03-.07-.08v-2.232c0-.04.02-.06.131-.06h.432c.905 0 1.146.231 1.146 1.136 0 .894-.282 1.236-1.146 1.236zm7.899 3.387c.02.081.06.101.13.101h1.287c.05 0 .07-.02.07-.06 0-.01 0-.03 0-.041-.211-.884-1.326-5.136-1.759-6.634-.02-.06-.05-.1-.12-.1h-1.92c-.061 0-.101.04-.121.1-.422 1.397-1.518 5.418-1.819 6.634-.01.011-.01.031-.01.041 0 .04.03.06.08.06h1.166c.06 0 .101-.02.131-.101l.382-1.558c.01-.05.05-.07.1-.07h1.96c.051 0 .071.02.081.07zm-2.212-2.643c-.04 0-.06-.01-.06-.06.111-.513.503-2.111.714-2.895.01-.041.04-.051.171-.051.13 0 .16.01.17.051.191.784.553 2.382.664 2.895 0 .05-.02.06-.06.06zm5.364 2.643c0 .061.04.101.101.101h1.136c.06 0 .1-.04.1-.101v-5.568c0-.041.02-.061.06-.061h1.297c.06 0 .101-.04.101-.1v-.905c0-.06-.041-.1-.101-.1h-4.041c-.06 0-.1.04-.1.1v.905c0 .06.04.1.1.1h1.287c.04 0 .06.02.06.061zm8.838-6.634c0-.06-.04-.1-.1-.1h-1.126c-.06 0-.101.04-.101.1v4.795c0 .794-.502.915-1.105.915s-1.116-.121-1.116-.905v-4.805c0-.06-.04-.1-.101-.1h-1.135c-.061 0-.101.04-.101.1v5.197c0 1.086.774 1.639 2.433 1.639 1.457 0 2.452-.553 2.452-1.639zm5.256 6.645c.03.07.061.09.121.09h1.337c.08 0 .08-.05.05-.101l-1.337-2.462c-.11-.181-.161-.292-.161-.392 0-.04.031-.081.101-.141.693-.402.884-.945.884-1.85 0-1.377-.774-1.889-2.301-1.889h-2.041c-.06 0-.101.04-.101.1v6.634c0 .061.041.101.101.101h1.136c.06 0 .1-.04.1-.101v-2.412c0-.05.031-.07.081-.07h.703c.061.01.081.04.161.191zm-1.548-3.398h-.492c-.051-.01-.071-.03-.071-.08v-2.232c0-.04.02-.06.131-.06h.432c.905 0 1.146.231 1.146 1.136 0 .894-.281 1.236-1.146 1.236zm4.351 3.387c0 .061.04.101.1.101h3.639c.06 0 .101-.04.101-.101v-.914c0-.061-.041-.101-.101-.101h-2.332c-.04 0-.06-.02-.06-.06v-1.759c0-.04.02-.06.06-.06h2.02c.061 0 .101-.041.101-.101v-.834c0-.061-.04-.101-.101-.101h-2.02c-.04 0-.06-.02-.06-.06v-1.588c0-.041.02-.061.06-.061h2.171c.061 0 .101-.04.101-.1v-.895c0-.06-.04-.1-.101-.1h-3.478c-.06 0-.1.04-.1.1zm-46.755 9.065c-.03.101-.04.131-.101.131-.05 0-.06-.02-.1-.131l-1.076-3.699c-.02-.05-.05-.1-.11-.1h-1.78c-.06 0-.1.04-.1.1v6.634c0 .061.04.101.1.101h1.116c.061 0 .101-.04.101-.101l-.061-5.116c0-.121.011-.151.061-.151s.06.02.1.131l1.026 3.538c.05.151.07.151.191.151h.944c.111 0 .121-.02.171-.171l1.116-3.518c.02-.091.05-.131.091-.131.05 0 .06.02.06.121l-.06 5.146c0 .061.04.101.1.101h1.146c.06 0 .101-.04.101-.101v-6.634c0-.06-.041-.1-.101-.1h-1.689c-.06 0-.12.05-.13.1zm6.093-.382c0-.965.101-1.849.322-2.161.161-.221.442-.251.975-.251.513 0 .784.03.945.251.221.312.322 1.196.322 2.161 0 .955-.101 1.85-.322 2.162-.161.221-.432.251-.965.251-.513 0-.794-.03-.955-.251-.221-.312-.322-1.207-.322-2.162zm3.961 0c0-1.276-.241-2.362-.684-2.885-.422-.502-1.005-.633-1.98-.633s-1.588.131-2.02.633c-.433.523-.674 1.609-.674 2.885 0 1.277.241 2.363.674 2.885.432.503 1.015.634 1.99.634s1.588-.131 2.01-.634c.443-.522.684-1.608.684-2.885zm5.382-.05c0 1.407-.231 2.433-1.256 2.433h-1.076c-.04 0-.05-.01-.05-.061v-4.654c0-.04.02-.06.06-.06h1.056c1.035 0 1.266.985 1.266 2.342zm-3.618-3.367c-.061 0-.101.04-.101.1v6.634c0 .061.04.101.101.101h2.533c2.04 0 2.462-1.769 2.462-3.418 0-1.638-.422-3.417-2.462-3.417zm11.465.1c0-.06-.04-.1-.1-.1h-1.126c-.061 0-.101.04-.101.1v4.795c0 .794-.502.915-1.106.915-.603 0-1.115-.121-1.115-.905v-4.805c0-.06-.04-.1-.101-.1h-1.136c-.06 0-.1.04-.1.1v5.197c0 1.086.774 1.639 2.432 1.639 1.458 0 2.453-.553 2.453-1.639zm1.808 6.634c0 .061.04.101.101.101h2.965c.06 0 .101-.04.101-.101v-.914c0-.061-.041-.101-.101-.101h-1.669c-.04 0-.06-.02-.06-.06v-5.559c0-.06-.04-.1-.1-.1h-1.136c-.061 0-.101.04-.101.1zm4.415 0c0 .061.04.101.1.101h3.639c.06 0 .101-.04.101-.101v-.914c0-.061-.041-.101-.101-.101h-2.332c-.04 0-.06-.02-.06-.06v-1.759c0-.04.02-.06.06-.06h2.021c.06 0 .1-.041.1-.101v-.834c0-.061-.04-.101-.1-.101h-2.021c-.04 0-.06-.02-.06-.06v-1.588c0-.041.02-.061.06-.061h2.171c.061 0 .101-.04.101-.1v-.895c0-.06-.04-.1-.101-.1h-3.478c-.06 0-.1.04-.1.1zm9.642-6.835c-.542 0-1.377.081-1.789.201-.06.02-.08.04-.08.101l.1.904c.01.081.04.111.101.101.341-.091.965-.171 1.377-.171.693 0 1.095.08 1.095.714 0 .532-.19.774-1.155 1.467-1.388 1.086-1.79 1.568-1.79 2.765v.753c0 .081.071.101.151.101h4.081c.06 0 .101-.04.101-.101v-.904c0-.061-.041-.101-.101-.101h-2.714c-.08 0-.09-.02-.09-.11 0-.593.231-.975 1.337-1.769 1.176-.845 1.588-1.207 1.588-2.282 0-1.317-.684-1.669-2.212-1.669z" fill="#006cfa"/><g fill="#707075"><path d="m133.638 74.5924c-.061 0-.101.0402-.101.1005v6.6343c0 .0603.04.1005.101.1005h1.135c.061 0 .101-.0402.101-.1005v-2.2717c0-.0503.02-.0704.141-.0704h.472c1.357 0 2.382-.3719 2.382-2.2818 0-1.5982-.894-2.1109-2.271-2.1109zm1.306 3.3875c-.06 0-.07-.0201-.07-.0703v-2.2818c0-.0402.01-.0704.07-.0704h.503c.784 0 1.116.2513 1.116 1.1761 0 1.0253-.332 1.2464-1.136 1.2464zm5.607.0302c0-.965.101-1.8496.322-2.1612.161-.2211.442-.2513.975-.2513.513 0 .784.0302.945.2513.221.3116.322 1.1962.322 2.1612 0 .9549-.101 1.8495-.322 2.1611-.161.2212-.432.2513-.965.2513-.513 0-.794-.0301-.955-.2513-.221-.3116-.322-1.2062-.322-2.1611zm3.961 0c0-1.2766-.242-2.3622-.684-2.8849-.422-.5026-1.005-.6333-1.98-.6333s-1.588.1307-2.02.6333c-.433.5227-.674 1.6083-.674 2.8849s.241 2.3622.674 2.8849c.432.5026 1.015.6333 1.99.6333s1.588-.1307 2.01-.6333c.442-.5227.684-1.6083.684-2.8849zm5.111 3.3272c.03.0703.06.0904.12.0904h1.337c.081 0 .081-.0502.051-.1005l-1.337-2.4627c-.111-.1809-.161-.2915-.161-.392 0-.0402.03-.0805.1-.1408.694-.402.885-.9448.885-1.8495 0-1.3771-.774-1.8898-2.302-1.8898h-2.041c-.06 0-.1.0402-.1.1005v6.6343c0 .0603.04.1005.1.1005h1.136c.061 0 .101-.0402.101-.1005v-2.4125c0-.0502.03-.0703.08-.0703h.704c.06.01.08.0402.161.191zm-1.548-3.3976h-.493c-.05-.01-.07-.0301-.07-.0804v-2.2315c0-.0402.02-.0604.131-.0604h.432c.904 0 1.146.2312 1.146 1.1359 0 .8946-.282 1.2364-1.146 1.2364zm5.056 3.3875c0 .0603.04.1005.1.1005h1.136c.061 0 .101-.0402.101-.1005v-5.5688c0-.0402.02-.0603.06-.0603h1.297c.06 0 .1-.0402.1-.1005v-.9047c0-.0603-.04-.1005-.1-.1005h-4.041c-.06 0-.101.0402-.101.1005v.9047c0 .0603.041.1005.101.1005h1.287c.04 0 .06.0201.06.0603zm8.25-6.8353c-.543 0-1.378.0804-1.79.201-.06.0201-.08.0402-.08.1005l.1.9047c.01.0804.041.1106.101.1005.342-.0904.965-.1708 1.377-.1708.694 0 1.096.0804 1.096.7136 0 .5328-.191.774-1.156 1.4676-1.387 1.0856-1.79 1.5681-1.79 2.7643v.7539c0 .0804.071.1005.151.1005h4.081c.061 0 .101-.0402.101-.1005v-.9047c0-.0603-.04-.1005-.101-.1005h-2.714c-.08 0-.09-.0201-.09-.1106 0-.593.231-.975 1.337-1.7691 1.176-.8444 1.588-1.2062 1.588-2.2818 0-1.3168-.684-1.6686-2.211-1.6686z"/><path d="m20.7841 19.8995c0 .0603.0402.1005.1005.1005h2.9653c.0603 0 .1005-.0402.1005-.1005v-.9147c0-.0604-.0402-.1006-.1005-.1006h-1.6686c-.0402 0-.0603-.0201-.0603-.0603v-5.5587c0-.0603-.0402-.1005-.1006-.1005h-1.1358c-.0603 0-.1005.0402-.1005.1005zm4.4146 0c0 .0603.0402.1005.1005.1005h3.6388c.0603 0 .1005-.0402.1005-.1005v-.9147c0-.0604-.0402-.1006-.1005-.1006h-2.3321c-.0402 0-.0603-.0201-.0603-.0603v-1.7591c0-.0402.0201-.0603.0603-.0603h2.0205c.0603 0 .1005-.0402.1005-.1005v-.8343c0-.0603-.0402-.1005-.1005-.1005h-2.0205c-.0402 0-.0603-.0201-.0603-.0603v-1.5883c0-.0402.0201-.0603.0603-.0603h2.1713c.0603 0 .1005-.0402.1005-.1005v-.8946c0-.0603-.0402-.1005-.1005-.1005h-3.478c-.0603 0-.1005.0402-.1005.1005zm5.298 0c0 .0603.0403.1005.1006.1005h1.1459c.0603 0 .1005-.0402.1005-.1005v-2.6537c0-.0402.0201-.0603.0603-.0603h1.9602c.0603 0 .1005-.0403.1005-.1006v-.8343c0-.0603-.0402-.1005-.1005-.1005h-1.9602c-.0402 0-.0603-.0201-.0603-.0603v-1.7692c0-.0402.0201-.0603.0603-.0603h2.0908c.0603 0 .1005-.0402.1005-.1005v-.8946c0-.0603-.0402-.1005-.1005-.1005h-3.3975c-.0603 0-.1006.0402-.1006.1005zm5.8468 0c0 .0603.0402.1005.1005.1005h1.1359c.0603 0 .1005-.0402.1005-.1005v-5.5688c0-.0402.0201-.0603.0603-.0603h1.2967c.0604 0 .1006-.0402.1006-.1005v-.9047c0-.0603-.0402-.1005-.1006-.1005h-4.0408c-.0603 0-.1006.0402-.1006.1005v.9047c0 .0603.0403.1005.1006.1005h1.2866c.0402 0 .0603.0201.0603.0603z"/><path d="m48 16.5c-.2761 0-.5.2239-.5.5s.2239.5.5.5zm108.354.8536c.195-.1953.195-.5119 0-.7072l-3.182-3.1819c-.196-.1953-.512-.1953-.708 0-.195.1952-.195.5118 0 .7071l2.829 2.8284-2.829 2.8284c-.195.1953-.195.5119 0 .7071.196.1953.512.1953.708 0zm-108.354.1464h108v-1h-108z"/><path d="m168.232 19.9095c.03.0704.06.0905.12.0905h1.337c.081 0 .081-.0503.051-.1005l-1.337-2.4627c-.111-.181-.161-.2916-.161-.3921 0-.0402.03-.0804.1-.1407.694-.4021.885-.9449.885-1.8496 0-1.3771-.774-1.8897-2.302-1.8897h-2.04c-.061 0-.101.0402-.101.1005v6.6343c0 .0603.04.1005.101.1005h1.135c.061 0 .101-.0402.101-.1005v-2.4125c0-.0502.03-.0704.08-.0704h.704c.06.0101.08.0403.161.191zm-1.548-3.3975h-.493c-.05-.0101-.07-.0302-.07-.0804v-2.2316c0-.0402.02-.0603.131-.0603h.432c.905 0 1.146.2312 1.146 1.1359 0 .8946-.282 1.2364-1.146 1.2364zm5.587 3.488c.06 0 .1-.0402.1-.1005v-6.6343c0-.0603-.04-.1005-.1-.1005h-1.136c-.06 0-.101.0402-.101.1005v6.6343c0 .0603.041.1005.101.1005zm4.825-5.8402c.392 0 1.056.0905 1.317.1709.05.0201.101-.0201.101-.0503l.05-.9549c0-.0603-.03-.0704-.071-.0905-.271-.1005-1.015-.1708-1.598-.1708-2.07 0-2.885 1.3771-2.885 3.5684 0 2.2315.815 3.4679 2.855 3.4679.794 0 1.518-.1508 1.94-.3015.081-.0302.091-.0704.091-.1709v-3.5082c0-.0603-.041-.1005-.101-.1005h-2c-.061 0-.101.0402-.101.1005v.8746c0 .0603.04.1005.101.1005h.794c.04 0 .06.0201.06.0603v1.6988c0 .0603-.03.0804-.07.0904-.121.0403-.372.0704-.583.0704-1.156 0-1.558-.573-1.558-2.3723 0-1.9098.502-2.4828 1.658-2.4828zm7.042 1.739c0 .0402-.02.0603-.06.0603h-2.081c-.04 0-.06-.0201-.06-.0603v-2.6336c0-.0603-.041-.1005-.101-.1005h-1.136c-.06 0-.1.0402-.1.1005v6.6343c0 .0603.04.1005.1.1005h1.136c.06 0 .101-.0402.101-.1005v-2.8146c0-.0402.02-.0603.06-.0603h2.081c.04 0 .06.0201.06.0603v2.8146c0 .0603.04.1005.101.1005h1.146c.06 0 .1-.0402.1-.1005v-6.6343c0-.0603-.04-.1005-.1-.1005h-1.146c-.061 0-.101.0402-.101.1005zm4.007 4.0007c0 .0603.04.1005.1.1005h1.136c.06 0 .101-.0402.101-.1005v-5.5688c0-.0402.02-.0603.06-.0603h1.297c.06 0 .1-.0402.1-.1005v-.9047c0-.0603-.04-.1005-.1-.1005h-4.041c-.06 0-.101.0402-.101.1005v.9047c0 .0603.041.1005.101.1005h1.286c.041 0 .061.0201.061.0603z"/></g></svg>