<?xml version="1.0" encoding="UTF-8"?>
<svg width="35px" height="24px" viewBox="0 0 35 24" version="1.1" xmlns="http://www.w3.org/2000/svg" xmlns:xlink="http://www.w3.org/1999/xlink">
    <!-- Generator: Sketch 50.2 (55047) - http://www.bohemiancoding.com/sketch -->
    <title>Multi dispense</title>
    <desc>Created with Sketch.</desc>
    <defs>
        <polygon id="path-1" points="0 0.530221053 5.48537143 0.530221053 5.48537143 6.25564211 0 6.25564211"></polygon>
    </defs>
    <g id="Multi-dispense" stroke="none" stroke-width="1" fill="none" fill-rule="evenodd">
        <g id="Group-3" transform="translate(3.000000, 3.000000)">
            <g id="Group">
                <polygon id="Fill-2" fill="#000000" points="17.5638857 11.1930263 19.8663857 16 22.1688857 11.1930263"></polygon>
                <polygon id="Fill-2" fill="#000000" points="9.56388571 11.1930263 11.8663857 16 14.1688857 11.1930263"></polygon>
                <polygon id="Fill-3" fill="#000000" points="25.0999714 11.1930263 27.4024714 16 29.7049714 11.1930263"></polygon>
                <g id="Group-9" transform="translate(0.000000, 0.561805)">
                    <path d="M26.5638,10.7550947 L28.2780857,10.7550947 L28.2780857,8.70525263 L28.2832286,7.98409474 C28.2875143,7.53404211 28.2918,7.04283158 28.2780857,6.53730526 L28.2780857,6.33777895 C28.1855143,3.92109474 27.6309429,1.19035789 24.6163714,0.505884211 C23.6940857,0.295621053 22.9072286,0.313515789 22.2103714,0.557778947 C21.2820857,0.883463158 20.4755143,1.64667368 19.9389429,2.70693684 C19.8763714,2.82862105 19.8275143,2.95746316 19.7726571,3.08183158 C19.3235143,2.08867368 18.6240857,1.24135789 17.5192286,0.727778947 C16.0929429,0.0647789474 14.3855143,0.311726316 13.2703714,1.34335789 C12.6995143,1.87125263 12.2495143,2.59688421 11.9100857,3.5122 C11.0460857,1.60641053 9.61122857,0.496042105 7.69294286,0.348410526 C6.77837143,0.278621053 5.89894286,0.448621053 5.1558,0.842305263 C3.95922857,1.47577895 3.02922857,2.73914737 2.53808571,4.39798947 C2.11722857,5.81972632 1.88494286,7.48841053 1.88494286,9.09804211 L1.88494286,9.59641053 C2.1618,9.52572632 2.44551429,9.47741053 2.74208571,9.47741053 C3.03951429,9.47741053 3.32322857,9.52572632 3.59922857,9.59641053 L3.59922857,9.09804211 C3.59922857,7.66288421 3.80408571,6.18209474 4.17608571,4.92677895 C4.38008571,4.23604211 4.88065714,2.99504211 5.93237143,2.43762105 C6.39608571,2.19246316 6.96094286,2.08688421 7.5678,2.13251579 C10.6715143,2.37141053 11.1352286,6.35298947 11.1352286,8.70525263 L11.1352286,10.7550947 L12.8495143,10.7550947 L12.8495143,9.09535789 C12.8469429,5.79825263 13.3706571,3.64104211 14.4069429,2.68277895 C15.0180857,2.11730526 16.0106571,1.98488421 16.8215143,2.36246316 C18.3875143,3.09077895 18.7415143,5.10841053 18.8229429,7.04551579 L18.8229429,10.7550947 L20.5372286,10.7550947 L20.5372286,9.09535789 C20.5629429,7.26204211 20.6298,5.16925263 21.4535143,3.54351579 C21.7792286,2.9002 22.2549429,2.43046316 22.7563714,2.2542 C23.1515143,2.11641053 23.6400857,2.11551579 24.2520857,2.2542 C26.1446571,2.68456842 26.5158,4.28704211 26.5638,6.70551579 L26.5638,10.7550947 Z" id="Fill-4" fill="#000000"></path>
                    <g id="Group-8" transform="translate(0.000000, 8.842105)">
                        <mask id="mask-2" fill="white">
                            <use xlink:href="#path-1"></use>
                        </mask>
                        <g id="Clip-7"></g>
                        <path d="M2.74251429,0.530221053 C1.22794286,0.530221053 -0.000342857143,1.81237895 -0.000342857143,3.39337895 C-0.000342857143,4.97437895 1.22794286,6.25564211 2.74251429,6.25564211 C4.25708571,6.25564211 5.48537143,4.97437895 5.48537143,3.39337895 C5.48537143,1.81237895 4.25708571,0.530221053 2.74251429,0.530221053" id="Fill-6" fill="#000000" mask="url(#mask-2)"></path>
                    </g>
                </g>
            </g>
        </g>
    </g>
</svg>