<?xml version="1.0" encoding="UTF-8"?>
<svg width="35px" height="24px" viewBox="0 0 35 24" version="1.1" xmlns="http://www.w3.org/2000/svg" xmlns:xlink="http://www.w3.org/1999/xlink">
    <!-- Generator: Sketch 50.2 (55047) - http://www.bohemiancoding.com/sketch -->
    <title>Single Transfers</title>
    <desc>Created with Sketch.</desc>
    <defs>
        <polygon id="path-1" points="0 0 5.40909091 0 5.40909091 5.6 0 5.6"></polygon>
    </defs>
    <g id="Single-Transfers" stroke="none" stroke-width="1" fill="none" fill-rule="evenodd">
        <g id="Group-3" transform="translate(9.000000, 0.000000)">
            <g id="Group" transform="translate(0.000000, 4.000000)">
                <polygon id="Fill-1" fill="#000000" points="12.3636364 9.4 15.0681818 15 17.7727273 9.40141432 17.7727273 9.4"></polygon>
                <g id="Group-7">
                    <path d="M9.51272348,0.461555221 C7.71548864,0.3168101 6.20223106,0.781748973 5.01673864,1.845093 C3.13836742,3.52752005 2.43003409,6.44936636 2.21367045,9.12621119 C2.74298864,8.9889853 3.30321591,9.00840997 3.82223106,9.18887142 C4.06628409,6.28143696 4.85575379,4.11777938 6.10692803,2.99741454 C6.96014773,2.23295979 8.02908712,1.91276604 9.38007197,2.02242144 C13.523178,2.35577384 14.1413598,6.78459857 14.1413598,9.39502356 L15.7512083,9.39502356 C15.7512083,4.03694768 13.4774583,0.780495768 9.51272348,0.461555221" id="Fill-2" fill="#000000"></path>
                    <g id="Group-6" transform="translate(0.000000, 8.600000)">
                        <mask id="mask-2" fill="white">
                            <use xlink:href="#path-1"></use>
                        </mask>
                        <g id="Clip-5"></g>
                        <path d="M0.792178074,0.819559082 C1.84841551,-0.273186361 3.5606754,-0.273186361 4.61691284,0.819559082 C5.67315027,1.9131589 5.67315027,3.68598673 4.61691284,4.78044092 C3.5606754,5.87318636 1.84841551,5.87318636 0.792178074,4.78044092 C-0.264059358,3.68598673 -0.264059358,1.9131589 0.792178074,0.819559082" id="Fill-4" fill="#000000" mask="url(#mask-2)"></path>
                    </g>
                </g>
            </g>
        </g>
    </g>
</svg>