<?xml version="1.0" encoding="UTF-8"?>
<svg width="20px" height="21px" viewBox="0 0 20 21" version="1.1" xmlns="http://www.w3.org/2000/svg" xmlns:xlink="http://www.w3.org/1999/xlink">
    <!-- Generator: Sketch 45.2 (43514) - http://www.bohemiancoding.com/sketch -->
    <title>icon_filenew</title>
    <desc>Created with Sketch.</desc>
    <defs></defs>
    <g id="Design" stroke="none" stroke-width="1" fill="none" fill-rule="evenodd">
        <g id="Tablet" transform="translate(-103.000000, -35.000000)" fill="#9B9B9B">
            <g id="btn_filenew" transform="translate(96.000000, 27.000000)">
                <g id="icon_filenew" transform="translate(7.000000, 8.000000)">
                    <g id="Group">
                        <path d="M19.2038835,0.0385321101 C19.1262136,0.0385321101 19.0291262,0.0385321101 18.9514563,0.0385321101 C14.8349515,0.0385321101 7.41747573,0.0385321101 7.41747573,0.0385321101 C6.46601942,0.0385321101 5.51456311,0.0385321101 4.5631068,0.0385321101 C4.48543689,0.0385321101 4.38834951,0.0385321101 4.31067961,0.0385321101 C3.90291262,0.0770642202 3.61165049,0.346788991 3.61165049,0.751376147 C3.61165049,2.11926606 3.63106796,3.02477064 3.63106796,4.12293578 L4.99029126,4.12293578 C4.99029126,3.46788991 4.99029126,2.02293578 4.99029126,1.94587156 C4.99029126,1.75321101 4.99029126,1.56055046 4.99029126,1.36788991 C9.55339806,1.36788991 14.0582524,1.36788991 18.5825243,1.36788991 C18.5825243,1.48348624 18.5825243,1.59908257 18.5825243,1.69541284 C18.5825243,5.41376147 18.5825243,9.11284404 18.5825243,12.8311927 C18.5825243,13.7174312 18.0970874,14.1027523 17.4368932,14.2761468 C16.4660194,14.5458716 15.4563107,14.5458716 14.4466019,14.5651376 C14.0776699,14.5651376 13.8834951,14.7 13.8058252,15.046789 C13.7669903,15.2201835 13.7864078,15.7981651 13.7864078,15.9908257 C13.7281553,16.8577982 13.7475728,17.3779817 13.631068,18.2449541 C13.5145631,18.9963303 13.0873786,19.5550459 12.0970874,19.5357798 C9.84466019,19.5165138 5.12621359,19.5357798 4.99029126,19.5357798 C4.99029126,18.6688073 4.99029126,18.187156 4.99029126,17.3394495 C4.99029126,17.3394495 4.99029126,17.3394495 4.99029126,17.3394495 C4.99029126,17.3394495 4.99029126,17.3394495 4.99029126,17.3394495 L3.63106796,17.3394495 C3.63106796,18.2834862 3.63106796,19.0733945 3.61165049,20.0944954 C3.61165049,20.4990826 3.90291262,20.7880734 4.31067961,20.8073394 C4.38834951,20.8073394 4.48543689,20.8073394 4.5631068,20.8073394 C5.51456311,20.8073394 7.41747573,20.8073394 7.41747573,20.8073394 C9.2038835,20.8073394 10.7961165,20.8266055 12.815534,20.8073394 C13.4563107,20.8073394 14.0194175,20.5568807 14.4854369,20.1330275 C14.9514563,19.7091743 15.3980583,19.3045872 15.8252427,18.8422018 C16.6990291,17.9366972 17.5728155,17.0119266 18.4271845,16.087156 C18.7572816,15.740367 19.0485437,15.3743119 19.3203883,14.9889908 C19.6504854,14.5266055 19.8252427,13.9678899 19.8252427,13.3899083 C19.8640777,9.1706422 19.8640777,4.9706422 19.8834951,0.751376147 C19.9223301,0.346788991 19.631068,0.0577981651 19.2038835,0.0385321101 Z" id="Shape" fill-rule="nonzero"></path>
                        <path d="M7.41747573,15.4513761 C7.41747573,15.7788991 7.16504854,16.0293578 6.83495146,16.0293578 L4.17475728,16.0293578 C3.86407767,16.0293578 3.59223301,15.7788991 3.59223301,15.4513761 L3.59223301,12.5807339 L0.757281553,12.5807339 C0.446601942,12.5807339 0.174757282,12.3302752 0.174757282,12.0027523 L0.174757282,9.24770642 C0.174757282,8.93944954 0.446601942,8.66972477 0.757281553,8.66972477 L3.61165049,8.66972477 L3.61165049,5.83761468 C3.61165049,5.5293578 3.86407767,5.25963303 4.19417476,5.25963303 L6.83495146,5.25963303 C7.16504854,5.25963303 7.41747573,5.5293578 7.41747573,5.83761468 L7.41747573,8.72752294 L10.2912621,8.72752294 C10.6019417,8.72752294 10.8737864,8.99724771 10.8737864,9.30550459 L10.8737864,12.0605505 C10.8737864,12.3688073 10.6019417,12.6385321 10.2912621,12.6385321 L7.41747573,12.6385321 L7.41747573,15.4513761 Z" id="Shape" fill-rule="nonzero"></path>
                    </g>
                </g>
            </g>
        </g>
    </g>
</svg>