<svg width="56" height="63" viewBox="0 0 56 63" fill="none" xmlns="http://www.w3.org/2000/svg">
<path d="M33.2312 11.0228C33.3756 10.9706 33.5142 10.9071 33.6485 10.8315C33.8025 10.7451 33.9268 10.6224 33.9862 10.4523C34.0394 10.2988 34.035 10.0907 33.956 9.94544C33.793 9.64481 33.394 9.4562 33.0699 9.63794C32.9362 9.71322 32.7974 9.77683 32.6526 9.82919C32.5079 9.88154 32.3654 10.0641 32.315 10.2084C32.2617 10.3619 32.2661 10.5701 32.3451 10.7153C32.4243 10.8607 32.5553 11.0017 32.7244 11.053C32.9027 11.1065 33.0568 11.0858 33.2312 11.0228Z" fill="white"/>
<path d="M34.0544 10.9504C34.2159 10.8968 34.3799 10.8435 34.531 10.7642C34.6266 10.7142 34.7165 10.6541 34.8057 10.5931C34.8278 10.5781 35.0384 10.4409 34.9076 10.5209C35.2028 10.3403 35.3974 9.97141 35.2151 9.63478C35.0575 9.34382 34.6459 9.13353 34.329 9.32728C34.2266 9.38976 34.1283 9.45788 34.0298 9.52631C33.9188 9.60398 34.1089 9.50079 33.9524 9.57063C33.7959 9.64046 33.639 9.70237 33.4758 9.75683C33.1453 9.86673 33.0132 10.3558 33.1681 10.643C33.3577 10.9935 33.6999 11.0683 34.0544 10.9504Z" fill="white"/>
<path d="M33.6816 11.0625C33.7996 11.1349 34.1773 11.0574 34.4733 10.9139C34.7693 10.7705 35.3136 10.2714 35.3136 10.2714" fill="white"/>
<path d="M33.6816 11.0625C33.7996 11.1349 34.1773 11.0574 34.4733 10.9139C34.7693 10.7705 35.3136 10.2714 35.3136 10.2714" stroke="#231F20" stroke-width="0.4" stroke-linecap="round" stroke-linejoin="round"/>
<path d="M33.6816 11.0625C33.7996 11.1349 34.1773 11.0574 34.4733 10.9139C34.7693 10.7705 35.3136 10.2714 35.3136 10.2714" fill="white"/>
<path d="M33.6816 11.0625C33.7996 11.1349 34.1773 11.0574 34.4733 10.9139C34.7693 10.7705 35.3136 10.2714 35.3136 10.2714" stroke="#231F20" stroke-width="0.4" stroke-linecap="round" stroke-linejoin="round"/>
<path d="M34.073 10.2532C34.073 10.2532 33.8934 11.032 33.4915 11.1966C33.0897 11.3613 32.6113 11.1283 32.6113 11.1283L32.4925 11.0202" fill="white"/>
<path d="M34.073 10.2532C34.073 10.2532 33.8934 11.032 33.4915 11.1966C33.0897 11.3613 32.6113 11.1283 32.6113 11.1283L32.4925 11.0202" stroke="#231F20" stroke-width="0.4" stroke-linecap="round" stroke-linejoin="round"/>
<path d="M34.073 10.2532C34.073 10.2532 33.8934 11.032 33.4915 11.1966C33.0897 11.3613 32.6113 11.1283 32.6113 11.1283L32.4925 11.0202" fill="white"/>
<path d="M34.073 10.2532C34.073 10.2532 33.8934 11.032 33.4915 11.1966C33.0897 11.3613 32.6113 11.1283 32.6113 11.1283L32.4925 11.0202" stroke="#231F20" stroke-width="0.4" stroke-linecap="round" stroke-linejoin="round"/>
<path d="M32.8193 10.5826C32.8193 10.5826 32.6009 10.9996 32.3187 11.1031C32.0363 11.2067 31.9552 11.1416 31.9552 11.1416C31.9552 11.1416 31.6372 11.0344 31.5006 10.7185" fill="white"/>
<path d="M32.8193 10.5826C32.8193 10.5826 32.6009 10.9996 32.3187 11.1031C32.0363 11.2067 31.9552 11.1416 31.9552 11.1416C31.9552 11.1416 31.6372 11.0344 31.5006 10.7185" stroke="#231F20" stroke-width="0.4" stroke-linecap="round" stroke-linejoin="round"/>
<path d="M32.8193 10.5826C32.8193 10.5826 32.6009 10.9996 32.3187 11.1031C32.0363 11.2067 31.9552 11.1416 31.9552 11.1416C31.9552 11.1416 31.6372 11.0344 31.5006 10.7185" fill="white"/>
<path d="M32.8193 10.5826C32.8193 10.5826 32.6009 10.9996 32.3187 11.1031C32.0363 11.2067 31.9552 11.1416 31.9552 11.1416C31.9552 11.1416 31.6372 11.0344 31.5006 10.7185" stroke="#231F20" stroke-width="0.4" stroke-linecap="round" stroke-linejoin="round"/>
<path d="M33.6816 11.0625C33.7996 11.1349 34.1773 11.0574 34.4733 10.9139C34.7693 10.7705 35.3136 10.2714 35.3136 10.2714" fill="white"/>
<path d="M33.6816 11.0625C33.7996 11.1349 34.1773 11.0574 34.4733 10.9139C34.7693 10.7705 35.3136 10.2714 35.3136 10.2714" stroke="#231F20" stroke-width="0.4" stroke-linecap="round" stroke-linejoin="round"/>
<path d="M34.073 10.2532C34.073 10.2532 33.8934 11.032 33.4915 11.1966C33.0897 11.3613 32.6113 11.1283 32.6113 11.1283L32.4925 11.0202" fill="white"/>
<path d="M34.073 10.2532C34.073 10.2532 33.8934 11.032 33.4915 11.1966C33.0897 11.3613 32.6113 11.1283 32.6113 11.1283L32.4925 11.0202" stroke="#231F20" stroke-width="0.4" stroke-linecap="round" stroke-linejoin="round"/>
<path d="M30.4208 44.4174C30.3666 44.374 30.3464 44.314 30.3464 44.2668L30.3483 40.0372L29.889 40.2306L29.889 39.8437L29.4 40.0497L29.3965 43.9902L29.8558 44.1803L29.8558 44.1839L30.4208 44.4176L30.4208 44.4174Z" fill="#2D2D2D" stroke="#231F20" stroke-width="0.4" stroke-linecap="round" stroke-linejoin="round"/>
<path d="M22.3076 54.0227L20.236 53.1633C20.1973 53.1471 20.1572 53.1497 20.1232 53.1654C20.0892 53.181 19.9681 53.2507 19.9375 53.2751C19.9069 53.2995 19.8848 53.3391 19.8848 53.3844L19.8848 54.5366C19.8848 54.6547 19.9555 54.7616 20.0643 54.8078L22.1364 55.6877C22.1803 55.7064 22.2266 55.7007 22.2632 55.6789C22.291 55.6623 22.4021 55.6012 22.4323 55.5789C22.466 55.5538 22.4885 55.5139 22.4885 55.4668L22.4885 54.2934C22.4885 54.1749 22.4171 54.0683 22.3076 54.0227Z" fill="#A5A4A4" stroke="#231F20" stroke-width="0.4" stroke-linecap="round" stroke-linejoin="round"/>
<path d="M22.1506 54.1126L20.079 53.2531C19.9866 53.2147 19.8848 53.2825 19.8848 53.3825L19.8848 54.5347C19.8848 54.6528 19.9555 54.7597 20.0643 54.8059L22.1364 55.6858C22.229 55.7251 22.3318 55.6573 22.3318 55.5568L22.3318 54.3835C22.3318 54.265 22.2603 54.1583 22.1508 54.1128L22.1506 54.1126Z" fill="#CFCFCE" stroke="#231F20" stroke-width="0.4" stroke-linecap="round" stroke-linejoin="round"/>
<path d="M21.7073 47.0139C21.5629 47.0746 21.401 47.0756 21.2559 47.0175L21.2559 54.9454L21.7847 54.719L21.7847 53.9676L21.8612 53.9349L21.8612 46.9492L21.7073 47.0139Z" fill="#2D2D2D" stroke="#231F20" stroke-width="0.4" stroke-linecap="round" stroke-linejoin="round"/>
<path d="M21.2412 47.0096L19.9258 46.4414L19.9258 54.37L21.2559 54.9437L21.2559 47.0158C21.2509 47.0139 21.246 47.012 21.2412 47.0098L21.2412 47.0096Z" fill="#444545" stroke="#231F20" stroke-width="0.4" stroke-linecap="round" stroke-linejoin="round"/>
<path d="M20.5857 54.2555C20.5648 54.2022 20.5277 54.1621 20.4888 54.1445C20.4871 54.145 20.4852 54.1455 20.4835 54.1462C20.4379 54.164 20.422 54.2325 20.4481 54.2989C20.4743 54.3653 20.5325 54.4047 20.5781 54.3869C20.5859 54.3838 20.5931 54.3791 20.599 54.3731C20.6057 54.3383 20.6019 54.2966 20.5857 54.2555Z" fill="#2D2D2D" stroke="#231F20" stroke-width="0.4" stroke-linecap="round" stroke-linejoin="round"/>
<path d="M20.4902 54.1445C20.5294 54.1621 20.5663 54.2019 20.5872 54.2555C20.6033 54.2966 20.6071 54.3381 20.6005 54.3731" fill="#2D2D2D"/>
<path d="M20.4902 54.1445C20.5294 54.1621 20.5663 54.2019 20.5872 54.2555C20.6033 54.2966 20.6071 54.3381 20.6005 54.3731" stroke="#231F20" stroke-width="0.4" stroke-linecap="round" stroke-linejoin="round"/>
<path d="M20.5998 54.3712C20.5936 54.3772 20.5867 54.3819 20.5789 54.385C20.5333 54.4028 20.475 54.3634 20.4489 54.297C20.4228 54.2306 20.4385 54.1623 20.4843 54.1443C20.486 54.1436 20.4879 54.1431 20.4895 54.1426C20.4648 54.1317 20.4394 54.1293 20.4164 54.1384C20.3565 54.1618 20.3358 54.2512 20.37 54.3383C20.4042 54.4253 20.4805 54.4768 20.5401 54.4535C20.5717 54.4412 20.5922 54.4104 20.5998 54.3712Z" fill="#2D2D2D" stroke="#231F20" stroke-width="0.4" stroke-linecap="round" stroke-linejoin="round"/>
<path d="M28.9775 51.1985L26.9059 50.339C26.8672 50.3229 26.8271 50.3255 26.7931 50.3412C26.7592 50.3568 26.638 50.4265 26.6074 50.4509C26.5768 50.4753 26.5547 50.5149 26.5547 50.5602L26.5547 51.7124C26.5547 51.8305 26.6255 51.9374 26.7342 51.9836L28.8063 52.8635C28.8502 52.8822 28.8965 52.8765 28.9331 52.8547C28.9609 52.8381 29.072 52.777 29.1022 52.7547C29.1359 52.7295 29.1585 52.6897 29.1585 52.6426L29.1585 51.4692C29.1585 51.3507 29.087 51.244 28.9775 51.1985Z" fill="#A5A4A4" stroke="#231F20" stroke-width="0.4" stroke-linecap="round" stroke-linejoin="round"/>
<path d="M28.5156 52.7383L28.7874 52.8538" stroke="#231F20" stroke-width="0.4" stroke-miterlimit="10"/>
<path d="M28.8205 51.2923L26.7489 50.4328C26.6566 50.3944 26.5547 50.4622 26.5547 50.5622L26.5547 51.7144C26.5547 51.8325 26.6255 51.9394 26.7342 51.9856L28.8063 52.8655C28.8989 52.9048 29.0017 52.837 29.0017 52.7365L29.0017 51.5632C29.0017 51.4447 28.9302 51.338 28.8208 51.2925L28.8205 51.2923Z" fill="#CFCFCE" stroke="#231F20" stroke-width="0.4" stroke-linecap="round" stroke-linejoin="round"/>
<path d="M28.5585 52.6375L26.804 51.9103C26.7097 51.8712 26.6484 51.7794 26.6484 51.6778C26.6484 51.5595 26.7688 51.4791 26.8783 51.5246L28.6329 52.2519C28.7271 52.291 28.7884 52.3827 28.7884 52.4844C28.7884 52.6027 28.668 52.683 28.5585 52.6375Z" fill="#444545" stroke="#231F20" stroke-width="0.4" stroke-linecap="round" stroke-linejoin="round"/>
<path d="M28.6924 52.2322L26.9379 51.505C26.8885 51.4844 26.8367 51.4899 26.7949 51.5126C26.822 51.5093 26.8505 51.5126 26.8783 51.5242L28.6328 52.2515C28.7271 52.2906 28.7884 52.3823 28.7884 52.484C28.7884 52.5487 28.752 52.602 28.7014 52.6295C28.781 52.62 28.848 52.553 28.848 52.4648C28.848 52.3631 28.7867 52.2714 28.6924 52.2322Z" fill="#2D2D2D" stroke="#231F20" stroke-width="0.4" stroke-linecap="round" stroke-linejoin="round"/>
<path d="M28.5159 44.145L28.5159 51.0081L28.9763 51.1992C29.0393 51.2252 29.0896 51.2717 29.121 51.3288L29.121 43.8906L28.5156 44.145L28.5159 44.145Z" fill="#2D2D2D" stroke="#231F20" stroke-width="0.4" stroke-linecap="round" stroke-linejoin="round"/>
<path d="M27.1914 44.6996L27.1914 50.4425L28.5216 51.0161L28.5216 44.1406L27.1914 44.6996Z" fill="#444545" stroke="#231F20" stroke-width="0.4" stroke-linecap="round" stroke-linejoin="round"/>
<path d="M28.2283 48.5641C28.2074 48.5108 28.1703 48.4707 28.1313 48.4531C28.1297 48.4536 28.1278 48.4541 28.1261 48.4548C28.0805 48.4726 28.0646 48.5411 28.0907 48.6075C28.1168 48.6739 28.1751 48.7133 28.2207 48.6955C28.2285 48.6924 28.2356 48.6877 28.2416 48.6817C28.2482 48.6469 28.2444 48.6051 28.2283 48.5641Z" fill="#2D2D2D" stroke="#231F20" stroke-width="0.4" stroke-linecap="round" stroke-linejoin="round"/>
<path d="M28.1328 48.4531C28.172 48.4707 28.2088 48.5105 28.2298 48.5641C28.2459 48.6051 28.2497 48.6466 28.2431 48.6817" fill="#2D2D2D"/>
<path d="M28.1328 48.4531C28.172 48.4707 28.2088 48.5105 28.2298 48.5641C28.2459 48.6051 28.2497 48.6466 28.2431 48.6817" stroke="#231F20" stroke-width="0.4" stroke-linecap="round" stroke-linejoin="round"/>
<path d="M28.2424 48.6798C28.2362 48.6858 28.2293 48.6905 28.2215 48.6936C28.1758 48.7114 28.1176 48.672 28.0915 48.6056C28.0653 48.5392 28.081 48.4709 28.1269 48.4529C28.1285 48.4522 28.1305 48.4517 28.1321 48.4512C28.1074 48.4403 28.082 48.4379 28.0589 48.4469C27.9991 48.4704 27.9784 48.5598 28.0126 48.6469C28.0468 48.7339 28.1231 48.7854 28.1827 48.7621C28.2143 48.7498 28.2348 48.719 28.2424 48.6798Z" fill="#2D2D2D" stroke="#231F20" stroke-width="0.4" stroke-linecap="round" stroke-linejoin="round"/>
<path d="M27.7916 51.3006C27.7776 51.265 27.7529 51.2382 27.727 51.2266C27.7258 51.2268 27.7246 51.2273 27.7234 51.2277C27.693 51.2396 27.6823 51.2854 27.6999 51.3297C27.7172 51.3741 27.7562 51.4004 27.7866 51.3883C27.7918 51.3862 27.7966 51.3831 27.8006 51.3791C27.8051 51.3558 27.8025 51.3281 27.7918 51.3006L27.7916 51.3006Z" fill="#2D2D2D" stroke="#231F20" stroke-width="0.4" stroke-linecap="round" stroke-linejoin="round"/>
<path d="M27.7266 51.2266C27.7527 51.2382 27.7772 51.265 27.7912 51.3006C27.8019 51.3281 27.8045 51.3556 27.8 51.3791" fill="#2D2D2D"/>
<path d="M27.7266 51.2266C27.7527 51.2382 27.7772 51.265 27.7912 51.3006C27.8019 51.3281 27.8045 51.3556 27.8 51.3791" stroke="#231F20" stroke-width="0.4" stroke-linecap="round" stroke-linejoin="round"/>
<path d="M27.801 51.3778C27.7969 51.3818 27.7922 51.3849 27.787 51.387C27.7565 51.3989 27.7176 51.3728 27.7002 51.3284C27.6829 51.2841 27.6933 51.2386 27.7238 51.2265C27.7249 51.226 27.7261 51.2258 27.7273 51.2253C27.7109 51.2179 27.6938 51.2165 27.6786 51.2224C27.6387 51.2381 27.6249 51.2978 27.6477 51.356C27.6705 51.4141 27.7214 51.4484 27.7613 51.4328C27.7824 51.4245 27.796 51.4039 27.801 51.3778Z" fill="#2D2D2D" stroke="#231F20" stroke-width="0.4" stroke-linecap="round" stroke-linejoin="round"/>
<path d="M19.3837 42.8408C19.297 42.8773 19.2965 42.9996 19.3827 43.0371L21.251 43.8442C21.3997 43.9084 21.5681 43.9091 21.7172 43.8465L29.6653 40.5129C29.6846 40.5048 29.6848 40.4775 29.6656 40.4693L27.4864 39.5199C27.4147 39.4886 27.3335 39.4882 27.2615 39.5185L19.3837 42.8408Z" fill="#A5A4A4" stroke="#231F20" stroke-width="0.4" stroke-linecap="round" stroke-linejoin="round"/>
<path d="M29.8474 40.1565L29.8671 18.9219C29.8671 18.9219 19.9113 18.9411 19.9113 18.9219L19.9113 18.9785C19.8313 18.9776 19.7881 18.9764 19.7881 18.9752L19.7871 41.5325L19.7871 42.8879L19.7876 42.9023C19.79 42.931 19.8066 42.9585 19.8377 42.972L21.3058 43.6049C21.4227 43.6552 21.5549 43.6559 21.672 43.6066L22.1821 43.3918C22.1821 43.3918 22.1831 43.3916 22.1836 43.3913L27.2368 41.2637L29.7387 40.2103L29.7353 40.2103C29.8154 40.1767 29.8619 40.157 29.8619 40.157L29.8469 40.157L29.8474 40.1565Z" fill="#444545" stroke="#231F20" stroke-width="0.4" stroke-linecap="round" stroke-linejoin="round"/>
<path d="M29.675 40.5019C29.6907 40.4953 29.7081 40.5069 29.7081 40.5237L29.7081 44.4545C29.7081 44.5308 29.6622 44.5995 29.5917 44.6292L21.7188 47.9372C21.5697 48.0001 21.4013 47.9991 21.2527 47.9349L19.3844 47.1278C19.344 47.1102 19.3229 47.0742 19.3205 47.037L19.3205 47.0225C19.3203 47.0273 19.3203 47.032 19.3205 47.037L19.3205 42.9438C19.3226 42.9813 19.3438 43.0178 19.3844 43.0353L21.2527 43.8424C21.4013 43.9067 21.5697 43.9074 21.7188 43.8448L29.675 40.5017L29.675 40.5019Z" fill="#CFCFCE"/>
<path d="M19.3205 47.037C19.3229 47.0742 19.344 47.1102 19.3844 47.1278L21.2527 47.9349C21.4013 47.9991 21.5697 48.0001 21.7188 47.9372L29.5917 44.6292C29.6622 44.5995 29.7081 44.5308 29.7081 44.4545L29.7081 40.5237C29.7081 40.5069 29.6907 40.4953 29.675 40.5019L29.675 40.5017L21.7188 43.8448C21.5697 43.9074 21.4013 43.9067 21.2527 43.8424L19.3844 43.0353C19.3438 43.0178 19.3226 42.9813 19.3205 42.9438L19.3205 47.037ZM19.3205 47.037L19.3205 47.0225C19.3203 47.0273 19.3203 47.032 19.3205 47.037Z" stroke="#231F20" stroke-width="0.4" stroke-linecap="round" stroke-linejoin="round"/>
<path d="M20.3184 43.4414L20.3184 47.5315" stroke="#231F20" stroke-width="0.4" stroke-linecap="round" stroke-linejoin="round"/>
<path d="M26.36 45.3669L24.8465 45.9879C24.5779 46.0981 24.2832 45.9009 24.2832 45.6112C24.2832 45.1789 24.5447 44.7892 24.9455 44.6247L26.459 44.0037C26.7276 43.8934 27.0223 44.0907 27.0223 44.3803C27.0223 44.8127 26.7609 45.2024 26.36 45.3669Z" fill="#A5A4A4" stroke="#231F20" stroke-width="0.4" stroke-linecap="round" stroke-linejoin="round"/>
<path d="M26.5804 44.1554C26.5804 44.0919 26.5662 44.0329 26.5415 43.9805C26.5147 43.9854 26.4876 43.9933 26.461 44.0044L24.9475 44.6254C24.5469 44.79 24.2852 45.1796 24.2852 45.612C24.2852 45.6755 24.2994 45.7345 24.3241 45.7869C24.3509 45.7819 24.378 45.7741 24.4046 45.763L25.9181 45.1419C26.3187 44.9774 26.5804 44.5878 26.5804 44.1554Z" fill="#CFCFCE" stroke="#231F20" stroke-width="0.4" stroke-linecap="round" stroke-linejoin="round"/>
<path d="M24.2852 45.6079C24.2852 45.4164 24.3368 45.2332 24.4287 45.0743L24.4287 44.2148L23.6523 44.2148L23.6523 45.7177L24.3007 45.7177C24.2909 45.683 24.2852 45.6463 24.2852 45.6079Z" fill="#CFCFCE"/>
<path d="M24.4496 45.0391L24.4287 45.0727C24.3365 45.2316 24.2852 45.4149 24.2852 45.6066C24.2852 45.645 24.2909 45.6817 24.3006 45.7164" fill="#CFCFCE"/>
<path d="M24.4496 45.0391L24.4287 45.0727C24.3365 45.2316 24.2852 45.4149 24.2852 45.6066C24.2852 45.645 24.2909 45.6817 24.3006 45.7164" stroke="#231F20" stroke-width="0.4" stroke-linecap="round" stroke-linejoin="round"/>
<path d="M21.7233 43.6054L29.8615 40.1788L29.866 35.2773C29.866 35.2773 19.9102 35.2965 19.9102 35.2773L19.9102 43.0227L21.2569 43.6035C21.4056 43.6675 21.574 43.6682 21.7231 43.6054L21.7233 43.6054Z" fill="white" stroke="#231F20" stroke-width="0.4" stroke-linecap="round" stroke-linejoin="round"/>
<path d="M35.1307 7.39971L32.9945 6.49257C32.8843 6.47408 32.7701 6.48688 32.6656 6.53097L19.3876 12.1305C19.3009 12.167 19.3004 12.2893 19.3866 12.3265L21.2549 13.1336C21.4036 13.1978 21.572 13.1986 21.7211 13.136L34.8853 7.6147C35.0376 7.5507 35.2335 7.51277 35.3943 7.56113L35.5569 7.62442L35.1304 7.39947L35.1307 7.39971Z" fill="#F9F9FA" stroke="#231F20" stroke-width="0.4" stroke-linecap="round" stroke-linejoin="round"/>
<path d="M19.3254 12.2492L19.3242 42.6903L19.3247 42.7085C19.3278 42.745 19.3489 42.7801 19.3886 42.7972L21.2576 43.6029C21.4062 43.6669 21.5746 43.6676 21.7238 43.6048L30.3511 39.9722L30.3492 44.2019C30.3492 44.3377 30.4879 44.4294 30.6133 44.3766L31.0341 44.1988C31.2184 44.1208 31.3383 43.9404 31.3383 43.7406L31.3397 39.556L31.3416 39.5605L31.3438 37.5549L31.3497 32.114C31.3497 32.1128 31.3585 31.4003 31.3585 30.8022C31.3585 29.4279 32.1968 28.2491 33.3911 27.7475L33.5676 27.6733L35.2153 26.9807C35.2316 26.9746 35.2478 26.9677 35.2637 26.9603L35.3922 26.9063C35.6308 26.8181 35.8118 26.5908 35.8123 26.3061L35.8353 8.2442C35.8353 7.9709 35.7881 7.73789 35.5589 7.62435L35.3962 7.56106C35.2354 7.51247 35.0397 7.55063 34.8873 7.61463L21.723 13.1359C21.5739 13.1987 21.4055 13.1978 21.2569 13.1335L19.3886 12.3264C19.3501 12.3082 19.3261 12.2733 19.3261 12.2489" fill="#CFCFCE"/>
<path d="M19.3254 12.2492L19.3242 42.6903L19.3247 42.7085C19.3278 42.745 19.3489 42.7801 19.3886 42.7972L21.2576 43.6029C21.4062 43.6669 21.5746 43.6676 21.7238 43.6048L30.3511 39.9722L30.3492 44.2019C30.3492 44.3377 30.4879 44.4294 30.6133 44.3766L31.0341 44.1988C31.2184 44.1208 31.3383 43.9404 31.3383 43.7406L31.3397 39.556L31.3416 39.5605L31.3438 37.5549L31.3497 32.114C31.3497 32.1128 31.3585 31.4003 31.3585 30.8022C31.3585 29.4279 32.1968 28.2491 33.3911 27.7475L33.5676 27.6733L35.2153 26.9807C35.2316 26.9746 35.2478 26.9677 35.2637 26.9603L35.3922 26.9063C35.6308 26.8181 35.8118 26.5908 35.8123 26.3061L35.8353 8.2442C35.8353 7.9709 35.7881 7.73789 35.5589 7.62435L35.3962 7.56106C35.2354 7.51247 35.0397 7.55063 34.8873 7.61463L21.723 13.1359C21.5739 13.1987 21.4055 13.1978 21.2569 13.1335L19.3886 12.3264C19.3501 12.3082 19.3261 12.2733 19.3261 12.2489" stroke="#231F20" stroke-width="0.4" stroke-linecap="round" stroke-linejoin="round"/>
<path d="M31.853 7.07108L20.6095 11.8128C20.6095 11.8128 20.6095 11.8128 20.6093 11.8128L19.7273 12.1847C19.7004 12.196 19.7002 12.234 19.727 12.2456L21.3367 12.941C21.4467 12.9723 21.5645 12.9664 21.6711 12.9216L23.1029 12.32C23.1029 12.32 23.1031 12.32 23.1034 12.32L34.7304 7.43209C34.8391 7.38634 34.9569 7.36738 35.0735 7.37615L33.1114 6.54297L31.8946 7.05615C31.8805 7.06066 31.8668 7.06563 31.8532 7.07132L31.853 7.07108Z" fill="#444545" stroke="#F9F9FA" stroke-width="0.2" stroke-linecap="round" stroke-linejoin="round"/>
<path d="M31.0756 30.6429C31.1685 30.4364 31.136 30.2207 31.0031 30.1611C30.8701 30.1015 30.6869 30.2205 30.594 30.427C30.5011 30.6334 30.5336 30.8491 30.6666 30.9087C30.7996 30.9684 30.9827 30.8493 31.0756 30.6429Z" fill="#CFCFCE" stroke="#231F20" stroke-width="0.4" stroke-linecap="round" stroke-linejoin="round"/>
<path d="M30.9158 30.5719C30.9448 30.5075 30.9346 30.4402 30.8931 30.4216C30.8515 30.403 30.7943 30.4401 30.7654 30.5045C30.7364 30.5689 30.7466 30.6362 30.7881 30.6548C30.8296 30.6734 30.8868 30.6363 30.9158 30.5719Z" fill="#CFCFCE" stroke="#231F20" stroke-width="0.4" stroke-linecap="round" stroke-linejoin="round"/>
<path d="M31.0776 40.9866C31.1705 40.7802 31.138 40.5645 31.005 40.5049C30.872 40.4452 30.6889 40.5643 30.596 40.7707C30.5031 40.9772 30.5355 41.1929 30.6685 41.2525C30.8015 41.3121 30.9846 41.1931 31.0776 40.9866Z" stroke="#231F20" stroke-width="0.4" stroke-linecap="round" stroke-linejoin="round"/>
<path d="M30.9177 40.9157C30.9467 40.8513 30.9365 40.784 30.895 40.7654C30.8535 40.7467 30.7963 40.7838 30.7673 40.8482C30.7383 40.9126 30.7485 40.9799 30.7901 40.9986C30.8316 41.0172 30.8888 40.9801 30.9177 40.9157Z" stroke="#231F20" stroke-width="0.4" stroke-linecap="round" stroke-linejoin="round"/>
<line y1="-0.1" x2="2.4827" y2="-0.1" transform="matrix(0.924934 0.380127 -0.381373 0.924421 32.877 6.49219)" stroke="#231F20" stroke-width="0.2"/>
<line y1="-0.1" x2="2.4827" y2="-0.1" transform="matrix(0.924934 0.380127 -0.381373 0.924421 32.877 6.5625)" stroke="#231F20" stroke-width="0.2"/>
</svg>
