<?xml version="1.0" encoding="UTF-8"?>
<svg width="35px" height="24px" viewBox="0 0 35 24" version="1.1" xmlns="http://www.w3.org/2000/svg" xmlns:xlink="http://www.w3.org/1999/xlink">
    <!-- Generator: Sketch 50.2 (55047) - http://www.bohemiancoding.com/sketch -->
    <title>Multi aspirate</title>
    <desc>Created with Sketch.</desc>
    <defs>
        <polygon id="path-1" points="0 0.510178947 5.48545714 0.510178947 5.48545714 6.23649474 0 6.23649474"></polygon>
    </defs>
    <g id="Multi-aspirate" stroke="none" stroke-width="1" fill="none" fill-rule="evenodd">
        <g id="Group-3" transform="translate(3.000000, 3.000000)">
            <g id="Group">
                <polygon id="Fill-1" fill="#000000" points="25 10.5 27.4958429 15.7095772 29.9906874 10.5"></polygon>
                <g id="Group-11" transform="translate(0.000000, 0.561537)">
                    <path d="M27.8678571,4.39870526 C27.3767143,2.73986316 26.4467143,1.47649474 25.2492857,0.842126316 C24.507,0.448442105 23.6292857,0.278442105 22.7121429,0.349126316 C20.7947143,0.495863158 19.3598571,1.60623158 18.4958571,3.51202105 C18.1555714,2.59670526 17.7064286,1.87107368 17.1355714,1.34317895 C16.0204286,0.312442105 14.3121429,0.0654947368 12.8858571,0.7276 C11.7818571,1.24117895 11.0824286,2.08849474 10.6341429,3.08254737 C10.5784286,2.95728421 10.5287143,2.82933684 10.467,2.70675789 C9.92957143,1.64649474 9.123,0.883284211 8.19471429,0.558494737 C7.49871429,0.313336842 6.711,0.296336842 5.78957143,0.5066 C2.775,1.19107368 2.22128571,3.92181053 2.133,6.3376 L2.12785714,6.3376 L2.12785714,6.53802105 C2.11414286,7.04354737 2.11757143,7.53386316 2.12271429,7.98391579 L2.12785714,8.70507368 L2.12785714,9.52286316 C2.32842857,9.48617895 2.53157143,9.45754737 2.74242857,9.45754737 C3.12814286,9.45754737 3.49328571,9.53807368 3.84214286,9.65528421 L3.84214286,6.70623158 C3.88928571,4.28686316 4.26128571,2.68438947 6.15385714,2.25491579 C6.765,2.11623158 7.25528571,2.11533684 7.64871429,2.25402105 C8.151,2.43028421 8.62585714,2.90002105 8.95242857,3.54333684 C9.77614286,5.16907368 9.843,7.26186316 9.84128571,9.09607368 L9.86871429,9.09607368 L9.86871429,9.53270526 C10.0984286,9.48438947 10.335,9.45754737 10.5784286,9.45754737 C10.929,9.45754737 11.2615714,9.52644211 11.583,9.62486316 L11.583,7.03549474 C11.6644286,5.10823158 12.0184286,3.0906 13.5835714,2.36228421 C14.3952857,1.98649474 15.3878571,2.11802105 15.999,2.68349474 C17.0352857,3.64086316 17.559,5.79807368 17.5555714,9.09607368 L17.5564286,9.09607368 L17.5564286,9.57744211 C17.8324286,9.50586316 18.117,9.45754737 18.4135714,9.45754737 C18.7101429,9.45754737 18.9938571,9.50586316 19.2707143,9.57744211 L19.2707143,8.70507368 C19.2707143,6.35281053 19.7335714,2.37123158 22.8381429,2.13323158 C23.4432857,2.08849474 24.0098571,2.19138947 24.4735714,2.43744211 C25.5252857,2.99575789 26.0258571,4.23675789 26.2298571,4.92749474 C26.5864286,6.13181053 26.8058571,8.98154737 26.8058571,10.4936526 L28.5201429,10.4936526 C28.5201429,9.13633684 28.329,5.95554737 27.8678571,4.39870526" id="Fill-2" fill="#000000"></path>
                    <path d="M13.3206857,12.2154421 C13.3206857,13.7964421 12.0924,15.0786 10.5778286,15.0786 C9.06325714,15.0786 7.83582857,13.7964421 7.83582857,12.2154421 C7.83582857,10.6344421 9.06325714,9.35228421 10.5778286,9.35228421 C12.0924,9.35228421 13.3206857,10.6344421 13.3206857,12.2154421" id="Fill-4" fill="#000000"></path>
                    <g id="Group-8" transform="translate(0.000000, 8.842105)">
                        <mask id="mask-2" fill="white">
                            <use xlink:href="#path-1"></use>
                        </mask>
                        <g id="Clip-7"></g>
                        <path d="M5.48545714,3.37333684 C5.48545714,4.95433684 4.25717143,6.23649474 2.7426,6.23649474 C1.22802857,6.23649474 -0.000257142857,4.95433684 -0.000257142857,3.37333684 C-0.000257142857,1.79233684 1.22802857,0.510178947 2.7426,0.510178947 C4.25717143,0.510178947 5.48545714,1.79233684 5.48545714,3.37333684" id="Fill-6" fill="#000000" mask="url(#mask-2)"></path>
                    </g>
                    <path d="M21.1601143,12.2154421 C21.1601143,13.7964421 19.9318286,15.0786 18.4172571,15.0786 C16.9026857,15.0786 15.6752571,13.7964421 15.6752571,12.2154421 C15.6752571,10.6344421 16.9026857,9.35228421 18.4172571,9.35228421 C19.9318286,9.35228421 21.1601143,10.6344421 21.1601143,12.2154421" id="Fill-9" fill="#000000"></path>
                </g>
            </g>
        </g>
    </g>
</svg>