<?xml version="1.0" encoding="UTF-8"?>
<svg width="19px" height="21px" viewBox="0 0 19 21" version="1.1" xmlns="http://www.w3.org/2000/svg" xmlns:xlink="http://www.w3.org/1999/xlink">
    <!-- Generator: Sketch 46.2 (44496) - http://www.bohemiancoding.com/sketch -->
    <title>icon_power</title>
    <desc>Created with Sketch.</desc>
    <defs></defs>
    <g id="Design" stroke="none" stroke-width="1" fill="none" fill-rule="evenodd">
        <g id="Tablet" transform="translate(-26.000000, -721.000000)" fill="#9B9B9B">
            <g id="connection" transform="translate(0.000000, 695.000000)">
                <g id="icon_power" transform="translate(26.000000, 26.000000)">
                    <g id="Group">
                        <path d="M13.4676471,2.38899083 C16.8764706,4.00733945 19.3539216,7.99541284 18.7392157,12.5229358 C18.0872549,17.2816514 14.1941176,20.8458716 9.5372549,20.8844037 C4.91764706,20.9229358 1.09901961,17.5899083 0.223529412,13.1201835 C-0.726470588,8.24587156 1.91862745,4.06513761 5.38333333,2.40825688 C5.38333333,2.44678899 5.40196078,2.50458716 5.40196078,2.54311927 C5.40196078,3.52568807 5.40196078,4.50825688 5.40196078,5.49082569 C5.40196078,5.62568807 5.32745098,5.68348624 5.25294118,5.7412844 C4.43333333,6.41559633 3.8,7.22477064 3.35294118,8.20733945 C2.75686275,9.51743119 2.57058824,10.866055 2.79411765,12.2917431 C3.01764706,13.7559633 3.65098039,15.0275229 4.65686275,16.0678899 C5.55098039,16.9926606 6.6127451,17.6284404 7.84215686,17.9174312 C9.89117647,18.3990826 11.772549,18.0137615 13.4676471,16.7036697 C14.827451,15.6440367 15.7029412,14.2568807 16.0009804,12.5229358 C16.4666667,9.86422018 15.7029412,7.6293578 13.7284314,5.83761468 C13.5235294,5.64495413 13.4490196,5.49082569 13.4490196,5.22110092 C13.4676471,4.35412844 13.4490196,3.48715596 13.4490196,2.60091743 C13.4676471,2.52385321 13.4676471,2.46605505 13.4676471,2.38899083 Z" id="Shape" fill-rule="nonzero"></path>
                        <path d="M10.7666667,5.58715596 C10.7666667,6.93577982 10.7666667,8.30366972 10.7666667,9.65229358 C10.7666667,10.2495413 10.5431373,10.6926606 10.0401961,10.9816514 C9.23921569,11.4247706 8.19607843,10.866055 8.12156863,9.92201835 C8.10294118,9.82568807 8.10294118,9.7293578 8.10294118,9.63302752 C8.10294118,6.93577982 8.10294118,4.21926606 8.10294118,1.52201835 C8.10294118,1.04036697 8.23333333,0.635779817 8.60588235,0.327522936 C9.01568627,8.29544766e-15 9.4627451,-0.0770642202 9.94705882,0.134862385 C10.4127451,0.327522936 10.6921569,0.712844037 10.7666667,1.23302752 C10.7852941,1.34862385 10.7852941,1.46422018 10.7852941,1.57981651 C10.7666667,2.90917431 10.7666667,4.25779817 10.7666667,5.58715596 Z" id="Shape" fill-rule="nonzero"></path>
                    </g>
                </g>
            </g>
        </g>
    </g>
</svg>