<?xml version="1.0" encoding="UTF-8"?>
<svg width="20px" height="21px" viewBox="0 0 20 21" version="1.1" xmlns="http://www.w3.org/2000/svg" xmlns:xlink="http://www.w3.org/1999/xlink">
    <!-- Generator: Sketch 45.2 (43514) - http://www.bohemiancoding.com/sketch -->
    <title>icon_fileupload</title>
    <desc>Created with Sketch.</desc>
    <defs></defs>
    <g id="Design" stroke="none" stroke-width="1" fill="none" fill-rule="evenodd">
        <g id="Tablet" transform="translate(-103.000000, -79.000000)" fill="#9B9B9B">
            <g id="btn_fileupload" transform="translate(96.000000, 71.000000)">
                <g id="icon_fileupload" transform="translate(7.000000, 8.000000)">
                    <g id="Group">
                        <path d="M19.1176471,0.0385321101 C19.0392157,0.0385321101 18.9411765,0.0385321101 18.8627451,0.0385321101 C14.7058824,0.0385321101 7.21568627,0.0385321101 7.21568627,0.0385321101 C6.25490196,0.0385321101 5.29411765,0.0385321101 4.33333333,0.0385321101 C4.25490196,0.0385321101 4.15686275,0.0385321101 4.07843137,0.0385321101 C3.66666667,0.0770642202 3.37254902,0.346788991 3.37254902,0.751376147 C3.37254902,2.11926606 3.39215686,3.50642202 3.39215686,4.87431193 L4.76470588,3.35229358 C4.76470588,2.44678899 4.76470588,2.04220183 4.76470588,1.94587156 C4.76470588,1.75321101 4.76470588,1.56055046 4.76470588,1.36788991 C9.37254902,1.36788991 13.9215686,1.36788991 18.4901961,1.36788991 C18.4901961,1.48348624 18.4901961,1.59908257 18.4901961,1.69541284 C18.4901961,5.41376147 18.4901961,9.11284404 18.4901961,12.8311927 C18.4901961,13.7174312 18,14.1027523 17.3333333,14.2761468 C16.3529412,14.5458716 15.3333333,14.5458716 14.3137255,14.5651376 C13.9411765,14.5651376 13.745098,14.7 13.6666667,15.046789 C13.627451,15.2201835 13.6470588,15.7981651 13.6470588,15.9908257 C13.5882353,16.8577982 13.6078431,17.3779817 13.4901961,18.2449541 C13.372549,18.9963303 12.9411765,19.5550459 11.9411765,19.5357798 C9.66666667,19.5165138 4.90196078,19.5357798 4.76470588,19.5357798 C4.76470588,18.6688073 4.76470588,17.840367 4.76470588,16.9926606 C4.76470588,16.9926606 4.76470588,16.9926606 4.76470588,16.9926606 C4.76470588,16.9926606 4.76470588,16.9926606 4.76470588,16.9926606 L3.39215686,16.9926606 C3.39215686,18.0330275 3.39215686,19.0541284 3.37254902,20.0944954 C3.37254902,20.4990826 3.66666667,20.7880734 4.07843137,20.8073394 C4.15686275,20.8073394 4.25490196,20.8073394 4.33333333,20.8073394 C5.29411765,20.8073394 7.21568627,20.8073394 7.21568627,20.8073394 C9.01960784,20.8073394 10.627451,20.8266055 12.6666667,20.8073394 C13.3137255,20.8073394 13.8823529,20.5568807 14.3529412,20.1330275 C14.8235294,19.7091743 15.2745098,19.3045872 15.7058824,18.8422018 C16.5882353,17.9366972 17.4705882,17.0119266 18.3333333,16.087156 C18.6666667,15.740367 18.9607843,15.3743119 19.2352941,14.9889908 C19.5686275,14.5266055 19.745098,13.9678899 19.745098,13.3899083 C19.7843137,9.1706422 19.7843137,4.9706422 19.8039216,0.751376147 C19.8235294,0.346788991 19.5490196,0.0577981651 19.1176471,0.0385321101 Z" id="Shape" fill-rule="nonzero"></path>
                        <path d="M12,9.69082569 C11.2745098,8.99724771 10.5882353,8.26513761 9.88235294,7.55229358 C9.45098039,7.12844037 9.01960784,6.70458716 8.58823529,6.28073394 C7.92156863,5.60642202 7.25490196,4.91284404 6.56862745,4.23853211 C6.45098039,4.12293578 6.29411765,4.04587156 6.15686275,4.04587156 L6.15686275,4.04587156 C6.15686275,4.04587156 6.15686275,4.04587156 6.1372549,4.04587156 C6.1372549,4.04587156 6.1372549,4.04587156 6.11764706,4.04587156 L6.11764706,4.04587156 C5.98039216,4.04587156 5.82352941,4.10366972 5.70588235,4.23853211 C5.03921569,4.91284404 4.37254902,5.60642202 3.68627451,6.28073394 C3.25490196,6.70458716 2.82352941,7.12844037 2.39215686,7.55229358 C1.68627451,8.26513761 0.980392157,8.97798165 0.274509804,9.69082569 C0.0588235294,9.90275229 -0.0588235294,10.133945 0.0392156863,10.4229358 C0.156862745,10.7311927 0.450980392,10.7504587 0.725490196,10.7697248 C1.45098039,10.7889908 2.17647059,10.7697248 2.90196078,10.7697248 C3,10.7697248 3.11764706,10.7697248 3.25490196,10.7697248 C3.25490196,10.8853211 3.25490196,10.9816514 3.25490196,11.0972477 C3.25490196,12.4844037 3.25490196,13.8715596 3.25490196,15.2587156 C3.25490196,15.6440367 3.47058824,15.8559633 3.8627451,15.8559633 C4.62745098,15.8559633 5.37254902,15.8559633 6.1372549,15.8559633 C6.90196078,15.8559633 7.64705882,15.8559633 8.41176471,15.8559633 C8.80392157,15.8559633 9.01960784,15.6440367 9.01960784,15.2587156 C9.01960784,13.8715596 9.01960784,12.4844037 9.01960784,11.0972477 C9.01960784,11.0009174 9.01960784,10.9045872 9.01960784,10.7697248 C9.17647059,10.7697248 9.2745098,10.7697248 9.37254902,10.7697248 C10.0980392,10.7697248 10.8235294,10.7889908 11.5490196,10.7697248 C11.8235294,10.7697248 12.1372549,10.7504587 12.2352941,10.4229358 C12.3333333,10.133945 12.2352941,9.90275229 12,9.69082569 Z" id="Shape" fill-rule="nonzero"></path>
                    </g>
                </g>
            </g>
        </g>
    </g>
</svg>