<?xml version="1.0" encoding="UTF-8"?>
<svg width="36px" height="36px" viewBox="0 0 36 36" version="1.1" xmlns="http://www.w3.org/2000/svg" xmlns:xlink="http://www.w3.org/1999/xlink">
    <!-- Generator: Sketch 46.2 (44496) - http://www.bohemiancoding.com/sketch -->
    <title>icon_setup</title>
    <desc>Created with Sketch.</desc>
    <defs></defs>
    <g id="Design" stroke="none" stroke-width="1" fill="none" fill-rule="evenodd">
        <g id="Tablet" transform="translate(-18.000000, -159.000000)" fill-rule="nonzero" fill="#9B9B9B">
            <g id="setup" transform="translate(0.000000, 144.000000)">
                <g id="icon_setup" transform="translate(18.000000, 15.000000)">
                    <path d="M35.9,15.7333333 C35.9,17.2333333 35.9,18.7666667 35.9,20.2666667 C34.1333333,20.8 32.4,21.3333333 30.6333333,21.8333333 C30.5,21.8666667 30.4333333,21.9333333 30.4,22.0666667 C30.1666667,22.7 29.9,23.3 29.6333333,23.9333333 C29.5666667,24.0666667 29.5666667,24.1333333 29.6333333,24.2666667 C30.4666667,25.8333333 31.3,27.3666667 32.1666667,28.9333333 C32.2333333,29.0666667 32.2333333,29.1333333 32.1333333,29.2333333 C31.1333333,30.2333333 30.1666667,31.2 29.1666667,32.2 C29.1333333,32.2333333 29.1,32.2666667 29.0333333,32.3 C28.9666667,32.2666667 28.9333333,32.2333333 28.8666667,32.2 C27.3333333,31.3666667 25.7666667,30.5333333 24.2333333,29.7 C24.1333333,29.6333333 24.0333333,29.6333333 23.9,29.7 C23.2666667,29.9666667 22.6333333,30.2333333 22,30.5 C21.9,30.5333333 21.8333333,30.6 21.8,30.7 C21.4333333,31.9666667 21.0333333,33.2333333 20.6666667,34.5 C20.5333333,35 20.3666667,35.4666667 20.2333333,35.9666667 C20.1666667,35.9666667 20.1,35.9666667 20.0333333,35.9666667 C18.6666667,35.9666667 17.3,35.9666667 15.9333333,35.9666667 C15.7666667,35.9666667 15.7,35.9333333 15.6333333,35.7333333 C15.1333333,34.0333333 14.6333333,32.3666667 14.1333333,30.6666667 C14.1,30.5666667 14.0333333,30.5 13.9333333,30.4666667 C13.3,30.2 12.6333333,29.9333333 12,29.6666667 C11.9,29.6333333 11.8333333,29.6 11.7,29.6666667 C10.9,30.1 10.1,30.5333333 9.3,30.9666667 C8.5,31.4 7.66666667,31.8333333 6.9,32.2666667 C5.83333333,31.2 4.73333333,30.1 3.66666667,29.0333333 C3.7,29 3.73333333,28.9333333 3.76666667,28.8666667 C4.6,27.3333333 5.43333333,25.7666667 6.26666667,24.2333333 C6.33333333,24.1333333 6.33333333,24.0333333 6.26666667,23.9333333 C6,23.3 5.73333333,22.6666667 5.46666667,22 C5.43333333,21.9 5.36666667,21.8333333 5.26666667,21.8 C3.56666667,21.3 1.86666667,20.7666667 0.166666667,20.2666667 C0.0666666667,20.2333333 0,20.2 0,20.0666667 C0,18.6666667 0,17.2333333 0,15.8333333 C0,15.7 0.0333333333,15.6666667 0.166666667,15.6333333 C1.86666667,15.1333333 3.6,14.6333333 5.3,14.1 C5.36666667,14.0666667 5.43333333,14 5.46666667,13.9333333 C5.73333333,13.3 6,12.6333333 6.3,11.9666667 C6.33333333,11.8666667 6.33333333,11.8 6.3,11.7 C5.76666667,10.7 5.2,9.7 4.66666667,8.66666667 C4.33333333,8.06666667 4,7.46666667 3.7,6.86666667 C3.73333333,6.83333333 3.73333333,6.83333333 3.76666667,6.8 C4.8,5.76666667 5.8,4.76666667 6.83333333,3.73333333 C6.93333333,3.63333333 7,3.66666667 7.06666667,3.73333333 C8.63333333,4.56666667 10.2,5.43333333 11.7666667,6.26666667 C11.8666667,6.33333333 11.9666667,6.33333333 12.0666667,6.26666667 C12.7,6 13.3,5.73333333 13.9333333,5.5 C14.0666667,5.46666667 14.1333333,5.4 14.1666667,5.26666667 C14.7,3.5 15.2,1.76666667 15.7333333,2.84217094e-14 C17.2333333,2.84217094e-14 18.7666667,2.84217094e-14 20.2666667,2.84217094e-14 C20.8,1.76666667 21.3333333,3.53333333 21.8333333,5.26666667 C21.8666667,5.36666667 21.9333333,5.43333333 22.0333333,5.5 C22.6666667,5.76666667 23.3,6.03333333 23.9333333,6.3 C24.0333333,6.33333333 24.1,6.33333333 24.2,6.3 C24.8666667,5.93333333 25.5666667,5.56666667 26.2333333,5.2 C27.1666667,4.7 28.1333333,4.16666667 29.0333333,3.66666667 C30.1,4.73333333 31.2,5.8 32.2666667,6.9 C32.2333333,6.93333333 32.2,7 32.1666667,7.06666667 C31.3333333,8.6 30.5,10.1666667 29.6666667,11.7 C29.6,11.8333333 29.6,11.9 29.6666667,12.0333333 C29.9333333,12.6333333 30.2,13.2666667 30.4333333,13.8666667 C30.5,14 30.5333333,14.0666667 30.7,14.1 C32.4,14.7 34.1666667,15.2333333 35.9,15.7333333 Z M24.8,18.0333333 C24.8,14.2333333 21.7333333,11.1666667 17.9333333,11.1333333 C14.1666667,11.1333333 11.0666667,14.2 11.0333333,18 C11.0333333,21.8 14.1,24.9 17.9,24.9 C21.7333333,24.9333333 24.8,21.8333333 24.8,18.0333333 Z" id="Shape"></path>
                </g>
            </g>
        </g>
    </g>
</svg>