<?xml version="1.0" encoding="UTF-8"?>
<svg width="32px" height="41px" viewBox="0 0 32 41" version="1.1" xmlns="http://www.w3.org/2000/svg" xmlns:xlink="http://www.w3.org/1999/xlink">
    <!-- Generator: Sketch 47.1 (45422) - http://www.bohemiancoding.com/sketch -->
    <title>icon_file</title>
    <desc>Created with Sketch.</desc>
    <defs></defs>
    <g id="Page-1" stroke="none" stroke-width="1" fill="none" fill-rule="evenodd">
        <g id="05" transform="translate(-19.000000, -16.000000)" fill-rule="nonzero" fill="#9B9B9B">
            <g id="file" transform="translate(-1.000000, 0.000000)">
                <g id="icon_file" transform="translate(20.000000, 16.000000)">
                    <path d="M30.5904762,0 C30.4380952,0 30.247619,0 30.0952381,0 C22.0190476,0 7.46666667,0 7.46666667,0 C5.6,0 3.73333333,0 1.86666667,0 C1.71428571,0 1.52380952,0 1.37142857,0 C0.571428571,0.0759259259 0,0.607407407 0,1.40462963 C0,4.51759259 0.0380952381,7.63055556 0.0380952381,10.7435185 L0.0380952381,30.1425926 C0.0380952381,33.2555556 0,36.3685185 0,39.4814815 C0,40.2787037 0.571428571,40.8481481 1.37142857,40.8861111 C1.52380952,40.8861111 1.71428571,40.8861111 1.86666667,40.8861111 C3.73333333,40.8861111 7.46666667,40.8861111 7.46666667,40.8861111 C10.9714286,40.8861111 14.0952381,40.9240741 18.0571429,40.8861111 C19.3142857,40.8861111 20.4190476,40.3925926 21.3333333,39.5574074 C22.247619,38.7222222 23.1238095,37.925 23.9619048,37.0138889 C25.6761905,35.2296296 27.3904762,33.4074074 29.0666667,31.5851852 C29.7142857,30.9018519 30.2857143,30.1805556 30.8190476,29.4212963 C31.4666667,28.5101852 31.8095238,27.4092593 31.8095238,26.2703704 C31.8857143,17.9564815 31.8857143,9.68055556 31.9238095,1.36666667 C31.9619048,0.607407407 31.3904762,0.037962963 30.5904762,0 Z M27.047619,28.0925926 C25.1428571,28.6240741 23.1619048,28.6240741 21.1809524,28.662037 C20.4571429,28.662037 20.0761905,28.9277778 19.9238095,29.6111111 C19.847619,29.9527778 19.8857143,31.0916667 19.8857143,31.4712963 C19.7714286,33.1796296 19.8095238,34.2046296 19.5809524,35.912963 C19.352381,37.3935185 18.5142857,38.4944444 16.5714286,38.4564815 C12.152381,38.4185185 2.8952381,38.4564815 2.62857143,38.4564815 C2.62857143,36.7481481 2.62857143,35.1157407 2.62857143,33.4453704 C2.62857143,33.4453704 2.62857143,33.4453704 2.62857143,33.4453704 C2.62857143,33.4453704 2.62857143,4.70740741 2.62857143,3.7962963 C2.62857143,3.41666667 2.62857143,3.03703704 2.62857143,2.65740741 C11.5809524,2.65740741 20.4190476,2.65740741 29.2952381,2.65740741 C29.2952381,2.88518519 29.2952381,3.11296296 29.2952381,3.30277778 C29.2952381,10.6296296 29.2952381,17.9185185 29.2952381,25.2453704 C29.3333333,26.9537037 28.3809524,27.7509259 27.047619,28.0925926 Z" id="Shape"></path>
                </g>
            </g>
        </g>
    </g>
</svg>