<?xml version="1.0" encoding="UTF-8"?>
<svg width="36px" height="36px" viewBox="0 0 36 36" version="1.1" xmlns="http://www.w3.org/2000/svg" xmlns:xlink="http://www.w3.org/1999/xlink">
    <!-- Generator: Sketch 46.2 (44496) - http://www.bohemiancoding.com/sketch -->
    <title>icon_design</title>
    <desc>Created with Sketch.</desc>
    <defs></defs>
    <g id="Design" stroke="none" stroke-width="1" fill="none" fill-rule="evenodd">
        <g id="Tablet" transform="translate(-18.000000, -88.000000)" fill="#9B9B9B">
            <g id="design" transform="translate(0.000000, 72.000000)">
                <g id="icon_design" transform="translate(18.000000, 16.000000)">
                    <g id="Group">
                        <path d="M8.02568807,20.4545455 L8.02568807,0.0654545455 L4.09541284,0.0654545455 L4.09541284,20.3890909 C1.75045872,21.1745455 0.0330275229,23.3672727 0.0330275229,25.9527273 C0.0330275229,28.5381818 1.75045872,30.7636364 4.09541284,31.5163636 L4.09541284,35.7381818 L8.02568807,35.7381818 L8.02568807,31.4181818 C10.2715596,30.5672727 11.8568807,28.44 11.8568807,25.92 C11.8568807,23.4 10.2715596,21.2727273 8.02568807,20.4545455 Z M5.94495413,24.0872727 C6.96880734,24.0872727 7.79449541,24.9054545 7.79449541,25.92 C7.79449541,26.9345455 6.96880734,27.7527273 5.94495413,27.7527273 C4.92110092,27.7527273 4.09541284,26.9345455 4.09541284,25.92 C4.09541284,24.9054545 4.92110092,24.0872727 5.94495413,24.0872727 Z" id="Shape" fill-rule="nonzero"></path>
                        <path d="M19.9816514,4.38545455 L19.9816514,0.0654545455 L16.0513761,0.0654545455 L16.0513761,4.48363636 C13.8055046,5.33454545 12.2201835,7.46181818 12.2201835,9.98181818 C12.2201835,12.5018182 13.8055046,14.6290909 16.0513761,15.48 L16.0513761,35.7381818 L19.9816514,35.7381818 L19.9816514,15.5454545 C22.3266055,14.76 24.0440367,12.5672727 24.0440367,9.98181818 C24.0440367,7.36363636 22.3266055,5.13818182 19.9816514,4.38545455 Z M18.1321101,11.7818182 C17.1082569,11.7818182 16.2825688,10.9636364 16.2825688,9.94909091 C16.2825688,8.93454545 17.1082569,8.11636364 18.1321101,8.11636364 C19.1559633,8.11636364 19.9816514,8.93454545 19.9816514,9.94909091 C19.9816514,10.9636364 19.1559633,11.7818182 18.1321101,11.7818182 Z" id="Shape" fill-rule="nonzero"></path>
                        <path d="M36,18.0981818 C36,15.5781818 34.4146789,13.4509091 32.1688073,12.6 L32.1688073,0.0327272727 L28.2385321,0.0327272727 L28.2385321,12.5345455 C25.893578,13.32 24.1761468,15.5127273 24.1761468,18.0981818 C24.1761468,20.6836364 25.893578,22.9090909 28.2385321,23.6618182 L28.2385321,35.6727273 L32.1688073,35.6727273 L32.1688073,23.5636364 C34.4146789,22.7454545 36,20.6181818 36,18.0981818 Z M30.0880734,16.2654545 C31.1119266,16.2654545 31.9376147,17.0836364 31.9376147,18.0981818 C31.9376147,19.1127273 31.1119266,19.9309091 30.0880734,19.9309091 C29.0642202,19.9309091 28.2385321,19.1127273 28.2385321,18.0981818 C28.2385321,17.0836364 29.0642202,16.2654545 30.0880734,16.2654545 Z" id="Shape" fill-rule="nonzero"></path>
                    </g>
                </g>
            </g>
        </g>
    </g>
</svg>