<svg width="595" height="174" viewBox="0 0 595 174" fill="none" xmlns="http://www.w3.org/2000/svg">
<rect width="595" height="174" fill="white"/>
<path d="M15.5933 167H12.5889L9.70331 162.307L6.81771 167H4L8.11623 160.601L4.2631 154.592H7.16568L9.8391 159.056L12.4616 154.592H15.2963L11.4007 160.745L15.5933 167ZM29.1811 160.779C29.1811 162.923 28.8416 164.525 28.1627 165.583C27.4894 166.641 26.4568 167.17 25.0649 167.17C23.7296 167.17 22.714 166.629 22.018 165.549C21.3221 164.462 20.9741 162.872 20.9741 160.779C20.9741 158.618 21.3108 157.014 21.9841 155.967C22.6574 154.92 23.6843 154.397 25.0649 154.397C26.4115 154.397 27.4328 154.943 28.1287 156.035C28.8303 157.127 29.1811 158.708 29.1811 160.779ZM22.4 160.779C22.4 162.584 22.6121 163.899 23.0365 164.725C23.4608 165.546 24.137 165.956 25.0649 165.956C26.0041 165.956 26.6831 165.54 27.1018 164.708C27.5261 163.871 27.7383 162.561 27.7383 160.779C27.7383 158.997 27.5261 157.693 27.1018 156.866C26.6831 156.035 26.0041 155.619 25.0649 155.619C24.137 155.619 23.4608 156.029 23.0365 156.849C22.6121 157.664 22.4 158.974 22.4 160.779ZM31.3453 166.1C31.3453 165.721 31.4302 165.436 31.5999 165.243C31.7753 165.045 32.0243 164.946 32.3468 164.946C32.675 164.946 32.9296 165.045 33.1106 165.243C33.2973 165.436 33.3907 165.721 33.3907 166.1C33.3907 166.468 33.2973 166.751 33.1106 166.949C32.9239 167.147 32.6693 167.246 32.3468 167.246C32.0582 167.246 31.8178 167.158 31.6254 166.983C31.4387 166.802 31.3453 166.508 31.3453 166.1ZM43.694 167H35.5379V165.786L38.8055 162.502C39.8013 161.495 40.4576 160.776 40.7745 160.346C41.0913 159.916 41.3289 159.497 41.4874 159.09C41.6458 158.683 41.725 158.244 41.725 157.775C41.725 157.113 41.5241 156.589 41.1224 156.204C40.7207 155.814 40.1634 155.619 39.4505 155.619C38.9356 155.619 38.4462 155.704 37.9822 155.873C37.5239 156.043 37.0119 156.352 36.4461 156.799L35.6992 155.84C36.8421 154.889 38.0869 154.414 39.4335 154.414C40.5991 154.414 41.5128 154.714 42.1748 155.313C42.8368 155.907 43.1678 156.708 43.1678 157.715C43.1678 158.502 42.9471 159.28 42.5058 160.049C42.0645 160.819 41.2384 161.792 40.0276 162.969L37.3117 165.625V165.693H43.694V167Z" fill="#3FABFF"/>
<path d="M39.7939 146L41.9062 136.006H43.0684L41.1816 144.947H45.0439L44.8184 146H39.7939ZM51.4629 146H46.4385L48.5508 136.006H53.5752L53.3564 137.052H49.4873L48.8174 140.258H52.4199L52.2217 141.297H48.6055L47.8262 144.961H51.6885L51.4629 146ZM60.8008 146H59.5635L56.4189 137.64H56.3779C56.2321 138.647 56.0635 139.599 55.8721 140.497L54.6963 146H53.5889L55.7012 136.006H56.9316L60.0693 144.346H60.1104C60.2471 143.325 60.4111 142.402 60.6025 141.577L61.792 136.006H62.9131L60.8008 146ZM68.457 140.764H71.5947L70.542 145.624C69.5576 145.966 68.6029 146.137 67.6777 146.137C66.4746 146.137 65.5381 145.809 64.8682 145.152C64.2028 144.492 63.8701 143.571 63.8701 142.391C63.8701 141.165 64.1003 140.05 64.5605 139.048C65.0254 138.041 65.668 137.259 66.4883 136.703C67.3086 136.143 68.2178 135.862 69.2158 135.862C69.749 135.862 70.248 135.908 70.7129 135.999C71.1823 136.09 71.654 136.236 72.1279 136.437L71.6768 137.476C71.3258 137.321 70.9476 137.186 70.542 137.072C70.141 136.958 69.6989 136.901 69.2158 136.901C68.4456 136.901 67.7438 137.134 67.1104 137.599C66.4814 138.059 65.9915 138.704 65.6406 139.533C65.2897 140.363 65.1143 141.29 65.1143 142.315C65.1143 143.181 65.3467 143.863 65.8115 144.359C66.2809 144.856 66.9349 145.104 67.7734 145.104C68.4753 145.104 69.0677 145.016 69.5508 144.838L70.207 141.803H68.2314L68.457 140.764ZM75.6484 146H74.4727L76.3662 137.038H73.5908L73.8164 136.006H80.5498L80.3447 137.038H77.5557L75.6484 146ZM86.709 146H85.5674L86.5449 141.297H82.0332L81.042 146H79.8799L81.9922 136.006H83.1543L82.2588 140.258H86.7705L87.6797 136.006H88.8281L86.709 146Z" fill="#3FABFF"/>
<path d="M179.812 45H178.649L178.314 38.4033C178.278 37.7835 178.26 37.141 178.26 36.4756H178.219C178.105 36.8037 177.966 37.1569 177.802 37.5352C177.638 37.9089 176.489 40.3971 174.356 45H173.167L172.743 35.0059H173.905L174.117 41.165L174.131 41.7666C174.131 42.2132 174.108 42.8011 174.062 43.5303H174.104C174.509 42.4229 174.865 41.5501 175.17 40.9121L177.938 35.0059H179.155L179.449 40.8848C179.49 41.582 179.511 42.2747 179.511 42.9629L179.504 43.5303H179.565C179.907 42.5094 180.206 41.7028 180.461 41.1104L183.106 35.0059H184.351L179.812 45ZM183.742 45L185.868 35.0059H187.017L184.891 45H183.742ZM195.869 39.0049C195.869 40.1943 195.63 41.2448 195.151 42.1562C194.673 43.0677 193.989 43.7695 193.101 44.2617C192.212 44.7539 191.171 45 189.977 45H187.57L189.683 35.0059H192.021C193.278 35.0059 194.233 35.3477 194.885 36.0312C195.541 36.7103 195.869 37.7015 195.869 39.0049ZM190.052 43.9951C190.972 43.9951 191.781 43.7878 192.479 43.373C193.176 42.9538 193.709 42.3636 194.078 41.6025C194.452 40.8415 194.639 39.971 194.639 38.9912C194.639 38.0114 194.404 37.2708 193.935 36.7695C193.465 36.2637 192.777 36.0107 191.87 36.0107H190.653L188.944 43.9951H190.052ZM199.636 45H198.46L200.354 36.0381H197.578L197.804 35.0059H204.537L204.332 36.0381H201.543L199.636 45ZM210.696 45H209.555L210.532 40.2969H206.021L205.029 45H203.867L205.979 35.0059H207.142L206.246 39.2578H210.758L211.667 35.0059H212.815L210.696 45Z" fill="#3FABFF"/>
<path d="M184.479 11.7011L187.067 6.59191H189.902L185.786 14.1709V19H183.172V14.2557L179.055 6.59191H181.907L184.479 11.7011ZM203.49 12.779C203.49 14.9234 203.15 16.5246 202.471 17.5827C201.798 18.6407 200.765 19.1697 199.373 19.1697C198.038 19.1697 197.023 18.6294 196.327 17.5487C195.631 16.4624 195.283 14.8725 195.283 12.779C195.283 10.6176 195.619 9.01355 196.293 7.96682C196.966 6.92008 197.993 6.39671 199.373 6.39671C200.72 6.39671 201.741 6.94271 202.437 8.03471C203.139 9.12671 203.49 10.7081 203.49 12.779ZM196.708 12.779C196.708 14.5839 196.921 15.8994 197.345 16.7255C197.769 17.5459 198.446 17.9561 199.373 17.9561C200.313 17.9561 200.992 17.5402 201.41 16.7085C201.835 15.8711 202.047 14.5613 202.047 12.779C202.047 10.9967 201.835 9.69252 201.41 8.86644C200.992 8.03471 200.313 7.61885 199.373 7.61885C198.446 7.61885 197.769 8.02905 197.345 8.84947C196.921 9.66423 196.708 10.9741 196.708 12.779ZM205.654 18.1004C205.654 17.7213 205.739 17.4356 205.908 17.2432C206.084 17.0451 206.333 16.9461 206.655 16.9461C206.984 16.9461 207.238 17.0451 207.419 17.2432C207.606 17.4356 207.699 17.7213 207.699 18.1004C207.699 18.4681 207.606 18.751 207.419 18.9491C207.232 19.1471 206.978 19.2461 206.655 19.2461C206.367 19.2461 206.126 19.1584 205.934 18.983C205.747 18.802 205.654 18.5078 205.654 18.1004ZM218.07 12.779C218.07 14.9234 217.731 16.5246 217.052 17.5827C216.379 18.6407 215.346 19.1697 213.954 19.1697C212.619 19.1697 211.603 18.6294 210.907 17.5487C210.211 16.4624 209.863 14.8725 209.863 12.779C209.863 10.6176 210.2 9.01355 210.873 7.96682C211.547 6.92008 212.574 6.39671 213.954 6.39671C215.301 6.39671 216.322 6.94271 217.018 8.03471C217.72 9.12671 218.07 10.7081 218.07 12.779ZM211.289 12.779C211.289 14.5839 211.501 15.8994 211.926 16.7255C212.35 17.5459 213.026 17.9561 213.954 17.9561C214.893 17.9561 215.572 17.5402 215.991 16.7085C216.415 15.8711 216.628 14.5613 216.628 12.779C216.628 10.9967 216.415 9.69252 215.991 8.86644C215.572 8.03471 214.893 7.61885 213.954 7.61885C213.026 7.61885 212.35 8.02905 211.926 8.84947C211.501 9.66423 211.289 10.9741 211.289 12.779Z" fill="#3FABFF"/>
<line x1="128" y1="100" x2="128" y2="142" stroke="#3FABFF" stroke-width="2"/>
<line x1="1" y1="100" x2="0.999998" y2="142" stroke="#3FABFF" stroke-width="2"/>
<path d="M3 131L5.5 132.443L5.5 129.557L3 131ZM125 131L122.5 129.557L122.5 132.443L125 131ZM5.95161 131.25H7.91935L7.91935 130.75H5.95161L5.95161 131.25ZM9.8871 131.25H11.8548L11.8548 130.75H9.8871L9.8871 131.25ZM13.8226 131.25H15.7903L15.7903 130.75H13.8226L13.8226 131.25ZM17.7581 131.25H19.7258V130.75H17.7581V131.25ZM21.6936 131.25H23.6613V130.75H21.6936V131.25ZM25.629 131.25H27.5968V130.75H25.629V131.25ZM29.5645 131.25H31.5323V130.75H29.5645V131.25ZM33.5 131.25H35.4678V130.75H33.5V131.25ZM37.4355 131.25H39.4032V130.75H37.4355V131.25ZM41.371 131.25H43.3387V130.75H41.371V131.25ZM45.3065 131.25H47.2742V130.75H45.3065V131.25ZM49.242 131.25H51.2097V130.75H49.242V131.25ZM53.1774 131.25H55.1452V130.75H53.1774V131.25ZM57.1129 131.25H59.0807V130.75H57.1129V131.25ZM61.0484 131.25H63.0162V130.75H61.0484V131.25ZM64.9839 131.25L66.9516 131.25V130.75L64.9839 130.75V131.25ZM68.9194 131.25L70.8871 131.25V130.75L68.9194 130.75V131.25ZM72.8549 131.25L74.8226 131.25V130.75L72.8549 130.75V131.25ZM76.7904 131.25L78.7581 131.25V130.75L76.7904 130.75V131.25ZM80.7258 131.25L82.6936 131.25V130.75L80.7258 130.75V131.25ZM84.6613 131.25L86.6291 131.25V130.75L84.6613 130.75V131.25ZM88.5968 131.25L90.5646 131.25V130.75L88.5968 130.75V131.25ZM92.5323 131.25L94.5 131.25V130.75L92.5323 130.75V131.25ZM96.4678 131.25L98.4355 131.25V130.75L96.4678 130.75V131.25ZM100.403 131.25L102.371 131.25V130.75L100.403 130.75V131.25ZM104.339 131.25L106.306 131.25V130.75L104.339 130.75V131.25ZM108.274 131.25L110.242 131.25V130.75L108.274 130.75V131.25ZM112.21 131.25L114.177 131.25V130.75L112.21 130.75V131.25ZM116.145 131.25L118.113 131.25V130.75L116.145 130.75V131.25ZM120.081 131.25L122.048 131.25V130.75L120.081 130.75V131.25ZM3 131L8 133.887L8 128.113L3 131ZM125 131L120 128.113L120 133.887L125 131ZM5.95161 131.5H7.91935L7.91935 130.5H5.95161L5.95161 131.5ZM9.8871 131.5H11.8548L11.8548 130.5H9.8871L9.8871 131.5ZM13.8226 131.5H15.7903L15.7903 130.5H13.8226L13.8226 131.5ZM17.7581 131.5H19.7258L19.7258 130.5H17.7581L17.7581 131.5ZM21.6936 131.5H23.6613L23.6613 130.5H21.6936L21.6936 131.5ZM25.629 131.5H27.5968L27.5968 130.5H25.629L25.629 131.5ZM29.5645 131.5H31.5323L31.5323 130.5H29.5645L29.5645 131.5ZM33.5 131.5H35.4678V130.5H33.5V131.5ZM37.4355 131.5H39.4032V130.5H37.4355V131.5ZM41.371 131.5H43.3387V130.5H41.371V131.5ZM45.3065 131.5H47.2742V130.5H45.3065V131.5ZM49.242 131.5H51.2097V130.5H49.242V131.5ZM53.1774 131.5H55.1452V130.5H53.1774V131.5ZM57.1129 131.5H59.0807V130.5H57.1129V131.5ZM61.0484 131.5H63.0162V130.5H61.0484V131.5ZM64.9839 131.5L66.9516 131.5V130.5L64.9839 130.5V131.5ZM68.9194 131.5L70.8871 131.5V130.5L68.9194 130.5V131.5ZM72.8549 131.5L74.8226 131.5V130.5L72.8549 130.5V131.5ZM76.7904 131.5L78.7581 131.5V130.5L76.7904 130.5V131.5ZM80.7258 131.5L82.6936 131.5V130.5L80.7258 130.5V131.5ZM84.6613 131.5L86.6291 131.5V130.5L84.6613 130.5V131.5ZM88.5968 131.5L90.5646 131.5V130.5L88.5968 130.5V131.5ZM92.5323 131.5L94.5 131.5V130.5L92.5323 130.5V131.5ZM96.4678 131.5L98.4355 131.5V130.5L96.4678 130.5V131.5ZM100.403 131.5L102.371 131.5V130.5L100.403 130.5V131.5ZM104.339 131.5L106.306 131.5V130.5L104.339 130.5V131.5ZM108.274 131.5L110.242 131.5V130.5L108.274 130.5V131.5ZM112.21 131.5L114.177 131.5V130.5L112.21 130.5V131.5ZM116.145 131.5L118.113 131.5V130.5L116.145 130.5V131.5ZM120.081 131.5L122.048 131.5V130.5L120.081 130.5V131.5Z" fill="#3FABFF"/>
<line x1="131" y1="8" x2="173" y2="8" stroke="#3FABFF" stroke-width="2"/>
<line x1="131" y1="99" x2="173" y2="99" stroke="#3FABFF" stroke-width="2"/>
<path d="M162 96L163.443 93.5L160.557 93.5L162 96ZM162 10L160.557 12.5L163.443 12.5L162 10ZM162.25 93.0682L162.25 91.1136L161.75 91.1136L161.75 93.0682L162.25 93.0682ZM162.25 89.1591L162.25 87.2045L161.75 87.2045L161.75 89.1591L162.25 89.1591ZM162.25 85.25L162.25 83.2955L161.75 83.2955L161.75 85.25L162.25 85.25ZM162.25 81.3409L162.25 79.3864L161.75 79.3864L161.75 81.3409L162.25 81.3409ZM162.25 77.4318L162.25 75.4773L161.75 75.4773L161.75 77.4318L162.25 77.4318ZM162.25 73.5227L162.25 71.5682L161.75 71.5682L161.75 73.5227L162.25 73.5227ZM162.25 69.6136L162.25 67.6591L161.75 67.6591L161.75 69.6136L162.25 69.6136ZM162.25 65.7045L162.25 63.75L161.75 63.75L161.75 65.7045L162.25 65.7045ZM162.25 61.7955L162.25 59.8409L161.75 59.8409L161.75 61.7955L162.25 61.7955ZM162.25 57.8864L162.25 55.9318L161.75 55.9318L161.75 57.8864L162.25 57.8864ZM162.25 53.9773L162.25 52.0227L161.75 52.0227L161.75 53.9773L162.25 53.9773ZM162.25 50.0682L162.25 48.1136L161.75 48.1136L161.75 50.0682L162.25 50.0682ZM162.25 46.1591L162.25 44.2046L161.75 44.2046L161.75 46.1591L162.25 46.1591ZM162.25 42.25L162.25 40.2955L161.75 40.2955L161.75 42.25L162.25 42.25ZM162.25 38.3409L162.25 36.3864L161.75 36.3864L161.75 38.3409L162.25 38.3409ZM162.25 34.4318L162.25 32.4773L161.75 32.4773L161.75 34.4318L162.25 34.4318ZM162.25 30.5227L162.25 28.5682L161.75 28.5682L161.75 30.5227L162.25 30.5227ZM162.25 26.6137L162.25 24.6591L161.75 24.6591L161.75 26.6137L162.25 26.6137ZM162.25 22.7046L162.25 20.75L161.75 20.75L161.75 22.7046L162.25 22.7046ZM162.25 18.7955L162.25 16.8409L161.75 16.8409L161.75 18.7955L162.25 18.7955ZM162.25 14.8864L162.25 12.9318L161.75 12.9318L161.75 14.8864L162.25 14.8864ZM162 96L164.887 91L159.113 91L162 96ZM162 10L159.113 15L164.887 15L162 10ZM162.5 93.0682L162.5 91.1136L161.5 91.1136L161.5 93.0682L162.5 93.0682ZM162.5 89.1591L162.5 87.2045L161.5 87.2045L161.5 89.1591L162.5 89.1591ZM162.5 85.25L162.5 83.2955L161.5 83.2955L161.5 85.25L162.5 85.25ZM162.5 81.3409L162.5 79.3864L161.5 79.3864L161.5 81.3409L162.5 81.3409ZM162.5 77.4318L162.5 75.4773L161.5 75.4773L161.5 77.4318L162.5 77.4318ZM162.5 73.5227L162.5 71.5682L161.5 71.5682L161.5 73.5227L162.5 73.5227ZM162.5 69.6136L162.5 67.6591L161.5 67.6591L161.5 69.6136L162.5 69.6136ZM162.5 65.7045L162.5 63.75L161.5 63.75L161.5 65.7045L162.5 65.7045ZM162.5 61.7955L162.5 59.8409L161.5 59.8409L161.5 61.7955L162.5 61.7955ZM162.5 57.8864L162.5 55.9318L161.5 55.9318L161.5 57.8864L162.5 57.8864ZM162.5 53.9773L162.5 52.0227L161.5 52.0227L161.5 53.9773L162.5 53.9773ZM162.5 50.0682L162.5 48.1136L161.5 48.1136L161.5 50.0682L162.5 50.0682ZM162.5 46.1591L162.5 44.2046L161.5 44.2046L161.5 46.1591L162.5 46.1591ZM162.5 42.25L162.5 40.2955L161.5 40.2955L161.5 42.25L162.5 42.25ZM162.5 38.3409L162.5 36.3864L161.5 36.3864L161.5 38.3409L162.5 38.3409ZM162.5 34.4318L162.5 32.4773L161.5 32.4773L161.5 34.4318L162.5 34.4318ZM162.5 30.5227L162.5 28.5682L161.5 28.5682L161.5 30.5227L162.5 30.5227ZM162.5 26.6137L162.5 24.6591L161.5 24.6591L161.5 26.6137L162.5 26.6137ZM162.5 22.7046L162.5 20.75L161.5 20.75L161.5 22.7046L162.5 22.7046ZM162.5 18.7955L162.5 16.8409L161.5 16.8409L161.5 18.7955L162.5 18.7955ZM162.5 14.8864L162.5 12.9318L161.5 12.9318L161.5 14.8864L162.5 14.8864Z" fill="#3FABFF"/>
<rect x="1.5" y="7.5" width="128" height="92" rx="1.5" fill="white" stroke="#4A4A4A"/>
<rect x="4.5" y="10.5" width="122" height="86" rx="6.5" fill="white" stroke="#E6E6E6"/>
<path d="M3.99993 7L4.00001 142" stroke="#3FABFF" stroke-width="4"/>
<path d="M522.417 89H521.275L522.253 84.2969H517.741L516.75 89H515.588L517.7 79.0059H518.862L517.967 83.2578H522.479L523.388 79.0059H524.536L522.417 89ZM530.114 89H525.09L527.202 79.0059H532.227L532.008 80.0518H528.139L527.469 83.2578H531.071L530.873 84.2969H527.257L526.478 87.9609H530.34L530.114 89ZM532.254 89L534.38 79.0059H535.528L533.402 89H532.254ZM541.106 83.7637H544.244L543.191 88.624C542.207 88.9658 541.252 89.1367 540.327 89.1367C539.124 89.1367 538.188 88.8086 537.518 88.1523C536.852 87.4915 536.52 86.571 536.52 85.3906C536.52 84.1647 536.75 83.0505 537.21 82.0479C537.675 81.0407 538.317 80.2591 539.138 79.7031C539.958 79.1426 540.867 78.8623 541.865 78.8623C542.398 78.8623 542.897 78.9079 543.362 78.999C543.832 79.0902 544.303 79.236 544.777 79.4365L544.326 80.4756C543.975 80.3206 543.597 80.1862 543.191 80.0723C542.79 79.9583 542.348 79.9014 541.865 79.9014C541.095 79.9014 540.393 80.1338 539.76 80.5986C539.131 81.0589 538.641 81.7038 538.29 82.5332C537.939 83.3626 537.764 84.29 537.764 85.3154C537.764 86.1813 537.996 86.8626 538.461 87.3594C538.93 87.8561 539.584 88.1045 540.423 88.1045C541.125 88.1045 541.717 88.0156 542.2 87.8379L542.856 84.8027H540.881L541.106 83.7637ZM552.386 89H551.244L552.222 84.2969H547.71L546.719 89H545.557L547.669 79.0059H548.831L547.936 83.2578H552.447L553.356 79.0059H554.505L552.386 89ZM557.8 89H556.624L558.518 80.0381H555.742L555.968 79.0059H562.701L562.496 80.0381H559.707L557.8 89Z" fill="#3FABFF"/>
<path d="M524.65 69H515.416V67.2941L521.365 58.7646H515.577V56.5919H524.489V58.2893L518.548 66.8273H524.65V69ZM535.649 69H534.274V60.1565C534.274 59.4209 534.297 58.725 534.342 58.0687C534.223 58.1875 534.09 58.312 533.943 58.4421C533.796 58.5722 533.123 59.1239 531.923 60.0971L531.176 59.1295L534.461 56.5919H535.649V69ZM540.818 68.1004C540.818 67.7213 540.903 67.4356 541.072 67.2432C541.248 67.0451 541.497 66.9461 541.819 66.9461C542.147 66.9461 542.402 67.0451 542.583 67.2432C542.77 67.4356 542.863 67.7213 542.863 68.1004C542.863 68.4681 542.77 68.751 542.583 68.9491C542.396 69.1471 542.142 69.2461 541.819 69.2461C541.531 69.2461 541.29 69.1584 541.098 68.983C540.911 68.802 540.818 68.5078 540.818 68.1004ZM553.166 69H545.01V67.7863L548.278 64.5019C549.274 63.4947 549.93 62.7762 550.247 62.3461C550.564 61.9161 550.801 61.4974 550.96 61.0901C551.118 60.6827 551.197 60.2442 551.197 59.7746C551.197 59.1126 550.996 58.5892 550.595 58.2045C550.193 57.814 549.636 57.6188 548.923 57.6188C548.408 57.6188 547.918 57.7037 547.455 57.8735C546.996 58.0432 546.484 58.3516 545.918 58.7985L545.172 57.8395C546.314 56.889 547.559 56.4137 548.906 56.4137C550.071 56.4137 550.985 56.7136 551.647 57.3133C552.309 57.9074 552.64 58.708 552.64 59.7152C552.64 60.5016 552.419 61.2796 551.978 62.0491C551.537 62.8186 550.711 63.7918 549.5 64.9686L546.784 67.6251V67.693H553.166V69Z" fill="#3FABFF"/>
<line x1="288" y1="61" x2="510" y2="61" stroke="#3FABFF" stroke-width="8"/>
<path d="M499 66L497.557 68.5L500.443 68.5L499 66ZM499.25 95L499.25 93.9643L498.75 93.9643L498.75 95L499.25 95ZM499.25 91.8929L499.25 89.8214L498.75 89.8214L498.75 91.8929L499.25 91.8929ZM499.25 87.75L499.25 85.6786L498.75 85.6786L498.75 87.75L499.25 87.75ZM499.25 83.6071L499.25 81.5357L498.75 81.5357L498.75 83.6071L499.25 83.6071ZM499.25 79.4643L499.25 77.3929L498.75 77.3929L498.75 79.4643L499.25 79.4643ZM499.25 75.3214L499.25 73.25L498.75 73.25L498.75 75.3214L499.25 75.3214ZM499.25 71.1786L499.25 69.1071L498.75 69.1071L498.75 71.1786L499.25 71.1786ZM499 66L496.113 71L501.887 71L499 66ZM499.5 95L499.5 93.9643L498.5 93.9643L498.5 95L499.5 95ZM499.5 91.8929L499.5 89.8214L498.5 89.8214L498.5 91.8929L499.5 91.8929ZM499.5 87.75L499.5 85.6786L498.5 85.6786L498.5 87.75L499.5 87.75ZM499.5 83.6071L499.5 81.5357L498.5 81.5357L498.5 83.6071L499.5 83.6071ZM499.5 79.4643L499.5 77.3929L498.5 77.3929L498.5 79.4643L499.5 79.4643ZM499.5 75.3214L499.5 73.25L498.5 73.25L498.5 75.3214L499.5 75.3214ZM499.5 71.1786L499.5 69.1071L498.5 69.1071L498.5 71.1786L499.5 71.1786Z" fill="#3FABFF"/>
<rect x="294.5" y="65.5" width="12" height="16" fill="white" stroke="black"/>
<rect x="350.5" y="65.5" width="12" height="16" fill="white" stroke="black"/>
<rect x="406.5" y="65.5" width="12" height="16" fill="white" stroke="black"/>
<rect x="322.5" y="65.5" width="12" height="16" fill="white" stroke="black"/>
<rect x="378.5" y="65.5" width="12" height="16" fill="white" stroke="black"/>
<rect x="434.5" y="65.5" width="12" height="16" fill="white" stroke="black"/>
<rect x="308.5" y="65.5" width="12" height="16" fill="white" stroke="black"/>
<rect x="364.5" y="65.5" width="12" height="16" fill="white" stroke="black"/>
<rect x="420.5" y="65.5" width="12" height="16" fill="white" stroke="black"/>
<rect x="336.5" y="65.5" width="12" height="16" fill="white" stroke="black"/>
<rect x="392.5" y="65.5" width="12" height="16" fill="white" stroke="black"/>
<rect x="448.5" y="65.5" width="12" height="16" fill="white" stroke="black"/>
<rect x="293" y="69" width="172" height="27" fill="white"/>
<rect x="291" y="69" width="170" height="31" fill="white"/>
<path d="M288 94.5H292.5V69.5H462.5V94.5H467" stroke="black"/>
<line x1="293" y1="69.5" x2="462" y2="69.5" stroke="#C4C4C4"/>
<line x1="293" y1="94.5" x2="462" y2="94.5" stroke="#C4C4C4"/>
</svg>
