<svg width="45" height="44" viewBox="0 0 45 44" fill="none" xmlns="http://www.w3.org/2000/svg">
  <g>
    <circle cx="22.5" cy="22" r="22" fill="white" />
    <path
      d="M25.6143 4.00172L24.9249 8.41889C31.2494 9.57532 36.0616 15.1601 36.0616 21.8617C36.0616 29.3957 29.9775 35.526 22.4983 35.526C15.0191 35.526 8.93499 29.394 8.93499 21.86C8.93499 15.1601 13.7481 9.57532 20.0717 8.41717L19.3831 4C10.9374 5.49163 4.5 12.9291 4.5 21.8582C4.49658 31.8602 12.5719 40 22.4983 40C32.4246 40 40.5 31.8645 40.5 21.8643C40.5 12.9308 34.0575 5.49336 25.6143 4.00172Z"
      fill="#231F20" />
    <path
      d="M27.5842 19.8263C25.1787 16.1694 22.448 12.355 22.4471 12.355C22.4471 12.355 19.7148 16.1728 17.3093 19.8296C15.2348 22.9836 14.6272 26.8793 17.1894 29.6544C17.8554 30.3767 18.6642 30.9528 19.5645 31.3461C20.4648 31.7394 21.437 31.9414 22.4195 31.9392H22.4748C23.4573 31.9415 24.4295 31.7395 25.3298 31.3462C26.2302 30.9529 27.0389 30.3768 27.7049 29.6544C30.2629 26.876 29.6586 22.9802 27.5842 19.8263Z"
      fill="#231F20" />
    <path
      d="M25.6698 21.0297C25.058 20.9761 24.4419 21.3381 23.9751 21.7656C22.1856 23.405 20.1196 25.3261 17.5004 25.1861C17.4859 26.3383 17.8958 27.4555 18.652 28.325C19.0939 28.8361 19.6331 29.2541 20.2382 29.5548C20.8433 29.8554 21.5022 30.0325 22.1764 30.0759C22.2977 30.0915 22.4196 30.101 22.5419 30.1044C23.2199 30.1266 23.8957 30.0151 24.5306 29.7762C25.1655 29.5373 25.7472 29.1757 26.2423 28.712C26.7375 28.2482 27.1364 27.6915 27.4164 27.0736C27.6964 26.4557 27.852 25.7887 27.8742 25.1107C27.9152 23.8618 27.3436 21.489 25.9246 21.0775C25.8415 21.0531 25.7562 21.0371 25.6698 21.0297Z"
      fill="url(#paint0_linear_8465_33170)" />
  </g>
  <defs>
    <linearGradient id="paint0_linear_8465_33170" x1="17.4935" y1="25.3504" x2="30.5842" y2="25.7801"
      gradientUnits="userSpaceOnUse">
      <stop stop-color="#006FFF" />
      <stop offset="0.16" stop-color="#0380FB" />
      <stop offset="0.48" stop-color="#0CACEF" />
      <stop offset="0.92" stop-color="#19F2DD" />
      <stop offset="1" stop-color="#1CFFDA" />
    </linearGradient>
    <clipPath id="clip0_8465_33170">
      <rect width="44" height="44" fill="white" transform="translate(0.5)" />
    </clipPath>
  </defs>
</svg>