<?xml version="1.0" encoding="utf-8"?>
<!-- Generator: Adobe Illustrator 27.9.0, SVG Export Plug-In . SVG Version: 6.00 Build 0)  -->
<svg version="1.1" id="Layer_1" xmlns="http://www.w3.org/2000/svg" xmlns:xlink="http://www.w3.org/1999/xlink" x="0px" y="0px"
	 viewBox="0 0 500 1312.6" style="enable-background:new 0 0 500 1312.6;" xml:space="preserve">
<style type="text/css">
	.st0{fill:#B3D3FF;}
	.st1{fill:#006CF9;}
	.st2{fill:#B2B2B2;}
	.st3{fill:#CDCDCD;}
	.st4{fill:#575958;}
	.st5{fill:#9B9B9B;}
	.st6{fill:#363636;}
	.st7{clip-path:url(#SVGID_00000026143110801022342110000017584733268340023220_);fill:#FFFFFF;}
	
		.st8{clip-path:url(#SVGID_00000026143110801022342110000017584733268340023220_);fill:url(#SVGID_00000115487037059836204920000016081836270466627975_);}
</style>
<g>
	<g>
		<path class="st0" d="M284.5,749.3c-0.4-0.4-1.1-0.6-1.5-0.5c-39.4-4.8-66.6,0-66.9,0c-0.9,0.2-2.2,1.1-2.1,3.1l3.6,53.1h5.4
			l2.9,98.7l0.8,0.5c0,0,1.1,0.7,2.9,1.6l10.2,294.2l0.9,0.5c0.1,0.1,2,1.1,4.2,1.1c1.2,0,2.5-0.3,3.8-1.2l0.7-0.5l20.3-294.5
			c0.6-0.4,1.2-0.7,1.8-1.2l0.7-0.5l4.9-98.7h4.9l3.6-53.1C285.4,750.8,285.1,749.9,284.5,749.3z"/>
	</g>
	<g>
		<path class="st1" d="M285.3,751.9c0.1-1.1-0.2-2-0.9-2.6c-0.4-0.4-1.1-0.6-1.5-0.5c-39.4-4.8-66.6,0-66.9,0
			c-0.9,0.2-2.2,1.1-2.1,3.1l3.6,53.1h5.4l2.9,98.7l0.8,0.5c0,0,1.1,0.7,2.9,1.6l10.2,294.2l0.9,0.5c0.1,0.1,2,1.1,4.2,1.1
			c1.2,0,2.5-0.3,3.8-1.2l0.7-0.5l20.3-294.5c0.6-0.4,1.2-0.7,1.8-1.2l0.7-0.5l4.9-98.7h4.9L285.3,751.9z M281.8,752.2l-0.5,7.3
			c-32.7-3.8-56.7-1-63.3-0.1l-0.5-7.3C222.3,751.4,247.1,748,281.8,752.2z M236.9,801.5l-2.7-40.2c8.3-0.5,19.1-0.6,31.9,0.2
			l-2.7,40H236.9z M218.3,762.8c2.1-0.3,6.4-0.9,12.5-1.3l2.7,40h-12.5L218.3,762.8z M228.4,873.4c3.8-0.6,18.4-2.3,41.5,0l-0.3,6.8
			c-22.1-2.1-36.2-0.7-41,0L228.4,873.4z M228.7,883.6c4.1-0.6,18.4-2.2,40.7,0l-0.9,18.2c-13.7,9.3-28.5,4.9-35.7,1.7l0-0.3l-0.6,0
			c-1.3-0.6-2.3-1.1-3-1.5L228.7,883.6z M245.9,1197.8c-1,0.3-2,0.1-2.8-0.1L233,907.3c4.3,1.7,10.4,3.5,17.3,3.5
			c4.9,0,10.3-0.9,15.6-3.5L245.9,1197.8z M270.2,869.9c-22.9-2.3-37.3-0.7-41.8-0.1l-1.9-64.9h47L270.2,869.9z M266.9,801.5
			l2.6-39.7c3.7,0.3,7.6,0.7,11.5,1.1l-2.6,38.6H266.9z"/>
	</g>
	<g>
		<path class="st2" d="M275.8,575.1h-54.3c-0.6,0-1-0.4-1-1v-40.9c0-0.6,0.4-1,1-1h54.3c0.6,0,1,0.4,1,1v40.9
			C276.8,574.6,276.3,575.1,275.8,575.1z"/>
	</g>
	<g>
		<rect x="229.3" y="692.7" class="st3" width="39.1" height="53.1"/>
	</g>
	<g>
		<rect x="173.3" y="568.6" class="st2" width="152.2" height="118.2"/>
	</g>
	<g>
		<rect x="172.7" y="487.1" class="st4" width="152.2" height="56.1"/>
	</g>
	<g>
		<rect x="172.7" y="292.4" class="st4" width="152.2" height="58.8"/>
	</g>
	<g>
		<rect x="192.8" y="177.4" class="st4" width="112.5" height="127"/>
	</g>
	<g>
		<rect x="206.5" y="3.5" width="83.2" height="168"/>
	</g>
	<g>
		<path class="st5" d="M173.3,568.6c0,0,5.1-5.9,12.9-5.9c7.8,0,64,0,64,0v5.9H173.3z"/>
	</g>
	<g>
		<path class="st5" d="M325.5,568.6c0,0-5.1-5.9-12.9-5.9s-69.6,0-69.6,0v5.9H325.5z"/>
	</g>
	<g>
		<path class="st6" d="M172.7,292.4c0,0,5.1-5.9,12.9-5.9c7.8,0,63.7,0,63.7,0v5.9H172.7z"/>
	</g>
	<g>
		<path class="st6" d="M324.7,292.4c0,0-5.1-5.9-12.9-5.9c-7.8,0-69.3,0-69.3,0v5.9H324.7z"/>
	</g>
	<g>
		<path class="st6" d="M192.8,177.4c0,0,4.4-5.9,11.2-5.9s55.3,0,55.3,0v5.9H192.8z"/>
	</g>
	<g>
		<path class="st6" d="M305.3,177.4c0,0-4.4-5.9-11.2-5.9s-60.2,0-60.2,0v5.9H305.3z"/>
	</g>
	<g>
		<path class="st6" d="M324.9,543.2c0,0-5.1,5.9-12.9,5.9s-63.9,0-63.9,0v-5.9H324.9z"/>
	</g>
	<g>
		<path class="st6" d="M172.7,543.2c0,0,5.1,5.9,12.9,5.9c7.8,0,69.3,0,69.3,0v-5.9H172.7z"/>
	</g>
	<g>
		<rect x="172.7" y="334.1" class="st6" width="152.2" height="168.1"/>
	</g>
	<g>
		<path class="st5" d="M325.5,686.8c0,0-5.1,5.9-12.9,5.9s-64,0-64,0v-5.9H325.5z"/>
	</g>
	<g>
		<path class="st5" d="M173.3,686.8c0,0,5.1,5.9,12.9,5.9c7.8,0,69.6,0,69.6,0v-5.9H173.3z"/>
	</g>
	<g>
		<g>
			<defs>
				<rect id="SVGID_1_" x="202.5" width="92.5" height="92.5"/>
			</defs>
			<clipPath id="SVGID_00000009580334731624163340000001737677509184904893_">
				<use xlink:href="#SVGID_1_"  style="overflow:visible;"/>
			</clipPath>
			<path style="clip-path:url(#SVGID_00000009580334731624163340000001737677509184904893_);fill:#FFFFFF;" d="M202.5,92.5h92.5
				H202.5z"/>
			
				<linearGradient id="SVGID_00000018228462700503505320000010640974072000617886_" gradientUnits="userSpaceOnUse" x1="248.7991" y1="92.5377" x2="248.7991" y2="1.159013e-06">
				<stop  offset="0" style="stop-color:#FFFFFF;stop-opacity:0"/>
				<stop  offset="4.528195e-02" style="stop-color:#FFFFFF;stop-opacity:4.528195e-02"/>
				<stop  offset="1" style="stop-color:#FFFFFF"/>
			</linearGradient>
			
				<rect x="202.5" y="0" style="clip-path:url(#SVGID_00000009580334731624163340000001737677509184904893_);fill:url(#SVGID_00000018228462700503505320000010640974072000617886_);" width="92.5" height="92.5"/>
			<path style="clip-path:url(#SVGID_00000009580334731624163340000001737677509184904893_);fill:#FFFFFF;" d="M295.1,0h-92.5H295.1
				z"/>
		</g>
	</g>
	<g>
		<path class="st1" d="M195,1312.6l25.8-72.3h15.5l25.8,72.3h-14.6l-5.9-16.7h-26l-6,16.7H195z M219,1283.1h19.2l-9.5-28.8
			L219,1283.1z"/>
		<path class="st1" d="M282.1,1312.6v-54.1h-12.9v-8.3c4.1,0,7.5-0.4,10-1.2c2.6-0.8,4.5-1.9,5.7-3.4c1.3-1.5,2-3.3,2.2-5.3h9.7
			v72.3H282.1z"/>
	</g>
	<g>
		<g>
			<g>
				<path class="st1" d="M500,749.9h-48.4v-4.2H500V749.9z M435.5,749.9h-48.4v-4.2h48.4V749.9z M371,749.9h-48.4v-4.2H371V749.9z
					 M306.4,749.9h-48.4v-4.2h48.4V749.9z M241.9,749.9h-48.4v-4.2h48.4V749.9z M177.4,749.9H129v-4.2h48.4V749.9z M112.9,749.9
					H64.5v-4.2h48.4V749.9z M48.4,749.9H0v-4.2h48.4V749.9z"/>
			</g>
		</g>
	</g>
</g>
</svg>
