<?xml version="1.0" encoding="utf-8"?>
<!-- Generator: Adobe Illustrator 27.9.0, SVG Export Plug-In . SVG Version: 6.00 Build 0)  -->
<svg version="1.1" id="Layer_1" xmlns="http://www.w3.org/2000/svg" xmlns:xlink="http://www.w3.org/1999/xlink" x="0px" y="0px"
	 viewBox="0 0 500 1314.3" style="enable-background:new 0 0 500 1314.3;" xml:space="preserve">
<style type="text/css">
	.st0{fill:#EFF0F0;}
	.st1{fill:#9B9B9B;}
	.st2{fill:#B2B2B2;}
	.st3{fill:#CDCDCD;}
	.st4{fill:#575958;}
	.st5{fill:#363636;}
	.st6{fill:none;stroke:#006CF9;stroke-miterlimit:10;}
	.st7{clip-path:url(#SVGID_00000109751597688114682500000004511989543151545513_);}
	.st8{fill:#FFFFFF;}
	.st9{fill:url(#SVGID_00000094615499656749740230000017544319713630621094_);}
	.st10{fill:#006CF9;}
</style>
<g>
	<g>
		<g>
			
				<rect x="176" y="723.5" transform="matrix(6.123234e-17 -1 1 6.123234e-17 -571.9124 1069.9231)" class="st0" width="146" height="194.9"/>
		</g>
	</g>
	<g>
		<g>
			<polygon class="st1" points="151.6,893.9 151.6,750 346.4,750 346.4,893.9 349.8,893.9 349.8,745.8 148.2,745.8 148.2,893.9 			
				"/>
		</g>
	</g>
	<g>
		<g>
			<path class="st2" d="M275.2,575.1h-54.3c-0.6,0-1-0.4-1-1v-40.9c0-0.6,0.4-1,1-1h54.3c0.6,0,1,0.4,1,1v40.9
				C276.2,574.6,275.7,575.1,275.2,575.1z"/>
		</g>
	</g>
	<g>
		<g>
			<rect x="228.7" y="692.7" class="st3" width="39.1" height="53.1"/>
		</g>
	</g>
	<g>
		<g>
			<rect x="172.7" y="568.6" class="st2" width="152.2" height="118.2"/>
		</g>
	</g>
	<g>
		<g>
			<rect x="172.2" y="487.1" class="st4" width="152.2" height="56.1"/>
		</g>
	</g>
	<g>
		<g>
			<rect x="172.2" y="292.4" class="st4" width="152.2" height="58.8"/>
		</g>
	</g>
	<g>
		<g>
			<rect x="192.2" y="177.4" class="st4" width="112.5" height="127"/>
		</g>
	</g>
	<g>
		<g>
			<rect x="205.9" y="3.5" width="83.2" height="168"/>
		</g>
	</g>
	<g>
		<g>
			<path class="st1" d="M172.7,568.6c0,0,5.1-5.9,12.9-5.9c7.8,0,64,0,64,0v5.9H172.7z"/>
		</g>
	</g>
	<g>
		<g>
			<path class="st1" d="M324.9,568.6c0,0-5.1-5.9-12.9-5.9s-69.6,0-69.6,0v5.9H324.9z"/>
		</g>
	</g>
	<g>
		<g>
			<path class="st5" d="M172.2,292.4c0,0,5.1-5.9,12.9-5.9s63.7,0,63.7,0v5.9H172.2z"/>
		</g>
	</g>
	<g>
		<g>
			<path class="st5" d="M324.1,292.4c0,0-5.1-5.9-12.9-5.9c-7.8,0-69.3,0-69.3,0v5.9H324.1z"/>
		</g>
	</g>
	<g>
		<g>
			<path class="st5" d="M192.2,177.4c0,0,4.4-5.9,11.2-5.9s55.3,0,55.3,0v5.9H192.2z"/>
		</g>
	</g>
	<g>
		<g>
			<path class="st5" d="M304.7,177.4c0,0-4.4-5.9-11.2-5.9s-60.2,0-60.2,0v5.9H304.7z"/>
		</g>
	</g>
	<g>
		<g>
			<path class="st5" d="M324.3,543.2c0,0-5.1,5.9-12.9,5.9s-63.9,0-63.9,0v-5.9H324.3z"/>
		</g>
	</g>
	<g>
		<g>
			<path class="st5" d="M172.2,543.2c0,0,5.1,5.9,12.9,5.9s69.3,0,69.3,0v-5.9H172.2z"/>
		</g>
	</g>
	<g>
		<g>
			<rect x="172.2" y="334.1" class="st5" width="152.2" height="168.1"/>
		</g>
	</g>
	<g>
		<g>
			<path class="st1" d="M324.9,686.8c0,0-5.1,5.9-12.9,5.9s-64,0-64,0v-5.9H324.9z"/>
		</g>
	</g>
	<g>
		<g>
			<path class="st1" d="M172.7,686.8c0,0,5.1,5.9,12.9,5.9c7.8,0,69.6,0,69.6,0v-5.9H172.7z"/>
		</g>
	</g>
	<g>
		<g>
			<g>
				<g>
					<path class="st6" d="M147.5,749.1"/>
				</g>
			</g>
		</g>
	</g>
	<g>
		<g>
			<defs>
				<rect id="SVGID_1_" x="201.9" width="92.5" height="92.5"/>
			</defs>
			<clipPath id="SVGID_00000086673785907001843960000016031331868258644152_">
				<use xlink:href="#SVGID_1_"  style="overflow:visible;"/>
			</clipPath>
			<g style="clip-path:url(#SVGID_00000086673785907001843960000016031331868258644152_);">
				<path class="st8" d="M201.9,92.5h92.5H201.9z"/>
			</g>
			<g style="clip-path:url(#SVGID_00000086673785907001843960000016031331868258644152_);">
				
					<linearGradient id="SVGID_00000116922974943402631660000016368049826084292243_" gradientUnits="userSpaceOnUse" x1="248.2085" y1="92.5377" x2="248.2085" y2="-5.598322e-07">
					<stop  offset="0" style="stop-color:#FFFFFF;stop-opacity:0"/>
					<stop  offset="4.528195e-02" style="stop-color:#FFFFFF;stop-opacity:4.528195e-02"/>
					<stop  offset="1" style="stop-color:#FFFFFF"/>
				</linearGradient>
				
					<rect x="201.9" y="0" style="fill:url(#SVGID_00000116922974943402631660000016368049826084292243_);" width="92.5" height="92.5"/>
			</g>
			<g style="clip-path:url(#SVGID_00000086673785907001843960000016031331868258644152_);">
				<path class="st8" d="M294.5,0h-92.5H294.5z"/>
			</g>
		</g>
	</g>
	<g>
		<g>
			<g>
				<g>
					<path class="st10" d="M500,750h-48.4v-4.2H500V750z M435.5,750h-48.4v-4.2h48.4V750z M371,750h-48.4v-4.2H371V750z M306.4,750
						h-48.4v-4.2h48.4V750z M241.9,750h-48.4v-4.2h48.4V750z M177.4,750H129v-4.2h48.4V750z M112.9,750H64.5v-4.2h48.4V750z
						 M48.4,750H0v-4.2h48.4V750z"/>
				</g>
			</g>
		</g>
	</g>
	<g>
		<g>
			<path class="st10" d="M66.1,1073.3L92,1001h15.5l25.8,72.3h-14.6l-5.9-16.7h-26l-6,16.7H66.1z M90.1,1043.8h19.2l-9.5-28.8
				L90.1,1043.8z"/>
		</g>
		<g>
			<path class="st10" d="M158.8,1074.2c-3.8,0-6.8-0.5-9.1-1.4c-2.2-0.9-3.9-2.1-4.9-3.6c-1.1-1.5-1.7-3.1-2.1-4.9
				c-0.3-1.8-0.4-3.7-0.4-5.5V999h14.3v58c0,1.9,0.4,3.4,1.2,4.6c0.8,1.2,2.4,1.9,4.6,2.2l2.4,0.1v9c-1,0.3-2,0.6-3.1,0.9
				C160.8,1074.1,159.8,1074.2,158.8,1074.2z"/>
		</g>
		<g>
			<path class="st10" d="M174.7,1014.2V1001h14.2v13.2H174.7z M174.8,1073.3v-51.7h14v51.7H174.8z"/>
		</g>
		<g>
			<path class="st10" d="M225,1090.4c-9.2,0-16.2-1.2-21-3.5c-4.8-2.3-7.2-5.4-7.2-9.2c0-1.8,0.5-3.3,1.4-4.5c0.9-1.2,2-2.2,3.2-2.9
				c1.3-0.7,2.4-1.3,3.5-1.7c1-0.4,1.7-0.6,2-0.8c-0.5-0.3-1.3-0.7-2.3-1.3c-1-0.6-1.9-1.4-2.8-2.4c-0.8-1-1.2-2.3-1.2-4
				c0-1.8,0.9-3.5,2.6-5.1c1.7-1.6,4.4-2.7,8-3.3c-3.4-1.6-6-3.8-7.8-6.5c-1.8-2.7-2.7-5.5-2.7-8.4c0-3.4,1.1-6.3,3.2-8.7
				c2.1-2.4,5.1-4.3,8.8-5.5c3.7-1.3,7.9-1.9,12.5-1.9c3.5,0,6.4,0.4,8.7,1.1c2.3,0.7,4.4,1.7,6.3,2.9c0.8-0.3,1.8-0.7,3-1.2
				c1.2-0.5,2.6-1,4.1-1.6c1.5-0.6,2.9-1.2,4.3-1.7c1.4-0.6,2.7-1.1,3.8-1.6l-0.1,11.3l-8.9,1.5c0.3,0.9,0.6,1.9,0.8,2.9
				c0.2,1,0.3,1.9,0.3,2.5c0,3-0.9,5.8-2.6,8.4c-1.8,2.6-4.4,4.7-7.8,6.3c-3.5,1.6-7.8,2.4-12.9,2.4c-0.6,0-1.4,0-2.5-0.1
				c-1.1,0-1.9-0.1-2.6-0.1c-1.9,0.1-3.3,0.3-4,0.7c-0.7,0.4-1.1,0.9-1.1,1.4c0,0.8,0.7,1.3,2.3,1.6c1.5,0.2,3.8,0.5,6.8,0.7
				c1.1,0.1,2.6,0.1,4.5,0.2c1.9,0.1,4,0.2,6.2,0.4c6.3,0.4,11.1,2,14.2,4.7c3.1,2.7,4.7,6.1,4.7,10.1c0,4.8-2.3,8.8-6.9,12
				C241.1,1088.8,234.2,1090.4,225,1090.4z M227.4,1082.2c4,0,6.9-0.5,8.7-1.5c1.7-1,2.6-2.4,2.6-4.3c0-1.6-0.7-2.8-2-3.8
				c-1.4-1-3.3-1.6-5.8-1.7l-11.8-0.8c-1.6-0.1-2.9,0.2-4.1,0.7c-1.2,0.5-2.1,1.3-2.7,2.2c-0.7,0.9-1,1.9-1,3c0,2.2,1.3,3.8,4,4.7
				C217.7,1081.7,221.8,1082.2,227.4,1082.2z M224.6,1045.9c2.8,0,5-0.8,6.6-2.3c1.7-1.5,2.5-3.6,2.5-6.2c0-2.7-0.8-4.9-2.5-6.5
				c-1.7-1.6-3.9-2.4-6.6-2.4s-5,0.8-6.7,2.4c-1.7,1.6-2.6,3.8-2.6,6.5c0,2.6,0.8,4.6,2.5,6.1
				C219.5,1045.1,221.7,1045.9,224.6,1045.9z"/>
		</g>
		<g>
			<path class="st10" d="M263.9,1073.3v-51.7h14.3v7.3c0.8-1.3,1.8-2.5,3.1-3.7c1.3-1.2,2.9-2.2,4.9-2.9c2-0.8,4.3-1.1,7-1.1
				c3.2,0,6.1,0.6,8.9,1.8c2.8,1.2,5,3.2,6.7,5.8c1.7,2.7,2.6,6.1,2.6,10.4v34.1h-14.6V1041c0-2.8-0.8-4.9-2.5-6.3
				c-1.7-1.4-3.7-2.1-6.1-2.1c-1.6,0-3.1,0.3-4.6,0.8c-1.5,0.6-2.7,1.4-3.6,2.6c-0.9,1.1-1.4,2.5-1.4,4.2v33.1H263.9z"/>
		</g>
		<g>
			<path class="st10" d="M368,1073.8c-4.6,0-8.1-0.6-10.6-1.7c-2.5-1.2-4.2-2.8-5.2-4.9s-1.4-4.5-1.4-7.3v-28.1h-8.4v-10.1h8.8
				l3.7-15.6h10.4v15.6h11.5v10.2h-11.5l0.1,27.6c0,1.3,0.2,2.2,0.5,2.8c0.3,0.6,0.8,1,1.5,1.2c0.7,0.2,1.6,0.3,2.6,0.3h6.9v9
				c-0.7,0.3-1.7,0.6-3.1,0.8C372.5,1073.7,370.5,1073.8,368,1073.8z"/>
		</g>
		<g>
			<path class="st10" d="M408.2,1074.3c-5.1,0-9.5-1.1-13.2-3.2c-3.8-2.2-6.6-5.2-8.7-9.2c-2.1-4-3.1-8.7-3.1-14.1
				c0-5.4,1-10.2,3.1-14.2c2.1-4.1,4.9-7.2,8.7-9.5c3.8-2.3,8.2-3.4,13.3-3.4s9.5,1.1,13.2,3.3c3.7,2.2,6.6,5.4,8.7,9.4
				c2,4.1,3.1,8.9,3.1,14.4c0,5.2-1,9.8-3,13.8c-2,4-4.8,7.1-8.5,9.4C418,1073.1,413.5,1074.3,408.2,1074.3z M408.3,1063.4
				c2.6,0,4.6-0.8,6.2-2.3c1.6-1.5,2.7-3.5,3.4-5.9c0.7-2.4,1-5.1,1-8c0-2.7-0.3-5.3-1-7.7c-0.6-2.4-1.7-4.4-3.3-5.9
				c-1.6-1.5-3.7-2.3-6.4-2.3c-2.6,0-4.6,0.7-6.2,2.1c-1.6,1.4-2.7,3.3-3.5,5.8s-1.1,5.1-1.1,8c0,2.7,0.3,5.3,1,7.8
				c0.7,2.5,1.8,4.5,3.4,6.1C403.4,1062.6,405.5,1063.4,408.3,1063.4z"/>
		</g>
		<g>
			<path class="st10" d="M50.4,1193.8c-4.6,0-8.1-0.6-10.6-1.7c-2.5-1.2-4.2-2.8-5.2-4.9c-1-2.1-1.4-4.5-1.4-7.3v-28.1h-8.4v-10.1
				h8.8l3.7-15.6h10.4v15.6h11.5v10.2H47.8l0.1,27.6c0,1.3,0.2,2.2,0.5,2.8c0.3,0.6,0.8,1,1.5,1.2c0.7,0.2,1.6,0.3,2.6,0.3h6.9v9
				c-0.7,0.3-1.7,0.6-3.1,0.8C54.9,1193.7,52.9,1193.8,50.4,1193.8z"/>
		</g>
		<g>
			<path class="st10" d="M69.7,1193.3V1119h14.5v30.1c0.8-1.2,1.9-2.4,3.1-3.6c1.3-1.2,2.8-2.2,4.8-3c1.9-0.8,4.2-1.2,6.9-1.2
				c3.3,0,6.3,0.6,9,1.9c2.7,1.3,4.9,3.1,6.5,5.6c1.7,2.4,2.5,5.4,2.5,8.9v35.6h-14.7v-33.4c0-2.3-0.8-4.1-2.5-5.4
				c-1.7-1.2-3.7-1.9-6.1-1.9c-1.6,0-3.1,0.3-4.5,0.8c-1.5,0.6-2.7,1.4-3.6,2.6c-0.9,1.1-1.4,2.6-1.4,4.3v33H69.7z"/>
		</g>
		<g>
			<path class="st10" d="M152.7,1194.3c-5.1,0-9.6-1.1-13.5-3.2c-3.9-2.2-6.9-5.2-9.1-9.1c-2.2-3.9-3.2-8.6-3.2-13.9
				c0-5.2,1-9.8,3-14c2-4.2,4.8-7.4,8.6-9.8s8.3-3.6,13.5-3.6c5.3,0,9.7,1.1,13.2,3.3c3.6,2.2,6.3,5.3,8.1,9.2
				c1.8,4,2.8,8.5,2.8,13.7v3.9h-34.7c0,2.6,0.4,4.9,1.3,6.9c0.9,2,2.1,3.5,3.8,4.5s3.6,1.6,6,1.6c2.5,0,4.7-0.5,6.6-1.6
				c1.9-1.1,3.2-2.8,4-5.2H176c-0.6,3.7-2.1,6.8-4.4,9.4c-2.3,2.6-5.2,4.6-8.5,5.9C159.8,1193.6,156.3,1194.3,152.7,1194.3z
				 M141.3,1162.1h21.1c0-2.1-0.4-4-1.2-5.7c-0.8-1.7-2-3.1-3.5-4.1c-1.6-1-3.5-1.5-5.8-1.5c-2.2,0-4.1,0.5-5.7,1.6
				c-1.6,1.1-2.8,2.5-3.7,4.2C141.7,1158.4,141.3,1160.2,141.3,1162.1z"/>
		</g>
		<g>
			<path class="st10" d="M231.2,1193.8c-4.6,0-8.1-0.6-10.6-1.7c-2.5-1.2-4.2-2.8-5.2-4.9c-1-2.1-1.4-4.5-1.4-7.3v-28.1h-8.4v-10.1
				h8.8l3.7-15.6h10.4v15.6h11.5v10.2h-11.5l0.1,27.6c0,1.3,0.2,2.2,0.5,2.8c0.3,0.6,0.8,1,1.5,1.2c0.7,0.2,1.6,0.3,2.6,0.3h6.9v9
				c-0.7,0.3-1.7,0.6-3.1,0.8C235.7,1193.7,233.7,1193.8,231.2,1193.8z"/>
		</g>
		<g>
			<path class="st10" d="M271.4,1194.3c-5.1,0-9.5-1.1-13.2-3.2c-3.8-2.2-6.6-5.2-8.7-9.2c-2.1-4-3.1-8.7-3.1-14.1
				c0-5.4,1-10.2,3.1-14.2c2.1-4.1,4.9-7.2,8.7-9.5c3.8-2.3,8.2-3.4,13.3-3.4s9.5,1.1,13.2,3.3c3.7,2.2,6.6,5.4,8.7,9.4
				c2,4.1,3.1,8.9,3.1,14.4c0,5.2-1,9.8-3,13.8c-2,4-4.8,7.1-8.5,9.4C281.1,1193.1,276.6,1194.3,271.4,1194.3z M271.4,1183.4
				c2.6,0,4.6-0.8,6.2-2.3c1.6-1.5,2.7-3.5,3.4-5.9c0.7-2.4,1-5.1,1-8c0-2.7-0.3-5.3-1-7.7c-0.6-2.4-1.7-4.4-3.3-5.9
				c-1.6-1.5-3.7-2.3-6.4-2.3c-2.6,0-4.6,0.7-6.2,2.1c-1.6,1.4-2.7,3.3-3.5,5.8c-0.7,2.4-1.1,5.1-1.1,8c0,2.7,0.3,5.3,1,7.8
				c0.7,2.5,1.8,4.5,3.4,6.1C266.5,1182.6,268.7,1183.4,271.4,1183.4z"/>
		</g>
		<g>
			<path class="st10" d="M306.4,1209.4v-67.8H321l0,7.5c0.8-1.2,1.7-2.4,2.8-3.4c1.1-1,2.4-1.9,3.7-2.7c1.4-0.8,2.8-1.4,4.5-1.8
				c1.6-0.4,3.3-0.6,5.1-0.6c3.8,0,7.2,0.9,10.2,2.8c3,1.9,5.4,4.8,7.1,8.7c1.7,3.9,2.6,8.9,2.6,14.9c0,6.3-0.9,11.4-2.8,15.4
				c-1.8,4-4.4,7-7.6,8.9c-3.2,1.9-6.9,2.9-11,2.9c-1.7,0-3.2-0.2-4.7-0.7c-1.5-0.4-2.8-1.1-4.1-1.9c-1.2-0.8-2.4-1.7-3.4-2.8
				c-1-1-1.8-2.2-2.6-3.4v23.8H306.4z M332.2,1183.6c3.2,0,5.8-1.3,8-3.9c2.1-2.6,3.2-6.8,3.2-12.5c0-5-1-8.9-3.1-11.7
				c-2.1-2.8-4.8-4.2-8.1-4.2c-3.8,0-6.6,1.5-8.4,4.6c-1.8,3.1-2.8,6.8-2.8,11.4c0,2.9,0.4,5.6,1.2,8.1c0.8,2.5,2,4.5,3.7,6
				C327.5,1182.8,329.6,1183.6,332.2,1183.6z"/>
		</g>
		<g>
			<path class="st10" d="M411.3,1194.3c-5.1,0-9.5-1.1-13.2-3.2c-3.8-2.2-6.6-5.2-8.7-9.2c-2.1-4-3.1-8.7-3.1-14.1
				c0-5.4,1-10.2,3.1-14.2c2.1-4.1,4.9-7.2,8.7-9.5c3.8-2.3,8.2-3.4,13.3-3.4c5.1,0,9.5,1.1,13.2,3.3c3.7,2.2,6.6,5.4,8.7,9.4
				s3.1,8.9,3.1,14.4c0,5.2-1,9.8-3,13.8c-2,4-4.8,7.1-8.5,9.4C421,1193.1,416.5,1194.3,411.3,1194.3z M411.3,1183.4
				c2.6,0,4.6-0.8,6.2-2.3c1.6-1.5,2.7-3.5,3.4-5.9c0.7-2.4,1-5.1,1-8c0-2.7-0.3-5.3-1-7.7c-0.6-2.4-1.7-4.4-3.3-5.9
				c-1.6-1.5-3.7-2.3-6.4-2.3c-2.6,0-4.6,0.7-6.2,2.1c-1.6,1.4-2.7,3.3-3.5,5.8c-0.7,2.4-1.1,5.1-1.1,8c0,2.7,0.3,5.3,1,7.8
				c0.7,2.5,1.8,4.5,3.4,6.1C406.4,1182.6,408.6,1183.4,411.3,1183.4z"/>
		</g>
		<g>
			<path class="st10" d="M450.6,1193.3v-41.6h-9.6v-10.1h9.6v-7.4c0-4.2,1.2-7.4,3.7-9.7c2.5-2.3,5.9-3.5,10.4-3.5h11.8l0.1,9.7
				h-6.9c-1.8,0-3.1,0.5-3.8,1.4c-0.7,0.9-1,2.4-1,4.5v5h11.2v10.1h-10.9v41.6H450.6z"/>
		</g>
		<g>
			<path class="st10" d="M82.4,1314.2c-3.8,0-6.8-0.5-9.1-1.4c-2.2-0.9-3.9-2.1-4.9-3.6c-1.1-1.5-1.7-3.1-2.1-4.9s-0.4-3.7-0.4-5.5
				V1239h14.3v58c0,1.9,0.4,3.4,1.2,4.6c0.8,1.2,2.4,1.9,4.6,2.2l2.4,0.1v9c-1,0.3-2,0.6-3.1,0.9C84.4,1314,83.4,1314.2,82.4,1314.2
				z"/>
		</g>
		<g>
			<path class="st10" d="M113.7,1314.3c-3.3,0-6.2-0.6-8.9-1.8c-2.7-1.2-4.7-3-6.3-5.4c-1.5-2.4-2.3-5.2-2.3-8.6
				c0-5.7,2.1-10,6.3-12.9c4.2-2.9,10.9-4.5,20.1-4.6l6.5-0.1v-3.1c0-2.4-0.7-4.2-2.1-5.5c-1.4-1.3-3.5-1.9-6.5-1.9
				c-2.1,0-4.1,0.5-6,1.5c-1.9,1-3.2,2.7-4,5H98.4c0.2-3.7,1.3-6.8,3.3-9.2c2-2.4,4.7-4.2,8-5.4c3.4-1.2,7.2-1.8,11.5-1.8
				c5.3,0,9.5,0.7,12.7,2c3.2,1.3,5.5,3.2,7,5.6s2.2,5.4,2.2,8.7v36.4h-12.2l-1.2-8.9c-1.8,3.7-4,6.3-6.6,7.8
				C120.5,1313.6,117.3,1314.3,113.7,1314.3z M118.6,1304.7c1.3,0,2.6-0.2,3.8-0.7c1.3-0.5,2.4-1.1,3.4-1.9c1-0.8,1.8-1.7,2.4-2.8
				c0.6-1,0.9-2.1,0.9-3.2v-7.6l-5.2,0.1c-2.4,0-4.7,0.3-6.8,0.9c-2.1,0.6-3.8,1.4-5.1,2.7c-1.3,1.2-1.9,2.9-1.9,5
				c0,2.4,0.8,4.3,2.5,5.6C114.2,1304,116.2,1304.7,118.6,1304.7z"/>
		</g>
		<g>
			<path class="st10" d="M183.8,1314.3c-2.6,0-4.8-0.3-6.6-1c-1.9-0.7-3.5-1.6-4.8-2.7c-1.3-1.1-2.4-2.4-3.2-3.7
				c-0.8-1.4-1.5-2.8-2-4.2l-1.6,10.6H155V1239h14.6v29.6c0.6-1.1,1.4-2.1,2.4-3.1c1-1,2.2-1.8,3.5-2.5c1.3-0.7,2.8-1.3,4.4-1.7
				s3.3-0.6,5.2-0.6c6.4,0,11.5,2.3,15.1,6.9c3.6,4.6,5.5,11.2,5.5,19.6c0,5.5-0.8,10.2-2.5,14.3c-1.7,4.1-4.1,7.2-7.4,9.5
				C192.6,1313.1,188.6,1314.3,183.8,1314.3z M180.6,1303.8c3.1,0,5.7-1.3,7.8-3.9c2.1-2.6,3.1-6.9,3.1-13c0-5.4-1-9.3-3-11.9
				c-2-2.6-4.7-3.8-8.1-3.8c-2.4,0-4.4,0.6-6,1.7c-1.6,1.1-2.8,2.9-3.6,5.2c-0.8,2.3-1.2,5.3-1.2,8.8c0,6.1,0.9,10.4,2.7,13
				C174.2,1302.5,176.9,1303.8,180.6,1303.8z"/>
		</g>
		<g>
			<path class="st10" d="M226.5,1313.3l-16.8-51.7h12.9l9.9,32h0.3l9.5-32h10.4l9.6,32h0.4l9.6-32h13.2l-17,51.7H257l-9.6-31.3
				l-9.7,31.3H226.5z"/>
		</g>
		<g>
			<path class="st10" d="M306.8,1314.3c-3.3,0-6.2-0.6-8.9-1.8c-2.7-1.2-4.7-3-6.3-5.4c-1.5-2.4-2.3-5.2-2.3-8.6
				c0-5.7,2.1-10,6.3-12.9c4.2-2.9,10.9-4.5,20.1-4.6l6.5-0.1v-3.1c0-2.4-0.7-4.2-2.1-5.5c-1.4-1.3-3.5-1.9-6.5-1.9
				c-2.1,0-4.1,0.5-6,1.5c-1.9,1-3.2,2.7-4,5h-12.1c0.2-3.7,1.3-6.8,3.3-9.2c2-2.4,4.7-4.2,8-5.4c3.4-1.2,7.2-1.8,11.5-1.8
				c5.3,0,9.5,0.7,12.7,2c3.2,1.3,5.5,3.2,7,5.6s2.2,5.4,2.2,8.7v36.4h-12.2l-1.2-8.9c-1.8,3.7-4,6.3-6.6,7.8
				C313.6,1313.6,310.5,1314.3,306.8,1314.3z M311.8,1304.7c1.3,0,2.6-0.2,3.8-0.7c1.3-0.5,2.4-1.1,3.4-1.9c1-0.8,1.8-1.7,2.4-2.8
				c0.6-1,0.9-2.1,0.9-3.2v-7.6l-5.2,0.1c-2.4,0-4.7,0.3-6.8,0.9c-2.1,0.6-3.8,1.4-5.1,2.7c-1.3,1.2-1.9,2.9-1.9,5
				c0,2.4,0.8,4.3,2.5,5.6C307.4,1304,309.4,1304.7,311.8,1304.7z"/>
		</g>
		<g>
			<path class="st10" d="M348.1,1313.3v-51.7h14v12.2c0.8-2.6,2-4.9,3.5-6.9c1.5-2,3.4-3.5,5.5-4.6c2.2-1.1,4.6-1.7,7.3-1.7
				c0.5,0,0.9,0,1.3,0.1c0.4,0.1,0.7,0.1,0.9,0.2v13.9c-0.3-0.1-0.7-0.2-1.1-0.3c-0.4,0-0.8-0.1-1.1-0.1c-2.9-0.2-5.3-0.1-7.3,0.3
				c-2,0.4-3.7,1.1-5,2.1c-1.3,1-2.2,2.1-2.8,3.5c-0.6,1.4-0.8,3-0.8,4.7v28.3H348.1z"/>
		</g>
		<g>
			<path class="st10" d="M413,1314.3c-5.1,0-9.6-1.1-13.5-3.2c-3.9-2.2-6.9-5.2-9.1-9.1c-2.2-3.9-3.2-8.6-3.2-13.9c0-5.2,1-9.8,3-14
				c2-4.2,4.8-7.4,8.6-9.8s8.3-3.6,13.5-3.6c5.3,0,9.7,1.1,13.2,3.3c3.6,2.2,6.3,5.3,8.1,9.2c1.8,4,2.8,8.5,2.8,13.7v3.9h-34.7
				c0,2.6,0.4,4.9,1.3,6.9c0.9,2,2.1,3.5,3.8,4.5s3.6,1.6,6,1.6c2.5,0,4.7-0.5,6.6-1.6c1.9-1.1,3.2-2.8,4-5.2h13.2
				c-0.6,3.7-2.1,6.8-4.4,9.4c-2.3,2.6-5.2,4.6-8.5,5.9C420,1313.6,416.6,1314.3,413,1314.3z M401.6,1282.1h21.1
				c0-2.1-0.4-4-1.2-5.7c-0.8-1.7-2-3.1-3.5-4.1c-1.6-1-3.5-1.5-5.8-1.5c-2.2,0-4.1,0.5-5.7,1.6c-1.6,1.1-2.8,2.5-3.7,4.2
				C401.9,1278.3,401.5,1280.2,401.6,1282.1z"/>
		</g>
	</g>
</g>
</svg>
