<svg width="77" height="139" viewBox="0 0 77 139" fill="none" xmlns="http://www.w3.org/2000/svg">
<g clip-path="url(#clip0_2830_15812)">
<path d="M23.418 116.089V138.751H53.5272V116.089H23.418Z" fill="#EFF0F0"/>
<path d="M23.4198 138.747V116.412H53.5135V138.747H54.0388V115.76H22.8945V138.747H23.4198Z" fill="#9B9B9B"/>
<path d="M42.5147 89.2645H34.1262C34.0335 89.2645 33.9717 89.2024 33.9717 89.1092V82.7609C33.9717 82.6678 34.0335 82.6057 34.1262 82.6057H42.5147C42.6074 82.6057 42.6692 82.6678 42.6692 82.7609V89.1092C42.6692 89.1869 42.592 89.2645 42.5147 89.2645Z" fill="#B2B2B2"/>
<path d="M41.3714 107.518H35.3311V115.76H41.3714V107.518Z" fill="#CDCDCD"/>
<path d="M50.1924 88.2556H26.6797V106.602H50.1924V88.2556Z" fill="#B2B2B2"/>
<path d="M50.1152 75.6055H26.6025V84.3131H50.1152V75.6055Z" fill="#575958"/>
<path d="M50.1152 45.385H26.6025V54.5117H50.1152V45.385Z" fill="#575958"/>
<path d="M47.072 27.5353H29.6924V47.2477H47.072V27.5353Z" fill="#575958"/>
<path d="M44.6618 0.543213H31.8086V26.6195H44.6618V0.543213Z" fill="#16212D"/>
<path d="M26.6797 88.2556C26.6797 88.2556 27.4676 87.3398 28.6726 87.3398C29.8775 87.3398 38.5596 87.3398 38.5596 87.3398V88.2556H26.6797Z" fill="#9B9B9B"/>
<path d="M50.1923 88.2556C50.1923 88.2556 49.4044 87.3398 48.1995 87.3398C46.9945 87.3398 37.4473 87.3398 37.4473 87.3398V88.2556H50.1923Z" fill="#9B9B9B"/>
<path d="M26.6025 45.385C26.6025 45.385 27.3904 44.4692 28.5954 44.4692C29.8004 44.4692 38.4361 44.4692 38.4361 44.4692V45.385H26.6025Z" fill="#363636"/>
<path d="M50.0688 45.385C50.0688 45.385 49.2809 44.4692 48.076 44.4692C46.871 44.4692 37.3701 44.4692 37.3701 44.4692V45.385H50.0688Z" fill="#363636"/>
<path d="M29.6924 27.5353C29.6924 27.5353 30.3721 26.6195 31.4226 26.6195C32.4731 26.6195 39.9657 26.6195 39.9657 26.6195V27.5353H29.6924Z" fill="#363636"/>
<path d="M47.0713 27.5353C47.0713 27.5353 46.3915 26.6195 45.341 26.6195C44.2905 26.6195 36.041 26.6195 36.041 26.6195V27.5353H47.0713Z" fill="#363636"/>
<path d="M50.0998 84.3132C50.0998 84.3132 49.312 85.229 48.107 85.229C46.902 85.229 38.2354 85.229 38.2354 85.229V84.3132H50.0998Z" fill="#363636"/>
<path d="M26.6025 84.3132C26.6025 84.3132 27.3904 85.229 28.5954 85.229C29.8004 85.229 39.3012 85.229 39.3012 85.229V84.3132H26.6025Z" fill="#363636"/>
<path d="M50.1152 51.8575H26.6025V77.9493H50.1152V51.8575Z" fill="#363636"/>
<path d="M50.1924 106.602C50.1924 106.602 49.4046 107.518 48.1996 107.518C46.9946 107.518 38.3125 107.518 38.3125 107.518V106.602H50.1924Z" fill="#9B9B9B"/>
<path d="M26.6797 106.602C26.6797 106.602 27.4676 107.518 28.6726 107.518C29.8775 107.518 39.4247 107.518 39.4247 107.518V106.602H26.6797Z" fill="#9B9B9B"/>
<mask id="mask0_2830_15812" style="mask-type:luminance" maskUnits="userSpaceOnUse" x="31" y="0" width="15" height="15">
<path d="M45.4803 0H31.1904V14.3575H45.4803V0Z" fill="white"/>
</mask>
<g mask="url(#mask0_2830_15812)">
<path d="M45.4803 0H31.1904V14.3575H45.4803V0Z" fill="url(#paint0_linear_2830_15812)"/>
</g>
<path d="M77.2427 116.412H69.7656V115.76H77.2427V116.412ZM67.2784 116.412H59.8013V115.76H67.2784V116.412ZM57.3141 116.412H49.837V115.76H57.3141V116.412ZM47.3343 116.412H39.8572V115.76H47.3343V116.412ZM37.37 116.412H29.8929V115.76H37.37V116.412ZM27.4057 116.412H19.9286V115.76H27.4057V116.412ZM17.4414 116.412H9.96431V115.76H17.4414V116.412ZM7.4771 116.412H0V115.76H7.4771V116.412Z" fill="#006CFA"/>
</g>
<defs>
<linearGradient id="paint0_linear_2830_15812" x1="38.3444" y1="14.3633" x2="38.3444" y2="0" gradientUnits="userSpaceOnUse">
<stop stop-color="white" stop-opacity="0"/>
<stop offset="0.045282" stop-color="white" stop-opacity="0.045282"/>
<stop offset="1" stop-color="white"/>
</linearGradient>
<clipPath id="clip0_2830_15812">
<rect width="77" height="139" fill="white"/>
</clipPath>
</defs>
</svg>
