<svg width="89" height="145" viewBox="0 0 89 145" fill="none" xmlns="http://www.w3.org/2000/svg">
<rect x="0.5" y="0.5" width="88" height="144" rx="9.5" fill="white" stroke="#C4C4C4"/>
<rect x="41.5" y="48.5" width="6" height="15" fill="#E6E6E6" stroke="#6F6F6F"/>
<path fill-rule="evenodd" clip-rule="evenodd" d="M36 37.5V2H43.5556H45.4444H48.2778H53V37.5L51.1111 41V48C51.1111 48.5523 50.6634 49 50.1111 49H38.8889C38.3366 49 37.8889 48.5523 37.8889 48L37.8889 41L36 37.5Z" fill="black"/>
<path d="M41 79.6444L45 130L48 79.6444M41 79.6444V64H48V79.6444M41 79.6444H48" stroke="#0076FF" stroke-width="1.5"/>
<rect x="35" y="2" width="18" height="22" fill="url(#paint0_linear)"/>
<line x1="77.75" y1="63.25" x2="11.25" y2="63.25" stroke="#00C3E6" stroke-width="0.5" stroke-linecap="round" stroke-dasharray="3 2"/>
<defs>
<linearGradient id="paint0_linear" x1="44" y1="2.5" x2="44" y2="17.5833" gradientUnits="userSpaceOnUse">
<stop stop-color="white"/>
<stop offset="1" stop-color="white" stop-opacity="0"/>
</linearGradient>
</defs>
</svg>
