<svg width="80" height="15" viewBox="0 0 80 15" fill="none" xmlns="http://www.w3.org/2000/svg">
<path d="M0 4C0 1.79086 1.79086 0 4 0H76C78.2091 0 80 1.79086 80 4V11C80 13.2091 78.2091 15 76 15H4C1.79086 15 0 13.2091 0 11V4Z" fill="#ACCFFF" fill-opacity="0.5"/>
<circle cx="8" cy="7" r="2" fill="#006FFF"/>
<path d="M20.5576 11H19.6006L15.709 5.00391H15.6699C15.6797 5.16341 15.6911 5.3457 15.7041 5.55078C15.7171 5.7526 15.7269 5.96908 15.7334 6.2002C15.7432 6.42806 15.748 6.66081 15.748 6.89844V11H14.9766V3.86133H15.9287L19.8057 9.83789H19.8398C19.8333 9.72396 19.8252 9.56283 19.8154 9.35449C19.8057 9.1429 19.7959 8.91667 19.7861 8.67578C19.7796 8.43164 19.7764 8.2054 19.7764 7.99707V3.86133H20.5576V11ZM26.998 8.31445C26.998 8.75391 26.9411 9.14616 26.8271 9.49121C26.7132 9.83626 26.5488 10.1276 26.334 10.3652C26.1191 10.6029 25.8587 10.7852 25.5527 10.9121C25.25 11.0358 24.9066 11.0977 24.5225 11.0977C24.1644 11.0977 23.8356 11.0358 23.5361 10.9121C23.2399 10.7852 22.9827 10.6029 22.7646 10.3652C22.5498 10.1276 22.3822 9.83626 22.2617 9.49121C22.1445 9.14616 22.0859 8.75391 22.0859 8.31445C22.0859 7.72852 22.1852 7.23047 22.3838 6.82031C22.5824 6.4069 22.8656 6.09277 23.2334 5.87793C23.6045 5.65983 24.0456 5.55078 24.5566 5.55078C25.0449 5.55078 25.4714 5.65983 25.8359 5.87793C26.2038 6.09603 26.4886 6.41178 26.6904 6.8252C26.8955 7.23535 26.998 7.73177 26.998 8.31445ZM22.9258 8.31445C22.9258 8.74414 22.9827 9.11686 23.0967 9.43262C23.2106 9.74837 23.3864 9.99251 23.624 10.165C23.8617 10.3376 24.1676 10.4238 24.542 10.4238C24.9131 10.4238 25.2174 10.3376 25.4551 10.165C25.696 9.99251 25.8734 9.74837 25.9873 9.43262C26.1012 9.11686 26.1582 8.74414 26.1582 8.31445C26.1582 7.88802 26.1012 7.52018 25.9873 7.21094C25.8734 6.89844 25.6976 6.65755 25.46 6.48828C25.2223 6.31901 24.9147 6.23438 24.5371 6.23438C23.9805 6.23438 23.5719 6.41829 23.3115 6.78613C23.0544 7.15397 22.9258 7.66341 22.9258 8.31445ZM30.1279 10.4336C30.2614 10.4336 30.3981 10.4222 30.5381 10.3994C30.6781 10.3766 30.792 10.349 30.8799 10.3164V10.9463C30.7855 10.9886 30.6536 11.0244 30.4844 11.0537C30.3184 11.083 30.1556 11.0977 29.9961 11.0977C29.7129 11.0977 29.4557 11.0488 29.2246 10.9512C28.9935 10.8503 28.8079 10.681 28.668 10.4434C28.5312 10.2057 28.4629 9.87695 28.4629 9.45703V6.2832H27.7012V5.8877L28.4678 5.57031L28.79 4.4082H29.2783V5.64844H30.8457V6.2832H29.2783V9.43262C29.2783 9.7679 29.3548 10.0186 29.5078 10.1846C29.6641 10.3506 29.8708 10.4336 30.1279 10.4336ZM36.6221 5.55078C37.0778 5.55078 37.4684 5.65169 37.7939 5.85352C38.1195 6.05534 38.3685 6.33854 38.541 6.70312C38.7135 7.06445 38.7998 7.48763 38.7998 7.97266V8.47559H35.1035C35.1133 9.10384 35.2695 9.58236 35.5723 9.91113C35.875 10.2399 36.3014 10.4043 36.8516 10.4043C37.1901 10.4043 37.4896 10.3734 37.75 10.3115C38.0104 10.2497 38.2806 10.1585 38.5605 10.0381V10.751C38.2904 10.8714 38.0218 10.9593 37.7549 11.0146C37.4912 11.07 37.1787 11.0977 36.8174 11.0977C36.3031 11.0977 35.8538 10.9935 35.4697 10.7852C35.0889 10.5736 34.7926 10.2643 34.5811 9.85742C34.3695 9.45052 34.2637 8.95247 34.2637 8.36328C34.2637 7.78711 34.3597 7.28906 34.5518 6.86914C34.7471 6.44596 35.0205 6.12044 35.3721 5.89258C35.7269 5.66471 36.1436 5.55078 36.6221 5.55078ZM36.6123 6.21484C36.1794 6.21484 35.8343 6.35645 35.5771 6.63965C35.32 6.92285 35.167 7.31836 35.1182 7.82617H37.9502C37.9469 7.50716 37.8965 7.22721 37.7988 6.98633C37.7044 6.74219 37.5596 6.55339 37.3643 6.41992C37.1689 6.2832 36.9183 6.21484 36.6123 6.21484ZM42.7109 5.55078C43.3457 5.55078 43.8258 5.70703 44.1514 6.01953C44.4769 6.32878 44.6396 6.82682 44.6396 7.51367V11H43.8389V7.56738C43.8389 7.12142 43.7363 6.78776 43.5312 6.56641C43.3294 6.34505 43.0186 6.23438 42.5986 6.23438C42.0062 6.23438 41.5895 6.40202 41.3486 6.7373C41.1077 7.07259 40.9873 7.55924 40.9873 8.19727V11H40.1768V5.64844H40.8311L40.9531 6.41992H40.9971C41.111 6.23112 41.2559 6.07324 41.4316 5.94629C41.6074 5.81608 41.8044 5.71842 42.0225 5.65332C42.2406 5.58496 42.4701 5.55078 42.7109 5.55078ZM47.8037 13.4023C47.1006 13.4023 46.5586 13.2705 46.1777 13.0068C45.7969 12.7464 45.6064 12.3802 45.6064 11.9082C45.6064 11.5729 45.7122 11.2865 45.9238 11.0488C46.1387 10.8112 46.4349 10.6533 46.8125 10.5752C46.6725 10.5101 46.5521 10.4124 46.4512 10.2822C46.3535 10.152 46.3047 10.0023 46.3047 9.83301C46.3047 9.6377 46.3584 9.4668 46.4658 9.32031C46.5765 9.17057 46.7441 9.02734 46.9688 8.89062C46.6888 8.77669 46.4609 8.58464 46.2852 8.31445C46.1126 8.04102 46.0264 7.72363 46.0264 7.3623C46.0264 6.97819 46.1061 6.65104 46.2656 6.38086C46.4251 6.10742 46.6562 5.89909 46.959 5.75586C47.2617 5.61263 47.6279 5.54102 48.0576 5.54102C48.152 5.54102 48.2464 5.5459 48.3408 5.55566C48.4385 5.56217 48.5312 5.57357 48.6191 5.58984C48.707 5.60286 48.7835 5.61914 48.8486 5.63867H50.6846V6.16113L49.6982 6.2832C49.7959 6.41016 49.8773 6.56315 49.9424 6.74219C50.0075 6.92122 50.04 7.11979 50.04 7.33789C50.04 7.87174 49.8594 8.29655 49.498 8.6123C49.1367 8.9248 48.6403 9.08105 48.0088 9.08105C47.859 9.08105 47.7061 9.06803 47.5498 9.04199C47.3903 9.12988 47.2682 9.22754 47.1836 9.33496C47.1022 9.44238 47.0615 9.56608 47.0615 9.70605C47.0615 9.81022 47.0924 9.89323 47.1543 9.95508C47.2194 10.0169 47.3122 10.0625 47.4326 10.0918C47.5531 10.1178 47.6979 10.1309 47.8672 10.1309H48.8096C49.3923 10.1309 49.8382 10.2529 50.1475 10.4971C50.46 10.7412 50.6162 11.0977 50.6162 11.5664C50.6162 12.1589 50.3753 12.613 49.8936 12.9287C49.4118 13.2445 48.7152 13.4023 47.8037 13.4023ZM47.8281 12.7676C48.2708 12.7676 48.637 12.722 48.9268 12.6309C49.2197 12.543 49.4378 12.4144 49.5811 12.2451C49.7275 12.0791 49.8008 11.8805 49.8008 11.6494C49.8008 11.4346 49.752 11.2718 49.6543 11.1611C49.5566 11.0537 49.4134 10.9821 49.2246 10.9463C49.0358 10.9072 48.8047 10.8877 48.5312 10.8877H47.6035C47.3626 10.8877 47.1527 10.9251 46.9736 11C46.7946 11.0749 46.6562 11.1855 46.5586 11.332C46.4642 11.4785 46.417 11.6608 46.417 11.8789C46.417 12.1686 46.5391 12.3883 46.7832 12.5381C47.0273 12.6911 47.3757 12.7676 47.8281 12.7676ZM48.0381 8.49023C48.4255 8.49023 48.7168 8.39258 48.9121 8.19727C49.1074 8.00195 49.2051 7.71712 49.2051 7.34277C49.2051 6.94238 49.1058 6.6429 48.9072 6.44434C48.7087 6.24251 48.4157 6.1416 48.0283 6.1416C47.6572 6.1416 47.3708 6.24577 47.1689 6.4541C46.9704 6.65918 46.8711 6.96029 46.8711 7.35742C46.8711 7.72201 46.972 8.00195 47.1738 8.19727C47.3757 8.39258 47.6637 8.49023 48.0381 8.49023ZM53.7412 5.56055C54.3792 5.56055 54.8529 5.70378 55.1621 5.99023C55.4714 6.27669 55.626 6.73405 55.626 7.3623V11H55.0352L54.8789 10.209H54.8398C54.6901 10.4043 54.5339 10.5687 54.3711 10.7021C54.2083 10.8324 54.0195 10.9316 53.8047 11C53.5931 11.0651 53.3327 11.0977 53.0234 11.0977C52.6979 11.0977 52.4082 11.0407 52.1543 10.9268C51.9036 10.8128 51.7051 10.6403 51.5586 10.4092C51.4154 10.1781 51.3438 9.88509 51.3438 9.53027C51.3438 8.99642 51.5553 8.58626 51.9785 8.2998C52.4017 8.01335 53.0462 7.8571 53.9121 7.83105L54.835 7.79199V7.46484C54.835 7.0026 54.7357 6.67871 54.5371 6.49316C54.3385 6.30762 54.0586 6.21484 53.6973 6.21484C53.4173 6.21484 53.1504 6.25553 52.8965 6.33691C52.6426 6.41829 52.4017 6.51432 52.1738 6.625L51.9248 6.00977C52.1657 5.88607 52.4424 5.78027 52.7549 5.69238C53.0674 5.60449 53.3962 5.56055 53.7412 5.56055ZM54.8252 8.36328L54.0098 8.39746C53.3424 8.4235 52.8721 8.53255 52.5986 8.72461C52.3252 8.91667 52.1885 9.18848 52.1885 9.54004C52.1885 9.84603 52.2812 10.0723 52.4668 10.2188C52.6523 10.3652 52.8981 10.4385 53.2041 10.4385C53.6794 10.4385 54.0684 10.3066 54.3711 10.043C54.6738 9.7793 54.8252 9.38379 54.8252 8.85645V8.36328ZM58.79 13.4023C58.0869 13.4023 57.5449 13.2705 57.1641 13.0068C56.7832 12.7464 56.5928 12.3802 56.5928 11.9082C56.5928 11.5729 56.6986 11.2865 56.9102 11.0488C57.125 10.8112 57.4212 10.6533 57.7988 10.5752C57.6589 10.5101 57.5384 10.4124 57.4375 10.2822C57.3398 10.152 57.291 10.0023 57.291 9.83301C57.291 9.6377 57.3447 9.4668 57.4521 9.32031C57.5628 9.17057 57.7305 9.02734 57.9551 8.89062C57.6751 8.77669 57.4473 8.58464 57.2715 8.31445C57.099 8.04102 57.0127 7.72363 57.0127 7.3623C57.0127 6.97819 57.0924 6.65104 57.252 6.38086C57.4115 6.10742 57.6426 5.89909 57.9453 5.75586C58.248 5.61263 58.6143 5.54102 59.0439 5.54102C59.1383 5.54102 59.2327 5.5459 59.3271 5.55566C59.4248 5.56217 59.5176 5.57357 59.6055 5.58984C59.6934 5.60286 59.7699 5.61914 59.835 5.63867H61.6709V6.16113L60.6846 6.2832C60.7822 6.41016 60.8636 6.56315 60.9287 6.74219C60.9938 6.92122 61.0264 7.11979 61.0264 7.33789C61.0264 7.87174 60.8457 8.29655 60.4844 8.6123C60.123 8.9248 59.6266 9.08105 58.9951 9.08105C58.8454 9.08105 58.6924 9.06803 58.5361 9.04199C58.3766 9.12988 58.2546 9.22754 58.1699 9.33496C58.0885 9.44238 58.0479 9.56608 58.0479 9.70605C58.0479 9.81022 58.0788 9.89323 58.1406 9.95508C58.2057 10.0169 58.2985 10.0625 58.4189 10.0918C58.5394 10.1178 58.6842 10.1309 58.8535 10.1309H59.7959C60.3786 10.1309 60.8245 10.2529 61.1338 10.4971C61.4463 10.7412 61.6025 11.0977 61.6025 11.5664C61.6025 12.1589 61.3617 12.613 60.8799 12.9287C60.3981 13.2445 59.7015 13.4023 58.79 13.4023ZM58.8145 12.7676C59.2572 12.7676 59.6234 12.722 59.9131 12.6309C60.2061 12.543 60.4242 12.4144 60.5674 12.2451C60.7139 12.0791 60.7871 11.8805 60.7871 11.6494C60.7871 11.4346 60.7383 11.2718 60.6406 11.1611C60.543 11.0537 60.3997 10.9821 60.2109 10.9463C60.0221 10.9072 59.791 10.8877 59.5176 10.8877H58.5898C58.349 10.8877 58.139 10.9251 57.96 11C57.7809 11.0749 57.6426 11.1855 57.5449 11.332C57.4505 11.4785 57.4033 11.6608 57.4033 11.8789C57.4033 12.1686 57.5254 12.3883 57.7695 12.5381C58.0137 12.6911 58.362 12.7676 58.8145 12.7676ZM59.0244 8.49023C59.4118 8.49023 59.7031 8.39258 59.8984 8.19727C60.0938 8.00195 60.1914 7.71712 60.1914 7.34277C60.1914 6.94238 60.0921 6.6429 59.8936 6.44434C59.695 6.24251 59.402 6.1416 59.0146 6.1416C58.6436 6.1416 58.3571 6.24577 58.1553 6.4541C57.9567 6.65918 57.8574 6.96029 57.8574 7.35742C57.8574 7.72201 57.9583 8.00195 58.1602 8.19727C58.362 8.39258 58.6501 8.49023 59.0244 8.49023ZM64.7861 5.55078C65.2419 5.55078 65.6325 5.65169 65.958 5.85352C66.2835 6.05534 66.5326 6.33854 66.7051 6.70312C66.8776 7.06445 66.9639 7.48763 66.9639 7.97266V8.47559H63.2676C63.2773 9.10384 63.4336 9.58236 63.7363 9.91113C64.0391 10.2399 64.4655 10.4043 65.0156 10.4043C65.3542 10.4043 65.6536 10.3734 65.9141 10.3115C66.1745 10.2497 66.4447 10.1585 66.7246 10.0381V10.751C66.4544 10.8714 66.1859 10.9593 65.9189 11.0146C65.6553 11.07 65.3428 11.0977 64.9814 11.0977C64.4671 11.0977 64.0179 10.9935 63.6338 10.7852C63.2529 10.5736 62.9567 10.2643 62.7451 9.85742C62.5335 9.45052 62.4277 8.95247 62.4277 8.36328C62.4277 7.78711 62.5238 7.28906 62.7158 6.86914C62.9111 6.44596 63.1846 6.12044 63.5361 5.89258C63.891 5.66471 64.3076 5.55078 64.7861 5.55078ZM64.7764 6.21484C64.3434 6.21484 63.9984 6.35645 63.7412 6.63965C63.484 6.92285 63.3311 7.31836 63.2822 7.82617H66.1143C66.111 7.50716 66.0605 7.22721 65.9629 6.98633C65.8685 6.74219 65.7236 6.55339 65.5283 6.41992C65.333 6.2832 65.0824 6.21484 64.7764 6.21484ZM70.2451 11.0977C69.568 11.0977 69.0309 10.8665 68.6338 10.4043C68.2399 9.94206 68.043 9.25521 68.043 8.34375C68.043 7.42253 68.2448 6.72754 68.6484 6.25879C69.0521 5.78678 69.5892 5.55078 70.2598 5.55078C70.543 5.55078 70.7904 5.58822 71.002 5.66309C71.2135 5.73796 71.3958 5.83887 71.5488 5.96582C71.7018 6.08952 71.8304 6.23112 71.9346 6.39062H71.9932C71.9801 6.28971 71.9671 6.15137 71.9541 5.97559C71.9411 5.7998 71.9346 5.65658 71.9346 5.5459V3.40234H72.7451V11H72.0908L71.9688 10.2383H71.9346C71.8337 10.3978 71.7051 10.5426 71.5488 10.6729C71.3958 10.8031 71.2119 10.9072 70.9971 10.9854C70.7855 11.0602 70.5348 11.0977 70.2451 11.0977ZM70.3721 10.4238C70.945 10.4238 71.3503 10.2611 71.5879 9.93555C71.8255 9.61003 71.9443 9.12663 71.9443 8.48535V8.33887C71.9443 7.65853 71.8304 7.13607 71.6025 6.77148C71.3779 6.4069 70.9678 6.22461 70.3721 6.22461C69.874 6.22461 69.5013 6.41667 69.2539 6.80078C69.0065 7.18164 68.8828 7.70247 68.8828 8.36328C68.8828 9.02083 69.0049 9.52865 69.249 9.88672C69.4964 10.2448 69.8708 10.4238 70.3721 10.4238Z" fill="#003172"/>
</svg>
