<svg xmlns="http://www.w3.org/2000/svg" width="282" height="125" viewBox="0 0 282 125">
    <title>depth_plate_round</title>
    <path d="M180.78,8.48v46a36.11,36.11,0,0,1-36.1,36.09h-.53A36.09,36.09,0,0,1,108.06,54.5v-46h-2v46a38.09,38.09,0,0,0,38.09,38.09h.53a38.1,38.1,0,0,0,38.1-38.09v-46h-2"/>
    <path d="M92.71,8h-4.9v.48H88v0h4.19v7.75h.5V8m14.58,0h-5.45v8.25h.5V8.5h3.72v0h1.23V8m79.42,0h-4.9v.48h1v0h3.43v7.75h.5V8m15.58,0h-4.95v8.25h.5V8.5h4v0h.48V8" fill="#7f7f7f"/>
    <path d="M107.29,8.48h-1.23v0h1.23v0m75.49,0h-1v0h1v0"/>
    <path d="M201.59,92.25h-112m19-83h72" fill="none" stroke="#3fb1ff" stroke-width="2"/>
    <polyline points="202.31 8.48 202.29 8.48 202.29 8.5 201.81 8.5 201.81 16.25 202.31 16.25 202.31 8.48" fill="#7f7f7f"/>
    <polyline points="202.29 8.48 201.81 8.48 201.81 8.5 202.29 8.5 202.29 8.48" fill="#3f3f3f"/>
    <path d="M87.81,8.48h-.29v7.77H88V8.5h-.21v0M277,8.48h-.5v7.77h.06v1h-.06V54.5a36.86,36.86,0,0,1-36.85,36.84h-.53A36.84,36.84,0,0,1,202.31,54.5V17.25h-.5V54.5a37.34,37.34,0,0,0,37.34,37.34h.53A37.34,37.34,0,0,0,277,54.5v-46m-263.72,0h-.5v46A37.34,37.34,0,0,0,50.15,91.84h.54A37.33,37.33,0,0,0,88,54.5V17.25h-.5V54.5A36.84,36.84,0,0,1,50.69,91.34h-.54A36.84,36.84,0,0,1,13.31,54.5V17.25h-.22v-1h.22V8.48" fill="#7f7f7f"/>
    <polyline points="88.03 8.48 87.81 8.48 87.81 8.5 88.03 8.5 88.03 8.48" fill="#3f3f3f"/>
    <path d="M101.84,16.25H92.71v.25h9.13v-.25m4.22,0h-3.72V17H92.21v-.75H88v1h18v-1m74.72,0H108.06v1h72.72v-1m16.56,0H186.71v.25h10.63v-.25m4.47,0h-4V17H186.21v-.75h-3.43v1h19v-1m74.72,0H202.31v1h74.22v-1" fill="#e5e5e5"/>
    <path d="M108.06,16.25h-2v1h2v-1m74.72,0h-2v1h2v-1" fill="#666"/>
    <path d="M102.34,16.25h-.5v.25H92.71v-.25h-.5V17h10.13v-.75m95.5,0h-.5v.25H186.71v-.25h-.5V17h11.63v-.75" fill="#a5a5a5"/>
    <polyline points="87.53 16.25 13.31 16.25 13.31 17.25 87.53 17.25 87.53 16.25" fill="#e5e5e5"/>
    <path d="M13.31,16.25h-.22v1h.22v-1m74.71,0h-.5v1H88v-1m114.29,0h-.5v1h.5v-1m74.28,0h-.06v1h.06v-1" fill="#a5a5a5"/>
    <line x1="145.09" y1="84.21" x2="145.09" y2="15.29" fill="none" stroke="#3fb1ff" stroke-dasharray="2 2"/>
    <path d="M145.09,90.25a30.31,30.31,0,0,1,4.75-8.55l-4.75,1.72-4.76-1.72a30.1,30.1,0,0,1,4.76,8.55m0-81a30.31,30.31,0,0,0,4.75,8.55l-4.75-1.72-4.76,1.72a30.1,30.1,0,0,0,4.76-8.55" fill="#3fb1ff" fill-rule="evenodd"/>
    <path d="M164.27,104.36H163l-1,4.56h-4.83l1-4.56h-1.25l-2.26,10.71h1.25l1.06-5h4.83l-1,5H162Zm-12.1,1.11h3l.22-1.11h-7.21l-.24,1.11h3l-2,9.6h1.26Zm-10.18,0h1.2a2.49,2.49,0,0,1,1.56.4,1.62,1.62,0,0,1,.51,1.33,2.34,2.34,0,0,1-.82,2,3.71,3.71,0,0,1-2.4.67h-1Zm3.75-.39a3.53,3.53,0,0,0-2.37-.69H141l-2.26,10.71h1.25l.9-4.21h1a5.55,5.55,0,0,0,3.52-1,3.35,3.35,0,0,0,1.2-2.78A2.58,2.58,0,0,0,145.74,105.05ZM136.63,114h-4.14l.84-3.93h3.87l.22-1.11h-3.86l.71-3.44h4.15l.23-1.12h-5.38L131,115.07h5.38Zm-14.16,0,1.84-8.55h1.3a2.87,2.87,0,0,1,2.21.81,3.38,3.38,0,0,1,.76,2.38,6.3,6.3,0,0,1-.6,2.8,4.33,4.33,0,0,1-1.72,1.89,4.94,4.94,0,0,1-2.6.67Zm6.37-8.53a4.06,4.06,0,0,0-3.07-1.1h-2.5L121,115.07h2.58a6.77,6.77,0,0,0,3.35-.79,5.37,5.37,0,0,0,2.19-2.26,7,7,0,0,0,.77-3.37A4.43,4.43,0,0,0,128.84,105.46Z" fill="#3fb1ff"/>
    <polyline points="286.25 8 285.75 8 285.75 96.75 5.25 96.75 5.25 8 4.75 8 4.75 97.25 286.25 97.25 286.25 8" fill="#7f7f7f"/>
</svg>