<svg xmlns="http://www.w3.org/2000/svg" width="282" height="125" viewBox="0 0 282 125">
    <title>depth_plate_v</title>
    <path d="M149.05,103.71h-1.13l-.89,4.18h-4.44l.88-4.18h-1.14l-2.08,9.83h1.14l1-4.62h4.44l-1,4.62H147Zm-11.1,1h2.74l.2-1h-6.62l-.23,1h2.74l-1.87,8.82h1.16Zm-9.36,0h1.1a2.3,2.3,0,0,1,1.44.37,1.46,1.46,0,0,1,.46,1.21,2.19,2.19,0,0,1-.75,1.8,3.42,3.42,0,0,1-2.21.61h-.89Zm3.45-.36a3.3,3.3,0,0,0-2.18-.63h-2.22l-2.08,9.83h1.14l.83-3.86h.91a5.11,5.11,0,0,0,3.24-.89,3.07,3.07,0,0,0,1.1-2.55A2.39,2.39,0,0,0,132,104.34Zm-8.37,8.18h-3.8l.76-3.6h3.56l.2-1h-3.55l.66-3.15h3.81l.22-1h-5l-2.08,9.83h5Zm-13,0,1.69-7.86h1.19a2.65,2.65,0,0,1,2,.74,3.13,3.13,0,0,1,.69,2.19,5.74,5.74,0,0,1-.55,2.57,4,4,0,0,1-1.58,1.74,4.55,4.55,0,0,1-2.39.62Zm5.85-7.85a3.72,3.72,0,0,0-2.82-1h-2.3l-2.08,9.83h2.37a6.27,6.27,0,0,0,3.07-.72,5,5,0,0,0,2-2.07,6.63,6.63,0,0,0,.71-3.11A4,4,0,0,0,116.51,104.71Z" fill="#3fb1ff"/>
    <polyline points="165.97 11.96 165.97 49.51 165.97 49.51 165.81 72.62 133.71 86 98.92 73.51 99.34 49.52 99.34 11.96 97.34 11.96 97.34 49.51 96.9 74.91 133.76 88.14 167.8 73.96 167.97 49.52 167.97 11.96 165.97 11.96"/>
    <path d="M85.18,11.5H80.66V12h.22v0h3.8v7.06h.5V11.5m13.37,0h-5v7.56H94V12h3.32v0h1.21V11.5" fill="#7f7f7f"/>
    <polyline points="98.55 11.96 97.34 11.96 97.34 12 98.55 12 98.55 11.96"/>
    <line x1="93.77" y1="11.75" x2="98.55" y2="11.75" fill="none" stroke="#000" stroke-width="0.5"/>
    <path d="M171.53,11.5H167V12h1v0H171v7.06h.5V11.5m14.28,0h-4.56v7.56h.5V12h3.61v0h.45V11.5" fill="#7f7f7f"/>
    <polyline points="167.97 11.96 167 11.96 167 12 167 12 167.97 12 167.97 11.96"/>
    <path d="M176,88.91H89.64M99.75,12.67h66.13" fill="none" stroke="#3fb1ff" stroke-width="2"/>
    <path d="M12.25,12h-.5V50.13l0,24.71L46.31,88.58,81.17,74.84l-.29-24.71V20.06h-.5V50.13l.28,24.37L46.31,88l-34-13.54,0-24.37V20.06H12v-1h.23V12m173.61,0h-.05v0h-.45v7.06h.5V12M80.66,12h-.28v7.1h.5V12h-.22v0m173.83,0H254v7.1h.07v1H254V50.13l-.63,24.37L219.92,88l-34-13.54,0-24.37V20.06h-.5V50.13l0,24.71,34.54,13.74,33.93-13.74.64-24.71V12" fill="#7f7f7f"/>
    <polyline points="80.88 11.96 80.66 11.96 80.66 12 80.66 12 80.88 12 80.88 11.96" fill="#3f3f3f"/>
    <polyline points="185.81 11.96 185.36 11.96 185.36 12 185.81 12 185.81 11.96" fill="#3f3f3f"/>
    <path d="M133.77,21.53v-2h-1v2h1m0,4v-2h-1v2h1m0,4v-2h-1v2h1m0,4v-2h-1v2h1m0,4v-2h-1v2h1m0,4v-2h-1v2h1m0,4v-2h-1v2h1m0,4v-2h-1v2h1m0,4v-2h-1v2h1m0,4v-2h-1v2h1m0,4v-2h-1v2h1m0,4v-2h-1v2h1m0,4v-2h-1v2h1m0,4v-2h-1v2h1m0,4v-2h-1v2h1m0,4v-2h-1v2h1" fill="#3fb1ff"/>
    <path d="M133.27,87.07a27.82,27.82,0,0,1,4.37-7.85l-4.37,1.58-4.36-1.58a27.8,27.8,0,0,1,4.36,7.85m0-74.4a27.82,27.82,0,0,0,4.37,7.85l-4.37-1.58-4.36,1.58a27.8,27.8,0,0,0,4.36-7.85" fill="#3fb1ff" fill-rule="evenodd"/>
    <path d="M166,19.06H136.52c.24.35.49.68.74,1H166v-1m15.28,0h-9.72v.25h9.72v-.25m4.11,0h-3.61v.75H171v-.75H168v1h17.39v-1m68.63,0H185.86v1H254v-1" fill="#e5e5e5"/>
    <polyline points="167.97 19.06 165.97 19.06 165.97 20.06 167.97 20.06 167.97 19.06" fill="#666"/>
    <polyline points="181.75 19.06 181.25 19.06 181.25 19.31 171.53 19.31 171.53 19.06 171.03 19.06 171.03 19.81 181.75 19.81 181.75 19.06" fill="#a5a5a5"/>
    <path d="M185.86,19.06h-.5v1h.5v-1m68.2,0H254v1h.07v-1" fill="#a5a5a5"/>
    <polyline points="133.6 19.06 132.95 19.06 130.18 20.06 132.77 20.06 132.77 19.53 133.77 19.53 133.77 20.06 136.37 20.06 133.6 19.06" fill="#e5e5e5"/>
    <polyline points="133.77 19.53 132.77 19.53 132.77 20.06 133.77 20.06 133.77 19.53" fill="#86bfe5"/>
    <path d="M80.38,19.06H12.25v1H80.38v-1m13.14,0H85.18v.25h8.34v-.25m3.82,0H94v.75H84.68v-.75h-3.8v1H97.34v-1m32.68,0H99.34v1h29.95c.25-.32.49-.65.73-1" fill="#e5e5e5"/>
    <polyline points="99.34 19.06 97.34 19.06 97.34 20.06 99.34 20.06 99.34 19.06" fill="#666"/>
    <polyline points="94.02 19.06 93.52 19.06 93.52 19.31 85.19 19.31 85.19 19.06 84.69 19.06 84.69 19.81 94.02 19.81 94.02 19.06" fill="#a5a5a5"/>
    <path d="M12.25,19.06H12v1h.23v-1m68.63,0h-.5v1h.5v-1" fill="#a5a5a5"/>
    <path d="M133,19.06H130c-.24.35-.48.68-.73,1h.89l2.77-1m3.57,0H133.6l2.77,1h.89c-.25-.32-.5-.65-.74-1" fill="#86bfe5"/>
    <polyline points="262.96 11.52 262.46 11.52 262.46 93.02 4.84 93.02 4.84 11.52 4.34 11.52 4.34 93.52 262.96 93.52 262.96 11.52" fill="#7f7f7f"/>
</svg>