<svg xmlns="http://www.w3.org/2000/svg" width="282" height="125" viewBox="0 0 282 125">
    <title>depth_plate_flat</title>
    <path d="M158.27,96.36H157l-1,4.56h-4.83l1-4.56h-1.25l-2.26,10.71h1.25l1.06-5h4.83l-1,5H156Zm-12.1,1.11h3l.22-1.11h-7.21l-.24,1.11h3l-2,9.6h1.26Zm-10.18,0h1.2a2.49,2.49,0,0,1,1.56.4,1.62,1.62,0,0,1,.51,1.33,2.34,2.34,0,0,1-.82,2,3.71,3.71,0,0,1-2.4.67h-1Zm3.75-.39a3.53,3.53,0,0,0-2.37-.69H135l-2.26,10.71h1.25l.9-4.21h1a5.55,5.55,0,0,0,3.52-1,3.35,3.35,0,0,0,1.2-2.78A2.58,2.58,0,0,0,139.74,97.05ZM130.63,106h-4.14l.84-3.93h3.87l.22-1.11h-3.86l.71-3.44h4.15l.23-1.12h-5.38L125,107.07h5.38Zm-14.16,0,1.84-8.55h1.3a2.87,2.87,0,0,1,2.21.81,3.38,3.38,0,0,1,.76,2.38,6.3,6.3,0,0,1-.6,2.8,4.33,4.33,0,0,1-1.72,1.89,4.94,4.94,0,0,1-2.6.67Zm6.37-8.53a4.06,4.06,0,0,0-3.07-1.1h-2.5L115,107.07h2.58a6.77,6.77,0,0,0,3.35-.79,5.37,5.37,0,0,0,2.19-2.26,7,7,0,0,0,.77-3.37A4.43,4.43,0,0,0,122.84,97.46Z" fill="#3fb1ff"/>
    <polyline points="281.84 0.25 281.34 0.25 281.34 89.06 0.5 89.06 0.5 0.25 0 0.25 0 89.56 281.84 89.56 281.84 0.25" fill="#7f7f7f"/>
    <polyline points="176.78 0.48 176.78 81.25 104.06 81.25 104.06 0.48 102.06 0.48 102.06 83.25 178.78 83.25 178.78 0.48 176.78 0.48"/>
    <path d="M88.71,0h-4.9V.48H84v0h4.19V8.25h.5V0m14.58,0H97.84V8.25h.5V.5h3.72v0h1.23V0m79.42,0h-4.9V.48h1v0h3.43V8.25h.5V0m15.58,0h-4.95V8.25h.5V.5h4v0h.48V0" fill="#7f7f7f"/>
    <path d="M103.29.48h-1.23v0h1.23v0m75.49,0h-1v0h1v0"/>
    <path d="M187.59,82.25h-94m11-81h72" fill="none" stroke="#3fb1ff" stroke-width="2"/>
    <path d="M198.31.48h0v0h-.48V8.25h.5V.48M273,.48h-.5V8.25h.07v1h-.07V83.34H198.31V9.25h-.5V83.84H273V.48" fill="#7f7f7f"/>
    <polyline points="198.29 0.48 197.81 0.48 197.81 0.5 198.29 0.5 198.29 0.48" fill="#3f3f3f"/>
    <path d="M9.31.48h-.5V83.84H84V9.25h-.5V83.34H9.31V9.25H9.09v-1h.22V.48m74.5,0h-.29V8.25H84V.5h-.21v0" fill="#7f7f7f"/>
    <polyline points="84.02 0.48 83.81 0.48 83.81 0.5 84.02 0.5 84.02 0.48" fill="#3f3f3f"/>
    <path d="M141.59,8.21V7.29h-1v.92h1m0,4v-2h-1v2h1m0,4v-2h-1v2h1m0,4v-2h-1v2h1m0,4v-2h-1v2h1m0,4v-2h-1v2h1m0,4v-2h-1v2h1m0,4v-2h-1v2h1m0,4v-2h-1v2h1m0,4v-2h-1v2h1m0,4v-2h-1v2h1m0,4v-2h-1v2h1m0,4v-2h-1v2h1m0,4v-2h-1v2h1m0,4v-2h-1v2h1m0,4v-2h-1v2h1m0,4v-2h-1v2h1m0,4v-2h-1v2h1" fill="#3fb1ff"/>
    <path d="M141.09,82.25a30.31,30.31,0,0,1,4.75-8.55l-4.75,1.72-4.76-1.72a30.1,30.1,0,0,1,4.76,8.55m0-81a30.31,30.31,0,0,0,4.75,8.55l-4.75-1.72L136.33,9.8a30.1,30.1,0,0,0,4.76-8.55" fill="#3fb1ff" fill-rule="evenodd"/>
    <path d="M176.78,8.25H144.66c.24.35.48.69.73,1h31.39v-1m16.56,0H182.71V8.5h10.63V8.25m4.47,0h-4V9H182.21V8.25h-3.43v1h19v-1m74.71,0H198.31v1h74.21v-1" fill="#e5e5e5"/>
    <polyline points="178.78 8.25 176.78 8.25 176.78 9.25 178.78 9.25 178.78 8.25" fill="#666"/>
    <polyline points="193.84 8.25 193.34 8.25 193.34 8.5 182.71 8.5 182.71 8.25 182.21 8.25 182.21 9 193.84 9 193.84 8.25" fill="#a5a5a5"/>
    <path d="M198.31,8.25h-.5v1h.5v-1m74.28,0h-.07v1h.07v-1" fill="#a5a5a5"/>
    <path d="M83.52,8.25H9.31v1H83.52v-1m14.32,0H88.71V8.5h9.13V8.25m4.22,0H98.34V9H88.21V8.25H84v1h18v-1m35.46,0H104.06v1h32.73c.24-.31.49-.65.73-1m4,0h-1l-2.76,1h6.48l-2.76-1" fill="#e5e5e5"/>
    <polyline points="104.06 8.25 102.06 8.25 102.06 9.25 104.06 9.25 104.06 8.25" fill="#666"/>
    <polyline points="98.34 8.25 97.84 8.25 97.84 8.5 88.71 8.5 88.71 8.25 88.21 8.25 88.21 9 98.34 9 98.34 8.25" fill="#a5a5a5"/>
    <path d="M9.31,8.25H9.09v1h.22v-1M84,8.25h-.5v1H84v-1" fill="#a5a5a5"/>
    <path d="M140.61,8.25h-3.09c-.24.35-.49.69-.73,1h1.06l2.76-1m4,0h-3.09l2.76,1h1.06c-.25-.31-.49-.65-.73-1" fill="#86bfe5"/>
</svg>