<svg xmlns="http://www.w3.org/2000/svg" width="282" height="108" viewBox="0 0 282 108">
    <g fill="none" fill-rule="evenodd">
        <text fill="#3FB1FF" font-family="OpenSans-SemiBoldItalic, Open Sans" font-size="15" font-style="italic" font-weight="500" letter-spacing=".025" transform="translate(0 -1)">
            <tspan x="114.372" y="108.069">DEPTH</tspan>
        </text>
        <path stroke="#000" stroke-width=".5" d="M.25.25v89.063h281.338V.25" opacity=".5"/>
        <path stroke="#000" stroke-width="2" d="M177.775.476V82.25h-74.713V.476"/>
        <path stroke="#000" stroke-width=".5" d="M83.809.25h4.655v8.5h9.625V.25h5.198M177.809.25h4.655v8.5h11.125V.25h4.698" opacity=".5"/>
        <path stroke="#3FB1FF" stroke-width="2" d="M187.588 82.25h-94M104.588 1.25h72"/>
        <path stroke="#000" stroke-width=".5" d="M9.061.476v83.118h74.713V.476M198.061.476v83.118h74.713V.476" opacity=".5"/>
        <path stroke="#3FB1FF" stroke-dasharray="2,2" d="M141.088 76.215V7.285"/>
        <path fill="#3FB1FF" d="M141.088 82.25c1.054-2.84 2.852-6.363 4.756-8.547l-4.756 1.72-4.755-1.72c1.904 2.184 3.702 5.707 4.755 8.547M141.088 1.25c1.054 2.84 2.852 6.363 4.756 8.547l-4.756-1.72-4.755 1.72c1.904-2.184 3.702-5.707 4.755-8.547"/>
        <path stroke="#CCC" d="M9.088 8.75h263.5" opacity=".502"/>
    </g>
</svg>
