<svg xmlns="http://www.w3.org/2000/svg" width="361" height="254" viewBox="0 0 361 254">
    <title>depth_reservoir-and-tubes_v</title>
    <polyline points="321.25 38 320.75 38 320.75 182.75 40.25 182.75 40.25 38 39.75 38 39.75 183.25 321.25 183.25 321.25 38" fill="#7f7f7f"/>
    <path d="M214.78,37.23V137.84L179.61,172.5a2,2,0,0,1-1.44.59,2.06,2.06,0,0,1-1.46-.6l-34.65-34.65V37.23h-2V138.67L175.3,173.9h0a4.06,4.06,0,0,0,5.72,0l35.76-35.25V37.23h-2"/>
    <path d="M121.81,44.75h19.48v-.5H121.81v.5m94,0h20.48v-.5H215.81v.5"/>
    <path d="M234.59,176h-112m20-139h72" fill="none" stroke="#3fb1ff" stroke-width="2"/>
    <path d="M46.84,38h-.5V139.41l37.47,35.18h.74L122,139.41V45h-.5v94.19l-37.17,34.9H84l-37.17-34.9V38M122,38h-.5v6h.5V38m114.29-.79h-.5V44h.5V37.21m74.72,0h-.5V44h.06v1h-.06v94.59l-36.94,35h-.34l-36.94-35V45h-.5v94.8l37.24,35.26h.74L311,139.8V37.21" fill="#7f7f7f"/>
    <path d="M140.06,44.75H122V45h18v-.25m95.75,0h-19V45h19v-.25M121.52,44H47.09v1h74.43V44m18.54,0H122v.25h18V44m74.72,0H142.06v1h72.72V44m21,0h-19v.25h19V44m74.72,0H236.31v1h74.22V44" fill="#e5e5e5"/>
    <path d="M142.06,44h-2v.25h1.23v.5h-1.23V45h2V44m74.72,0h-2v1h2v-.25h-1v-.5h1V44" fill="#666"/>
    <path d="M141.29,44.25H122v.5h19.27v-.5m94.52,0h-20v.5h20v-.5" fill="#666"/>
    <path d="M122,44h-.5v1h.5v-.25h-.21v-.5H122V44m114.29,0h-.5v.25h.48v.5h-.48V45h.5V44m74.28,0h-.06v1h.06V44" fill="#a5a5a5"/>
    <path d="M122,44.25h-.21v.5H122v-.5m114.27,0h-.48v.5h.48v-.5" fill="#666"/>
    <line x1="179.09" y1="163.96" x2="179.09" y2="44.04" fill="none" stroke="#3fb1ff" stroke-dasharray="2 2"/>
    <path d="M179.09,170a30.31,30.31,0,0,1,4.75-8.55l-4.75,1.72-4.76-1.72a30.1,30.1,0,0,1,4.76,8.55m0-132a30.31,30.31,0,0,0,4.75,8.55l-4.75-1.72-4.76,1.72A30.1,30.1,0,0,0,179.09,38" fill="#3fb1ff" fill-rule="evenodd"/>
    <path d="M197.27,194.11H196l-1,4.56h-4.83l1-4.56h-1.25l-2.26,10.71h1.25l1.06-5h4.83l-1,5H195Zm-12.1,1.11h3l.22-1.11h-7.21l-.24,1.11h3l-2,9.6h1.26Zm-10.18,0h1.2a2.49,2.49,0,0,1,1.56.4,1.62,1.62,0,0,1,.51,1.33,2.34,2.34,0,0,1-.82,2,3.71,3.71,0,0,1-2.4.67h-1Zm3.75-.39a3.53,3.53,0,0,0-2.37-.69H174l-2.26,10.71h1.25l.9-4.21h1a5.55,5.55,0,0,0,3.52-1,3.35,3.35,0,0,0,1.2-2.78A2.58,2.58,0,0,0,178.74,194.8Zm-9.11,8.91h-4.14l.84-3.93h3.87l.22-1.11h-3.86l.71-3.44h4.15l.23-1.12h-5.38L164,204.82h5.38Zm-14.16,0,1.84-8.55h1.3a2.87,2.87,0,0,1,2.21.81,3.38,3.38,0,0,1,.76,2.38,6.3,6.3,0,0,1-.6,2.8,4.33,4.33,0,0,1-1.72,1.89,4.94,4.94,0,0,1-2.6.67Zm6.37-8.53a4.06,4.06,0,0,0-3.07-1.1h-2.5L154,204.82h2.58a6.77,6.77,0,0,0,3.35-.79,5.37,5.37,0,0,0,2.19-2.26,7,7,0,0,0,.77-3.37A4.43,4.43,0,0,0,161.84,195.21Z" fill="#3fb1ff"/>
</svg>