<svg xmlns="http://www.w3.org/2000/svg" width="361" height="254" viewBox="0 0 361 254">
    <title>depth_reservoir-and-tubes_round</title>
    <polyline points="321.25 40 320.75 40 320.75 184.75 40.25 184.75 40.25 40 39.75 40 39.75 185.25 321.25 185.25 321.25 40" fill="#7f7f7f"/>
    <path d="M216.78,40.21V141.46A34,34,0,0,1,206.22,166a36.66,36.66,0,0,1-25.53,10.19h-.54A36.64,36.64,0,0,1,154.62,166a34,34,0,0,1-10.56-24.56V40.21h-2V141.46a36,36,0,0,0,11.17,26,38.66,38.66,0,0,0,26.92,10.75h.54a38.68,38.68,0,0,0,26.92-10.75,36,36,0,0,0,11.17-26V40.21h-2"/>
    <path d="M123.81,48.75h19.48v-.5H123.81v.5m94,0h20.48v-.5H217.81v.5"/>
    <path d="M236.59,178h-112m20-137h72" fill="none" stroke="#3fb1ff" stroke-width="2"/>
    <path d="M48.84,41.21h-.5V142.5a32.3,32.3,0,0,0,11,24,39.52,39.52,0,0,0,26.56,9.94h.54A39.52,39.52,0,0,0,113,166.52a32.3,32.3,0,0,0,11-24V49h-.5v93.5a31.8,31.8,0,0,1-10.85,23.65A39,39,0,0,1,86.45,176h-.54a39.05,39.05,0,0,1-26.22-9.81A31.8,31.8,0,0,1,48.84,142.5V41.21m75.18,0h-.5V48h.5V41.21m114.29-1h-.5V48h.5V40.21m74.72,0h-.5V48h.06v1h-.06v93.49a31.89,31.89,0,0,1-10.79,23.66A38.64,38.64,0,0,1,275.68,176h-.53a38.68,38.68,0,0,1-26.06-9.81,31.92,31.92,0,0,1-10.78-23.66V49h-.5v93.49a32.4,32.4,0,0,0,10.95,24,39.11,39.11,0,0,0,26.39,9.94h.53a39.14,39.14,0,0,0,26.4-9.94,32.4,32.4,0,0,0,10.95-24V40.21" fill="#7f7f7f"/>
    <path d="M142.06,48.75H124V49h18v-.25m95.75,0h-19V49h19v-.25M142.06,48H124v.25h18V48m74.72,0H144.06v1h72.72V48m21,0h-19v.25h19V48m74.72,0H238.31v1h74.22V48" fill="#e5e5e5"/>
    <path d="M144.06,48h-2v.25h1.23v.5h-1.23V49h2V48m74.72,0h-2v1h2v-.25h-1v-.5h1V48" fill="#666"/>
    <path d="M143.29,48.25H124v.5h19.27v-.5m94.52,0h-20v.5h20v-.5" fill="#666"/>
    <polyline points="123.52 48 49.09 48 49.09 49 123.52 49 123.52 48" fill="#e5e5e5"/>
    <path d="M238.31,48h-.5v.25h.48v.5h-.48V49h.5V48m74.28,0h-.06v1h.06V48" fill="#a5a5a5"/>
    <polyline points="238.29 48.25 237.81 48.25 237.81 48.75 238.29 48.75 238.29 48.25" fill="#666"/>
    <polyline points="124.02 48 123.52 48 123.52 49 124.02 49 124.02 48.75 123.81 48.75 123.81 48.25 124.02 48.25 124.02 48" fill="#a5a5a5"/>
    <polyline points="124.02 48.25 123.81 48.25 123.81 48.75 124.02 48.75 124.02 48.25" fill="#666"/>
    <line x1="181.09" y1="174.96" x2="181.09" y2="47.04" fill="none" stroke="#3fb1ff" stroke-dasharray="2 2"/>
    <path d="M181.09,178a30.31,30.31,0,0,1,4.75-8.55l-4.75,1.72-4.76-1.72a30.1,30.1,0,0,1,4.76,8.55m0-137a30.31,30.31,0,0,0,4.75,8.55l-4.75-1.72-4.76,1.72A30.1,30.1,0,0,0,181.09,41" fill="#3fb1ff" fill-rule="evenodd"/>
    <path d="M199.27,197.11H198l-1,4.56h-4.83l1-4.56h-1.25l-2.26,10.71h1.25l1.06-5h4.83l-1,5H197Zm-12.1,1.11h3l.22-1.11h-7.21l-.24,1.11h3l-2,9.6h1.26Zm-10.18,0h1.2a2.49,2.49,0,0,1,1.56.4,1.62,1.62,0,0,1,.51,1.33,2.34,2.34,0,0,1-.82,2,3.71,3.71,0,0,1-2.4.67h-1Zm3.75-.39a3.53,3.53,0,0,0-2.37-.69H176l-2.26,10.71h1.25l.9-4.21h1a5.55,5.55,0,0,0,3.52-1,3.35,3.35,0,0,0,1.2-2.78A2.58,2.58,0,0,0,180.74,197.8Zm-9.11,8.91h-4.14l.84-3.93h3.87l.22-1.11h-3.86l.71-3.44h4.15l.23-1.12h-5.38L166,207.82h5.38Zm-14.16,0,1.84-8.55h1.3a2.87,2.87,0,0,1,2.21.81,3.38,3.38,0,0,1,.76,2.38,6.3,6.3,0,0,1-.6,2.8,4.33,4.33,0,0,1-1.72,1.89,4.94,4.94,0,0,1-2.6.67Zm6.37-8.53a4.06,4.06,0,0,0-3.07-1.1h-2.5L156,207.82h2.58a6.77,6.77,0,0,0,3.35-.79,5.37,5.37,0,0,0,2.19-2.26,7,7,0,0,0,.77-3.37A4.43,4.43,0,0,0,163.84,198.21Z" fill="#3fb1ff"/>
</svg>