<svg xmlns="http://www.w3.org/2000/svg" width="361" height="254" viewBox="0 0 361 254">
    <title>depth_reservoir-and-tubes_flat</title>
    <polyline points="320.84 43 320.34 43 320.34 187.75 39.5 187.75 39.5 43 39 43 39 188.25 320.84 188.25 320.84 43" fill="#7f7f7f"/>
    <polyline points="216.78 42.22 215.6 179.01 180.68 179.34 180.69 179.34 180.15 179.34 180.16 179.34 144.06 179.01 144.06 42.23 142.06 42.23 142.06 180.99 180.15 181.34 180.69 181.34 180.69 181.34 217.58 180.99 218.78 42.23 216.78 42.22"/>
    <path d="M231,180H131M144.59,43h72" fill="none" stroke="#3fb1ff" stroke-width="2"/>
    <path d="M313,50h-.5l.3,129.25h-74.5l0-129.25h-.5l0,129.75h75.5L313,50M48.84,43h-.5V179.75H124V50h-.5V179.25H48.84V43M124,43h-.5v6h.5V43m114.29-.79h-.5V49h.5V42.21m74.71,0h-.5l0,6.79h.5l0-6.79" fill="#7f7f7f"/>
    <path d="M142.06,49.75H124V50h18v-.25m95.75,0h-19.1V50h19.1v-.25M123.52,49H50v1h73.52V49m18.54,0H124v.25h18V49m74.66,0H144.06v1h72.65V49m21.09,0H218.72v.25h19.1V49m74.73,0H238.31v1h74.23V49m1,0H313v1h.46V49" fill="#e5e5e5"/>
    <path d="M144.06,49h-2v.25h1.23v.5h-1.23V50h2V49m74.66,0h-2v1h2v-.25h-.9v-.5h.9V49" fill="#666"/>
    <polyline points="237.81 49.25 218.72 49.25 218.71 49.75 237.81 49.75 237.81 49.25" fill="#a5a5a5"/>
    <polyline points="218.72 49.25 217.81 49.25 217.81 49.75 218.71 49.75 218.72 49.25" fill="#666"/>
    <polyline points="142.06 49.25 124.02 49.25 124.02 49.75 142.06 49.75 142.06 49.25" fill="#a5a5a5"/>
    <polyline points="143.29 49.25 142.06 49.25 142.06 49.75 143.29 49.75 143.29 49.25" fill="#666"/>
    <path d="M124,49h-.5v1h.5v-.25h-.21v-.5H124V49m114.29,0h-.5v.25h.48v.5h-.48V50h.5V49M313,49h-.5v1h.5V49" fill="#a5a5a5"/>
    <path d="M124,49.25h-.21v.5H124v-.5m114.27,0h-.48v.5h.48v-.5" fill="#868686"/>
    <line x1="181.09" y1="172.96" x2="181.09" y2="49.04" fill="none" stroke="#3fb1ff" stroke-dasharray="2 2"/>
    <path d="M181.09,179a30.31,30.31,0,0,1,4.75-8.55l-4.75,1.72-4.76-1.72a30.1,30.1,0,0,1,4.76,8.55m0-136a30.31,30.31,0,0,0,4.75,8.55l-4.75-1.72-4.76,1.72A30.1,30.1,0,0,0,181.09,43" fill="#3fb1ff" fill-rule="evenodd"/>
    <path d="M199.27,199.11H198l-1,4.56h-4.83l1-4.56h-1.25l-2.26,10.71h1.25l1.06-5h4.83l-1,5H197Zm-12.1,1.11h3l.22-1.11h-7.21l-.24,1.11h3l-2,9.6h1.26Zm-10.18,0h1.2a2.49,2.49,0,0,1,1.56.4,1.62,1.62,0,0,1,.51,1.33,2.34,2.34,0,0,1-.82,2,3.71,3.71,0,0,1-2.4.67h-1Zm3.75-.39a3.53,3.53,0,0,0-2.37-.69H176l-2.26,10.71h1.25l.9-4.21h1a5.55,5.55,0,0,0,3.52-1,3.35,3.35,0,0,0,1.2-2.78A2.58,2.58,0,0,0,180.74,199.8Zm-9.11,8.91h-4.14l.84-3.93h3.87l.22-1.11h-3.86l.71-3.44h4.15l.23-1.12h-5.38L166,209.82h5.38Zm-14.16,0,1.84-8.55h1.3a2.87,2.87,0,0,1,2.21.81,3.38,3.38,0,0,1,.76,2.38,6.3,6.3,0,0,1-.6,2.8,4.33,4.33,0,0,1-1.72,1.89,4.94,4.94,0,0,1-2.6.67Zm6.37-8.53a4.06,4.06,0,0,0-3.07-1.1h-2.5L156,209.82h2.58a6.77,6.77,0,0,0,3.35-.79,5.37,5.37,0,0,0,2.19-2.26,7,7,0,0,0,.77-3.37A4.43,4.43,0,0,0,163.84,200.21Z" fill="#3fb1ff"/>
</svg>