<svg xmlns="http://www.w3.org/2000/svg" width="361" height="254" viewBox="0 0 361 254">
    <g fill="none" fill-rule="evenodd">
        <path stroke="#000" stroke-width=".5" d="M39.25 43v145h281.338V43" opacity=".5"/>
        <path stroke="#000" stroke-width="2" d="M217.775 42.226L216.589 180l-35.903.344h-.535L143.06 180V42.226"/>
        <path stroke="#000" stroke-width=".5" d="M123.809 49.5h19.478M217.809 49.5h20.478" opacity=".5"/>
        <path stroke="#3FB1FF" stroke-width="2" d="M231 180H131M144.588 43h72"/>
        <path stroke="#000" stroke-width=".5" d="M48.588 43v136.5h75.186V43M238.061 42.213l.027 137.287h75l-.314-137.287" opacity=".5"/>
        <path stroke="#CCC" stroke-opacity=".5" d="M50 49.5h263.5"/>
        <path stroke="#3FB1FF" stroke-dasharray="2,2" d="M181.088 172.965V49.035"/>
        <g fill="#3FB1FF">
            <path d="M181.088 179c1.054-2.84 2.852-6.363 4.756-8.547l-4.756 1.72-4.755-1.72c1.904 2.184 3.702 5.707 4.755 8.547M181.088 43c1.054 2.84 2.852 6.363 4.756 8.547l-4.756-1.72-4.755 1.72c1.904-2.184 3.702-5.707 4.755-8.547"/>
            <text font-family="OpenSans-SemiBoldItalic, Open Sans" font-size="15" font-style="italic" font-weight="500" letter-spacing=".025" transform="translate(155 42.457)">
                <tspan x=".372" y="167.362">DEPTH</tspan>
            </text>
        </g>
    </g>
</svg>
