<svg xmlns="http://www.w3.org/2000/svg"
    xmlns:xlink="http://www.w3.org/1999/xlink" width="361" height="254" viewBox="0 0 361 254">
    <defs>
        <clipPath id="a">
            <polyline points="109.5 213.72 162.73 213.72 162.73 230.59 109.5 230.59 109.5 213.72" fill="none"/>
        </clipPath>
        <clipPath id="b">
            <polyline points="300.35 97.41 344.96 97.41 344.96 114.28 300.35 114.28 300.35 97.41" fill="none"/>
        </clipPath>
    </defs>
    <title>footprint</title>
    <rect x="29.5" y="30" width="215" height="143" rx="1" fill="none" stroke="black" stroke-width="3"/>
    <path d="M230.34,166.68H43.66A7.69,7.69,0,0,1,36,159V44.16a7.69,7.69,0,0,1,7.66-7.66H230.34A7.69,7.69,0,0,1,238,44.16V159a7.69,7.69,0,0,1-7.66,7.66Z" fill="none" stroke="#b3b3b3"/>
    <path d="M29,223V176.5m215,0V223m56-49.75H247.25m.63-143H300" fill="none" stroke="#3fb1ff" stroke-width="2"/>
    <line x1="233.46" y1="212.5" x2="37.54" y2="212.5" fill="none" stroke="#3fb1ff" stroke-dasharray="2 2"/>
    <path d="M239.5,212.5a30.1,30.1,0,0,1-8.55-4.76l1.72,4.76L231,217.25a30.31,30.31,0,0,1,8.55-4.75m-208,0a30.1,30.1,0,0,0,8.55-4.76l-1.72,4.76,1.72,4.75a30.31,30.31,0,0,0-8.55-4.75" fill="#3fb1ff" fill-rule="evenodd"/>
    <line x1="286.5" y1="161.96" x2="286.5" y2="42.54" fill="none" stroke="#3fb1ff" stroke-dasharray="2 2"/>
    <path d="M286.5,168a30.1,30.1,0,0,1,4.76-8.55l-4.76,1.72-4.75-1.72A30.31,30.31,0,0,1,286.5,168m0-131.5a30.1,30.1,0,0,0,4.76,8.55l-4.76-1.72-4.75,1.72a30.31,30.31,0,0,0,4.75-8.55" fill="#3fb1ff" fill-rule="evenodd"/>
    <g clip-path="url(#a)">
        <path d="M113.64,215.87h-1.25l-2.26,10.7h5.38l.24-1.12h-4.13l2-9.58m11.26,0h-5.38l-2.26,10.7h5.38l.24-1.11h-4.14l.84-3.93h3.87l.22-1.11h-3.86l.71-3.43h4.15l.23-1.12m10,0h-1.21l-1.27,6c-.21.89-.38,1.88-.53,3h0l-3.36-8.93h-1.32l-2.26,10.7h1.18l1.26-5.89q.31-1.44.54-3.06h0l3.37,8.95h1.32l2.27-10.7m18.92,0h-7.21l-.24,1.1h3l-2,9.6h1.26l2-9.6h3l.22-1.1m8.89,0H161.5l-1,4.55h-4.83l1-4.55H155.4l-2.26,10.7h1.24l1.07-5h4.83l-1.05,5h1.23l2.27-10.7m-21-.16a5.06,5.06,0,0,0-2.92.9,5.91,5.91,0,0,0-2.06,2.51,8.42,8.42,0,0,0-.74,3.59,3.93,3.93,0,0,0,1.07,2.95,4.08,4.08,0,0,0,3,1.06,9.17,9.17,0,0,0,3.06-.55l1.13-5.21h-3.36l-.24,1.12h2.12l-.71,3.25a5.56,5.56,0,0,1-1.9.28,2.74,2.74,0,0,1-2.1-.79,3.1,3.1,0,0,1-.75-2.19,7.73,7.73,0,0,1,.56-3,4.84,4.84,0,0,1,1.58-2.07,3.7,3.7,0,0,1,2.25-.74,5.33,5.33,0,0,1,1.43.18,8.62,8.62,0,0,1,1.21.43l.48-1.11a7.3,7.3,0,0,0-1.51-.47,8.23,8.23,0,0,0-1.61-.15" fill="#3fb1ff"/>
    </g>
    <g clip-path="url(#b)">
        <path d="M314.41,99.55h-1.33l-2.83,6.54c-.28.64-.6,1.5-1,2.6h-.07v-.61c0-.74,0-1.48-.07-2.23l-.31-6.3h-1.31l-3,6.33c-.33.69-.71,1.62-1.14,2.81h-.05c.05-.78.07-1.41.07-1.89v-.65l-.23-6.6H302l.45,10.71h1.28q3.42-7.4,3.69-8c.17-.4.32-.78.44-1.13h.05c0,.71,0,1.4.06,2.06l.36,7.07h1.24l4.86-10.71m2.87,0h-1.23l-2.28,10.71H315l2.28-10.71m2.07,9.64,1.83-8.56h1.31a2.87,2.87,0,0,1,2.21.81,3.41,3.41,0,0,1,.75,2.39,6.36,6.36,0,0,1-.59,2.79,4.41,4.41,0,0,1-1.72,1.9,5.06,5.06,0,0,1-2.6.67h-1.19m3.3-9.64h-2.51l-2.26,10.71h2.58a6.73,6.73,0,0,0,3.34-.79,5.36,5.36,0,0,0,2.2-2.25,7.23,7.23,0,0,0,.77-3.38,4.43,4.43,0,0,0-1-3.19,4.06,4.06,0,0,0-3.07-1.1m13.42,0h-7.21l-.24,1.11h3l-2,9.6h1.26l2.05-9.6h3l.22-1.11m8.89,0h-1.23l-1,4.56h-4.83l1-4.56h-1.25l-2.26,10.71h1.25l1.06-5h4.83l-1.05,5h1.23L345,99.55" fill="#3fa9f5"/>
    </g>
</svg>