<svg xmlns="http://www.w3.org/2000/svg" xmlns:xlink="http://www.w3.org/1999/xlink" width="361" height="254" viewBox="0 0 361 254">
    <defs>
        <path id="a" d="M0 206.211h319.872V0H0z"/>
    </defs>
    <g fill="none" fill-rule="evenodd" transform="translate(28 29)">
        <path stroke="#000" stroke-width="2" d="M215.5 144H2.5c-.55 0-1-.45-1-1V2c0-.55.45-1 1-1h213c.55 0 1 .45 1 1v141c0 .55-.45 1-1 1z"/>
        <path stroke="#B3B3B3" d="M202.344 137.677H15.657c-4.211 0-7.657-3.445-7.657-7.656V15.156c0-4.21 3.446-7.656 7.657-7.656h186.687c4.21 0 7.656 3.446 7.656 7.656V130.02c0 4.21-3.445 7.656-7.656 7.656z"/>
        <path stroke="#3FB1FF" stroke-width="2" d="M1 194v-46.5M216 147.5V194M272 144.25h-52.75M219.876 1.25H272"/>
        <path stroke="#3FB1FF" stroke-dasharray="2,2" d="M205.465 183.5H9.535"/>
        <path fill="#3FB1FF" d="M211.5 183.5c-2.84-1.054-6.363-2.852-8.547-4.756l1.72 4.756-1.72 4.755c2.184-1.904 5.707-3.702 8.547-4.755M3.5 183.5c2.84-1.054 6.363-2.852 8.547-4.756l-1.72 4.756 1.72 4.755c-2.184-1.904-5.707-3.702-8.547-4.755"/>
        <path stroke="#3FB1FF" stroke-dasharray="2,2" d="M258.5 132.965V13.535"/>
        <path fill="#3FB1FF" d="M258.5 139c1.054-2.84 2.852-6.363 4.756-8.547l-4.756 1.72-4.755-1.72c1.904 2.184 3.702 5.707 4.755 8.547M258.5 7.5c1.054 2.84 2.852 6.363 4.756 8.548l-4.756-1.72-4.755 1.72c1.904-2.185 3.702-5.708 4.755-8.548"/>
        <mask id="b" fill="#fff">
            <use xlink:href="#a"/>
        </mask>
        <text fill="#3FB1FF" font-family="OpenSans-SemiBoldItalic, Open Sans" font-size="15" font-style="italic" font-weight="500" letter-spacing=".025" mask="url(#b)">
            <tspan x="81.5" y="197.573">LENGTH</tspan>
        </text>
        <text fill="#3FA9F5" font-family="OpenSans-SemiBoldItalic, Open Sans" font-size="15" font-style="italic" font-weight="500" letter-spacing=".025" mask="url(#b)">
            <tspan x="272.345" y="81.263">WIDTH</tspan>
        </text>
    </g>
</svg>
