<svg xmlns="http://www.w3.org/2000/svg" width="361" height="280" viewBox="0 0 361 280">
    <g fill="none" fill-rule="evenodd">
        <path fill="#3FB1FF" fill-rule="nonzero" d="M240.627 69.585l-.898 4.269H238l2.255-10.686h2.466c1.084 0 1.916.23 2.495.69.579.461.868 1.169.868 2.124 0 .804-.21 1.483-.63 2.036-.422.553-1.048.956-1.88 1.21l1.817 4.626h-1.897l-1.51-4.269h-1.357zm.313-1.447h.898c.827 0 1.445-.183 1.853-.548.409-.365.613-.867.613-1.506 0-.511-.143-.88-.43-1.103-.287-.224-.733-.336-1.336-.336h-.868l-.73 3.493zm15.742-1.023c0 1.36-.232 2.57-.694 3.633-.462 1.062-1.098 1.87-1.908 2.422-.81.553-1.75.83-2.82.83-1.26 0-2.235-.364-2.925-1.093-.691-.728-1.037-1.736-1.037-3.022 0-1.301.24-2.489.72-3.563.478-1.075 1.134-1.897 1.966-2.467.831-.57 1.775-.855 2.83-.855 1.221 0 2.171.363 2.85 1.089.678.726 1.018 1.735 1.018 3.026zm-4.006-2.617c-.671 0-1.28.234-1.824.702-.545.468-.972 1.117-1.28 1.948-.31.83-.464 1.738-.464 2.722 0 .843.198 1.494.595 1.952.396.458.95.687 1.66.687.67 0 1.275-.233 1.813-.698.537-.465.955-1.111 1.255-1.937.299-.826.448-1.74.448-2.744 0-.829-.192-1.474-.576-1.937-.384-.463-.927-.695-1.627-.695zm13.96 9.356h-1.882l-.27-6.154-.044-1.352.03-.775h-.044a17.81 17.81 0 0 1-.854 2.127l-2.809 6.154h-1.868l-.386-10.686h1.67l.14 6.213c0 .662-.033 1.505-.096 2.529h.044c.404-1.077.75-1.942 1.036-2.595l2.824-6.147h1.641l.227 6.132.021 1.236-.021 1.374h.058c.136-.43.306-.91.51-1.444.205-.533.353-.905.446-1.115l2.612-6.183h1.795l-4.78 10.686zm10.248-3.128c0 1.023-.352 1.824-1.055 2.404-.703.58-1.672.87-2.907.87-1.022 0-1.868-.183-2.54-.548v-1.637c.842.472 1.693.709 2.554.709.667 0 1.192-.143 1.576-.428.385-.285.577-.68.577-1.188 0-.336-.1-.634-.3-.895-.199-.26-.617-.593-1.254-.998-.511-.326-.888-.623-1.131-.891a2.947 2.947 0 0 1-.558-.881 2.796 2.796 0 0 1-.194-1.056c0-.624.15-1.177.449-1.66.3-.482.722-.855 1.27-1.118.547-.263 1.163-.394 1.85-.394.996 0 1.923.224 2.779.672l-.627 1.396c-.784-.38-1.501-.57-2.153-.57-.53 0-.956.142-1.277.428-.32.285-.481.656-.481 1.114 0 .23.036.43.11.603.072.173.185.334.338.483.154.148.48.38.982.698.754.472 1.274.929 1.561 1.37.287.44.43.946.43 1.517zM243.781 203.513a3.32 3.32 0 0 0-2.015.65c-.59.434-1.063 1.066-1.418 1.897-.354.83-.53 1.743-.53 2.737 0 .877.2 1.549.604 2.014.403.465.997.698 1.784.698.689 0 1.492-.166 2.41-.497v1.498a7.81 7.81 0 0 1-2.74.49c-1.211 0-2.16-.362-2.847-1.085-.686-.724-1.029-1.739-1.029-3.045 0-1.266.258-2.443.773-3.53.515-1.086 1.203-1.912 2.063-2.478.86-.565 1.841-.847 2.945-.847 1.06 0 2.01.224 2.85.672l-.688 1.425a6.341 6.341 0 0 0-.982-.424 3.683 3.683 0 0 0-1.18-.175zm12.342 2.602c0 1.36-.232 2.57-.696 3.633-.464 1.062-1.103 1.87-1.916 2.422-.813.553-1.757.83-2.832.83-1.265 0-2.244-.364-2.938-1.093-.694-.728-1.04-1.736-1.04-3.022 0-1.301.24-2.489.721-3.563.481-1.075 1.14-1.897 1.975-2.467.835-.57 1.783-.855 2.843-.855 1.226 0 2.18.363 2.861 1.089.682.726 1.022 1.735 1.022 3.026zm-4.022-2.617c-.675 0-1.285.234-1.832.702-.547.468-.976 1.117-1.286 1.948-.31.83-.465 1.738-.465 2.722 0 .843.199 1.494.597 1.952.398.458.953.687 1.667.687.674 0 1.28-.233 1.82-.698.54-.465.96-1.111 1.26-1.937.301-.826.451-1.74.451-2.744 0-.829-.193-1.474-.578-1.937-.386-.463-.931-.695-1.634-.695zm5.03 9.356l2.263-10.686h1.737l-1.95 9.187h3.95l-.315 1.499h-5.686zm17.206-10.686l-1.48 6.987c-.273 1.301-.781 2.267-1.524 2.898-.742.632-1.727.947-2.953.947-1.06 0-1.88-.258-2.458-.775-.579-.516-.868-1.26-.868-2.229 0-.404.049-.819.146-1.243l1.415-6.585h1.736l-1.407 6.615a5.018 5.018 0 0 0-.154 1.155c0 .497.146.883.436 1.158.291.275.732.413 1.323.413.708 0 1.27-.196 1.685-.588.415-.393.718-1.03.909-1.912l1.458-6.84h1.736zm4.62 10.686l-.843-8.873h-.044c-.044.575-.178 1.403-.403 2.485l-1.348 6.388h-1.605l2.264-10.686h2.367l.799 8.398h.044l4.44-8.398h2.52l-2.234 10.686h-1.664l1.334-6.374c.19-.906.4-1.74.63-2.5h-.044l-4.711 8.874h-1.502zm16.892 0h-1.905l-3.004-8.5h-.044l-.074.504a92.32 92.32 0 0 1-.26 1.553c-.056.31-.504 2.457-1.344 6.443h-1.605l2.264-10.686h1.964l2.923 8.398h.052c.029-.263.105-.732.227-1.407.122-.675.22-1.17.293-1.487l1.172-5.504h1.605l-2.264 10.686zm9.03-3.128c0 1.023-.353 1.824-1.059 2.404-.706.58-1.679.87-2.92.87-1.026 0-1.875-.183-2.55-.548v-1.637c.845.472 1.7.709 2.565.709.67 0 1.197-.143 1.583-.428.385-.285.578-.68.578-1.188 0-.336-.1-.634-.3-.895-.2-.26-.62-.593-1.26-.998-.513-.326-.892-.623-1.136-.891a2.945 2.945 0 0 1-.56-.881 2.785 2.785 0 0 1-.195-1.056c0-.624.15-1.177.451-1.66.3-.482.725-.855 1.275-1.118.55-.263 1.169-.394 1.857-.394 1.002 0 1.932.224 2.792.672l-.63 1.396c-.787-.38-1.507-.57-2.162-.57-.532 0-.96.142-1.282.428-.322.285-.484.656-.484 1.114 0 .23.037.43.11.603.074.173.187.334.341.483.154.148.482.38.986.698.757.472 1.28.929 1.568 1.37.288.44.432.946.432 1.517z"/>
        <path stroke="#B7B7B7" stroke-width="2" d="M212.19 265.261H39.81a.81.81 0 0 1-.81-.806V150.806a.81.81 0 0 1 .81-.806h172.38a.81.81 0 0 1 .81.806v113.65a.81.81 0 0 1-.81.805z"/>
        <path stroke="#3FB1FF" stroke-width="1.5" d="M175.108 259.63V156M142.108 259.63V156M110.108 259.63V156M77.108 259.63V156"/>
        <path stroke="#B3B3B3" d="M201.284 259.72H50.717c-3.396 0-6.176-2.757-6.176-6.127v-91.925c0-3.369 2.78-6.127 6.176-6.127h150.567c3.396 0 6.175 2.758 6.175 6.127v91.925c0 3.37-2.779 6.127-6.175 6.127z"/>
        <g>
            <path stroke="#B7B7B7" stroke-width="2" d="M212.19 130.483H39.81a.81.81 0 0 1-.81-.806V16.027a.81.81 0 0 1 .81-.805h172.38a.81.81 0 0 1 .81.806v113.649a.81.81 0 0 1-.81.806z"/>
            <path stroke="#3FB1FF" stroke-width="1.5" d="M44.839 104.106h162.62M44.839 72.852l163 .554M44.839 41.599l163 .554"/>
            <path stroke="#B3B3B3" d="M201.284 124.941H50.717c-3.396 0-6.176-2.757-6.176-6.127V26.89c0-3.37 2.78-6.127 6.176-6.127h150.567c3.396 0 6.175 2.758 6.175 6.127v91.924c0 3.37-2.779 6.127-6.175 6.127z"/>
        </g>
    </g>
</svg>
