<svg xmlns="http://www.w3.org/2000/svg" width="361" height="254" viewBox="0 0 361 254">
    <title>height_tipRack</title>
    <path d="M241,163.75H28a1,1,0,0,1-1-1v-9.5a1,1,0,0,1,1-1H241a1,1,0,0,1,1,1v9.5A1,1,0,0,1,241,163.75Zm-206.5-12c-.55,0-1-.67-1-1.49v-53c0-.82.45-1.49,1-1.49h200c.55,0,1,.67,1,1.49v53c0,.82-.45,1.49-1,1.49" fill="none" stroke="#b3b3b3"/>
    <path d="M235,152.25h6a1,1,0,0,1,1,1v9.5a1,1,0,0,1-1,1H28a1,1,0,0,1-1-1v-9.5a1,1,0,0,1,1-1h5.5m200.92-57.5c.47,0,.86.68.86,1.52v54c0,.84-.39,1.52-.86,1.52m-200.27,0c-.46,0-.83-.67-.83-1.49v-53c0-.82.37-1.49.83-1.49" fill="none" stroke="#000" stroke-width="2"/>
    <path d="M35.07,95.13,35,95V91.55l.07-.1H49.42l.08.1V95l-.08.09m2.43,0L51.77,95V91.55l.08-.1H66.2l.07.1V95l-.07.09m2.42,0L68.55,95V91.55l.07-.1H83l.07.1V95l-.07.09m2.42,0L85.32,95V91.55l.07-.1H99.75l.06.1V95l-.06.09m2.41,0-.07-.09V91.55l.07-.1h14.36l.07.1V95l-.07.09m2.42,0-.07-.09V91.55l.07-.1h14.35l.07.1V95l-.07.09m2.42,0-.07-.09V91.55l.07-.1h14.35l.07.1V95l-.07.09m2.42,0-.07-.09V91.55l.07-.1h14.36l.07.1V95l-.07.09m2.42,0-.08-.09V91.55l.08-.1h14.35l.07.1V95l-.07.09m2.42,0L186,95V91.55l.07-.1h14.35l.07.1V95l-.07.09m2.42,0-.07-.09V91.55l.07-.1h14.36l.07.1V95l-.07.09m2.42,0L219.5,95V91.55l.08-.1h14.35l.07.1V95l-.07.09" fill="none" stroke="#000" stroke-width="1.5"/>
    <path d="M297,164H241.25M236,90h63" fill="none" stroke="#3fb1ff" stroke-width="2"/>
    <line x1="288.34" y1="156.71" x2="288.34" y2="97.79" fill="none" stroke="#3fb1ff" stroke-dasharray="2 2"/>
    <path d="M288.34,162.75a30.59,30.59,0,0,1,4.76-8.55l-4.76,1.72-4.75-1.72a30.31,30.31,0,0,1,4.75,8.55m0-71a30.59,30.59,0,0,0,4.76,8.55l-4.76-1.72-4.75,1.72a30.31,30.31,0,0,0,4.75-8.55" fill="#3fb1ff" fill-rule="evenodd"/>
    <path d="M346.92,115.54h3l.22-1.11h-7.21l-.24,1.11h3l-2,9.6h1.26Zm-5.59-1.11H340.1l-1,4.56h-4.84l1-4.56H334l-2.26,10.71H333l1.06-5h4.84l-1.05,5h1.22Zm-14.61,6.22h2.12l-.71,3.25a5.52,5.52,0,0,1-1.9.28,2.71,2.71,0,0,1-2.1-.8,3.05,3.05,0,0,1-.75-2.18,7.55,7.55,0,0,1,.57-3,4.82,4.82,0,0,1,1.57-2.07,3.72,3.72,0,0,1,2.26-.75,5.3,5.3,0,0,1,1.42.19,8.19,8.19,0,0,1,1.21.43l.49-1.11a7.57,7.57,0,0,0-1.52-.47,8.13,8.13,0,0,0-1.6-.15,5.09,5.09,0,0,0-2.93.9,6,6,0,0,0-2.06,2.51,8.57,8.57,0,0,0-.74,3.59,4,4,0,0,0,1.07,3,4.09,4.09,0,0,0,3,1.06,9.27,9.27,0,0,0,3.07-.55l1.12-5.21H327Zm-8,4.49L321,114.43h-1.23l-2.28,10.71ZM315.41,124h-4.14l.84-3.93H316l.22-1.11h-3.86l.71-3.44h4.15l.23-1.12h-5.38l-2.26,10.71h5.38Zm-6.22-9.6H308L307,119h-4.83l1-4.56h-1.25l-2.26,10.71h1.24l1.07-5h4.83l-1.05,5h1.23Z" fill="#3fb1ff"/>
</svg>