<svg xmlns="http://www.w3.org/2000/svg" width="361" height="254" viewBox="0 0 361 254">
    <g fill="none" fill-rule="evenodd">
        <path stroke="#B3B3B3" d="M241 163.75H28c-.55 0-1-.45-1-1v-9.5c0-.55.45-1 1-1h213c.55 0 1 .45 1 1v9.5c0 .55-.45 1-1 1zM34.5 151.75c-.55 0-1-.672-1-1.493V97.243c0-.82.45-1.493 1-1.493h200c.55 0 1 .672 1 1.493v53.014c0 .821-.45 1.493-1 1.493"/>
        <path stroke="#000" stroke-width="2" d="M235 152.25h6c.55 0 1 .45 1 1v9.5c0 .55-.45 1-1 1H28c-.55 0-1-.45-1-1v-9.5c0-.55.45-1 1-1h5.5M234.418 94.75c.475 0 .864.684.864 1.52v53.96c0 .836-.389 1.52-.864 1.52M34.147 151.75c-.455 0-.826-.672-.826-1.493V97.243c0-.82.371-1.493.826-1.493"/>
        <path stroke="#000" stroke-width="1.5" d="M35.072 95.135c-.04 0-.072-.044-.072-.099v-3.489c0-.054.032-.099.072-.099h14.353c.04 0 .072.045.072.099v3.489c0 .055-.032.099-.072.099M51.845 95.135c-.04 0-.072-.044-.072-.099v-3.489c0-.054.032-.099.072-.099h14.353c.04 0 .072.045.072.099v3.489c0 .055-.032.099-.072.099M68.618 95.135c-.04 0-.072-.044-.072-.099v-3.489c0-.054.032-.099.072-.099h14.354c.039 0 .07.045.07.099v3.489c0 .055-.031.099-.07.099M85.39 95.135c-.038 0-.071-.044-.071-.099v-3.489c0-.054.033-.099.072-.099h14.354c.039 0 .07.045.07.099v3.489c0 .055-.031.099-.07.099M102.164 95.135c-.04 0-.072-.044-.072-.099v-3.489c0-.054.032-.099.072-.099h14.353c.04 0 .072.045.072.099v3.489c0 .055-.032.099-.072.099M118.937 95.135c-.04 0-.072-.044-.072-.099v-3.489c0-.054.032-.099.072-.099h14.353c.04 0 .072.045.072.099v3.489c0 .055-.032.099-.072.099M135.71 95.135c-.04 0-.072-.044-.072-.099v-3.489c0-.054.032-.099.072-.099h14.353c.04 0 .072.045.072.099v3.489c0 .055-.032.099-.072.099M152.483 95.135c-.04 0-.072-.044-.072-.099v-3.489c0-.054.032-.099.072-.099h14.353c.04 0 .072.045.072.099v3.489c0 .055-.032.099-.072.099M169.256 95.135c-.04 0-.072-.044-.072-.099v-3.489c0-.054.032-.099.072-.099h14.354c.039 0 .07.045.07.099v3.489c0 .055-.031.099-.07.099M186.029 95.135c-.04 0-.072-.044-.072-.099v-3.489c0-.054.033-.099.072-.099h14.354c.039 0 .07.045.07.099v3.489c0 .055-.031.099-.07.099M202.802 95.135c-.04 0-.072-.044-.072-.099v-3.489c0-.054.032-.099.072-.099h14.353c.04 0 .072.045.072.099v3.489c0 .055-.032.099-.072.099M219.575 95.135c-.04 0-.072-.044-.072-.099v-3.489c0-.054.032-.099.072-.099h14.353c.04 0 .072.045.072.099v3.489c0 .055-.032.099-.072.099"/>
        <path stroke="#3FB1FF" stroke-width="2" d="M296.968 164H241.25M236 90h63"/>
        <path stroke="#3FB1FF" stroke-dasharray="2,2" d="M288.344 156.715v-58.93"/>
        <path fill="#3FB1FF" d="M288.344 162.75c1.054-2.84 2.852-6.363 4.756-8.547l-4.756 1.72-4.755-1.72c1.904 2.184 3.702 5.707 4.755 8.547M288.344 91.75c1.054 2.84 2.852 6.363 4.756 8.548l-4.756-1.72-4.755 1.72c1.904-2.185 3.702-5.708 4.755-8.548"/>
        <text fill="#3FB1FF" font-family="OpenSans-SemiBoldItalic, Open Sans" font-size="15" font-style="italic" font-weight="500" letter-spacing=".025" transform="translate(27 89)">
            <tspan x="271.969" y="36.143">HEIGHT</tspan>
        </text>
    </g>
</svg>
