<svg xmlns="http://www.w3.org/2000/svg" width="361" height="254" viewBox="0 0 361 254">
    <title>height_aluminumBlock_plate</title>
    <rect x="28" y="144.25" width="215" height="11.5" rx="1" fill="none" stroke="#b3b3b3"/>
    <path d="M235.5,116.75H35.5a1,1,0,0,1-1-1v-9.5a1,1,0,0,1,1-1h200a1,1,0,0,1,1,1v9.5A1,1,0,0,1,235.5,116.75Zm.5,26.5h6a1,1,0,0,1,1,1v9.5a1,1,0,0,1-1,1H29a1,1,0,0,1-1-1v-9.5a1,1,0,0,1,1-1h5.5m201-26.5c.55,0,1,.31,1,.69v24.62c0,.38-.45.69-1,.69" fill="none" stroke="#000" stroke-width="2"/>
    <path d="M35.5,142.75c-.55,0-1-.31-1-.69V117.44c0-.38.45-.69,1-.69" fill="none" stroke="#000" stroke-width="2"/>
    <path d="M36.07,104.13,36,104v-3.49l.07-.1H50.42l.08.1V104l-.08.09m2.43,0-.08-.09v-3.49l.08-.1H67.2l.07.1V104l-.07.09m2.42,0-.07-.09v-3.49l.07-.1H84l.07.1V104l-.07.09m2.42,0-.07-.09v-3.49l.07-.1h14.35l.08.1V104l-.08.09m2.42,0-.07-.09v-3.49l.07-.1h14.36l.07.1V104l-.07.09m2.42,0-.07-.09v-3.49l.07-.1h14.35l.07.1V104l-.07.09m2.42,0-.07-.09v-3.49l.07-.1h14.35l.07.1V104l-.07.09m2.42,0-.07-.09v-3.49l.07-.1h14.36l.07.1V104l-.07.09m2.42,0-.08-.09v-3.49l.08-.1h14.35l.07.1V104l-.07.09m2.42,0L187,104v-3.49l.07-.1h14.35l.07.1V104l-.07.09m2.42,0-.07-.09v-3.49l.07-.1h14.36l.07.1V104l-.07.09m2.42,0-.08-.09v-3.49l.08-.1h14.35l.07.1V104l-.07.09" fill="none" stroke="#000" stroke-width="1.5"/>
    <path d="M276.64,155H239.5M236,99h42" fill="none" stroke="#3fb1ff" stroke-width="2"/>
    <line x1="270.55" y1="147.71" x2="270.55" y2="105.29" fill="none" stroke="#3fb1ff" stroke-dasharray="2 2"/>
    <path d="M270.55,153.75a30.31,30.31,0,0,1,4.75-8.55l-4.75,1.72-4.76-1.72a30.1,30.1,0,0,1,4.76,8.55m0-54.5a30.31,30.31,0,0,0,4.75,8.55l-4.75-1.72-4.76,1.72a30.1,30.1,0,0,0,4.76-8.55" fill="#3fb1ff" fill-rule="evenodd"/>
    <path d="M331.92,119.54h3l.22-1.11h-7.21l-.24,1.11h3l-2,9.6h1.26Zm-5.59-1.11H325.1l-1,4.56h-4.84l1-4.56H319l-2.26,10.71H318l1.06-5h4.84l-1.05,5h1.22Zm-14.61,6.22h2.12l-.71,3.25a5.52,5.52,0,0,1-1.9.28,2.71,2.71,0,0,1-2.1-.8,3.05,3.05,0,0,1-.75-2.18,7.55,7.55,0,0,1,.57-3,4.82,4.82,0,0,1,1.57-2.07,3.72,3.72,0,0,1,2.26-.75,5.3,5.3,0,0,1,1.42.19,8.19,8.19,0,0,1,1.21.43l.49-1.11a7.57,7.57,0,0,0-1.52-.47,8.13,8.13,0,0,0-1.6-.15,5.09,5.09,0,0,0-2.93.9,6,6,0,0,0-2.06,2.51,8.57,8.57,0,0,0-.74,3.59,4,4,0,0,0,1.07,2.95,4.09,4.09,0,0,0,3,1.06,9.27,9.27,0,0,0,3.07-.55l1.12-5.21H312Zm-8,4.49L306,118.43h-1.23l-2.28,10.71ZM300.41,128h-4.14l.84-3.93H301l.22-1.11h-3.86l.71-3.44h4.15l.23-1.12h-5.38l-2.26,10.71h5.38Zm-6.22-9.6H293L292,123h-4.83l1-4.56h-1.25l-2.26,10.71h1.24l1.07-5h4.83l-1.05,5h1.23Z" fill="#3fb1ff"/>
</svg>