<svg xmlns="http://www.w3.org/2000/svg" width="361" height="120" viewBox="0 0 361 120">
    <title>height_plate-and-reservoir</title>
    <path d="M242,84.75H29a1,1,0,0,1-1-1v-9.5a1,1,0,0,1,1-1H242a1,1,0,0,1,1,1v9.5A1,1,0,0,1,242,84.75Zm-206.5-12a1,1,0,0,1-1-1V36.25a1,1,0,0,1,1-1h200a1,1,0,0,1,1,1v35.5a1,1,0,0,1-1,1" fill="none" stroke="#b3b3b3"/>
    <path d="M236,73.25h6a1,1,0,0,1,1,1v9.5a1,1,0,0,1-1,1H29a1,1,0,0,1-1-1v-9.5a1,1,0,0,1,1-1h5.5m201-38a1,1,0,0,1,1,1v35.5a1,1,0,0,1-1,1m-200,0a1,1,0,0,1-1-1V36.25a1,1,0,0,1,1-1" fill="none" stroke="#000" stroke-width="2"/>
    <path d="M36.07,34.13,36,34V30.55l.07-.1H50.42l.08.1V34l-.08.09m2.43,0L52.77,34V30.55l.08-.1H67.2l.07.1V34l-.07.09m2.42,0L69.55,34V30.55l.07-.1H84l.07.1V34l-.07.09m2.42,0L86.32,34V30.55l.07-.1h14.35l.08.1V34l-.08.09m2.42,0-.07-.09V30.55l.07-.1h14.36l.07.1V34l-.07.09m2.42,0-.07-.09V30.55l.07-.1h14.35l.07.1V34l-.07.09m2.42,0-.07-.09V30.55l.07-.1h14.35l.07.1V34l-.07.09m2.42,0-.07-.09V30.55l.07-.1h14.36l.07.1V34l-.07.09m2.42,0-.08-.09V30.55l.08-.1h14.35l.07.1V34l-.07.09m2.42,0L187,34V30.55l.07-.1h14.35l.07.1V34l-.07.09m2.42,0-.07-.09V30.55l.07-.1h14.36l.07.1V34l-.07.09m2.42,0L220.5,34V30.55l.08-.1h14.35l.07.1V34l-.07.09" fill="none" stroke="#000" stroke-width="1.5"/>
    <path d="M298,85H242.25M237,29h63" fill="none" stroke="#3fb1ff" stroke-width="2"/>
    <line x1="289" y1="77.71" x2="289" y2="37.29" fill="none" stroke="#3fb1ff" stroke-dasharray="2 2"/>
    <path d="M289,83.75a30.1,30.1,0,0,1,4.76-8.55L289,76.92l-4.75-1.72A30.31,30.31,0,0,1,289,83.75m0-52.5a30.1,30.1,0,0,0,4.76,8.55L289,38.08l-4.75,1.72A30.31,30.31,0,0,0,289,31.25" fill="#3fb1ff" fill-rule="evenodd"/>
    <path d="M347.92,49.54h3l.22-1.11h-7.21l-.24,1.11h3l-2,9.6h1.26Zm-5.59-1.11H341.1l-1,4.56h-4.84l1-4.56H335l-2.26,10.71H334l1.06-5h4.84l-1.05,5h1.22Zm-14.61,6.22h2.12l-.71,3.25a5.52,5.52,0,0,1-1.9.28,2.71,2.71,0,0,1-2.1-.8,3.05,3.05,0,0,1-.75-2.18,7.55,7.55,0,0,1,.57-3,4.82,4.82,0,0,1,1.57-2.07,3.72,3.72,0,0,1,2.26-.75,5.3,5.3,0,0,1,1.42.19,8.19,8.19,0,0,1,1.21.43l.49-1.11a7.57,7.57,0,0,0-1.52-.47,8.13,8.13,0,0,0-1.6-.15,5.09,5.09,0,0,0-2.93.9,6,6,0,0,0-2.06,2.51,8.57,8.57,0,0,0-.74,3.59,4,4,0,0,0,1.07,2.95,4.09,4.09,0,0,0,3,1.06,9.27,9.27,0,0,0,3.07-.55l1.12-5.21H328Zm-8,4.49L322,48.43h-1.23l-2.28,10.71ZM316.41,58h-4.14l.84-3.93H317L317.2,53h-3.86l.71-3.44h4.15l.23-1.12h-5.38l-2.26,10.71h5.38Zm-6.22-9.6H309L308,53h-4.83l1-4.56h-1.25L300.6,59.14h1.24l1.07-5h4.83l-1.05,5h1.23Z" fill="#3fb1ff"/>
</svg>