<svg xmlns="http://www.w3.org/2000/svg" width="361" height="254" viewBox="0 0 361 254">
    <title>height_tubeRack</title>
    <path d="M242,161H29a1,1,0,0,1-1-1v-9.5a1,1,0,0,1,1-1H242a1,1,0,0,1,1,1V160A1,1,0,0,1,242,161ZM35.5,149a.94.94,0,0,1-1-.86V81.85a.94.94,0,0,1,1-.85h200a.94.94,0,0,1,1,.85v66.29a.94.94,0,0,1-1,.86" fill="none" stroke="#b3b3b3"/>
    <path d="M236,149.5h6a1,1,0,0,1,1,1V160a1,1,0,0,1-1,1H29a1,1,0,0,1-1-1v-9.5a1,1,0,0,1,1-1h5.5M235.5,81a.94.94,0,0,1,1,.85v66.29a.94.94,0,0,1-1,.86m-200,0a.94.94,0,0,1-1-.86V81.85a.94.94,0,0,1,1-.85" fill="none" stroke="#000" stroke-width="2"/>
    <line x1="237" y1="66.09" x2="287" y2="66.42" fill="none" stroke="#3fb1ff" stroke-width="2"/>
    <line x1="275" y1="153.96" x2="275" y2="73.54" fill="none" stroke="#3fb1ff" stroke-dasharray="2 2"/>
    <path d="M275,160a30.1,30.1,0,0,1,4.76-8.55L275,153.17l-4.75-1.72A30.31,30.31,0,0,1,275,160m0-92.5a30.1,30.1,0,0,0,4.76,8.55L275,74.33l-4.75,1.72A30.31,30.31,0,0,0,275,67.5" fill="#3fb1ff" fill-rule="evenodd"/>
    <path d="M332.92,107.79h3l.22-1.11h-7.21l-.24,1.11h3l-2,9.6h1.26Zm-5.59-1.11H326.1l-1,4.56h-4.84l1-4.56H320l-2.26,10.71H319l1.06-5h4.84l-1.05,5h1.22Zm-14.61,6.22h2.12l-.71,3.25a5.52,5.52,0,0,1-1.9.28,2.71,2.71,0,0,1-2.1-.8,3.05,3.05,0,0,1-.75-2.18,7.55,7.55,0,0,1,.57-3,4.82,4.82,0,0,1,1.57-2.07,3.72,3.72,0,0,1,2.26-.75,5.3,5.3,0,0,1,1.42.19,8.19,8.19,0,0,1,1.21.43l.49-1.11a7.57,7.57,0,0,0-1.52-.47,8.13,8.13,0,0,0-1.6-.15,5.09,5.09,0,0,0-2.93.9,6,6,0,0,0-2.06,2.51,8.57,8.57,0,0,0-.74,3.59,4,4,0,0,0,1.07,3,4.09,4.09,0,0,0,3,1.06,9.27,9.27,0,0,0,3.07-.55l1.12-5.21H313Zm-8,4.49L307,106.68h-1.23l-2.28,10.71Zm-3.29-1.11h-4.14l.84-3.93H302l.22-1.11h-3.86l.71-3.44h4.15l.23-1.12h-5.38l-2.26,10.71h5.38Zm-6.22-9.6H294l-1,4.56h-4.83l1-4.56h-1.25l-2.26,10.71h1.24l1.07-5h4.83l-1.05,5h1.23Z" fill="#3fb1ff"/>
    <path d="M159.45,146A15.45,15.45,0,0,1,144,130.55V66h31v64.45A15.55,15.55,0,0,1,159.45,146Zm49,0A15.45,15.45,0,0,1,193,130.55V66h31v64.45A15.55,15.55,0,0,1,208.45,146Zm-147,0A15.45,15.45,0,0,1,46,130.55V66H77v64.45A15.55,15.55,0,0,1,61.45,146Zm49,0A15.45,15.45,0,0,1,95,130.55V66h31v64.45A15.55,15.55,0,0,1,110.45,146Z" fill="none" stroke="#000" stroke-width="2"/>
    <line x1="237" y1="161" x2="287" y2="161" fill="none" stroke="#3fb1ff" stroke-width="2"/>
</svg>