<svg xmlns="http://www.w3.org/2000/svg" width="361" height="254" viewBox="0 0 361 254">
    <g fill="none" fill-rule="evenodd">
        <path stroke="#B3B3B3" d="M242 155.75H29c-.55 0-1-.45-1-1v-9.5c0-.55.45-1 1-1h213c.55 0 1 .45 1 1v9.5c0 .55-.45 1-1 1z"/>
        <path stroke="#000" stroke-width="2" d="M235.5 116.75h-200c-.55 0-1-.45-1-1v-9.5c0-.55.45-1 1-1h200c.55 0 1 .45 1 1v9.5c0 .55-.45 1-1 1zM236 143.25h6c.55 0 1 .45 1 1v9.5c0 .55-.45 1-1 1H29c-.55 0-1-.45-1-1v-9.5c0-.55.45-1 1-1h5.5M235.5 116.75c.55 0 1 .312 1 .693v24.614c0 .381-.45.693-1 .693"/>
        <path stroke="#000" stroke-width="2" d="M35.5 142.75c-.55 0-1-.312-1-.693v-24.614c0-.38.45-.693 1-.693"/>
        <path stroke="#000" stroke-width="1.5" d="M36.072 104.135c-.04 0-.072-.044-.072-.099v-3.489c0-.054.032-.099.072-.099h14.353c.04 0 .072.045.072.099v3.489c0 .055-.032.099-.072.099M52.845 104.135c-.04 0-.072-.044-.072-.099v-3.489c0-.054.033-.099.072-.099h14.353c.04 0 .072.045.072.099v3.489c0 .055-.032.099-.072.099M69.618 104.135c-.04 0-.072-.044-.072-.099v-3.489c0-.054.032-.099.072-.099H83.97c.04 0 .072.045.072.099v3.489c0 .055-.032.099-.072.099M86.39 104.135c-.04 0-.071-.044-.071-.099v-3.489c0-.054.032-.099.072-.099h14.353c.04 0 .072.045.072.099v3.489c0 .055-.032.099-.072.099M103.164 104.135c-.04 0-.072-.044-.072-.099v-3.489c0-.054.033-.099.072-.099h14.353c.04 0 .072.045.072.099v3.489c0 .055-.032.099-.072.099M119.937 104.135c-.04 0-.072-.044-.072-.099v-3.489c0-.054.032-.099.072-.099h14.353c.04 0 .072.045.072.099v3.489c0 .055-.032.099-.072.099M136.71 104.135c-.04 0-.072-.044-.072-.099v-3.489c0-.054.032-.099.072-.099h14.353c.04 0 .072.045.072.099v3.489c0 .055-.032.099-.072.099M153.483 104.135c-.04 0-.072-.044-.072-.099v-3.489c0-.054.033-.099.072-.099h14.353c.04 0 .072.045.072.099v3.489c0 .055-.032.099-.072.099M170.256 104.135c-.04 0-.072-.044-.072-.099v-3.489c0-.054.032-.099.072-.099h14.353c.04 0 .072.045.072.099v3.489c0 .055-.032.099-.072.099M187.03 104.135c-.04 0-.073-.044-.073-.099v-3.489c0-.054.032-.099.072-.099h14.353c.04 0 .072.045.072.099v3.489c0 .055-.032.099-.072.099M203.802 104.135c-.039 0-.072-.044-.072-.099v-3.489c0-.054.033-.099.072-.099h14.353c.04 0 .072.045.072.099v3.489c0 .055-.032.099-.072.099M220.575 104.135c-.04 0-.072-.044-.072-.099v-3.489c0-.054.032-.099.072-.099h14.353c.04 0 .072.045.072.099v3.489c0 .055-.032.099-.072.099"/>
        <path stroke="#3FB1FF" stroke-width="2" d="M276.645 155H239.5M236 99h42"/>
        <path stroke="#3FB1FF" stroke-dasharray="2,2" d="M270.55 147.715v-42.43"/>
        <path fill="#3FB1FF" d="M270.55 153.75c1.053-2.84 2.851-6.363 4.755-8.548l-4.756 1.721-4.755-1.72c1.904 2.184 3.702 5.707 4.755 8.547M270.55 99.25c1.053 2.84 2.851 6.363 4.755 8.547l-4.756-1.72-4.755 1.72c1.904-2.184 3.702-5.707 4.755-8.547"/>
        <text fill="#3FB1FF" font-family="OpenSans-SemiBoldItalic, Open Sans" font-size="15" font-style="italic" font-weight="500" letter-spacing=".025" transform="translate(28 98)">
            <tspan x="255.969" y="31.143">HEIGHT</tspan>
        </text>
    </g>
</svg>
