<svg xmlns="http://www.w3.org/2000/svg" width="361" height="254" viewBox="0 0 361 254">
    <title>height_aluminumBlock_tubes</title>
    <line x1="235" y1="103" x2="277" y2="103" fill="none" stroke="#3fb1ff" stroke-width="2"/>
    <line x1="270.32" y1="142.71" x2="270.32" y2="111.79" fill="none" stroke="#3fb1ff" stroke-dasharray="2 2"/>
    <path d="M270.32,148.75a30.31,30.31,0,0,1,4.75-8.55l-4.75,1.72-4.76-1.72a30.59,30.59,0,0,1,4.76,8.55m0-43a30.31,30.31,0,0,0,4.75,8.55l-4.75-1.72-4.76,1.72a30.59,30.59,0,0,0,4.76-8.55" fill="#3fb1ff" fill-rule="evenodd"/>
    <path d="M330.92,116.54h3l.22-1.11h-7.21l-.24,1.11h3l-2,9.6h1.26Zm-5.59-1.11H324.1l-1,4.56h-4.84l1-4.56H318l-2.26,10.71H317l1.06-5h4.84l-1.05,5h1.22Zm-14.61,6.22h2.12l-.71,3.25a5.52,5.52,0,0,1-1.9.28,2.71,2.71,0,0,1-2.1-.8,3.05,3.05,0,0,1-.75-2.18,7.55,7.55,0,0,1,.57-3,4.82,4.82,0,0,1,1.57-2.07,3.72,3.72,0,0,1,2.26-.75,5.3,5.3,0,0,1,1.42.19,8.19,8.19,0,0,1,1.21.43l.49-1.11a7.57,7.57,0,0,0-1.52-.47,8.13,8.13,0,0,0-1.6-.15,5.09,5.09,0,0,0-2.93.9,6,6,0,0,0-2.06,2.51,8.57,8.57,0,0,0-.74,3.59,4,4,0,0,0,1.07,3,4.09,4.09,0,0,0,3,1.06,9.27,9.27,0,0,0,3.07-.55l1.12-5.21H311Zm-8,4.49L305,115.43h-1.23l-2.28,10.71ZM299.41,125h-4.14l.84-3.93H300l.22-1.11h-3.86l.71-3.44h4.15l.23-1.12h-5.38l-2.26,10.71h5.38Zm-6.22-9.6H292L291,120h-4.83l1-4.56h-1.25l-2.26,10.71h1.24l1.07-5h4.83l-1.05,5h1.23Z" fill="#3fb1ff"/>
    <polyline points="36.2 108.14 36.13 108.04 36.13 104.55 36.2 104.45 50.55 104.45 50.62 104.55 50.62 108.04 50.55 108.14" fill="none" stroke="#000" stroke-width="1.5"/>
    <polygon points="48.5 118.25 38.37 118.25 36.37 108.25 50.37 108.25 48.5 118.25" fill="none" stroke="#000"/>
    <polyline points="52.92 108.14 52.85 108.04 52.85 104.55 52.92 104.45 67.28 104.45 67.35 104.55 67.35 108.04 67.28 108.14" fill="none" stroke="#000" stroke-width="1.5"/>
    <polygon points="65.23 118.25 55.1 118.25 53.1 108.25 67.1 108.25 65.23 118.25" fill="none" stroke="#000"/>
    <polyline points="69.65 108.14 69.58 108.04 69.58 104.55 69.65 104.45 84 104.45 84.08 104.55 84.08 108.04 84 108.14" fill="none" stroke="#000" stroke-width="1.5"/>
    <polygon points="81.95 118.25 71.83 118.25 69.83 108.25 83.83 108.25 81.95 118.25" fill="none" stroke="#000"/>
    <polyline points="86.38 108.14 86.31 108.04 86.31 104.55 86.38 104.45 100.73 104.45 100.8 104.55 100.8 108.04 100.73 108.14" fill="none" stroke="#000" stroke-width="1.5"/>
    <polygon points="98.68 118.25 88.56 118.25 86.56 108.25 100.56 108.25 98.68 118.25" fill="none" stroke="#000"/>
    <polyline points="103.11 108.14 103.04 108.04 103.04 104.55 103.11 104.45 117.46 104.45 117.53 104.55 117.53 108.04 117.46 108.14" fill="none" stroke="#000" stroke-width="1.5"/>
    <polygon points="115.41 118.25 105.28 118.25 103.28 108.25 117.28 108.25 115.41 118.25" fill="none" stroke="#000"/>
    <polyline points="119.83 108.14 119.76 108.04 119.76 104.55 119.83 104.45 134.19 104.45 134.26 104.55 134.26 108.04 134.19 108.14" fill="none" stroke="#000" stroke-width="1.5"/>
    <polygon points="132.14 118.25 122.01 118.25 120.01 108.25 134.01 108.25 132.14 118.25" fill="none" stroke="#000"/>
    <polyline points="136.56 108.14 136.49 108.04 136.49 104.55 136.56 104.45 150.91 104.45 150.99 104.55 150.99 108.04 150.91 108.14" fill="none" stroke="#000" stroke-width="1.5"/>
    <polygon points="148.86 118.25 138.74 118.25 136.74 108.25 150.74 108.25 148.86 118.25" fill="none" stroke="#000"/>
    <polyline points="153.29 108.14 153.22 108.04 153.22 104.55 153.29 104.45 167.64 104.45 167.71 104.55 167.71 108.04 167.64 108.14" fill="none" stroke="#000" stroke-width="1.5"/>
    <polygon points="165.59 118.25 155.47 118.25 153.47 108.25 167.47 108.25 165.59 118.25" fill="none" stroke="#000"/>
    <polyline points="170.02 108.14 169.94 108.04 169.94 104.55 170.02 104.45 184.37 104.45 184.44 104.55 184.44 108.04 184.37 108.14" fill="none" stroke="#000" stroke-width="1.5"/>
    <polygon points="182.32 118.25 172.19 118.25 170.19 108.25 184.19 108.25 182.32 118.25" fill="none" stroke="#000"/>
    <polyline points="186.74 108.14 186.67 108.04 186.67 104.55 186.74 104.45 201.1 104.45 201.17 104.55 201.17 108.04 201.1 108.14" fill="none" stroke="#000" stroke-width="1.5"/>
    <polygon points="199.04 118.25 188.92 118.25 186.92 108.25 200.92 108.25 199.04 118.25" fill="none" stroke="#000"/>
    <polyline points="203.47 108.14 203.4 108.04 203.4 104.55 203.47 104.45 217.82 104.45 217.9 104.55 217.9 108.04 217.82 108.14" fill="none" stroke="#000" stroke-width="1.5"/>
    <polygon points="215.77 118.25 205.65 118.25 203.65 108.25 217.65 108.25 215.77 118.25" fill="none" stroke="#000"/>
    <polyline points="220.2 108.14 220.13 108.04 220.13 104.55 220.2 104.45 234.55 104.45 234.62 104.55 234.62 108.04 234.55 108.14" fill="none" stroke="#000" stroke-width="1.5"/>
    <polygon points="232.5 118.25 222.37 118.25 220.37 108.25 234.37 108.25 232.5 118.25" fill="none" stroke="#000"/>
    <path d="M35.5,139.75c-.55,0-1-.16-1-.35V112.6c0-.19.45-.35,1-.35h200c.55,0,1,.15,1,.35v26.8c0,.19-.45.35-1,.35" fill="#fff" fill-rule="evenodd"/>
    <path d="M35.5,139.75c-.55,0-1-.16-1-.35V112.6c0-.19.45-.35,1-.35h200c.55,0,1,.15,1,.35v26.8c0,.19-.45.35-1,.35m6.5,12H29a1,1,0,0,1-1-1v-9.5a1,1,0,0,1,1-1H242a1,1,0,0,1,1,1v9.5A1,1,0,0,1,242,151.75Z" fill="none" stroke="#b3b3b3"/>
    <path d="M236,139.25h6a1,1,0,0,1,1,1v9.5a1,1,0,0,1-1,1H29a1,1,0,0,1-1-1v-9.5a1,1,0,0,1,1-1h5.5m201-26.5c.55,0,1,.31,1,.69v24.62c0,.38-.45.69-1,.69m-200,0c-.55,0-1-.31-1-.69V113.44c0-.38.45-.69,1-.69" fill="none" stroke="#000" stroke-width="2"/>
    <line x1="275.64" y1="151" x2="238.5" y2="151" fill="none" stroke="#3fb1ff" stroke-width="2"/>
</svg>