<svg xmlns="http://www.w3.org/2000/svg" width="361" height="254" viewBox="0 0 361 254">
    <g fill="none" fill-rule="evenodd">
        <path stroke="#B3B3B3" d="M242 161H29c-.55 0-1-.45-1-1v-9.5c0-.55.45-1 1-1h213c.55 0 1 .45 1 1v9.5c0 .55-.45 1-1 1zM35.5 149c-.55 0-1-.385-1-.855v-66.29c0-.47.45-.855 1-.855h200c.55 0 1 .385 1 .855v66.29c0 .47-.45.855-1 .855"/>
        <path stroke="#000" stroke-width="2" d="M236 149.5h6c.55 0 1 .45 1 1v9.5c0 .55-.45 1-1 1H29c-.55 0-1-.45-1-1v-9.5c0-.55.45-1 1-1h5.5M235.5 81c.55 0 1 .385 1 .855v66.29c0 .47-.45.855-1 .855M35.5 149c-.55 0-1-.385-1-.855v-66.29c0-.47.45-.855 1-.855"/>
        <path stroke="#3FB1FF" stroke-width="2" d="M237 66.086l50 .329"/>
        <path stroke="#3FB1FF" stroke-dasharray="2,2" d="M275 153.965v-80.43"/>
        <path fill="#3FB1FF" d="M275 160c1.054-2.84 2.852-6.363 4.756-8.547l-4.756 1.72-4.755-1.72c1.904 2.184 3.702 5.707 4.755 8.547M275 67.5c1.054 2.84 2.852 6.363 4.756 8.548L275 74.327l-4.755 1.72c1.904-2.184 3.702-5.707 4.755-8.547"/>
        <text fill="#3FB1FF" font-family="OpenSans-SemiBoldItalic, Open Sans" font-size="15" font-style="italic" font-weight="500" letter-spacing=".025" transform="translate(28 65)">
            <tspan x="256.969" y="52.393">HEIGHT</tspan>
        </text>
        <g stroke-width="2">
            <path stroke="#000" d="M159.447 146c-8.531 0-15.447-6.916-15.447-15.446V66h31v64.446c0 8.59-6.963 15.554-15.553 15.554zM208.446 146c-8.53 0-15.446-6.916-15.446-15.446V66h31v64.446c0 8.59-6.964 15.554-15.554 15.554zM61.447 146c-8.532 0-15.448-6.916-15.448-15.446V66h31v64.446C77 139.036 70.037 146 61.447 146zM110.447 146c-8.532 0-15.448-6.916-15.448-15.446V66h31v64.446c0 8.59-6.962 15.554-15.552 15.554z"/>
            <path stroke="#3FB1FF" d="M237 161h50"/>
        </g>
    </g>
</svg>
