<svg xmlns="http://www.w3.org/2000/svg" width="361" height="254" viewBox="0 0 361 254">
    <g fill="none" fill-rule="evenodd">
        <path stroke="#3FB1FF" stroke-width="2" d="M235 103h42"/>
        <path stroke="#3FB1FF" stroke-dasharray="2,2" d="M270.315 142.714v-30.929"/>
        <g fill="#3FB1FF">
            <path d="M270.315 148.75c1.054-2.84 2.852-6.364 4.756-8.548l-4.756 1.72-4.755-1.72c1.904 2.184 3.702 5.707 4.755 8.547M270.315 105.75c1.054 2.84 2.852 6.363 4.756 8.547l-4.756-1.72-4.755 1.72c1.904-2.184 3.702-5.707 4.755-8.547"/>
        </g>
        <text fill="#3FB1FF" font-family="OpenSans-SemiBoldItalic, Open Sans" font-size="15" font-style="italic" font-weight="500" letter-spacing=".025" transform="translate(28 102)">
            <tspan x="254.969" y="24.143">HEIGHT</tspan>
        </text>
        <path stroke="#000" stroke-width="1.5" d="M36.197 108.135c-.039 0-.072-.044-.072-.099v-3.489c0-.054.034-.099.073-.099H50.55c.04 0 .072.045.072.099v3.489c0 .055-.032.099-.072.099"/>
        <path stroke="#000" d="M48.5 118.25H38.374l-2-10h14z"/>
        <path stroke="#000" stroke-width="1.5" d="M52.925 108.135c-.04 0-.072-.044-.072-.099v-3.489c0-.054.033-.099.072-.099h14.353c.04 0 .072.045.072.099v3.489c0 .055-.032.099-.072.099"/>
        <path stroke="#000" d="M65.227 118.25H55.101l-2-10h14z"/>
        <path stroke="#000" stroke-width="1.5" d="M69.652 108.135c-.04 0-.072-.044-.072-.099v-3.489c0-.054.032-.099.072-.099h14.353c.04 0 .072.045.072.099v3.489c0 .055-.032.099-.072.099"/>
        <path stroke="#000" d="M81.955 118.25H71.829l-2-10h14z"/>
        <path stroke="#000" stroke-width="1.5" d="M86.38 108.135c-.04 0-.073-.044-.073-.099v-3.489c0-.054.032-.099.072-.099h14.353c.04 0 .072.045.072.099v3.489c0 .055-.032.099-.072.099"/>
        <path stroke="#000" d="M98.682 118.25H88.557l-2-10h14z"/>
        <path stroke="#000" stroke-width="1.5" d="M103.106 108.135c-.039 0-.07-.044-.07-.099v-3.489c0-.054.031-.099.07-.099h14.354c.04 0 .071.045.071.099v3.489c0 .055-.032.099-.07.099"/>
        <path stroke="#000" d="M115.41 118.25h-10.127l-2-10h14z"/>
        <path stroke="#000" stroke-width="1.5" d="M119.834 108.135c-.04 0-.072-.044-.072-.099v-3.489c0-.054.032-.099.072-.099h14.353c.04 0 .072.045.072.099v3.489c0 .055-.032.099-.072.099"/>
        <path stroke="#000" d="M132.136 118.25h-10.125l-2-10h14z"/>
        <path stroke="#000" stroke-width="1.5" d="M136.561 108.135c-.039 0-.072-.044-.072-.099v-3.489c0-.054.033-.099.072-.099h14.354c.039 0 .071.045.071.099v3.489c0 .055-.032.099-.071.099"/>
        <path stroke="#000" d="M148.864 118.25h-10.126l-2-10h14z"/>
        <path stroke="#000" stroke-width="1.5" d="M153.289 108.135c-.04 0-.072-.044-.072-.099v-3.489c0-.054.032-.099.072-.099h14.353c.04 0 .072.045.072.099v3.489c0 .055-.032.099-.072.099"/>
        <path stroke="#000" d="M165.59 118.25h-10.125l-2-10h14z"/>
        <path stroke="#000" stroke-width="1.5" d="M170.016 108.135c-.04 0-.072-.044-.072-.099v-3.489c0-.054.032-.099.072-.099h14.354c.039 0 .07.045.07.099v3.489c0 .055-.031.099-.07.099"/>
        <path stroke="#000" d="M182.318 118.25h-10.126l-2-10h14z"/>
        <path stroke="#000" stroke-width="1.5" d="M186.743 108.135c-.04 0-.072-.044-.072-.099v-3.489c0-.054.032-.099.072-.099h14.353c.04 0 .072.045.072.099v3.489c0 .055-.032.099-.072.099"/>
        <path stroke="#000" d="M199.045 118.25H188.92l-2-10h14z"/>
        <path stroke="#000" stroke-width="1.5" d="M203.47 108.135c-.04 0-.072-.044-.072-.099v-3.489c0-.054.032-.099.072-.099h14.353c.04 0 .072.045.072.099v3.489c0 .055-.032.099-.072.099"/>
        <path stroke="#000" d="M215.773 118.25h-10.126l-2-10h14z"/>
        <path stroke="#000" stroke-width="1.5" d="M220.198 108.135c-.04 0-.072-.044-.072-.099v-3.489c0-.054.032-.099.072-.099h14.353c.04 0 .072.045.072.099v3.489c0 .055-.032.099-.072.099"/>
        <path stroke="#000" d="M232.5 118.25h-10.126l-2-10h14z"/>
        <path fill="#FFF" d="M35.5 139.75c-.55 0-1-.155-1-.346v-26.808c0-.19.45-.346 1-.346h200c.55 0 1 .155 1 .346v26.808c0 .191-.45.346-1 .346"/>
        <path stroke="#B3B3B3" d="M35.5 139.75c-.55 0-1-.155-1-.346v-26.808c0-.19.45-.346 1-.346h200c.55 0 1 .155 1 .346v26.808c0 .191-.45.346-1 .346M242 151.75H29c-.55 0-1-.45-1-1v-9.5c0-.55.45-1 1-1h213c.55 0 1 .45 1 1v9.5c0 .55-.45 1-1 1z"/>
        <path stroke="#000" stroke-width="2" d="M236 139.25h6c.55 0 1 .45 1 1v9.5c0 .55-.45 1-1 1H29c-.55 0-1-.45-1-1v-9.5c0-.55.45-1 1-1h5.5M235.5 112.75c.55 0 1 .312 1 .693v24.614c0 .381-.45.693-1 .693M35.5 138.75c-.55 0-1-.312-1-.693v-24.614c0-.38.45-.693 1-.693"/>
        <path stroke="#3FB1FF" stroke-width="2" d="M275.645 151H238.5"/>
    </g>
</svg>
