<svg xmlns="http://www.w3.org/2000/svg" 
    xmlns:xlink="http://www.w3.org/1999/xlink" width="361" height="254" viewBox="0 0 361 254">
    <defs>
        <clipPath id="a">
            <polyline points="102 68.85 457 68.85 457 305.64 102 305.64 102 68.85" fill="none"/>
        </clipPath>
        <clipPath id="b">
            <polyline points="113.17 80.03 445.83 80.03 445.83 294.76 113.17 294.76 113.17 80.03" fill="none"/>
        </clipPath>
        <clipPath id="c">
            <polyline points="244.59 87.95 301.28 87.95 301.28 144.63 244.59 144.63 244.59 87.95" fill="none"/>
        </clipPath>
        <clipPath id="d">
            <polyline points="244.59 150.34 301.28 150.34 301.28 207.02 244.59 207.02 244.59 150.34" fill="none"/>
        </clipPath>
        <clipPath id="e">
            <polyline points="119.81 212.73 176.49 212.73 176.49 269.41 119.81 269.41 119.81 212.73" fill="none"/>
        </clipPath>
        <clipPath id="f">
            <polyline points="182.2 212.73 238.88 212.73 238.88 269.41 182.2 269.41 182.2 212.73" fill="none"/>
        </clipPath>
        <clipPath id="g">
            <polyline points="244.59 212.73 301.28 212.73 301.28 269.41 244.59 269.41 244.59 212.73" fill="none"/>
        </clipPath>
    </defs>
    <title>offset_plate_circular</title>
    <polygon points="65.01 83.96 63.77 83.96 65.51 90.65 64.64 94.67 65.9 94.67 66.73 90.7 71.32 83.96 69.91 83.96 66.32 89.43 65.01 83.96" fill="#3fb1ff"/>
    <path d="M75.61,96a2,2,0,0,1,.4,1.32,4.74,4.74,0,0,1-.3,1.72,2.83,2.83,0,0,1-.81,1.2,1.83,1.83,0,0,1-1.17.41,1.46,1.46,0,0,1-1.13-.47,2,2,0,0,1-.42-1.33,4.85,4.85,0,0,1,.29-1.7,2.88,2.88,0,0,1,.82-1.2,1.86,1.86,0,0,1,1.2-.43A1.38,1.38,0,0,1,75.61,96Zm.58-.47a2.11,2.11,0,0,0-1.64-.66,2.77,2.77,0,0,0-1.61.5,3.44,3.44,0,0,0-1.13,1.44,5.12,5.12,0,0,0-.41,2.06,2.52,2.52,0,0,0,.61,1.79,2.29,2.29,0,0,0,1.71.64,2.75,2.75,0,0,0,1.62-.5,3.19,3.19,0,0,0,1.07-1.4,5.4,5.4,0,0,0,.38-2.06A2.58,2.58,0,0,0,76.19,95.5Z" fill="#3fb1ff"/>
    <polygon points="121.36 30.04 125.42 24.96 124.06 24.96 120.81 29.08 119.33 24.96 118.07 24.96 119.99 29.98 115.63 35.67 116.99 35.67 120.51 30.97 122.07 35.67 123.39 35.67 121.36 30.04" fill="#3fb1ff"/>
    <path d="M130,37a2,2,0,0,1,.4,1.33,4.74,4.74,0,0,1-.3,1.72,2.83,2.83,0,0,1-.81,1.2,1.83,1.83,0,0,1-1.16.41,1.46,1.46,0,0,1-1.14-.47,2,2,0,0,1-.42-1.33,4.85,4.85,0,0,1,.29-1.7,2.81,2.81,0,0,1,.83-1.2,1.82,1.82,0,0,1,1.2-.43A1.4,1.4,0,0,1,130,37Zm.58-.46a2.1,2.1,0,0,0-1.64-.66,2.77,2.77,0,0,0-1.61.5,3.34,3.34,0,0,0-1.12,1.44,4.92,4.92,0,0,0-.41,2.06,2.48,2.48,0,0,0,.61,1.79,2.25,2.25,0,0,0,1.7.64,2.75,2.75,0,0,0,1.62-.5,3.16,3.16,0,0,0,1.07-1.41,5.31,5.31,0,0,0,.38-2A2.58,2.58,0,0,0,130.62,36.5Z" fill="#3fb1ff"/>
    <g clip-path="url(#a)">
        <path d="M455,68.85H275.5v2H455V303.64H104V245.85h-2v-175h0V303.64a2,2,0,0,0,2,2H455a2,2,0,0,0,2-2V70.85a2,2,0,0,0-2-2" fill="#fff"/>
        <path d="M275.5,68.85H104a2,2,0,0,0-2,2v175h2v-175H275.5v-2"/>
    </g>
    <path d="M113.17,88.14v0M437.67,80h0" fill="#fff"/>
    <g clip-path="url(#b)">
        <path d="M437.71,80H276.5v1H437.67a7.17,7.17,0,0,1,7.16,7.15V286.6a7.17,7.17,0,0,1-7.16,7.16H121.33a7.17,7.17,0,0,1-7.16-7.16V246.85h-1v39.79a8.18,8.18,0,0,0,8.16,8.12H437.67a8.18,8.18,0,0,0,8.16-8.16V88.18A8.18,8.18,0,0,0,437.71,80" fill="#fff"/>
        <path d="M276.5,80H121.29a8.18,8.18,0,0,0-8.12,8.11V246.85h1V88.18A7.17,7.17,0,0,1,121.33,81H276.5V80" fill="#b3b3b3"/>
    </g>
    <path d="M176,116.29a27.84,27.84,0,1,1-27.84-27.85A27.92,27.92,0,0,1,176,116.29Z" fill="none" stroke="#000" stroke-width="2"/>
    <path d="M238.38,116.29a27.84,27.84,0,1,1-27.84-27.85A27.92,27.92,0,0,1,238.38,116.29ZM176,178.68a27.84,27.84,0,1,1-27.84-27.84A27.92,27.92,0,0,1,176,178.68Zm62.39,0a27.84,27.84,0,1,1-27.84-27.84,27.92,27.92,0,0,1,27.84,27.84Z" fill="none" stroke="#b3b3b3"/>
    <path d="M301.28,116.29h0v0m0,0h0m-56.69-.08v0m56.69-.06v.14h0v-.14M272.93,88h0" fill="#fff"/>
    <g clip-path="url(#c)">
        <path d="M301.28,116.29h-1A27.46,27.46,0,0,1,276.5,143.4v1a28.46,28.46,0,0,0,24.78-28v-.13M276.5,88.17v1a27.46,27.46,0,0,1,23.78,27.11h1v-.14a28.45,28.45,0,0,0-24.78-28" fill="#fff"/>
        <path d="M273,88h-.22a28.42,28.42,0,0,0-28.23,28.26v.15a28.42,28.42,0,0,0,28.34,28.27,28.05,28.05,0,0,0,3.57-.22v-1a28,28,0,0,1-3.57.23,27.34,27.34,0,0,1,0-54.68,28,28,0,0,1,3.57.23v-1A28.19,28.19,0,0,0,273,88" fill="#b3b3b3"/>
    </g>
    <path d="M273.09,207h0m28.19-28.34h0v0m0,0h0m-56.69-.08v0m56.69-.08v.16h0v-.16" fill="#fff"/>
    <g clip-path="url(#d)">
        <path d="M301.28,178.68h-1a27.46,27.46,0,0,1-23.78,27.11v1a28.45,28.45,0,0,0,24.78-28v-.14M276.5,150.56v1a27.46,27.46,0,0,1,23.78,27.11h1v-.16a28.45,28.45,0,0,0-24.78-28" fill="#fff"/>
        <path d="M272.93,150.34a28.42,28.42,0,0,0-28.34,28.26v.15A28.42,28.42,0,0,0,272.78,207h.31a27.51,27.51,0,0,0,3.41-.22v-1a28,28,0,0,1-3.57.23,27.34,27.34,0,0,1,0-54.68,28,28,0,0,1,3.57.23v-1a28.05,28.05,0,0,0-3.57-.22" fill="#b3b3b3"/>
    </g>
    <path d="M176.49,241.07h0v0m0,0h0m0-.07v.07h0V241m-28.34-28.27h0" fill="#fff"/>
    <g clip-path="url(#e)">
        <path d="M175.9,246.85h-1a27.35,27.35,0,0,1-53.44,0h-1a28.45,28.45,0,0,0,27.75,22.56h0a28.45,28.45,0,0,0,27.75-22.56" fill="#fff"/>
        <path d="M176.49,241.07h-1a26.87,26.87,0,0,1-.62,5.78h1a28.21,28.21,0,0,0,.59-5.71v-.07m-28.2-28.34H148a28.37,28.37,0,0,0-27.61,34.12h1a26.87,26.87,0,0,1-.62-5.78,27.34,27.34,0,0,1,54.68,0h1V241a28.41,28.41,0,0,0-28.2-28.27" fill="#b3b3b3"/>
    </g>
    <path d="M210.54,212.73h0" fill="#fff"/>
    <g clip-path="url(#f)">
        <path d="M238.29,246.85h-1a27.36,27.36,0,0,1-53.45,0h-1a28.44,28.44,0,0,0,27.74,22.56h0a28.45,28.45,0,0,0,27.75-22.56" fill="#fff"/>
        <path d="M238.88,241.07h-1a27.51,27.51,0,0,1-.61,5.78h1a28.19,28.19,0,0,0,.59-5.78m0,0h0m-28.2-28.34h-.27a28.32,28.32,0,0,0-27.61,34.12h1a26.87,26.87,0,0,1-.62-5.78,27.34,27.34,0,0,1,54.68,0h1a28.41,28.41,0,0,0-28.2-28.34" fill="#b3b3b3"/>
    </g>
    <path d="M301.28,241.07h0v0m0,0h0M244.59,241v0m56.69-.07v.14h0v-.14m-28.35-28.2h0" fill="#fff"/>
    <g clip-path="url(#g)">
        <path d="M301.28,241.07h-1a27.35,27.35,0,0,1-54.07,5.78h-1a28.44,28.44,0,0,0,27.74,22.56h0a28.42,28.42,0,0,0,28.35-28.2v-.14M276.5,213v1a27.46,27.46,0,0,1,23.78,27.11h1v-.14a28.45,28.45,0,0,0-24.78-28" fill="#fff"/>
        <path d="M273.07,212.73h-.27A28.42,28.42,0,0,0,244.59,241v.14a27.51,27.51,0,0,0,.6,5.71h1a26.87,26.87,0,0,1-.62-5.78,27.42,27.42,0,0,1,27.34-27.34,28,28,0,0,1,3.57.23v-1a27.7,27.7,0,0,0-3.43-.22" fill="#b3b3b3"/>
    </g>
    <path d="M46,116.9l1.26-3.32a14.21,14.21,0,0,0,.46-1.54c.17.61.34,1.12.5,1.54l1.24,3.32H46m2.26-6.23H47.23L43,121.43h1.26L45.58,118h4.29l1.33,3.41h1.29l-4.21-10.76" fill="#b2b2b2"/>
    <path d="M45.72,184.36v-4h2.13a3.54,3.54,0,0,1,2,.47,1.67,1.67,0,0,1,.67,1.46,1.84,1.84,0,0,1-.66,1.57,3.11,3.11,0,0,1-1.95.5H45.72m0-5.06v-3.5h1.83a4.1,4.1,0,0,1,2.05.39,1.42,1.42,0,0,1,.64,1.31,1.61,1.61,0,0,1-.57,1.39,3.33,3.33,0,0,1-1.9.41H45.72m1.78-4.58h-3v10.71h3.74a4.11,4.11,0,0,0,2.71-.81,2.74,2.74,0,0,0,1-2.24c0-1.43-.81-2.29-2.44-2.56v-.08a2.54,2.54,0,0,0,1.55-.8,2.3,2.3,0,0,0,.53-1.57,2.22,2.22,0,0,0-1-2,5.63,5.63,0,0,0-3.08-.64" fill="#b2b2b2"/>
    <path d="M49.07,232.57a5.41,5.41,0,0,0-2.75.67,4.49,4.49,0,0,0-1.79,1.92,6.48,6.48,0,0,0-.61,2.9,5.91,5.91,0,0,0,1.28,4.08,4.66,4.66,0,0,0,3.65,1.43,8.09,8.09,0,0,0,2.75-.41v-1.1a9.59,9.59,0,0,1-2.56.41,3.53,3.53,0,0,1-2.81-1.15,4.87,4.87,0,0,1-1-3.25,4.76,4.76,0,0,1,1-3.22,3.51,3.51,0,0,1,2.79-1.17,5.68,5.68,0,0,1,2.43.57l.53-1.07a6.67,6.67,0,0,0-3-.61" fill="#b2b2b2"/>
    <path d="M278.14,15.28a3.7,3.7,0,0,0-2.43-.71,5.45,5.45,0,0,0-1.81.29,5.17,5.17,0,0,0-1.52.82l.61.82a5.81,5.81,0,0,1,1.43-.7,4.34,4.34,0,0,1,1.32-.2,2.2,2.2,0,0,1,1.46.45,1.52,1.52,0,0,1,.54,1.23,1.81,1.81,0,0,1-.73,1.54,3.22,3.22,0,0,1-2,.55H274v1.05H275q3.06,0,3.06,1.95c0,1.45-.92,2.17-2.78,2.17a6.79,6.79,0,0,1-1.49-.18,6.66,6.66,0,0,1-1.48-.52V25a5.79,5.79,0,0,0,1.37.45,9.42,9.42,0,0,0,1.56.12,4.84,4.84,0,0,0,3-.82,2.8,2.8,0,0,0,1.06-2.36,2.42,2.42,0,0,0-.62-1.72,3,3,0,0,0-1.91-.82v-.06a3,3,0,0,0,1.63-.87,2.48,2.48,0,0,0,.57-1.68A2.41,2.41,0,0,0,278.14,15.28Zm-62.85,9h-5.51v-.06L212.12,22a12.84,12.84,0,0,0,2.14-2.52,4.05,4.05,0,0,0,.57-2,2.63,2.63,0,0,0-.85-2.07,3.4,3.4,0,0,0-2.37-.77,4.92,4.92,0,0,0-3.22,1.23l.64.82a5,5,0,0,1,1.33-.79,3.56,3.56,0,0,1,1.26-.23,2,2,0,0,1,1.45.51,1.81,1.81,0,0,1,.52,1.36,3,3,0,0,1-.21,1.13,4.58,4.58,0,0,1-.61,1.08,19.32,19.32,0,0,1-1.7,1.86l-2.82,2.84v1.05h7Zm-66-9.58h-1l-2.83,2.19.64.83c1-.84,1.62-1.31,1.74-1.42s.25-.22.35-.33q-.06.85-.06,1.8v7.64h1.19Z" fill="#666"/>
    <path d="M149,117.35a1.5,1.5,0,1,1-1.5-1.5,1.5,1.5,0,0,1,1.5,1.5" fill="#3fb1ff" fill-rule="evenodd"/>
    <path d="M65,69.35h38m-38,48h83m-45.5-80.5v33m45-33v80" fill="none" stroke="#3fb1ff" stroke-width="2"/>
    <line x1="110.04" y1="51.35" x2="138.96" y2="51.35" fill="none" stroke="#3fb1ff" stroke-dasharray="2 2"/>
    <path d="M104,51.35a30.59,30.59,0,0,1,8.55,4.76l-1.72-4.76,1.72-4.75A30.31,30.31,0,0,1,104,51.35m41,0a30.59,30.59,0,0,0-8.55,4.76l1.72-4.76-1.72-4.75A30.31,30.31,0,0,0,145,51.35" fill="#3fb1ff" fill-rule="evenodd"/>
    <line x1="88.5" y1="76.89" x2="88.5" y2="110.32" fill="none" stroke="#3fb1ff" stroke-dasharray="2 2"/>
    <path d="M88.5,70.85a30,30,0,0,1-4.76,8.55l4.76-1.72,4.75,1.72a30.18,30.18,0,0,1-4.75-8.55m0,45.5a29.91,29.91,0,0,0-4.76-8.54l4.76,1.72,4.75-1.72a30.12,30.12,0,0,0-4.75,8.54" fill="#3fb1ff" fill-rule="evenodd"/>
</svg>