<svg xmlns="http://www.w3.org/2000/svg" 
    xmlns:xlink="http://www.w3.org/1999/xlink" width="361" height="254" viewBox="0 0 361 254">
    <defs>
        <clipPath id="a">
            <polyline points="102 63.21 457 63.21 457 300 102 300 102 63.21" fill="none"/>
        </clipPath>
        <clipPath id="b">
            <polyline points="113.17 74.39 445.83 74.39 445.83 289.12 113.17 289.12 113.17 74.39" fill="none"/>
        </clipPath>
        <clipPath id="c">
            <polyline points="119 82.21 299 82.21 299 265.21 119 265.21 119 82.21" fill="none"/>
        </clipPath>
    </defs>
    <title>offset_plate_rectangular</title>
    <path d="M455,63.21h0" fill="#fff"/>
    <g clip-path="url(#a)">
        <path d="M455,63.21H276.5v2H455V298H104V242.21h-2V298a2,2,0,0,0,2,2H455a2,2,0,0,0,2-2V65.21a2,2,0,0,0-2-2" fill="#fff"/>
        <path d="M276.5,63.21H104a2,2,0,0,0-2,2v177h2v-177H276.5v-2"/>
    </g>
    <path d="M437.71,289.12h0M113.17,82.5v0" fill="#fff"/>
    <g clip-path="url(#b)">
        <path d="M437.67,74.39H276.5v1H437.67a7.17,7.17,0,0,1,7.16,7.15V281a7.17,7.17,0,0,1-7.16,7.16H121.33a7.17,7.17,0,0,1-7.16-7.16V242.21h-1V281a8.18,8.18,0,0,0,8.12,8.12H437.71a8.18,8.18,0,0,0,8.12-8.16V82.54a8.17,8.17,0,0,0-8.16-8.15" fill="#fff"/>
        <path d="M276.5,74.39H121.33a8.17,8.17,0,0,0-8.16,8.11V242.21h1V82.54a7.17,7.17,0,0,1,7.16-7.15H276.5v-1" fill="#b3b3b3"/>
    </g>
    <g clip-path="url(#c)">
        <path d="M119.5,264.71h0m.5,0h0m56-22.5h-1v22H120v-22h-1v23h57v-23m5.25,21.5h0m.5,0h0m56-21.5h-1v21h-55v-21h-1v22h57v-22m4.5,21.5h0m.5,0h0m56-56.5H276.5v1h21.25v55h-55v-21h-1v22h57v-57m0-61.5H276.5v1h21.25v55H276.5v1h22.25v-57m.25-63.5H276.5v1H298v55H276.5v1H299v-57" fill="#fff"/>
        <path d="M176,208.21H119v34h1v-33h55v33h1v-34m61.75-1h-57v35h1v-34h55v34h1v-35m38.75,0H241.75v35h1v-34H276.5v-1m-95.25-5h0m.5,0h0m0-.5v-55h55v55h-55m56-56h-57v57h57v-57m4.5,56.5h0m.5,0h0m33.75-56.5H241.75v57H276.5v-1H242.75v-55H276.5v-1m-34-7h0m.5,0h0m33.5-56.5H242v57h34.5v-1H243v-55h33.5v-1" fill="#b3b3b3"/>
    </g>
    <path d="M46,112.26l1.26-3.32a14.21,14.21,0,0,0,.46-1.54c.17.61.34,1.12.5,1.54l1.24,3.32H46M48.28,106H47.23L43,116.79h1.26l1.32-3.41h4.29l1.33,3.41h1.29L48.28,106" fill="#b2b2b2"/>
    <path d="M45.72,178.72v-4h2.13a3.54,3.54,0,0,1,2,.47,1.67,1.67,0,0,1,.67,1.46,1.83,1.83,0,0,1-.66,1.57,3.11,3.11,0,0,1-1.95.5H45.72m0-5.06v-3.5h1.83a4.1,4.1,0,0,1,2.05.39,1.42,1.42,0,0,1,.64,1.31,1.61,1.61,0,0,1-.57,1.39,3.33,3.33,0,0,1-1.9.41H45.72m1.78-4.58h-3v10.71h3.74a4.11,4.11,0,0,0,2.71-.81,2.74,2.74,0,0,0,1-2.24c0-1.43-.81-2.28-2.44-2.56v-.08a2.54,2.54,0,0,0,1.55-.8,2.28,2.28,0,0,0,.53-1.57,2.22,2.22,0,0,0-1-2,5.63,5.63,0,0,0-3.08-.64" fill="#b2b2b2"/>
    <path d="M49.07,231.93a5.41,5.41,0,0,0-2.75.67,4.49,4.49,0,0,0-1.79,1.92,6.48,6.48,0,0,0-.61,2.9,5.91,5.91,0,0,0,1.28,4.08,4.63,4.63,0,0,0,3.65,1.43,8.09,8.09,0,0,0,2.75-.41v-1.1a9.59,9.59,0,0,1-2.56.41,3.5,3.5,0,0,1-2.81-1.15,4.87,4.87,0,0,1-1-3.25,4.76,4.76,0,0,1,1-3.22A3.51,3.51,0,0,1,49.06,233a5.68,5.68,0,0,1,2.43.57l.53-1.07a6.67,6.67,0,0,0-3-.61" fill="#b2b2b2"/>
    <path d="M148.24,9.08h-1l-2.83,2.19.64.83c1-.84,1.62-1.31,1.74-1.42s.25-.22.35-.33c0,.57-.06,1.17-.06,1.81v7.63h1.19V9.08m58.44-.15a4.94,4.94,0,0,0-3.22,1.23l.65.82a4.92,4.92,0,0,1,1.32-.79A3.58,3.58,0,0,1,206.7,10a2,2,0,0,1,1.44.51,1.77,1.77,0,0,1,.52,1.36,3.24,3.24,0,0,1-.2,1.13,5,5,0,0,1-.62,1.08,18.92,18.92,0,0,1-1.7,1.87l-2.82,2.83v1.05h7V18.66h-5.51V18.6l2.35-2.29a13.07,13.07,0,0,0,2.13-2.52,3.94,3.94,0,0,0,.58-2,2.66,2.66,0,0,0-.86-2.07,3.38,3.38,0,0,0-2.37-.77m68,0a5.45,5.45,0,0,0-1.81.29,5.17,5.17,0,0,0-1.52.82l.61.82a5.81,5.81,0,0,1,1.43-.7,4.34,4.34,0,0,1,1.32-.2,2.2,2.2,0,0,1,1.46.45,1.52,1.52,0,0,1,.54,1.23,1.81,1.81,0,0,1-.73,1.54,3.22,3.22,0,0,1-2,.55H273v1H274q3.06,0,3.06,2c0,1.45-.92,2.17-2.78,2.17a6.79,6.79,0,0,1-1.49-.18,6.66,6.66,0,0,1-1.48-.52v1.16a5.79,5.79,0,0,0,1.37.45,9.42,9.42,0,0,0,1.56.12,4.84,4.84,0,0,0,3-.82,2.8,2.8,0,0,0,1.06-2.36,2.42,2.42,0,0,0-.62-1.72,3,3,0,0,0-1.91-.82v-.06a3,3,0,0,0,1.63-.87A2.48,2.48,0,0,0,278,11.6a2.43,2.43,0,0,0-.86-2,3.7,3.7,0,0,0-2.43-.71" fill="#b2b2b2"/>
    <path d="M119,138h56V82H119Zm62,0h56V82H181Zm-62,64h56V146H119Z" fill="none" stroke="#000" stroke-width="2"/>
    <polygon points="63.36 79.29 62 79.29 65.57 85.91 65.57 90 66.83 90 66.83 85.85 70.4 79.29 69.05 79.29 66.2 84.65 63.36 79.29" fill="#3fb1ff"/>
    <path d="M72.84,91a2,2,0,0,1,1.58-.65A1.9,1.9,0,0,1,76,91a3,3,0,0,1,.53,1.91A3,3,0,0,1,76,94.8a2.21,2.21,0,0,1-3.14,0,3.67,3.67,0,0,1,0-3.83Zm3.68-.45a2.64,2.64,0,0,0-2.1-.85,2.71,2.71,0,0,0-2.13.84,3.38,3.38,0,0,0-.76,2.36,3.45,3.45,0,0,0,.75,2.38,2.71,2.71,0,0,0,2.13.84,2.68,2.68,0,0,0,2.11-.85,4,4,0,0,0,0-4.72Z" fill="#3fb1ff"/>
    <polygon points="121.02 25.36 124.34 20.29 123.02 20.29 120.34 24.53 117.68 20.29 116.3 20.29 119.62 25.4 116.06 31 117.38 31 120.31 26.29 123.19 31 124.6 31 121.02 25.36" fill="#3fb1ff"/>
    <path d="M126.84,32a2,2,0,0,1,1.58-.65A1.9,1.9,0,0,1,130,32a3,3,0,0,1,.53,1.91A3,3,0,0,1,130,35.8a2.21,2.21,0,0,1-3.14,0,2.93,2.93,0,0,1-.54-1.92A3,3,0,0,1,126.84,32Zm3.68-.45a2.64,2.64,0,0,0-2.1-.85,2.71,2.71,0,0,0-2.13.84,3.38,3.38,0,0,0-.76,2.36,3.45,3.45,0,0,0,.75,2.38,2.71,2.71,0,0,0,2.13.84,2.68,2.68,0,0,0,2.11-.85,3.47,3.47,0,0,0,.76-2.36A3.47,3.47,0,0,0,130.52,31.51Z" fill="#3fb1ff"/>
    <path d="M65,64.5h38m-38,48h83M102.5,32V65m45-33v80" fill="none" stroke="#3fb1ff" stroke-width="2"/>
    <line x1="110" y1="46.5" x2="139" y2="46.5" fill="none" stroke="#3fb1ff" stroke-dasharray="2 2"/>
    <path d="M104,46.71a30.59,30.59,0,0,1,8.55,4.76l-1.72-4.76L112.55,42A30.31,30.31,0,0,1,104,46.71m41,0a30.59,30.59,0,0,0-8.55,4.76l1.72-4.76L136.45,42A30.31,30.31,0,0,0,145,46.71" fill="#3fb1ff" fill-rule="evenodd"/>
    <line x1="88.5" y1="72.25" x2="88.5" y2="105.68" fill="none" stroke="#3fb1ff" stroke-dasharray="2 2"/>
    <path d="M88.5,66.21a30,30,0,0,1-4.76,8.55L88.5,73l4.75,1.72a30.18,30.18,0,0,1-4.75-8.55m0,45.5a29.91,29.91,0,0,0-4.76-8.54l4.76,1.72,4.75-1.72a30.12,30.12,0,0,0-4.75,8.54" fill="#3fb1ff" fill-rule="evenodd"/>
</svg>