<svg xmlns="http://www.w3.org/2000/svg" 
    xmlns:xlink="http://www.w3.org/1999/xlink" width="361" height="254" viewBox="0 0 361 254">
    <defs>
        <clipPath id="a">
            <polyline points="130 47.78 485 47.78 485 329.61 130 329.61 130 47.78" fill="none"/>
        </clipPath>
        <clipPath id="b">
            <polyline points="141.17 61 473.83 61 473.83 316.74 141.17 316.74 141.17 61" fill="none"/>
        </clipPath>
    </defs>
    <title>offset_reservoir</title>
    <line x1="121.57" y1="150.58" x2="121.57" y2="54.65" fill="none" stroke="#3fb1ff" stroke-dasharray="2 2"/>
    <path d="M121.57,156.61a30.31,30.31,0,0,1,4.75-8.55l-4.75,1.73-4.76-1.73a30.1,30.1,0,0,1,4.76,8.55m0-108a30.18,30.18,0,0,0,4.75,8.55l-4.75-1.72-4.76,1.72a30,30,0,0,0,4.76-8.55" fill="#3fb1ff" fill-rule="evenodd"/>
    <polygon points="104.01 98.72 102.77 98.72 104.51 105.4 103.64 109.43 104.9 109.43 105.73 105.46 110.32 98.72 108.91 98.72 105.32 104.19 104.01 98.72" fill="#3fb1ff"/>
    <path d="M113.32,114.22a2,2,0,0,1-.56.88,1.14,1.14,0,0,1-.79.31,1,1,0,0,1-.78-.3,1.26,1.26,0,0,1-.27-.87,3.51,3.51,0,0,1,.2-1.24,1.93,1.93,0,0,1,.57-.88,1.26,1.26,0,0,1,.84-.32.9.9,0,0,1,.72.31,1.15,1.15,0,0,1,.27.79A4.11,4.11,0,0,1,113.32,114.22Zm-2-2.64a2.65,2.65,0,0,0-.84,1.1,4,4,0,0,0-.31,1.53,1.85,1.85,0,0,0,.47,1.32,1.7,1.7,0,0,0,1.28.48,2,2,0,0,0,1.19-.39,2.61,2.61,0,0,0,.83-1.1,3.72,3.72,0,0,0,.31-1.52,1.82,1.82,0,0,0-.47-1.32,1.7,1.7,0,0,0-1.28-.48A2,2,0,0,0,111.33,111.58Z" fill="#3fb1ff"/>
    <polygon points="156.36 15.8 160.42 10.72 159.06 10.72 155.81 14.84 154.33 10.72 153.07 10.72 154.99 15.74 150.63 21.43 151.99 21.43 155.51 16.73 157.07 21.43 158.39 21.43 156.36 15.8" fill="#3fb1ff"/>
    <path d="M163.75,26.22a2.08,2.08,0,0,1-.55.88,1.19,1.19,0,0,1-.8.31,1,1,0,0,1-.78-.3,1.26,1.26,0,0,1-.27-.87,3.75,3.75,0,0,1,.2-1.24,2.1,2.1,0,0,1,.57-.88,1.28,1.28,0,0,1,.84-.32.9.9,0,0,1,.72.31,1.15,1.15,0,0,1,.27.79A4.11,4.11,0,0,1,163.75,26.22Zm-2-2.64a2.49,2.49,0,0,0-.84,1.1,3.78,3.78,0,0,0-.32,1.53,1.85,1.85,0,0,0,.47,1.32,1.7,1.7,0,0,0,1.28.48,1.93,1.93,0,0,0,1.19-.39,2.61,2.61,0,0,0,.83-1.1,3.72,3.72,0,0,0,.31-1.52,1.78,1.78,0,0,0-.47-1.32,1.7,1.7,0,0,0-1.28-.48A2,2,0,0,0,161.77,23.58Z" fill="#3fb1ff"/>
    <path d="M483,329.61h0M185.7,47.78h0m297.3,0h0" fill="#fff"/>
    <g clip-path="url(#a)">
        <path d="M483,47.78H304.5v2H483V327.61H132v-80h-2v80a2,2,0,0,0,2,2H483a2,2,0,0,0,2-2V49.78a2,2,0,0,0-2-2" fill="#fff"/>
        <path d="M185.7,47.78h-53v.83h-2v-.35a2,2,0,0,0-.7,1.52V247.61h2V49.78h53.7v-2m118.8,0H187.7v2H304.5v-2"/>
    </g>
    <path d="M465.73,316.74h0m8.1-247.63v0m-332.66,0v0" fill="#fff"/>
    <g clip-path="url(#b)">
        <path d="M465.67,61H304.5v1H465.67a7.17,7.17,0,0,1,7.16,7.15V308.58a7.17,7.17,0,0,1-7.16,7.16H149.33a7.17,7.17,0,0,1-7.16-7.16v-61h-1v61a8.19,8.19,0,0,0,8.1,8.12H465.73a8.19,8.19,0,0,0,8.1-8.12V69.11A8.18,8.18,0,0,0,465.67,61" fill="#fff"/>
        <path d="M185.7,61H149.33a8.18,8.18,0,0,0-8.16,8.11v178.5h1V69.15A7.17,7.17,0,0,1,149.33,62H185.7V61m118.8,0H187.7v1H304.5V61" fill="#b3b3b3"/>
    </g>
    <path d="M74,144.66l1.26-3.32a14.91,14.91,0,0,0,.46-1.54c.17.61.34,1.12.5,1.54l1.24,3.32Zm6.47,4.53-4.21-10.76h-1L71,149.19h1.26l1.32-3.41h4.29l1.33,3.41Z" fill="#666"/>
    <rect x="158.5" y="66.2" width="57" height="174.02" fill="none" stroke="#000" stroke-width="2"/>
    <rect x="235" y="66.6" width="57" height="174.02" fill="none" stroke="#ccc"/>
    <path d="M185.7,16.61v140h2v-140h-2m-55,0v32h2v-32h-2" fill="#3fb1ff"/>
    <line x1="142.04" y1="38.11" x2="175.96" y2="38.11" fill="none" stroke="#3fb1ff" stroke-dasharray="2 2"/>
    <path d="M136,38.11a30.34,30.34,0,0,1,8.55,4.76l-1.72-4.76,1.72-4.75A30.31,30.31,0,0,1,136,38.11m46,0a30.34,30.34,0,0,0-8.55,4.76l1.72-4.76-1.72-4.75A30.31,30.31,0,0,0,182,38.11" fill="#3fb1ff" fill-rule="evenodd"/>
    <path d="M100,48.61h32m-28,107.7h83.11" fill="none" stroke="#3fb1ff" stroke-width="2"/>
    <path d="M185.24,25.93h-1l-2.83,2.19L182,29c1-.84,1.62-1.32,1.74-1.43l.35-.32q-.06.84-.06,1.8v7.63h1.19V25.93m11.39-.15A5,5,0,0,0,193.4,27l.65.83a4.77,4.77,0,0,1,1.33-.8,3.56,3.56,0,0,1,1.26-.22,2,2,0,0,1,1.45.5,1.82,1.82,0,0,1,.52,1.36,3,3,0,0,1-.21,1.13,4.7,4.7,0,0,1-.62,1.09,21.48,21.48,0,0,1-1.69,1.86l-2.82,2.83v1h7V35.51h-5.5v-.06l2.34-2.29a12.28,12.28,0,0,0,2.14-2.52,4,4,0,0,0,.57-2,2.68,2.68,0,0,0-.86-2.08,3.42,3.42,0,0,0-2.36-.77" fill="#b2b2b2"/>
</svg>