<svg xmlns="http://www.w3.org/2000/svg" viewBox="0 0 232 115"><rect x="8.06" y="94.52" width="215" height="11.5" rx="1" fill="none" stroke="#b3b3b3" stroke-miterlimit="10"/><path d="M15.56,94a1,1,0,0,1-1-1V57.52a1,1,0,0,1,1-1h200a1,1,0,0,1,1,1V93a1,1,0,0,1-1,1" fill="none" stroke="#b3b3b3" stroke-miterlimit="10"/><path d="M216.06,94.52h6a1,1,0,0,1,1,1V105a1,1,0,0,1-1,1H9.06a1,1,0,0,1-1-1v-9.5a1,1,0,0,1,1-1h5.5" fill="none" stroke="#000" stroke-miterlimit="10" stroke-width="2"/><path d="M215.56,56.52a1,1,0,0,1,1,1V93a1,1,0,0,1-1,1" fill="none" stroke="#000" stroke-miterlimit="10" stroke-width="2"/><path d="M15.56,94a1,1,0,0,1-1-1V57.52a1,1,0,0,1,1-1" fill="none" stroke="#000" stroke-miterlimit="10" stroke-width="2"/><path d="M16.13,55.4s-.07,0-.07-.1V51.81a.08.08,0,0,1,.07-.09H30.49a.08.08,0,0,1,.07.09V55.3c0,.06,0,.1-.07.1" fill="none" stroke="#000" stroke-miterlimit="10" stroke-width="1.5"/><path d="M32.91,55.4s-.07,0-.07-.1V51.81a.08.08,0,0,1,.07-.09H47.26a.08.08,0,0,1,.07.09V55.3c0,.06,0,.1-.07.1" fill="none" stroke="#000" stroke-miterlimit="10" stroke-width="1.5"/><path d="M49.68,55.4s-.07,0-.07-.1V51.81a.08.08,0,0,1,.07-.09H64a.09.09,0,0,1,.08.09V55.3a.09.09,0,0,1-.08.1" fill="none" stroke="#000" stroke-miterlimit="10" stroke-width="1.5"/><path d="M66.45,55.4s-.07,0-.07-.1V51.81a.08.08,0,0,1,.07-.09H80.81a.08.08,0,0,1,.07.09V55.3c0,.06,0,.1-.07.1" fill="none" stroke="#000" stroke-miterlimit="10" stroke-width="1.5"/><path d="M83.23,55.4a.09.09,0,0,1-.08-.1V51.81a.09.09,0,0,1,.08-.09H97.58a.08.08,0,0,1,.07.09V55.3c0,.06,0,.1-.07.1" fill="none" stroke="#000" stroke-miterlimit="10" stroke-width="1.5"/><path d="M100,55.4s-.07,0-.07-.1V51.81a.08.08,0,0,1,.07-.09h14.35a.08.08,0,0,1,.07.09V55.3c0,.06,0,.1-.07.1" fill="none" stroke="#000" stroke-miterlimit="10" stroke-width="1.5"/><path d="M116.77,55.4s-.07,0-.07-.1V51.81a.08.08,0,0,1,.07-.09h14.36a.08.08,0,0,1,.07.09V55.3c0,.06,0,.1-.07.1" fill="none" stroke="#000" stroke-miterlimit="10" stroke-width="1.5"/><path d="M133.55,55.4a.09.09,0,0,1-.08-.1V51.81a.09.09,0,0,1,.08-.09H147.9a.08.08,0,0,1,.07.09V55.3c0,.06,0,.1-.07.1" fill="none" stroke="#000" stroke-miterlimit="10" stroke-width="1.5"/><path d="M150.32,55.4s-.07,0-.07-.1V51.81a.08.08,0,0,1,.07-.09h14.35a.08.08,0,0,1,.07.09V55.3c0,.06,0,.1-.07.1" fill="none" stroke="#000" stroke-miterlimit="10" stroke-width="1.5"/><path d="M167.09,55.4s-.07,0-.07-.1V51.81a.08.08,0,0,1,.07-.09h14.35a.09.09,0,0,1,.08.09V55.3a.09.09,0,0,1-.08.1" fill="none" stroke="#000" stroke-miterlimit="10" stroke-width="1.5"/><path d="M183.86,55.4s-.07,0-.07-.1V51.81a.09.09,0,0,1,.07-.09h14.36a.08.08,0,0,1,.07.09V55.3c0,.06,0,.1-.07.1" fill="none" stroke="#000" stroke-miterlimit="10" stroke-width="1.5"/><path d="M200.64,55.4s-.07,0-.07-.1V51.81a.08.08,0,0,1,.07-.09H215a.08.08,0,0,1,.07.09V55.3c0,.06,0,.1-.07.1" fill="none" stroke="#000" stroke-miterlimit="10" stroke-width="1.5"/><line x1="223.94" y1="29.06" x2="223.94" y2="105.39" fill="none" stroke="#3fb1ff" stroke-miterlimit="10" stroke-width="2"/><line x1="208.06" y1="28.02" x2="208.06" y2="54.93" fill="none" stroke="#3fb1ff" stroke-miterlimit="10" stroke-width="2"/><line x1="219.44" y1="36.69" x2="211.43" y2="36.69" fill="none" stroke="#3fb1ff" stroke-miterlimit="10" stroke-dasharray="2 2"/><path d="M223.06,36.69a18.19,18.19,0,0,1-5.13-2.85l1,2.85-1,2.86A18,18,0,0,1,223.06,36.69Z" fill="#3fb1ff"/><path d="M207.81,36.69a18.05,18.05,0,0,0,5.13-2.85l-1,2.85,1,2.86A17.84,17.84,0,0,0,207.81,36.69Z" fill="#3fb1ff"/><text transform="translate(40.03 21.84)" font-size="15" fill="#666" font-family="OpenSans-SemiBoldItalic, Open Sans" font-weight="600" font-style="italic" letter-spacing="0.03em">CENTER OF TUBE TO <tspan x="0" y="18">LABWARE FOOTPRINT</tspan></text></svg>