<svg xmlns="http://www.w3.org/2000/svg" 
    xmlns:xlink="http://www.w3.org/1999/xlink" width="361" height="254" viewBox="0 0 361 254">
    <defs>
        <clipPath id="a">
            <polyline points="130 47.8 485 47.8 485 329.6 130 329.6 130 47.8" fill="none"/>
        </clipPath>
        <clipPath id="c">
            <polyline points="141.2 61 473.8 61 473.8 316.7 141.2 316.7 141.2 61" fill="none"/>
        </clipPath>
    </defs>
    <title>offset_reservoir</title>
    <line x1="121.6" y1="150.6" x2="121.6" y2="54.6" fill="none" stroke="#3fb1ff" stroke-dasharray="2 2"/>
    <path d="M121.6,156.6a30.7,30.7,0,0,1,4.8-8.5l-4.8,1.7-4.8-1.7a30.7,30.7,0,0,1,4.8,8.5m0-108a30.7,30.7,0,0,0,4.8,8.5l-4.8-1.7-4.8,1.7a29.33,29.33,0,0,0,4.8-8.5" fill="#3fb1ff" fill-rule="evenodd"/>
    <polygon points="104 98.7 102.8 98.7 104.5 105.4 103.6 109.4 104.9 109.4 105.7 105.5 110.3 98.7 108.9 98.7 105.3 104.2 104 98.7" fill="#3fb1ff"/>
    <path d="M113.3,114.2a1.46,1.46,0,0,1-.6.9,1.33,1.33,0,0,1-.8.3,1.14,1.14,0,0,1-.8-.3,1.22,1.22,0,0,1-.3-.9,3.73,3.73,0,0,1,.2-1.2,1.46,1.46,0,0,1,.6-.9,1.14,1.14,0,0,1,.8-.3.91.91,0,0,1,.7.3,1.14,1.14,0,0,1,.3.8A2.77,2.77,0,0,1,113.3,114.2Zm-2-2.6a2.26,2.26,0,0,0-.8,1.1,4,4,0,0,0-.3,1.5A1.71,1.71,0,0,0,112,116a1.92,1.92,0,0,0,1.2-.4,2.26,2.26,0,0,0,.8-1.1,4,4,0,0,0,.3-1.5,1.71,1.71,0,0,0-1.8-1.8A1.92,1.92,0,0,0,111.3,111.6Z" fill="#3fb1ff"/>
    <polygon points="156.4 15.8 160.4 10.7 159.1 10.7 155.8 14.8 154.3 10.7 153.1 10.7 155 15.7 150.6 21.4 152 21.4 155.5 16.7 157.1 21.4 158.4 21.4 156.4 15.8" fill="#3fb1ff"/>
    <path d="M163.8,26.2a1.46,1.46,0,0,1-.6.9,1.33,1.33,0,0,1-.8.3,1.14,1.14,0,0,1-.8-.3,1.22,1.22,0,0,1-.3-.9,3.73,3.73,0,0,1,.2-1.2,1.46,1.46,0,0,1,.6-.9,1.14,1.14,0,0,1,.8-.3.91.91,0,0,1,.7.3,1.14,1.14,0,0,1,.3.8A5.28,5.28,0,0,1,163.8,26.2Zm-2-2.6a2.26,2.26,0,0,0-.8,1.1,4,4,0,0,0-.3,1.5,1.71,1.71,0,0,0,1.8,1.8,1.92,1.92,0,0,0,1.2-.4,2.26,2.26,0,0,0,.8-1.1,4,4,0,0,0,.3-1.5,1.71,1.71,0,0,0-1.8-1.8A1.59,1.59,0,0,0,161.8,23.6Z" fill="#3fb1ff"/>
    <path d="M483,329.6h0M185.7,47.8h0m297.3,0h0" fill="#fff"/>
    <g clip-path="url(#a)">
        <path d="M483,47.8H304.5v2H483V327.6H132v-80h-2v80a2,2,0,0,0,2,2H483a2,2,0,0,0,2-2V49.8a2,2,0,0,0-2-2" fill="#fff"/>
    </g>
    <g clip-path="url(#a)">
        <path d="M185.7,47.8h-53v.8h-2v-.4a2.13,2.13,0,0,0-.7,1.5V247.5h2V49.8h53.7v-2m118.8,0H187.7v2H304.5v-2"/>
    </g>
    <path d="M465.7,316.7h0m8.1-247.6V308.6h0V69.1h0m-332.6,0h0V308.6h0V69.1" fill="#fff"/>
    <g clip-path="url(#c)">
        <path d="M465.7,61H304.5v1H465.7a7.17,7.17,0,0,1,7.2,7.2V308.6a7.17,7.17,0,0,1-7.2,7.2H149.3a7.17,7.17,0,0,1-7.2-7.2v-61h-1v61a8.07,8.07,0,0,0,8.1,8.1H465.7a8.2,8.2,0,0,0,8.1-8.1V69.1a8.13,8.13,0,0,0-8.1-8.1" fill="#fff"/>
    </g>
    <g clip-path="url(#c)">
        <path d="M185.7,61H149.3a8.22,8.22,0,0,0-8.2,8.1V247.6h1V69.2a7.17,7.17,0,0,1,7.2-7.2h36.4V61m118.8,0H187.7v1H304.5V61" fill="#b3b3b3"/>
    </g>
    <path d="M74,155.7l1.3-3.3c.2-.6.4-1.1.5-1.5a13.08,13.08,0,0,0,.5,1.5l1.2,3.3Zm6.5,4.5-4.2-10.8h-1L71,160.2h1.3l1.3-3.4h4.3l1.3,3.4Z" fill="#666"/>
    <rect x="158.5" y="66.2" width="57" height="174" fill="none" stroke="#000" stroke-width="2"/>
    <rect x="235" y="66.6" width="57" height="174" fill="none" stroke="#ccc"/>
    <path d="M185.7,16.6v140h2V16.6h-2m-55,0v32h2v-32h-2" fill="#3fb1ff"/>
    <line x1="142" y1="38.1" x2="176" y2="38.1" fill="none" stroke="#3fb1ff" stroke-dasharray="2 2"/>
    <path d="M136,38.1a30.7,30.7,0,0,1,8.5,4.8l-1.7-4.8,1.7-4.8a26.37,26.37,0,0,1-8.5,4.8m46,0a30.7,30.7,0,0,0-8.5,4.8l1.7-4.8-1.7-4.8a26.37,26.37,0,0,0,8.5,4.8" fill="#3fb1ff" fill-rule="evenodd"/>
    <path d="M100,48.6h32M104,156.3h83.1" fill="none" stroke="#3fb1ff" stroke-width="2"/>
    <path d="M185.2,25.9h-1l-2.8,2.2.6.9c1-.8,1.6-1.3,1.7-1.4l.3-.3c0,.6-.1,1.2-.1,1.8v7.6h1.2V25.9m77.5-.1a4.9,4.9,0,0,0-3.2,1.2l.6.8a3.81,3.81,0,0,1,1.3-.8,5.07,5.07,0,0,1,1.3-.2,1.74,1.74,0,0,1,1.9,1.9,3.59,3.59,0,0,1-.2,1.1,3,3,0,0,1-.6,1.1,18.09,18.09,0,0,1-1.7,1.9l-2.8,2.8v1h7V35.5h-5.5v-.1l2.3-2.3a12.42,12.42,0,0,0,2.1-2.5,3.86,3.86,0,0,0,.6-2,2.58,2.58,0,0,0-.9-2.1,2.78,2.78,0,0,0-2.2-.7" fill="#b2b2b2"/>
</svg>