<svg xmlns="http://www.w3.org/2000/svg" width="232" height="115" viewBox="0 0 232 115">
    <title>offset_helpText</title>
    <path d="M222,109H9a1,1,0,0,1-1-1v-9.5a1,1,0,0,1,1-1H222a1,1,0,0,1,1,1V108A1,1,0,0,1,222,109ZM15.5,97a1,1,0,0,1-1-1V60.53a1,1,0,0,1,1-1h200a1,1,0,0,1,1,1V96a1,1,0,0,1-1,1" fill="none" stroke="#b3b3b3"/>
    <path d="M216,97.53h6a1,1,0,0,1,1,1V108a1,1,0,0,1-1,1H9a1,1,0,0,1-1-1v-9.5a1,1,0,0,1,1-1h5.5m201-38a1,1,0,0,1,1,1V96a1,1,0,0,1-1,1m-200,0a1,1,0,0,1-1-1V60.53a1,1,0,0,1,1-1" fill="none" stroke="#000" stroke-width="2"/>
    <path d="M16.07,58.42l-.07-.1V54.83l.07-.1H30.42l.08.1v3.49l-.08.1m2.43,0-.08-.1V54.83l.08-.1H47.2l.07.1v3.49l-.07.1m2.42,0-.07-.1V54.83l.07-.1H64l.07.1v3.49l-.07.1m2.42,0-.07-.1V54.83l.07-.1H80.75l.06.1v3.49l-.06.1m2.41,0-.07-.1V54.83l.07-.1H97.52l.07.1v3.49l-.07.1m2.42,0-.07-.1V54.83l.07-.1h14.35l.07.1v3.49l-.07.1m2.42,0-.07-.1V54.83l.07-.1h14.35l.07.1v3.49l-.07.1m2.42,0-.07-.1V54.83l.07-.1h14.36l.07.1v3.49l-.07.1m2.42,0-.08-.1V54.83l.08-.1h14.35l.07.1v3.49l-.07.1m2.42,0-.07-.1V54.83l.07-.1h14.35l.07.1v3.49l-.07.1m2.42,0-.07-.1V54.83l.07-.1h14.36l.07.1v3.49l-.07.1m2.42,0-.08-.1V54.83l.08-.1h14.35l.07.1v3.49l-.07.1" fill="none" stroke="#000" stroke-width="1.5"/>
    <path d="M223.88,32.08v76.33M208,31V58" fill="none" stroke="#3fb1ff" stroke-width="2"/>
    <line x1="219.38" y1="39.71" x2="211.37" y2="39.71" fill="none" stroke="#3fb1ff" stroke-dasharray="2 2"/>
    <path d="M223,39.71a18,18,0,0,1-5.13-2.86l1,2.86-1,2.85A18.19,18.19,0,0,1,223,39.71m-15.25,0a18,18,0,0,0,5.13-2.86l-1,2.86,1,2.85a18.19,18.19,0,0,0-5.13-2.85" fill="#3fb1ff" fill-rule="evenodd"/>
    <path d="M170.89,11.48a3.4,3.4,0,0,1,.69,2.27,8,8,0,0,1-.52,3,4.71,4.71,0,0,1-1.39,2,3.09,3.09,0,0,1-2,.72,2.45,2.45,0,0,1-1.95-.82,3.35,3.35,0,0,1-.71-2.27,8,8,0,0,1,.5-2.92,4.73,4.73,0,0,1,1.41-2.06,3.18,3.18,0,0,1,2.06-.74A2.39,2.39,0,0,1,170.89,11.48Zm1-.8a3.61,3.61,0,0,0-2.81-1.13,4.64,4.64,0,0,0-2.76.87,5.68,5.68,0,0,0-1.93,2.46,8.63,8.63,0,0,0-.71,3.53,4.27,4.27,0,0,0,1.05,3.07,3.85,3.85,0,0,0,2.92,1.09,4.67,4.67,0,0,0,2.78-.85,5.39,5.39,0,0,0,1.84-2.41,9.14,9.14,0,0,0,.65-3.53A4.41,4.41,0,0,0,171.88,10.68Zm-11.18.15h3l.22-1.11h-7.22l-.24,1.11h3l-2,9.6h1.26Zm-10.64,9.6.25-1.13h-4.14l2-9.58h-1.25l-2.26,10.71Zm-7.12,0,.24-1.13H139l2-9.58h-1.24l-2.27,10.71Zm-7.44-1.12h-4.14l.83-3.92h3.88l.21-1.12h-3.86l.72-3.43h4.14l.24-1.12h-5.39l-2.26,10.71h5.38Zm-5-9.59h-1.33l-2.83,6.54c-.28.63-.6,1.5-1,2.59h-.07v-.61c0-.73,0-1.48-.07-2.22L125,9.72h-1.31l-3,6.33c-.33.68-.71,1.62-1.14,2.8h-.05c.05-.78.07-1.41.07-1.89v-.64l-.23-6.6h-1.24l.45,10.71h1.28q3.42-7.39,3.69-8c.17-.4.32-.77.44-1.13h0q0,1.08.06,2.07l.36,7.07h1.24Zm-22.23,6.14h3.88l.23-1.12h-3.86l.8-3.9h4.16l.22-1.12h-5.38l-2.26,10.71h1.26Zm-5.35-4.38a3.4,3.4,0,0,1,.69,2.27,8.25,8.25,0,0,1-.51,3,4.81,4.81,0,0,1-1.4,2,3.07,3.07,0,0,1-2,.72,2.43,2.43,0,0,1-1.94-.82,3.31,3.31,0,0,1-.72-2.27,8.25,8.25,0,0,1,.5-2.92A4.73,4.73,0,0,1,99,11.4a3.2,3.2,0,0,1,2.06-.74A2.39,2.39,0,0,1,102.93,11.48Zm1-.8a3.63,3.63,0,0,0-2.82-1.13,4.67,4.67,0,0,0-2.76.87,5.68,5.68,0,0,0-1.93,2.46,8.62,8.62,0,0,0-.7,3.53,4.26,4.26,0,0,0,1,3.07,3.87,3.87,0,0,0,2.93,1.09,4.64,4.64,0,0,0,2.77-.85,5.41,5.41,0,0,0,1.85-2.41,9.14,9.14,0,0,0,.64-3.53A4.46,4.46,0,0,0,103.93,10.68Zm-16.66.13a2.56,2.56,0,0,1,1.61.4,1.56,1.56,0,0,1,.49,1.29,2.16,2.16,0,0,1-.76,1.78,3.32,3.32,0,0,1-2.17.62H85.21c.06-.31.35-1.68.84-4.09ZM86.82,16l1.53,4.46h1.37L88,15.69a3.2,3.2,0,0,0,2.69-3.29c0-1.79-1.09-2.68-3.26-2.68H85.05L82.79,20.43H84L85,16Zm-6.09,3.34H76.59l.84-3.92H81.3l.21-1.12H77.65l.72-3.43h4.15l.23-1.12H77.37L75.1,20.43h5.39ZM72.6,10.83h3l.22-1.11H68.59l-.24,1.11h3l-2,9.6h1.26ZM67.05,9.72h-1.2l-1.28,6c-.2.88-.38,1.87-.53,3h0L60.64,9.72H59.32L57.06,20.43h1.18l1.26-5.9q.31-1.44.54-3.06h.05l3.37,9h1.32ZM55,19.31H50.88l.83-3.92h3.87l.22-1.12H51.94l.71-3.43H56.8L57,9.72H51.65L49.39,20.43h5.38Zm-6.1-8.13.51-1a5.39,5.39,0,0,0-2.55-.58,5.18,5.18,0,0,0-2.95.86,5.92,5.92,0,0,0-2.08,2.51,8.15,8.15,0,0,0-.77,3.55,4.21,4.21,0,0,0,1,3,3.59,3.59,0,0,0,2.78,1.09,6.71,6.71,0,0,0,2.58-.43V19.05a8,8,0,0,1-2.36.42,2.48,2.48,0,0,1-2-.82,3.22,3.22,0,0,1-.71-2.19,7.6,7.6,0,0,1,.59-3,4.76,4.76,0,0,1,1.6-2.08,3.88,3.88,0,0,1,2.28-.71A4.58,4.58,0,0,1,48.91,11.18Z" fill="#666"/>
    <path d="M179.24,28.83h3l.22-1.11h-7.21L175,28.83h3l-2,9.6h1.26Zm-5.55-1.11h-1.2l-1.27,6c-.21.88-.38,1.87-.53,3h0l-3.37-8.93H166L163.7,38.43h1.19l1.26-5.9q.3-1.44.54-3.06h0l3.37,9h1.33ZM160.84,38.43l2.28-10.71h-1.23l-2.28,10.71Zm-5.3-9.62a2.56,2.56,0,0,1,1.61.4,1.56,1.56,0,0,1,.49,1.29,2.16,2.16,0,0,1-.76,1.78,3.32,3.32,0,0,1-2.17.62h-1.23c.06-.31.35-1.68.85-4.09ZM155.1,34l1.53,4.46H158l-1.75-4.74a3.2,3.2,0,0,0,2.69-3.29c0-1.79-1.09-2.68-3.26-2.68h-2.35l-2.26,10.71h1.24l.95-4.46Zm-9.24-5.17h1.19a2.5,2.5,0,0,1,1.57.4,1.59,1.59,0,0,1,.51,1.32,2.39,2.39,0,0,1-.82,2,3.78,3.78,0,0,1-2.41.67h-1Zm3.75-.39a3.56,3.56,0,0,0-2.37-.69h-2.42l-2.26,10.71h1.24l.9-4.21h1a5.53,5.53,0,0,0,3.52-1,3.36,3.36,0,0,0,1.21-2.78A2.57,2.57,0,0,0,149.61,28.41Zm-9.56.42h3l.22-1.11H136l-.24,1.11h3l-2,9.6H138Zm-8.11.65a3.45,3.45,0,0,1,.68,2.27,8.25,8.25,0,0,1-.51,3,4.8,4.8,0,0,1-1.39,2,3.09,3.09,0,0,1-2,.72,2.45,2.45,0,0,1-2-.82,3.31,3.31,0,0,1-.72-2.27,8,8,0,0,1,.51-2.92A4.73,4.73,0,0,1,128,29.4a3.17,3.17,0,0,1,2.05-.74A2.39,2.39,0,0,1,131.94,29.48Zm1-.8a3.61,3.61,0,0,0-2.81-1.13,4.67,4.67,0,0,0-2.77.87,5.75,5.75,0,0,0-1.93,2.46,8.79,8.79,0,0,0-.7,3.53,4.27,4.27,0,0,0,1,3.07,3.85,3.85,0,0,0,2.92,1.09,4.67,4.67,0,0,0,2.78-.85,5.39,5.39,0,0,0,1.84-2.41,9.14,9.14,0,0,0,.65-3.53A4.46,4.46,0,0,0,132.93,28.68Zm-11.81.8a3.4,3.4,0,0,1,.69,2.27,8.25,8.25,0,0,1-.52,3,4.71,4.71,0,0,1-1.39,2,3.09,3.09,0,0,1-2,.72,2.45,2.45,0,0,1-2-.82,3.3,3.3,0,0,1-.71-2.27,8,8,0,0,1,.5-2.92,4.73,4.73,0,0,1,1.41-2.06,3.18,3.18,0,0,1,2.06-.74A2.39,2.39,0,0,1,121.12,29.48Zm1-.8a3.61,3.61,0,0,0-2.81-1.13,4.62,4.62,0,0,0-2.76.87,5.61,5.61,0,0,0-1.93,2.46,8.63,8.63,0,0,0-.71,3.53,4.27,4.27,0,0,0,1,3.07,3.85,3.85,0,0,0,2.92,1.09,4.67,4.67,0,0,0,2.78-.85,5.39,5.39,0,0,0,1.84-2.41,9.14,9.14,0,0,0,.65-3.53A4.41,4.41,0,0,0,122.11,28.68Zm-13.55,5.18h3.87l.23-1.12H108.8l.8-3.9h4.16l.22-1.12H108.6l-2.26,10.71h1.26Zm-8.19,3.45H96.23l.83-3.92h3.88l.21-1.12H97.29L98,28.84h4.14l.24-1.12H97L94.74,38.43h5.38Zm-9.69-8.5a2.52,2.52,0,0,1,1.6.4,1.56,1.56,0,0,1,.5,1.29A2.18,2.18,0,0,1,92,32.28a3.35,3.35,0,0,1-2.18.62H88.61c.07-.31.35-1.68.85-4.09ZM90.23,34l1.53,4.46h1.36l-1.75-4.74a3.2,3.2,0,0,0,2.7-3.29c0-1.79-1.09-2.68-3.27-2.68H88.46L86.19,38.43h1.25L88.38,34Zm-10.07-.09L82,30.41c.21-.43.4-.86.59-1.29a23,23,0,0,0,.21,2.57L83,33.88Zm3.43,4.55h1.25L83.49,27.72H82.22L76.36,38.43h1.39L79.54,35h3.64ZM78.5,27.72H77.16l-2.83,6.54c-.28.63-.6,1.5-1,2.59H73.3v-.61c0-.73,0-1.48-.07-2.22l-.31-6.3H71.62l-3,6.33c-.33.68-.71,1.62-1.14,2.8h0c0-.78.08-1.41.08-1.89l0-.64-.23-6.6H66.06l.45,10.71h1.28q3.42-7.39,3.69-8c.17-.4.32-.77.45-1.13h0q0,1.08.06,2.07l.36,7.07h1.24ZM58.39,33.36h1.73a2.41,2.41,0,0,1,1.57.45,1.59,1.59,0,0,1,.54,1.3,2,2,0,0,1-.71,1.67,3.11,3.11,0,0,1-2,.58h-2Zm1-4.56h1.55a2.52,2.52,0,0,1,1.53.37,1.34,1.34,0,0,1,.49,1.14,1.77,1.77,0,0,1-.68,1.46,2.88,2.88,0,0,1-1.83.53H58.62Zm-1-1.08L56.07,38.43h3.39a4.66,4.66,0,0,0,3-.89,2.93,2.93,0,0,0,1.11-2.43,2.16,2.16,0,0,0-.45-1.38,2.38,2.38,0,0,0-1.29-.81v-.07a3.06,3.06,0,0,0,1.79-.93,2.48,2.48,0,0,0,.64-1.74c0-1.64-1-2.46-3.16-2.46ZM50,33.88c1-1.89,1.62-3.05,1.83-3.47s.41-.86.59-1.29a23,23,0,0,0,.21,2.57l.26,2.19Zm3.44,4.55h1.24L53.37,27.72H52.09L46.24,38.43h1.38L49.42,35h3.63Zm-7.49,0,.24-1.13H42.09l2-9.58H42.86L40.6,38.43Z" fill="#666"/>
</svg>