<svg xmlns="http://www.w3.org/2000/svg" width="232" height="115" viewBox="0 0 232 115">
    <g fill="none" fill-rule="evenodd">
        <path stroke="#B3B3B3" d="M222 109.033H9c-.55 0-1-.45-1-1v-9.5c0-.55.45-1 1-1h213c.55 0 1 .45 1 1v9.5c0 .55-.45 1-1 1zM15.5 97.033c-.55 0-1-.45-1-1v-35.5c0-.55.45-1 1-1h200c.55 0 1 .45 1 1v35.5c0 .55-.45 1-1 1"/>
        <path stroke="#000" stroke-width="2" d="M216 97.533h6c.55 0 1 .45 1 1v9.5c0 .55-.45 1-1 1H9c-.55 0-1-.45-1-1v-9.5c0-.55.45-1 1-1h5.5M215.5 59.533c.55 0 1 .45 1 1v35.5c0 .55-.45 1-1 1M15.5 97.033c-.55 0-1-.45-1-1v-35.5c0-.55.45-1 1-1"/>
        <path stroke="#000" stroke-width="1.5" d="M16.072 58.418c-.04 0-.072-.044-.072-.098v-3.49c0-.054.032-.099.072-.099h14.353c.04 0 .072.045.072.099v3.49c0 .054-.032.098-.072.098M32.845 58.418c-.04 0-.072-.044-.072-.098v-3.49c0-.054.032-.099.072-.099h14.353c.04 0 .072.045.072.099v3.49c0 .054-.032.098-.072.098M49.618 58.418c-.04 0-.072-.044-.072-.098v-3.49c0-.054.032-.099.072-.099h14.354c.039 0 .07.045.07.099v3.49c0 .054-.031.098-.07.098M66.39 58.418c-.038 0-.071-.044-.071-.098v-3.49c0-.054.033-.099.072-.099h14.354c.039 0 .07.045.07.099v3.49c0 .054-.031.098-.07.098M83.164 58.418c-.04 0-.072-.044-.072-.098v-3.49c0-.054.032-.099.072-.099h14.353c.04 0 .072.045.072.099v3.49c0 .054-.032.098-.072.098M99.937 58.418c-.04 0-.072-.044-.072-.098v-3.49c0-.054.032-.099.072-.099h14.353c.04 0 .072.045.072.099v3.49c0 .054-.032.098-.072.098M116.71 58.418c-.04 0-.072-.044-.072-.098v-3.49c0-.054.032-.099.072-.099h14.353c.04 0 .072.045.072.099v3.49c0 .054-.032.098-.072.098M133.483 58.418c-.04 0-.072-.044-.072-.098v-3.49c0-.054.032-.099.072-.099h14.353c.04 0 .072.045.072.099v3.49c0 .054-.032.098-.072.098M150.256 58.418c-.04 0-.072-.044-.072-.098v-3.49c0-.054.032-.099.072-.099h14.354c.039 0 .07.045.07.099v3.49c0 .054-.031.098-.07.098M167.029 58.418c-.04 0-.072-.044-.072-.098v-3.49c0-.054.033-.099.072-.099h14.354c.039 0 .07.045.07.099v3.49c0 .054-.031.098-.07.098M183.802 58.418c-.04 0-.072-.044-.072-.098v-3.49c0-.054.032-.099.072-.099h14.353c.04 0 .072.045.072.099v3.49c0 .054-.032.098-.072.098M200.575 58.418c-.04 0-.072-.044-.072-.098v-3.49c0-.054.032-.099.072-.099h14.353c.04 0 .072.045.072.099v3.49c0 .054-.032.098-.072.098"/>
        <path stroke="#3FB1FF" stroke-width="2" d="M223.875 32.077v76.331M208 31.033v26.913"/>
        <path stroke="#3FB1FF" stroke-dasharray="2,2" d="M219.379 39.71h-8.008"/>
        <path fill="#3FB1FF" d="M223 39.71c-1.704-.633-3.818-1.712-5.128-2.855l1.032 2.855-1.032 2.852c1.31-1.142 3.424-2.22 5.128-2.852M207.75 39.71c1.704-.633 3.818-1.712 5.128-2.855l-1.032 2.855 1.032 2.852c-1.31-1.142-3.424-2.22-5.128-2.852"/>
        <text fill="#666" font-family="OpenSans-SemiBoldItalic, Open Sans" font-size="15" font-style="italic" font-weight="500" letter-spacing=".025" transform="translate(8 4.033)">
            <tspan x="31.969" y="16.394">CENTER OF WELL TO </tspan>
        </text>
        <text fill="#666" font-family="OpenSans-SemiBoldItalic, Open Sans" font-size="15" font-style="italic" font-weight="500" letter-spacing=".025" transform="translate(8 4)">
            <tspan x="31.969" y="34.427">LABWARE FOOTPRINT</tspan>
        </text>
    </g>
</svg>
