<svg xmlns="http://www.w3.org/2000/svg" 
    xmlns:xlink="http://www.w3.org/1999/xlink" width="361" height="254" viewBox="0 0 361 254">
    <defs>
        <clipPath id="a">
            <polyline points="102.5 66.35 456.5 66.35 456.5 302.14 102.5 302.14 102.5 66.35" fill="none"/>
        </clipPath>
        <clipPath id="b">
            <polyline points="113.17 77.03 445.83 77.03 445.83 291.76 113.17 291.76 113.17 77.03" fill="none"/>
        </clipPath>
        <clipPath id="c">
            <polyline points="244.59 84.95 301.28 84.95 301.28 141.63 244.59 141.63 244.59 84.95" fill="none"/>
        </clipPath>
        <clipPath id="d">
            <polyline points="244.59 147.34 301.28 147.34 301.28 204.02 244.59 204.02 244.59 147.34" fill="none"/>
        </clipPath>
        <clipPath id="e">
            <polyline points="119.81 209.73 176.49 209.73 176.49 266.41 119.81 266.41 119.81 209.73" fill="none"/>
        </clipPath>
        <clipPath id="f">
            <polyline points="182.2 209.73 238.88 209.73 238.88 266.41 182.2 266.41 182.2 209.73" fill="none"/>
        </clipPath>
        <clipPath id="g">
            <polyline points="244.59 209.73 301.28 209.73 301.28 266.41 244.59 266.41 244.59 209.73" fill="none"/>
        </clipPath>
    </defs>
    <title>spacing_plate_circular</title>
    <path d="M65,115.1h82v-2H65v2m0,63h80v-2H65v2M209,36.85v76.93h2V36.85h-2m-62,0v78h2v-78h-2" fill="#3fb1ff"/>
    <line x1="85" y1="170.82" x2="85" y2="120.89" fill="none" stroke="#3fb1ff" stroke-dasharray="2 2"/>
    <path d="M85,176.85a29.91,29.91,0,0,1,4.76-8.54L85,170l-4.75-1.72A30.12,30.12,0,0,1,85,176.85m0-62a30,30,0,0,0,4.76,8.55L85,121.68l-4.75,1.72A30.18,30.18,0,0,0,85,114.85" fill="#3fb1ff" fill-rule="evenodd"/>
    <line x1="155.29" y1="51.1" x2="202.71" y2="51.1" fill="none" stroke="#3fb1ff" stroke-dasharray="2 2"/>
    <path d="M149.25,51.1a30.59,30.59,0,0,1,8.55,4.76l-1.72-4.76,1.72-4.75a30.31,30.31,0,0,1-8.55,4.75m59.5,0a30.59,30.59,0,0,0-8.55,4.76l1.72-4.76-1.72-4.75a30.31,30.31,0,0,0,8.55,4.75" fill="#3fb1ff" fill-rule="evenodd"/>
    <polygon points="63.01 133.96 61.77 133.96 63.51 140.65 62.64 144.67 63.9 144.67 64.73 140.71 69.32 133.96 67.91 133.96 64.32 139.43 63.01 133.96" fill="#3fb1ff"/>
    <path d="M72.55,148.77a1.67,1.67,0,0,0-.33-.47,5.39,5.39,0,0,0-.85-.59,3.62,3.62,0,0,1-.61-.41,1,1,0,0,1-.23-.31.94.94,0,0,1-.07-.39,1,1,0,0,1,.35-.81,1.41,1.41,0,0,1,.92-.29,2.59,2.59,0,0,1,.64.09,2.25,2.25,0,0,1,.63.26l.29-.64a3.45,3.45,0,0,0-.77-.28,4,4,0,0,0-.79-.08,2.16,2.16,0,0,0-1.48.5,1.65,1.65,0,0,0-.57,1.3,1.53,1.53,0,0,0,.25.86,2.71,2.71,0,0,0,.9.72,3.79,3.79,0,0,1,.83.6.88.88,0,0,1,.23.59,1.08,1.08,0,0,1-.41.89,1.75,1.75,0,0,1-1.1.32,3.11,3.11,0,0,1-1.45-.36V151a2.73,2.73,0,0,0,.65.2,3.74,3.74,0,0,0,.79.07,2.58,2.58,0,0,0,1.69-.5,1.72,1.72,0,0,0,.6-1.4A1.57,1.57,0,0,0,72.55,148.77Z" fill="#3fb1ff"/>
    <polygon points="176.36 32.04 180.42 26.96 179.06 26.96 175.81 31.08 174.33 26.96 173.07 26.96 174.99 31.98 170.63 37.67 171.99 37.67 175.51 32.97 177.07 37.67 178.39 37.67 176.36 32.04" fill="#3fb1ff"/>
    <path d="M184,41.77a1.49,1.49,0,0,0-.33-.47,5.39,5.39,0,0,0-.85-.59,3.62,3.62,0,0,1-.61-.41A1,1,0,0,1,182,40a.94.94,0,0,1-.07-.39,1,1,0,0,1,.35-.81,1.41,1.41,0,0,1,.92-.29,2.59,2.59,0,0,1,.64.09,2.45,2.45,0,0,1,.64.26l.28-.64a3.45,3.45,0,0,0-.77-.28,4,4,0,0,0-.79-.08,2.16,2.16,0,0,0-1.48.5,1.65,1.65,0,0,0-.57,1.3,1.53,1.53,0,0,0,.25.86,2.71,2.71,0,0,0,.9.72,3.79,3.79,0,0,1,.83.6.88.88,0,0,1,.23.59,1.08,1.08,0,0,1-.41.89,1.75,1.75,0,0,1-1.1.32,3.11,3.11,0,0,1-1.45-.36V44a2.73,2.73,0,0,0,.65.2,3.78,3.78,0,0,0,.8.07,2.57,2.57,0,0,0,1.68-.5,1.72,1.72,0,0,0,.6-1.4A1.4,1.4,0,0,0,184,41.77Z" fill="#3fb1ff"/>
    <g clip-path="url(#a)">
        <path d="M455,66.35H275.5v1H455a.51.51,0,0,1,.5.5V300.64a.51.51,0,0,1-.5.5H104a.51.51,0,0,1-.5-.5V244.85h-1v55.79a1.5,1.5,0,0,0,1.5,1.5H455a1.5,1.5,0,0,0,1.5-1.5V67.85a1.51,1.51,0,0,0-1.5-1.5" fill="#fff"/>
        <path d="M103.5,178.1h-1v66.75h1V178.1m0-63h-1v61h1v-61M147,66.35H104a1.51,1.51,0,0,0-1.5,1.5V113.1h1V67.85a.51.51,0,0,1,.5-.5h43v-1m62,0H149v1h60v-1m66.5,0H211v1h64.5v-1" fill="#b3b3b3"/>
        <path d="M103.5,176.1h-1v2h1v-2m0-63h-1v2h1v-2M149,66.35h-2v1h2v-1m62,0h-2v1h2v-1" fill="#b3b3b3"/>
    </g>
    <path d="M147,77h0m62,0h0m228.67,0h0" fill="#fff"/>
    <path d="M149,77h0m62,0h0" fill="#3fb1ff"/>
    <path d="M113.17,178.1h0v0m0-63h0v61h0v-61m0-30v28h0v-28" fill="#fff"/>
    <path d="M113.17,176.1h0v2h0v-2m0-63h0v2h0v-2" fill="#3fb1ff"/>
    <g clip-path="url(#b)">
        <path d="M437.71,77H275.5v1H437.67a7.17,7.17,0,0,1,7.16,7.15V283.6a7.17,7.17,0,0,1-7.16,7.16H121.33a7.17,7.17,0,0,1-7.16-7.16V244.53h-1v39.11a8.18,8.18,0,0,0,8.16,8.12H437.67a8.18,8.18,0,0,0,8.16-8.16V85.18A8.18,8.18,0,0,0,437.71,77" fill="#fff"/>
        <path d="M114.17,178.1h-1v66.43h1V178.1m0-63h-1v61h1v-61M147,77H121.29a8.18,8.18,0,0,0-8.12,8.11v28h1V85.18A7.17,7.17,0,0,1,121.33,78H147V77m62,0H149v1h60V77m66.5,0H211v1h64.5V77" fill="#b3b3b3"/>
        <path d="M114.17,176.1h-1v2h1v-2m0-63h-1v2h1v-2M149,77h-2v1h2V77m62,0h-2v1h2V77" fill="#b3b3b3"/>
    </g>
    <path d="M176,113.29a27.84,27.84,0,1,1-27.84-27.85A27.92,27.92,0,0,1,176,113.29Zm62.39,0a27.84,27.84,0,1,1-27.84-27.85A27.92,27.92,0,0,1,238.38,113.29ZM176,175.68a27.84,27.84,0,1,1-27.84-27.84A27.92,27.92,0,0,1,176,175.68Z" fill="none" stroke="#000" stroke-width="2"/>
    <path d="M238.38,175.68a27.84,27.84,0,1,1-27.84-27.84,27.92,27.92,0,0,1,27.84,27.84Z" fill="none" stroke="#b3b3b3"/>
    <path d="M301.28,113.29h0v0m0,0h0m-56.69-.11v0m56.69,0v.11h0v-.11M272.93,85h0" fill="#fff"/>
    <g clip-path="url(#c)">
        <path d="M301.28,113.29h-1a27.45,27.45,0,0,1-24.78,27.22v1a28.45,28.45,0,0,0,25.78-28.12v-.11M275.5,85.06v1a27.45,27.45,0,0,1,24.78,27.22h1v-.11A28.45,28.45,0,0,0,275.5,85.06" fill="#fff"/>
        <path d="M273,85h-.22a28.42,28.42,0,0,0-28.23,28.23v.22a28.42,28.42,0,0,0,28.34,28.23c.87,0,1.72,0,2.57-.11v-1c-.85.08-1.7.12-2.57.12a27.34,27.34,0,0,1,0-54.68c.87,0,1.72,0,2.57.12v-1C274.69,85,273.87,85,273,85" fill="#b3b3b3"/>
    </g>
    <path d="M273.09,204h0m28.19-28.34h0v0m0,0h0m-56.69-.11v0m56.69,0v.14h0v-.14" fill="#fff"/>
    <g clip-path="url(#d)">
        <path d="M301.28,175.68h-1a27.46,27.46,0,0,1-23.78,27.11v1a28.46,28.46,0,0,0,24.78-28v-.11M276.5,147.56v1a27.46,27.46,0,0,1,23.78,27.11h1v-.14a28.45,28.45,0,0,0-24.78-28" fill="#fff"/>
        <path d="M272.93,147.34a28.42,28.42,0,0,0-28.34,28.23v.22A28.42,28.42,0,0,0,272.78,204h.31a27.51,27.51,0,0,0,3.41-.22v-1a28,28,0,0,1-3.57.23,27.34,27.34,0,0,1,0-54.68,28,28,0,0,1,3.57.23v-1a28.05,28.05,0,0,0-3.57-.22" fill="#b3b3b3"/>
    </g>
    <path d="M176.49,238.07h0v0m0,0h0m0-.11v.11h0V238m-28.34-28.23h0" fill="#fff"/>
    <g clip-path="url(#e)">
        <path d="M175.67,244.85h-1a27.36,27.36,0,0,1-53,0h-1a28.44,28.44,0,0,0,27.52,21.56h0a28.44,28.44,0,0,0,27.52-21.56" fill="#fff"/>
        <path d="M176.49,238.07h-1a27.09,27.09,0,0,1-.85,6.78h1a28.2,28.2,0,0,0,.82-6.67v-.11m-28.18-28.34H148a28.41,28.41,0,0,0-28.18,28.34,28,28,0,0,0,.82,6.78h1a27.34,27.34,0,1,1,53.83-6.78h1V238a28.42,28.42,0,0,0-28.18-28.23" fill="#b3b3b3"/>
    </g>
    <path d="M210.54,209.73h0" fill="#fff"/>
    <g clip-path="url(#f)">
        <path d="M238.06,244.85h-1a27.35,27.35,0,0,1-53,0h-1a28.44,28.44,0,0,0,27.51,21.56h0a28.44,28.44,0,0,0,27.52-21.56" fill="#fff"/>
        <path d="M238.88,238.07h-1a27.09,27.09,0,0,1-.85,6.78h1a28,28,0,0,0,.82-6.78m0,0h0M210.7,209.73h-.31a28.41,28.41,0,0,0-28.19,28.34,28,28,0,0,0,.83,6.78h1a27.33,27.33,0,1,1,53.82-6.78h1a28.41,28.41,0,0,0-28.18-28.34" fill="#b3b3b3"/>
    </g>
    <path d="M301.28,238.07h0v0m0,0h0m0-.11v.11h0V238m-56.69,0v0m28.34-28.23h0" fill="#fff"/>
    <g clip-path="url(#g)">
        <path d="M301.28,238.07h-1a27.35,27.35,0,0,1-53.83,6.78h-1a28.46,28.46,0,0,0,27.52,21.56h0a28.42,28.42,0,0,0,28.35-28.23v-.11M276.5,210v1a27.46,27.46,0,0,1,23.78,27.11h1V238a28.46,28.46,0,0,0-24.78-28" fill="#fff"/>
        <path d="M273.09,209.73h-.31A28.42,28.42,0,0,0,244.59,238v.22a28.2,28.2,0,0,0,.82,6.67h1a27.38,27.38,0,0,1,26.48-34.12,28,28,0,0,1,3.57.23v-1a27.51,27.51,0,0,0-3.41-.22" fill="#b3b3b3"/>
    </g>
    <path d="M46,113.9l1.26-3.32a14.21,14.21,0,0,0,.46-1.54c.17.61.34,1.12.5,1.54l1.24,3.32H46m2.26-6.23H47.23L43,118.43h1.26L45.58,115h4.29l1.33,3.41h1.29l-4.21-10.76" fill="#b2b2b2"/>
    <path d="M45.72,180.36v-4h2.13a3.54,3.54,0,0,1,2,.47,1.67,1.67,0,0,1,.67,1.46,1.84,1.84,0,0,1-.66,1.57,3.11,3.11,0,0,1-1.95.5H45.72m0-5.06v-3.5h1.83a4.1,4.1,0,0,1,2.05.39,1.42,1.42,0,0,1,.64,1.31,1.61,1.61,0,0,1-.57,1.39,3.33,3.33,0,0,1-1.9.41H45.72m1.78-4.58h-3v10.71h3.74a4.11,4.11,0,0,0,2.71-.81,2.74,2.74,0,0,0,1-2.24c0-1.43-.81-2.29-2.44-2.56v-.08a2.54,2.54,0,0,0,1.55-.8,2.3,2.3,0,0,0,.53-1.57,2.22,2.22,0,0,0-1-2,5.63,5.63,0,0,0-3.08-.64" fill="#b2b2b2"/>
    <path d="M49.07,233.57a5.41,5.41,0,0,0-2.75.67,4.49,4.49,0,0,0-1.79,1.92,6.48,6.48,0,0,0-.61,2.9,5.91,5.91,0,0,0,1.28,4.08,4.66,4.66,0,0,0,3.65,1.43,8.09,8.09,0,0,0,2.75-.41v-1.1a9.59,9.59,0,0,1-2.56.41,3.5,3.5,0,0,1-2.81-1.15,4.87,4.87,0,0,1-1-3.25,4.76,4.76,0,0,1,1-3.22,3.51,3.51,0,0,1,2.79-1.17,5.68,5.68,0,0,1,2.43.57l.53-1.07a6.67,6.67,0,0,0-3-.61" fill="#b2b2b2"/>
    <path d="M148.24,11.72h-1l-2.83,2.19.64.83c1-.84,1.62-1.31,1.74-1.42s.25-.22.35-.33q-.06.86-.06,1.8v7.64h1.19V11.72m62.37-.15a4.92,4.92,0,0,0-3.22,1.23l.64.82a5,5,0,0,1,1.33-.79,3.56,3.56,0,0,1,1.26-.23,2,2,0,0,1,1.45.51,1.81,1.81,0,0,1,.52,1.36,3,3,0,0,1-.21,1.13,4.58,4.58,0,0,1-.61,1.08,19.32,19.32,0,0,1-1.7,1.86l-2.82,2.84v1.05h7V21.3h-5.51v-.06L211.12,19a12.84,12.84,0,0,0,2.14-2.52,4.05,4.05,0,0,0,.57-2,2.63,2.63,0,0,0-.85-2.07,3.4,3.4,0,0,0-2.37-.77m68,0a5.41,5.41,0,0,0-1.81.29,5,5,0,0,0-1.52.82l.61.82a5.76,5.76,0,0,1,1.42-.7,4.46,4.46,0,0,1,1.33-.2,2.22,2.22,0,0,1,1.46.45,1.52,1.52,0,0,1,.54,1.23,1.84,1.84,0,0,1-.73,1.54,3.22,3.22,0,0,1-2,.55h-1.07v1.05h1.06q3.06,0,3.06,1.95c0,1.45-.93,2.17-2.78,2.17a7.07,7.07,0,0,1-3-.7V22a5.64,5.64,0,0,0,1.37.45,9.33,9.33,0,0,0,1.56.12,4.79,4.79,0,0,0,3-.82,2.8,2.8,0,0,0,1.07-2.36,2.38,2.38,0,0,0-.63-1.72,3,3,0,0,0-1.91-.82v-.06a2.89,2.89,0,0,0,1.63-.87,2.44,2.44,0,0,0,.58-1.68,2.39,2.39,0,0,0-.87-2,3.66,3.66,0,0,0-2.42-.71" fill="#b2b2b2"/>
    <path d="M148,113.85a1,1,0,1,1-1-1,1,1,0,0,1,1,1" fill="#3fb1ff" fill-rule="evenodd"/>
    <path d="M149,114.35a1.5,1.5,0,1,1-1.5-1.5,1.5,1.5,0,0,1,1.5,1.5" fill="#3fb1ff" fill-rule="evenodd"/>
</svg>