<svg xmlns="http://www.w3.org/2000/svg" 
    xmlns:xlink="http://www.w3.org/1999/xlink" width="361" height="254" viewBox="0 0 361 254">
    <defs>
        <clipPath id="a">
            <polyline points="93.5 47.52 447.5 47.52 447.5 310.79 93.5 310.79 93.5 47.52" fill="none"/>
        </clipPath>
        <clipPath id="b">
            <polyline points="104.17 59.44 436.83 59.44 436.83 299.19 104.17 299.19 104.17 59.44" fill="none"/>
        </clipPath>
    </defs>
    <title>spacing_reservoir_1row</title>
    <path d="M226,33.85V93h2V33.85h-2m-77,0v60h2v-60h-2" fill="#3fb1ff"/>
    <line x1="156.04" y1="40.17" x2="219.96" y2="40.17" fill="none" stroke="#3fb1ff" stroke-dasharray="2 2"/>
    <path d="M150,40.17a30.59,30.59,0,0,1,8.55,4.76l-1.72-4.76,1.72-4.75A30.31,30.31,0,0,1,150,40.17m76,0a30.59,30.59,0,0,0-8.55,4.76l1.72-4.76-1.72-4.75A30.31,30.31,0,0,0,226,40.17" fill="#3fb1ff" fill-rule="evenodd"/>
    <polygon points="183.36 24.04 187.42 18.96 186.06 18.96 182.81 23.08 181.33 18.96 180.07 18.96 181.99 23.98 177.63 29.67 178.99 29.67 182.51 24.97 184.07 29.67 185.39 29.67 183.36 24.04" fill="#3fb1ff"/>
    <path d="M191,33.77a1.49,1.49,0,0,0-.33-.47,5.39,5.39,0,0,0-.85-.59,3.62,3.62,0,0,1-.61-.41A1,1,0,0,1,189,32a.94.94,0,0,1-.07-.39,1,1,0,0,1,.35-.81,1.41,1.41,0,0,1,.92-.29,2.59,2.59,0,0,1,.64.09,2.45,2.45,0,0,1,.64.26l.28-.64a3.45,3.45,0,0,0-.77-.28,4,4,0,0,0-.79-.08,2.16,2.16,0,0,0-1.48.5,1.65,1.65,0,0,0-.57,1.3,1.53,1.53,0,0,0,.25.86,2.71,2.71,0,0,0,.9.72,3.79,3.79,0,0,1,.83.6.88.88,0,0,1,.23.59,1.08,1.08,0,0,1-.41.89,1.75,1.75,0,0,1-1.1.32,3.11,3.11,0,0,1-1.45-.36V36a2.73,2.73,0,0,0,.65.2,3.78,3.78,0,0,0,.8.07,2.57,2.57,0,0,0,1.68-.5,1.72,1.72,0,0,0,.6-1.4A1.4,1.4,0,0,0,191,33.77Z" fill="#3fb1ff"/>
    <g clip-path="url(#a)">
        <path d="M446,47.52H267.5v1H446a.51.51,0,0,1,.5.5V309.29a.51.51,0,0,1-.5.5H95a.51.51,0,0,1-.5-.5V246.85h-1v62.44a1.5,1.5,0,0,0,1.49,1.5H446a1.5,1.5,0,0,0,1.49-1.5V49a1.5,1.5,0,0,0-1.5-1.5" fill="#fff"/>
        <path d="M149,47.52H95A1.5,1.5,0,0,0,93.5,49V246.85h1V49a.51.51,0,0,1,.5-.5h54v-1m77,0H151v1h75v-1m41.5,0H228v1h39.5v-1" fill="#b3b3b3"/>
        <path d="M151,47.52h-2v1h2v-1m77,0h-2v1h2v-1" fill="#b3b3b3"/>
    </g>
    <path d="M149,59.44h0m77,0h0m202.67,0h0" fill="#fff"/>
    <path d="M151,59.44h0m77,0h0" fill="#3fb1ff"/>
    <path d="M428.75,299.19h0m8.08-231.63v0m-332.66,0v0" fill="#fff"/>
    <g clip-path="url(#b)">
        <path d="M428.71,59.44H267.5v1H428.67a7.17,7.17,0,0,1,7.16,7.16V291a7.17,7.17,0,0,1-7.16,7.16H112.33a7.17,7.17,0,0,1-7.16-7.16V246.85h-1v44.22a8.18,8.18,0,0,0,8.08,8.12h316.5a8.18,8.18,0,0,0,8.08-8.12V67.56a8.18,8.18,0,0,0-8.12-8.12" fill="#fff"/>
        <path d="M149,59.44H112.29a8.18,8.18,0,0,0-8.12,8.12V246.85h1V67.6a7.17,7.17,0,0,1,7.16-7.16H149v-1m77,0H151v1h75v-1m41.5,0H228v1h39.5v-1" fill="#b3b3b3"/>
        <path d="M151,59.44h-2v1h2v-1m77,0h-2v1h2v-1" fill="#b3b3b3"/>
    </g>
    <path d="M74,157.9l1.26-3.32a14.91,14.91,0,0,0,.46-1.54c.17.61.34,1.12.5,1.54l1.24,3.32Zm6.47,4.53-4.21-10.76h-1L71,162.43h1.26L73.58,159h4.29l1.33,3.41Z" fill="#666"/>
    <path d="M232.62,16.3h-5.5v-.06L229.46,14a13.2,13.2,0,0,0,2.14-2.52,4.05,4.05,0,0,0,.57-2,2.64,2.64,0,0,0-.86-2.07A3.38,3.38,0,0,0,229,6.56a5,5,0,0,0-3.23,1.23l.65.83a5.31,5.31,0,0,1,1.33-.8A3.79,3.79,0,0,1,229,7.6a2,2,0,0,1,1.44.51,1.76,1.76,0,0,1,.52,1.35,3,3,0,0,1-.2,1.14,4.65,4.65,0,0,1-.62,1.08,21.48,21.48,0,0,1-1.69,1.86l-2.82,2.84v1.05h7ZM150.24,6.72h-1l-2.83,2.19.64.83c1-.84,1.62-1.31,1.74-1.43l.35-.32q-.06.86-.06,1.8v7.64h1.19Z" fill="#666"/>
    <path d="M121.5,244.85h57v-172h-57Zm133.5-2-57,1v-172l57-1Z" fill="none" stroke="#000" stroke-width="2"/>
</svg>