<svg xmlns="http://www.w3.org/2000/svg" 
    xmlns:xlink="http://www.w3.org/1999/xlink" width="361" height="254" viewBox="0 0 361 254">
    <defs>
        <clipPath id="a">
            <polyline points="102.5 66.35 456.5 66.35 456.5 302.14 102.5 302.14 102.5 66.35" fill="none"/>
        </clipPath>
        <clipPath id="b">
            <polyline points="113.17 77.03 445.83 77.03 445.83 291.76 113.17 291.76 113.17 77.03" fill="none"/>
        </clipPath>
        <clipPath id="c">
            <polyline points="119 84.85 299 84.85 299 267.85 119 267.85 119 84.85" fill="none"/>
        </clipPath>
    </defs>
    <title>spacing_plate_rectangular</title>
    <line x1="85" y1="170.82" x2="85" y2="120.89" fill="none" stroke="#3fb1ff" stroke-dasharray="2 2"/>
    <path d="M85,176.85a29.91,29.91,0,0,1,4.76-8.54L85,170l-4.75-1.72A30.12,30.12,0,0,1,85,176.85m0-62a30,30,0,0,0,4.76,8.55L85,121.68l-4.75,1.72A30.18,30.18,0,0,0,85,114.85" fill="#3fb1ff" fill-rule="evenodd"/>
    <line x1="155.29" y1="51.1" x2="202.71" y2="51.1" fill="none" stroke="#3fb1ff" stroke-dasharray="2 2"/>
    <path d="M149.25,51.1a30.59,30.59,0,0,1,8.55,4.76l-1.72-4.76,1.72-4.75a30.31,30.31,0,0,1-8.55,4.75m59.5,0a30.59,30.59,0,0,0-8.55,4.76l1.72-4.76-1.72-4.75a30.31,30.31,0,0,0,8.55,4.75" fill="#3fb1ff" fill-rule="evenodd"/>
    <polygon points="63.01 133.96 61.77 133.96 63.51 140.65 62.64 144.67 63.9 144.67 64.73 140.71 69.32 133.96 67.91 133.96 64.32 139.43 63.01 133.96" fill="#3fb1ff"/>
    <path d="M72.55,148.77a1.67,1.67,0,0,0-.33-.47,5.39,5.39,0,0,0-.85-.59,3.62,3.62,0,0,1-.61-.41,1,1,0,0,1-.23-.31.94.94,0,0,1-.07-.39,1,1,0,0,1,.35-.81,1.41,1.41,0,0,1,.92-.29,2.59,2.59,0,0,1,.64.09,2.25,2.25,0,0,1,.63.26l.29-.64a3.45,3.45,0,0,0-.77-.28,4,4,0,0,0-.79-.08,2.16,2.16,0,0,0-1.48.5,1.65,1.65,0,0,0-.57,1.3,1.53,1.53,0,0,0,.25.86,2.71,2.71,0,0,0,.9.72,3.79,3.79,0,0,1,.83.6.88.88,0,0,1,.23.59,1.08,1.08,0,0,1-.41.89,1.75,1.75,0,0,1-1.1.32,3.11,3.11,0,0,1-1.45-.36V151a2.73,2.73,0,0,0,.65.2,3.74,3.74,0,0,0,.79.07,2.58,2.58,0,0,0,1.69-.5,1.72,1.72,0,0,0,.6-1.4A1.57,1.57,0,0,0,72.55,148.77Z" fill="#3fb1ff"/>
    <polygon points="176.36 33.04 180.42 27.96 179.06 27.96 175.81 32.08 174.33 27.96 173.07 27.96 174.99 32.98 170.63 38.67 171.99 38.67 175.51 33.97 177.07 38.67 178.39 38.67 176.36 33.04" fill="#3fb1ff"/>
    <path d="M184,42.77a1.49,1.49,0,0,0-.33-.47,5.39,5.39,0,0,0-.85-.59,3.62,3.62,0,0,1-.61-.41A1,1,0,0,1,182,41a.94.94,0,0,1-.07-.39,1,1,0,0,1,.35-.81,1.41,1.41,0,0,1,.92-.29,2.59,2.59,0,0,1,.64.09,2.45,2.45,0,0,1,.64.26l.28-.64a3.45,3.45,0,0,0-.77-.28,4,4,0,0,0-.79-.08,2.16,2.16,0,0,0-1.48.5,1.65,1.65,0,0,0-.57,1.3,1.53,1.53,0,0,0,.25.86,2.71,2.71,0,0,0,.9.72,3.79,3.79,0,0,1,.83.6.88.88,0,0,1,.23.59,1.08,1.08,0,0,1-.41.89,1.75,1.75,0,0,1-1.1.32,3.11,3.11,0,0,1-1.45-.36V45a2.73,2.73,0,0,0,.65.2,3.78,3.78,0,0,0,.8.07,2.57,2.57,0,0,0,1.68-.5,1.72,1.72,0,0,0,.6-1.4A1.4,1.4,0,0,0,184,42.77Z" fill="#3fb1ff"/>
    <g clip-path="url(#a)">
        <path d="M455,66.35H276.5v1H455a.51.51,0,0,1,.5.5V300.64a.51.51,0,0,1-.5.5H104a.51.51,0,0,1-.5-.5V244.85h-1v55.79a1.5,1.5,0,0,0,1.5,1.5H455a1.5,1.5,0,0,0,1.5-1.5V67.85a1.51,1.51,0,0,0-1.5-1.5" fill="#fff"/>
        <path d="M276.5,66.35H104a1.51,1.51,0,0,0-1.5,1.5v177h1v-177a.51.51,0,0,1,.5-.5H276.5v-1" fill="#b3b3b3"/>
    </g>
    <path d="M113.17,85.14v0M437.67,77h0" fill="#fff"/>
    <g clip-path="url(#b)">
        <path d="M437.71,77H276.5v1H437.67a7.17,7.17,0,0,1,7.16,7.15V283.6a7.17,7.17,0,0,1-7.16,7.16H121.33a7.17,7.17,0,0,1-7.16-7.16V244.85h-1v38.79a8.18,8.18,0,0,0,8.16,8.12H437.67a8.18,8.18,0,0,0,8.16-8.16V85.18A8.18,8.18,0,0,0,437.71,77" fill="#fff"/>
        <path d="M276.5,77H121.29a8.18,8.18,0,0,0-8.12,8.11V244.85h1V85.18A7.17,7.17,0,0,1,121.33,78H276.5V77" fill="#b3b3b3"/>
    </g>
    <g clip-path="url(#c)">
        <path d="M119.5,267.35h0m.5,0h0m56-22.5h-1v22H120v-22h-1v23h57v-23m5.25,21.5h0m.5,0h0m56-21.5h-1v21h-55v-21h-1v22h57v-22m4.5,21.5h0m.5,0h0m56-56.5H276.5v1h21.25v55h-55v-21h-1v22h57v-57m0-61.5H276.5v1h21.25v55H276.5v1h22.25v-57m.25-63.5H276.5v1H298v55H276.5v1H299v-57" fill="#fff"/>
        <path d="M176,210.85H119v34h1v-33h55v33h1v-34m61.75-1h-57v35h1v-34h55v34h1v-35m38.75,0H241.75v35h1v-34H276.5v-1m-95.25-5h0m.5,0h0m0-.5v-55h55v55h-55m56-56h-57v57h57v-57m4.5,56.5h0m.5,0h0m33.75-56.5H241.75v57H276.5v-1H242.75v-55H276.5v-1m-34-7h0m.5,0h0m33.5-56.5H242v57h34.5v-1H243v-55h33.5v-1" fill="#b3b3b3"/>
    </g>
    <path d="M46,113.9l1.26-3.32a14.21,14.21,0,0,0,.46-1.54c.17.61.34,1.12.5,1.54l1.24,3.32Zm6.47,4.53-4.21-10.76H47.23L43,118.43h1.26L45.58,115h4.29l1.33,3.41Z" fill="#666"/>
    <path d="M47.85,177.36a3.54,3.54,0,0,1,2,.47,1.67,1.67,0,0,1,.67,1.46,1.84,1.84,0,0,1-.66,1.57,3.11,3.11,0,0,1-1.95.5H45.72v-4Zm-2.13-4.56h1.83a4.1,4.1,0,0,1,2.05.39,1.42,1.42,0,0,1,.64,1.31,1.61,1.61,0,0,1-.57,1.39,3.33,3.33,0,0,1-1.9.41H45.72Zm-1.25,9.63h3.74a4.11,4.11,0,0,0,2.71-.81,2.74,2.74,0,0,0,1-2.24c0-1.43-.81-2.29-2.44-2.56v-.08a2.54,2.54,0,0,0,1.55-.8,2.3,2.3,0,0,0,.53-1.57,2.22,2.22,0,0,0-1-2,5.63,5.63,0,0,0-3.08-.64h-3Z" fill="#666"/>
    <path d="M51.49,234.25l.53-1.07a6.67,6.67,0,0,0-3-.61,5.41,5.41,0,0,0-2.75.67,4.49,4.49,0,0,0-1.79,1.92,6.48,6.48,0,0,0-.61,2.9,5.91,5.91,0,0,0,1.28,4.08,4.66,4.66,0,0,0,3.65,1.43,8.09,8.09,0,0,0,2.75-.41v-1.1a9.59,9.59,0,0,1-2.56.41,3.53,3.53,0,0,1-2.81-1.15,4.87,4.87,0,0,1-1-3.25,4.76,4.76,0,0,1,1-3.22,3.51,3.51,0,0,1,2.79-1.17A5.68,5.68,0,0,1,51.49,234.25Z" fill="#666"/>
    <path d="M277.14,12.28a3.7,3.7,0,0,0-2.43-.71,5.45,5.45,0,0,0-1.81.29,5.17,5.17,0,0,0-1.52.82l.61.82a5.81,5.81,0,0,1,1.43-.7,4.34,4.34,0,0,1,1.32-.2,2.2,2.2,0,0,1,1.46.45,1.52,1.52,0,0,1,.54,1.23,1.81,1.81,0,0,1-.73,1.54,3.22,3.22,0,0,1-2,.55H273v1.05H274q3.06,0,3.06,1.95c0,1.45-.92,2.17-2.78,2.17a6.79,6.79,0,0,1-1.49-.18,6.66,6.66,0,0,1-1.48-.52V22a5.79,5.79,0,0,0,1.37.45,9.42,9.42,0,0,0,1.56.12,4.84,4.84,0,0,0,3-.82,2.8,2.8,0,0,0,1.06-2.36,2.42,2.42,0,0,0-.62-1.72,3,3,0,0,0-1.91-.82v-.06a3,3,0,0,0,1.63-.87,2.48,2.48,0,0,0,.57-1.68A2.41,2.41,0,0,0,277.14,12.28Zm-62.85,9h-5.51v-.06L211.12,19a12.84,12.84,0,0,0,2.14-2.52,4.05,4.05,0,0,0,.57-2,2.63,2.63,0,0,0-.85-2.07,3.4,3.4,0,0,0-2.37-.77,4.92,4.92,0,0,0-3.22,1.23l.64.82a5,5,0,0,1,1.33-.79,3.56,3.56,0,0,1,1.26-.23,2,2,0,0,1,1.45.51,1.81,1.81,0,0,1,.52,1.36,3,3,0,0,1-.21,1.13,4.58,4.58,0,0,1-.61,1.08,19.32,19.32,0,0,1-1.7,1.86l-2.82,2.84v1.05h7Zm-66-9.58h-1l-2.83,2.19.64.83c1-.84,1.62-1.31,1.74-1.42s.25-.22.35-.33q-.06.86-.06,1.8v7.64h1.19Z" fill="#666"/>
    <path d="M148,113.85a1,1,0,1,1-1-1,1,1,0,0,1,1,1" fill="#3fb1ff" fill-rule="evenodd"/>
    <path d="M149,114.35a1.5,1.5,0,1,1-1.5-1.5,1.5,1.5,0,0,1,1.5,1.5" fill="#3fb1ff" fill-rule="evenodd"/>
    <path d="M119,140.85h56v-56H119Zm62,0h56v-56H181Zm-62,64h56v-56H119Z" fill="none" stroke="#000" stroke-width="2"/>
    <path d="M65,114.1h82m-82,63h80M210,36.85v76.93M148,36.85v78" fill="none" stroke="#3fb1ff" stroke-width="2"/>
</svg>