<svg xmlns="http://www.w3.org/2000/svg" 
    xmlns:xlink="http://www.w3.org/1999/xlink" width="361" height="254" viewBox="0 0 361 254">
    <defs>
        <clipPath id="a">
            <rect x="188.36" y="28.85" width="4.35" height="6.42" fill="none"/>
        </clipPath>
    </defs>
    <title>spacing_reservoir_multirow</title>
    <path d="M68,110.9h73m-72.1,90h71.2M231,32.9V92M154,32.9v60" fill="none" stroke="#3fb1ff" stroke-width="2"/>
    <line x1="89.1" y1="194.8" x2="89.1" y2="111.9" fill="none" stroke="#3fb1ff" stroke-dasharray="2 2"/>
    <path d="M89.1,200.9a30.7,30.7,0,0,1,4.8-8.5l-4.8,1.7-4.8-1.7a29.33,29.33,0,0,1,4.8,8.5m0-90a30.7,30.7,0,0,0,4.8,8.5l-4.8-1.7-4.8,1.7a32.21,32.21,0,0,0,4.8-8.5" fill="#3fb1ff" fill-rule="evenodd"/>
    <line x1="160" y1="39.2" x2="224" y2="39.2" fill="none" stroke="#3fb1ff" stroke-dasharray="2 2"/>
    <path d="M154,39.2a30.7,30.7,0,0,1,8.5,4.8l-1.7-4.8,1.7-4.8a30.7,30.7,0,0,1-8.5,4.8m76,0a30.7,30.7,0,0,0-8.5,4.8l1.7-4.8-1.7-4.8a30.7,30.7,0,0,0,8.5,4.8" fill="#3fb1ff" fill-rule="evenodd"/>
    <polygon points="71.01 146.96 69.77 146.96 71.51 153.65 70.64 157.67 71.9 157.67 72.73 153.7 77.32 146.96 75.91 146.96 72.32 152.43 71.01 146.96" fill="#3fb1ff"/>
    <path d="M80.55,161.77a1.52,1.52,0,0,0-.34-.47,4.74,4.74,0,0,0-.84-.59,3.62,3.62,0,0,1-.61-.41,1,1,0,0,1-.23-.31.94.94,0,0,1-.07-.39,1,1,0,0,1,.35-.81,1.39,1.39,0,0,1,.92-.29,2.59,2.59,0,0,1,.64.09,2.53,2.53,0,0,1,.63.26l.28-.64a3.28,3.28,0,0,0-.77-.28,3.81,3.81,0,0,0-.78-.08,2.18,2.18,0,0,0-1.49.5,1.67,1.67,0,0,0-.56,1.3,1.45,1.45,0,0,0,.25.86,2.71,2.71,0,0,0,.9.72,3.79,3.79,0,0,1,.83.6.87.87,0,0,1,.22.59,1.08,1.08,0,0,1-.4.89,1.75,1.75,0,0,1-1.1.32,3.08,3.08,0,0,1-1.45-.36V164a2.73,2.73,0,0,0,.65.2,3.74,3.74,0,0,0,.79.07,2.58,2.58,0,0,0,1.69-.5,1.72,1.72,0,0,0,.6-1.4A1.57,1.57,0,0,0,80.55,161.77Z" fill="#3fb1ff"/>
    <polygon points="184.36 23.04 188.42 17.96 187.06 17.96 183.81 22.08 182.33 17.96 181.07 17.96 182.99 22.98 178.63 28.67 179.99 28.67 183.51 23.97 185.07 28.67 186.39 28.67 184.36 23.04" fill="#3fb1ff"/>
    <g clip-path="url(#a)">
        <path d="M192,32.77a1.49,1.49,0,0,0-.33-.47,5.39,5.39,0,0,0-.85-.59,3.62,3.62,0,0,1-.61-.41A1,1,0,0,1,190,31a.94.94,0,0,1-.07-.39,1,1,0,0,1,.35-.81,1.41,1.41,0,0,1,.92-.29,2.59,2.59,0,0,1,.64.09,2.45,2.45,0,0,1,.64.26l.28-.64a3.45,3.45,0,0,0-.77-.28,4,4,0,0,0-.79-.08,2.16,2.16,0,0,0-1.48.5,1.65,1.65,0,0,0-.57,1.3,1.53,1.53,0,0,0,.25.86,2.71,2.71,0,0,0,.9.72,3.79,3.79,0,0,1,.83.6.88.88,0,0,1,.23.59,1.08,1.08,0,0,1-.41.89,1.75,1.75,0,0,1-1.1.32,3.11,3.11,0,0,1-1.45-.36V35a2.73,2.73,0,0,0,.65.2,3.78,3.78,0,0,0,.8.07,2.57,2.57,0,0,0,1.68-.5,1.72,1.72,0,0,0,.6-1.4A1.4,1.4,0,0,0,192,32.77Z" fill="#3fb1ff"/>
    </g>
    <path d="M450,309.29H99a1,1,0,0,1-1-1V48a.94.94,0,0,1,1-1H450a1,1,0,0,1,1,1v260.3A1.08,1.08,0,0,1,450,309.29Z" fill="none" stroke="#b3b3b3"/>
    <path d="M432.7,297.69H116.3a7.7,7.7,0,0,1-7.7-7.7V66.59a7.7,7.7,0,0,1,7.7-7.7H432.6a7.7,7.7,0,0,1,7.7,7.7V290A7.62,7.62,0,0,1,432.7,297.69Z" fill="none" stroke="#b3b3b3"/>
    <path d="M41,110.9l1.26-3.32a14.91,14.91,0,0,0,.46-1.54c.17.61.34,1.12.5,1.54l1.24,3.32Zm6.47,4.53-4.21-10.76H42.23L38,115.43h1.26L40.58,112h4.29l1.33,3.41Z" fill="#666"/>
    <path d="M42.85,200.36a3.54,3.54,0,0,1,2,.47,1.67,1.67,0,0,1,.67,1.46,1.84,1.84,0,0,1-.66,1.57,3.11,3.11,0,0,1-1.95.5H40.72v-4Zm-2.13-4.57h1.83a4.08,4.08,0,0,1,2.05.4,1.41,1.41,0,0,1,.64,1.3,1.62,1.62,0,0,1-.57,1.4,3.33,3.33,0,0,1-1.9.41H40.72Zm-1.25,9.64h3.74a4.11,4.11,0,0,0,2.71-.81,2.74,2.74,0,0,0,1-2.24c0-1.43-.81-2.29-2.44-2.56v-.08a2.54,2.54,0,0,0,1.55-.8,2.3,2.3,0,0,0,.53-1.57,2.22,2.22,0,0,0-1-2,5.63,5.63,0,0,0-3.08-.64h-3Z" fill="#666"/>
    <path d="M234.67,15.3h-5.51v-.06L231.5,13a12.84,12.84,0,0,0,2.14-2.52,4.05,4.05,0,0,0,.57-2,2.63,2.63,0,0,0-.85-2.07A3.39,3.39,0,0,0,231,5.56a4.92,4.92,0,0,0-3.22,1.23l.64.83a5.31,5.31,0,0,1,1.33-.8A3.81,3.81,0,0,1,231,6.6a2,2,0,0,1,1.44.51A1.8,1.8,0,0,1,233,8.46a3,3,0,0,1-.21,1.14,4.58,4.58,0,0,1-.61,1.08,22.13,22.13,0,0,1-1.7,1.86l-2.82,2.84v1h7ZM156.24,5.72h-1l-2.83,2.19.64.83c1-.84,1.62-1.31,1.74-1.43l.35-.32q-.06.85-.06,1.8v7.64h1.19Z" fill="#666"/>
    <path d="M125.5,153.9h57v-84h-57Zm76.5-1h57v-84H202Zm-76.5,93h57v-84h-57Zm76.5-1h57v-84H202Z" fill="none" stroke="#000" stroke-width="2"/>
</svg>