<svg xmlns="http://www.w3.org/2000/svg" 
    xmlns:xlink="http://www.w3.org/1999/xlink" width="361" height="254" viewBox="0 0 361 254">
    <defs>
        <clipPath id="a">
            <polyline points="97.5 46.52 451.5 46.52 451.5 309.79 97.5 309.79 97.5 46.52" fill="none"/>
        </clipPath>
        <clipPath id="b">
            <polyline points="108.17 58.44 440.83 58.44 440.83 298.19 108.17 298.19 108.17 58.44" fill="none"/>
        </clipPath>
    </defs>
    <title>psacing_reservoir_multirow</title>
    <path d="M68,111.85h73v-2H68v2m.89,90h71.22v-2H68.89v2M230,32.85V92h2V32.85h-2m-77,0v60h2v-60h-2" fill="#3fb1ff"/>
    <line x1="89.09" y1="194.82" x2="89.09" y2="111.89" fill="none" stroke="#3fb1ff" stroke-dasharray="2 2"/>
    <path d="M89.09,200.85a30.12,30.12,0,0,1,4.75-8.54L89.09,194l-4.76-1.72a29.91,29.91,0,0,1,4.76,8.54m0-90a30.18,30.18,0,0,0,4.75,8.55l-4.75-1.72-4.76,1.72a30,30,0,0,0,4.76-8.55" fill="#3fb1ff" fill-rule="evenodd"/>
    <line x1="160.04" y1="39.17" x2="223.96" y2="39.17" fill="none" stroke="#3fb1ff" stroke-dasharray="2 2"/>
    <path d="M154,39.17a30.34,30.34,0,0,1,8.55,4.76l-1.72-4.76,1.72-4.75A30.31,30.31,0,0,1,154,39.17m76,0a30.34,30.34,0,0,0-8.55,4.76l1.72-4.76-1.72-4.75A30.31,30.31,0,0,0,230,39.17" fill="#3fb1ff" fill-rule="evenodd"/>
    <polygon points="71.01 146.96 69.77 146.96 71.51 153.65 70.64 157.67 71.9 157.67 72.73 153.7 77.32 146.96 75.91 146.96 72.32 152.43 71.01 146.96" fill="#3fb1ff"/>
    <path d="M80.55,161.77a1.52,1.52,0,0,0-.34-.47,4.74,4.74,0,0,0-.84-.59,3.62,3.62,0,0,1-.61-.41,1,1,0,0,1-.23-.31.94.94,0,0,1-.07-.39,1,1,0,0,1,.35-.81,1.39,1.39,0,0,1,.92-.29,2.59,2.59,0,0,1,.64.09,2.53,2.53,0,0,1,.63.26l.28-.64a3.28,3.28,0,0,0-.77-.28,3.81,3.81,0,0,0-.78-.08,2.18,2.18,0,0,0-1.49.5,1.67,1.67,0,0,0-.56,1.3,1.45,1.45,0,0,0,.25.86,2.71,2.71,0,0,0,.9.72,3.79,3.79,0,0,1,.83.6.87.87,0,0,1,.22.59,1.08,1.08,0,0,1-.4.89,1.75,1.75,0,0,1-1.1.32,3.08,3.08,0,0,1-1.45-.36V164a2.73,2.73,0,0,0,.65.2,3.74,3.74,0,0,0,.79.07,2.58,2.58,0,0,0,1.69-.5,1.72,1.72,0,0,0,.6-1.4A1.57,1.57,0,0,0,80.55,161.77Z" fill="#3fb1ff"/>
    <polygon points="184.36 23.04 188.42 17.96 187.06 17.96 183.81 22.08 182.33 17.96 181.07 17.96 182.99 22.98 178.63 28.67 179.99 28.67 183.51 23.97 185.07 28.67 186.39 28.67 184.36 23.04" fill="#3fb1ff"/>
    <path d="M192,32.77a1.49,1.49,0,0,0-.33-.47,5.39,5.39,0,0,0-.85-.59,3.62,3.62,0,0,1-.61-.41A1,1,0,0,1,190,31a.94.94,0,0,1-.07-.39,1,1,0,0,1,.35-.81,1.41,1.41,0,0,1,.92-.29,2.59,2.59,0,0,1,.64.09,2.45,2.45,0,0,1,.64.26l.28-.64a3.45,3.45,0,0,0-.77-.28,4,4,0,0,0-.79-.08,2.16,2.16,0,0,0-1.48.5,1.65,1.65,0,0,0-.57,1.3,1.53,1.53,0,0,0,.25.86,2.71,2.71,0,0,0,.9.72,3.79,3.79,0,0,1,.83.6.88.88,0,0,1,.23.59,1.08,1.08,0,0,1-.41.89,1.75,1.75,0,0,1-1.1.32,3.11,3.11,0,0,1-1.45-.36V35a2.73,2.73,0,0,0,.65.2,3.78,3.78,0,0,0,.8.07,2.57,2.57,0,0,0,1.68-.5,1.72,1.72,0,0,0,.6-1.4A1.4,1.4,0,0,0,192,32.77Z" fill="#3fb1ff"/>
    <g clip-path="url(#a)">
        <path d="M450,46.52H271.5v1H450a.51.51,0,0,1,.5.5V308.29a.51.51,0,0,1-.5.5H99a.51.51,0,0,1-.5-.5V245.85h-1v62.44a1.5,1.5,0,0,0,1.49,1.5H450a1.5,1.5,0,0,0,1.49-1.5V48a1.5,1.5,0,0,0-1.5-1.5" fill="#fff"/>
        <path d="M98.5,201.85h-1v44h1v-44m0-90h-1v88h1v-88M153,46.52H99A1.5,1.5,0,0,0,97.5,48v61.83h1V48a.51.51,0,0,1,.5-.5h54v-1m77,0H155v1h75v-1m41.5,0H232v1h39.5v-1" fill="#b3b3b3"/>
        <path d="M98.5,199.85h-1v2h1v-2m0-90h-1v2h1v-2M155,46.52h-2v1h2v-1m77,0h-2v1h2v-1" fill="#b3b3b3"/>
    </g>
    <path d="M108.17,201.85h0v0m0-90h0v88h0v-88m0-45.31v43.31h0V66.54" fill="#fff"/>
    <path d="M108.17,199.85h0v2h0v-2m0-90h0v2h0v-2" fill="#3fb1ff"/>
    <g clip-path="url(#b)">
        <path d="M432.67,58.44H271.5v1H432.67a7.17,7.17,0,0,1,7.16,7.16V290a7.17,7.17,0,0,1-7.16,7.16H116.33a7.17,7.17,0,0,1-7.16-7.16V245.85h-1v44.24a8.18,8.18,0,0,0,8.08,8.1h316.5a8.18,8.18,0,0,0,8.08-8.16V66.6a8.18,8.18,0,0,0-8.16-8.16" fill="#fff"/>
        <path d="M109.17,201.85h-1v44h1v-44m0-90h-1v88h1v-88M153,58.44H116.33a8.18,8.18,0,0,0-8.16,8.1v43.31h1V66.6a7.17,7.17,0,0,1,7.16-7.16H153v-1m77,0H155v1h75v-1m41.5,0H232v1h39.5v-1" fill="#b3b3b3"/>
        <path d="M109.17,199.85h-1v2h1v-2m0-90h-1v2h1v-2M155,58.44h-2v1h2v-1m77,0h-2v1h2v-1" fill="#b3b3b3"/>
    </g>
    <path d="M41,103.9l1.26-3.32A14.91,14.91,0,0,0,42.74,99c.17.61.34,1.12.5,1.54l1.24,3.32Zm6.47,4.53L43.28,97.67H42.23L38,108.43h1.26L40.58,105h4.29l1.33,3.41Z" fill="#666"/>
    <path d="M42.85,194.36a3.54,3.54,0,0,1,2,.47,1.67,1.67,0,0,1,.67,1.46,1.84,1.84,0,0,1-.66,1.57,3.11,3.11,0,0,1-1.95.5H40.72v-4Zm-2.13-4.57h1.83a4.08,4.08,0,0,1,2.05.4,1.41,1.41,0,0,1,.64,1.3,1.62,1.62,0,0,1-.57,1.4,3.33,3.33,0,0,1-1.9.41H40.72Zm-1.25,9.64h3.74a4.11,4.11,0,0,0,2.71-.81,2.74,2.74,0,0,0,1-2.24c0-1.43-.81-2.29-2.44-2.56v-.08a2.54,2.54,0,0,0,1.55-.8,2.3,2.3,0,0,0,.53-1.57,2.22,2.22,0,0,0-1-2,5.63,5.63,0,0,0-3.08-.64h-3Z" fill="#666"/>
    <path d="M171.3,15.3h-5.5v-.06L168.14,13a12.84,12.84,0,0,0,2.14-2.52,4.05,4.05,0,0,0,.57-2A2.64,2.64,0,0,0,170,6.34a3.38,3.38,0,0,0-2.36-.78,5,5,0,0,0-3.23,1.23l.65.83a5.31,5.31,0,0,1,1.33-.8,3.79,3.79,0,0,1,1.26-.22,2,2,0,0,1,1.44.51,1.76,1.76,0,0,1,.52,1.35,3,3,0,0,1-.2,1.14,4.65,4.65,0,0,1-.62,1.08,21.48,21.48,0,0,1-1.69,1.86l-2.82,2.84v1h7ZM156.24,5.72h-1l-2.83,2.19.64.83c1-.84,1.62-1.31,1.74-1.43l.35-.32q-.06.85-.06,1.8v7.64h1.19Z" fill="#666"/>
    <path d="M125.5,153.85h57v-84h-57Zm76.5-1h57v-84H202Zm-76.5,93h57v-84h-57Zm76.5-1h57v-84H202Z" fill="none" stroke="#000" stroke-width="2"/>
</svg>