<svg xmlns="http://www.w3.org/2000/svg" xmlns:xlink="http://www.w3.org/1999/xlink" width="361" height="254" viewBox="0 0 361 254">
    <defs>
        <path id="a" d="M0 .714h173.5v179H0z"/>
        <path id="c" d="M.672.386H163.5v169H.672z"/>
        <path id="e" d="M.089.993H31.5v64H.089z"/>
        <path id="g" d="M.5.696h35v61H.5z"/>
        <path id="i" d="M.994.714h63v37h-63z"/>
        <path id="k" d="M.699.714h63v37h-63z"/>
        <path id="m" d="M.5.714h35v37H.5z"/>
    </defs>
    <g fill="none" fill-rule="evenodd">
        <path stroke="#3FB1FF" stroke-width="2" d="M65 114.104h82M65 177.104h80M210 36.854v76.929M148 36.854v78"/>
        <path stroke="#3FB1FF" stroke-dasharray="2,2" d="M85 170.819v-49.93"/>
        <path fill="#3FB1FF" d="M85 176.854c1.054-2.84 2.852-6.363 4.756-8.547L85 170.027l-4.755-1.72c1.904 2.184 3.702 5.707 4.755 8.547M85 114.854c1.054 2.84 2.852 6.363 4.756 8.547L85 121.681l-4.755 1.72c1.904-2.184 3.702-5.707 4.755-8.547"/>
        <path stroke="#3FB1FF" stroke-dasharray="2,2" d="M155.285 51.104h47.43"/>
        <path fill="#3FB1FF" d="M149.25 51.104c2.84 1.054 6.363 2.852 8.547 4.756l-1.72-4.756 1.72-4.755c-2.184 1.904-5.707 3.702-8.547 4.755M208.75 51.104c-2.84 1.054-6.363 2.852-8.547 4.756l1.72-4.756-1.72-4.755c2.184 1.904 5.707 3.702 8.547 4.755"/>
        <text fill="#3FB1FF" font-family="OpenSans-SemiBoldItalic, Open Sans" font-size="15" font-style="italic" font-weight="500" transform="translate(43 6)">
            <tspan x="17.391" y="138.668">Y</tspan>
        </text>
        <text fill="#3FB1FF" font-family="OpenSans-SemiBoldItalic, Open Sans" font-size="8.745" font-style="italic" font-weight="500" transform="translate(43 6)">
            <tspan x="25.764" y="145.181">S</tspan>
        </text>
        <text fill="#3FB1FF" font-family="OpenSans-SemiBoldItalic, Open Sans" font-size="15" font-style="italic" font-weight="500" transform="translate(43 6)">
            <tspan x="128.39" y="31.668">X</tspan>
        </text>
        <text fill="#3FB1FF" font-family="OpenSans-SemiBoldItalic, Open Sans" font-size="8.745" font-style="italic" font-weight="500" transform="translate(43 6)">
            <tspan x="137.195" y="38.181">S</tspan>
        </text>
        <g transform="translate(102 65.14)">
            <mask id="b" fill="#fff">
                <use xlink:href="#a"/>
            </mask>
            <path stroke="#B3B3B3" d="M353 236.5H2c-.55 0-1-.45-1-1V2.714c0-.55.45-1 1-1h351c.55 0 1 .45 1 1V235.5c0 .55-.45 1-1 1z" mask="url(#b)"/>
        </g>
        <g transform="translate(112 75.14)">
            <mask id="d" fill="#fff">
                <use xlink:href="#c"/>
            </mask>
            <path stroke="#B3B3B3" d="M325.672 216.118H9.329c-4.211 0-7.657-3.445-7.657-7.656V10.042c0-4.21 3.446-7.656 7.657-7.656h316.343c4.21 0 7.656 3.445 7.656 7.656v198.42c0 4.211-3.445 7.656-7.656 7.656z" mask="url(#d)"/>
        </g>
        <path stroke="#000" stroke-width="2" d="M175.994 113.288c0 15.315-12.53 27.845-27.843 27.845-15.314 0-27.844-12.53-27.844-27.845 0-15.313 12.53-27.843 27.844-27.843 15.313 0 27.843 12.53 27.843 27.843zM238.385 113.288c0 15.315-12.529 27.845-27.843 27.845s-27.843-12.53-27.843-27.845c0-15.313 12.529-27.843 27.843-27.843s27.843 12.53 27.843 27.843zM175.994 175.68c0 15.313-12.53 27.843-27.843 27.843-15.314 0-27.844-12.53-27.844-27.844 0-15.313 12.53-27.843 27.844-27.843 15.313 0 27.843 12.53 27.843 27.843z"/>
        <path stroke="#B3B3B3" d="M238.385 175.68c0 15.313-12.529 27.843-27.843 27.843s-27.843-12.53-27.843-27.844c0-15.313 12.529-27.843 27.843-27.843s27.843 12.53 27.843 27.843z"/>
        <g transform="translate(244 80.14)">
            <mask id="f" fill="#fff">
                <use xlink:href="#e"/>
            </mask>
            <path stroke="#B3B3B3" d="M56.776 33.148c0 15.314-12.53 27.844-27.843 27.844-15.314 0-27.844-12.53-27.844-27.843 0-15.314 12.53-27.843 27.844-27.843 15.313 0 27.843 12.53 27.843 27.842z" mask="url(#f)"/>
        </g>
        <g transform="translate(241 145.14)">
            <mask id="h" fill="#fff">
                <use xlink:href="#g"/>
            </mask>
            <path stroke="#B3B3B3" d="M59.776 30.54c0 15.313-12.53 27.843-27.843 27.843-15.314 0-27.844-12.53-27.844-27.844 0-15.313 12.53-27.843 27.844-27.843 15.313 0 27.843 12.53 27.843 27.843z" mask="url(#h)"/>
        </g>
        <g transform="translate(115 207.14)">
            <mask id="j" fill="#fff">
                <use xlink:href="#i"/>
            </mask>
            <path stroke="#B3B3B3" d="M60.994 30.93c0 15.314-12.53 27.844-27.843 27.844-15.314 0-27.844-12.53-27.844-27.844 0-15.313 12.53-27.843 27.844-27.843 15.313 0 27.843 12.53 27.843 27.843z" mask="url(#j)"/>
        </g>
        <g transform="translate(178 207.14)">
            <mask id="l" fill="#fff">
                <use xlink:href="#k"/>
            </mask>
            <path stroke="#B3B3B3" d="M60.385 30.93c0 15.314-12.529 27.844-27.843 27.844S4.699 46.244 4.699 30.93c0-15.313 12.529-27.843 27.843-27.843s27.843 12.53 27.843 27.843z" mask="url(#l)"/>
        </g>
        <g transform="translate(241 207.14)">
            <mask id="n" fill="#fff">
                <use xlink:href="#m"/>
            </mask>
            <path stroke="#B3B3B3" d="M59.776 30.93c0 15.314-12.53 27.844-27.843 27.844-15.314 0-27.844-12.53-27.844-27.844 0-15.313 12.53-27.843 27.844-27.843 15.313 0 27.843 12.53 27.843 27.843z" mask="url(#n)"/>
        </g>
        <g fill="#666" font-family="OpenSans-Regular, Open Sans" font-size="15" opacity=".5">
            <text transform="translate(43 97.14)">
                <tspan x="0" y="16.287">A</tspan>
            </text>
            <text transform="translate(43 97.14)">
                <tspan x="0" y="79.287">B</tspan>
            </text>
            <text transform="translate(43 97.14)">
                <tspan x="0" y="142.287">C</tspan>
            </text>
        </g>
        <g fill="#666" font-family="OpenSans-Regular, Open Sans" font-size="15" letter-spacing=".033" opacity=".5">
            <text transform="translate(143 6.14)">
                <tspan x="0" y="16.287">1 2 3</tspan>
            </text>
        </g>
        <path fill="#3FB1FF" d="M148 113.854a1 1 0 1 1-2 0 1 1 0 0 1 2 0"/>
        <path fill="#3FB1FF" d="M149 114.354a1.5 1.5 0 1 1-3.001-.001 1.5 1.5 0 0 1 3.001.001"/>
    </g>
</svg>
