<svg xmlns="http://www.w3.org/2000/svg" viewBox="0 0 220 194"><line x1="73.96" y1="36.44" x2="57.96" y2="36.44" fill="none" stroke="#999" stroke-miterlimit="10" stroke-width="0.75"/><line x1="77.46" y1="13.44" x2="55.46" y2="13.44" fill="none" stroke="#999" stroke-miterlimit="10" stroke-width="0.75"/><line x1="117.46" y1="185.65" x2="67.46" y2="185.65" fill="none" stroke="#3fb1ff" stroke-miterlimit="10" stroke-width="2"/><line x1="76.39" y1="7.9" x2="117.46" y2="7.9" fill="none" stroke="#3fb1ff" stroke-miterlimit="10" stroke-width="2"/><line x1="100.46" y1="177.61" x2="100.46" y2="15.68" fill="none" stroke="#3fb1ff" stroke-miterlimit="10" stroke-dasharray="2 2"/><path d="M100.46,183.65a30.2,30.2,0,0,1,4.76-8.55l-4.76,1.72-4.75-1.72A30.18,30.18,0,0,1,100.46,183.65Z" fill="#3fb1ff"/><path d="M100.46,9.65a30.34,30.34,0,0,0,4.76,8.55l-4.76-1.73L95.71,18.2A30.31,30.31,0,0,0,100.46,9.65Z" fill="#3fb1ff"/><text transform="translate(110.24 85.89)" font-size="15" fill="#3fb1ff" font-family="OpenSans-SemiBoldItalic, Open Sans" font-weight="600" font-style="italic" letter-spacing="0.03em">TOTAL<tspan x="0" y="18">LENGTH</tspan></text><path d="M78.46,13.65v23h-3s-1.74,60.52-3,81c-1,16.84-5.79,68.26-5.79,68.26a.21.21,0,0,1-.42,0s-4.76-51.42-5.79-68.26c-1.25-20.48-3-81-3-81h-3v-23H53V8.15H80v5.5Z" fill="none" stroke="#000" stroke-miterlimit="10" stroke-width="2"/></svg>