<svg xmlns="http://www.w3.org/2000/svg" viewBox="0 0 220 194"><line x1="73.96" y1="36.44" x2="57.96" y2="36.44" fill="none" stroke="#999" stroke-miterlimit="10" stroke-width="0.75"/><line x1="77.46" y1="13.44" x2="55.46" y2="13.44" fill="none" stroke="#999" stroke-miterlimit="10" stroke-width="0.75"/><line x1="117.46" y1="185.65" x2="67.46" y2="185.65" fill="none" stroke="#3fb1ff" stroke-miterlimit="10" stroke-width="2"/><line x1="76.39" y1="7.9" x2="117.46" y2="7.9" fill="none" stroke="#3fb1ff" stroke-miterlimit="10" stroke-width="2"/><line x1="100.46" y1="177.61" x2="100.46" y2="15.68" fill="none" stroke="#3fb1ff" stroke-miterlimit="10" stroke-dasharray="2 2"/><path d="M100.46,183.65a30.2,30.2,0,0,1,4.76-8.55l-4.76,1.72-4.75-1.72A30.18,30.18,0,0,1,100.46,183.65Z" fill="#3fb1ff"/><path d="M100.46,9.65a30.34,30.34,0,0,0,4.76,8.55l-4.76-1.73L95.71,18.2A30.31,30.31,0,0,0,100.46,9.65Z" fill="#3fb1ff"/><path d="M153.1,85.89l.32-1.5h-3.95l1.95-9.2h-1.74l-2.26,10.7ZM140.94,81.4l1.26-2.46c.42-.82.77-1.57,1-2.25,0,.25,0,.59,0,1s.14,1.66.33,3.69ZM144,85.89h1.71l-1.21-10.72h-2l-5.73,10.72h1.86l1.53-3h3.55Zm-8.62-9.2h2.79l.31-1.5H131.2l-.33,1.5h2.78l-1.93,9.2h1.73Zm-9.06.52a3,3,0,0,1,.58,2,8.05,8.05,0,0,1-.45,2.75,4.61,4.61,0,0,1-1.26,1.94,2.75,2.75,0,0,1-1.82.7,2.1,2.1,0,0,1-1.67-.69,2.94,2.94,0,0,1-.59-2,7.82,7.82,0,0,1,.46-2.73,4.63,4.63,0,0,1,1.29-2,2.74,2.74,0,0,1,1.83-.7A2,2,0,0,1,126.35,77.21Zm1.37-1.1A3.72,3.72,0,0,0,124.86,75a4.9,4.9,0,0,0-2.84.85,5.76,5.76,0,0,0-2,2.48,8.63,8.63,0,0,0-.72,3.57,4.25,4.25,0,0,0,1,3A3.89,3.89,0,0,0,123.3,86a4.93,4.93,0,0,0,2.83-.83A5.49,5.49,0,0,0,128,82.78a8.92,8.92,0,0,0,.7-3.64A4.27,4.27,0,0,0,127.72,76.11Zm-11.65.58h2.79l.31-1.5h-7.31l-.33,1.5h2.78l-1.93,9.2h1.73Z" fill="#3fb1ff"/><path d="M166.72,93.19H165l-.93,4.38h-4.15l.93-4.38H159.1l-2.26,10.7h1.74l1-4.82h4.14l-1,4.82h1.74Zm-12.66,1.5h2.79l.32-1.5h-7.31l-.33,1.5h2.78l-1.94,9.2h1.74Zm-11,4.9h2l-.59,2.71a5,5,0,0,1-1.57.25,2.41,2.41,0,0,1-1.85-.69,2.83,2.83,0,0,1-.65-2A6.72,6.72,0,0,1,141,97.1a4.39,4.39,0,0,1,1.49-1.89,3.58,3.58,0,0,1,2.1-.66,5.54,5.54,0,0,1,2.45.63l.66-1.49a6.33,6.33,0,0,0-1.5-.51,7.94,7.94,0,0,0-1.56-.15,5.67,5.67,0,0,0-3.13.89,5.83,5.83,0,0,0-2.12,2.49,8.26,8.26,0,0,0-.75,3.54,4.12,4.12,0,0,0,1,3,4,4,0,0,0,3,1.07,9.4,9.4,0,0,0,1.75-.14,10.25,10.25,0,0,0,1.6-.42l1.15-5.4h-3.75Zm-5.74-6.4h-1.61l-1.17,5.51c-.07.32-.17.81-.29,1.49s-.2,1.15-.23,1.41H134l-2.92-8.41h-2l-2.27,10.7h1.61c.84-4,1.28-6.14,1.34-6.45s.14-.83.26-1.56l.07-.5h.05l3,8.51h1.91Zm-12.75,9.22h-3.95l.71-3.34H125l.3-1.49h-3.68l.62-2.89h3.95l.31-1.5h-5.68l-2.27,10.7h5.69Zm-8.13,1.48.32-1.5h-4l2-9.2H113l-2.26,10.7Z" fill="#3fb1ff"/><path d="M78.46,13.65v23h-3s-1.74,60.52-3,81c-1,16.85-5.79,68.27-5.79,68.27a.21.21,0,0,1-.42,0s-4.76-51.42-5.79-68.27c-1.25-20.48-3-81-3-81h-3v-23H53V8.15H80v5.5Z" fill="none" stroke="#000" stroke-miterlimit="10" stroke-width="2"/></svg>