<svg xmlns="http://www.w3.org/2000/svg" width="361" height="254" viewBox="0 0 361 254">
    <g fill="none" fill-rule="evenodd">
        <path stroke="#000" stroke-width=".5" d="M180.224 147.198c-25.943 0-46.974-21.031-46.974-46.974v-.001c0-25.942 21.031-46.973 46.974-46.973 25.943 0 46.974 21.031 46.974 46.973v.001c0 25.943-21.03 46.974-46.974 46.974z" opacity=".5"/>
        <path stroke="#000" stroke-width="2" d="M180.224 60.178c-22.08 0-40.046 17.965-40.046 40.046 0 22.08 17.965 40.045 40.046 40.045s40.046-17.964 40.046-40.045c0-22.08-17.965-40.046-40.046-40.046zm0 80.52c-22.318 0-40.474-18.157-40.474-40.474 0-22.318 18.156-40.475 40.474-40.475 22.318 0 40.474 18.157 40.474 40.474 0 22.319-18.156 40.476-40.474 40.476z"/>
        <path stroke="#3FB1FF" stroke-dasharray="2,2" d="M146.36 174.821h67.727"/>
        <path fill="#3FB1FF" d="M140.325 174.821c2.84 1.054 6.363 2.852 8.547 4.756l-1.72-4.756 1.72-4.755c-2.184 1.904-5.707 3.702-8.547 4.755M220.123 174.821c-2.84 1.054-6.363 2.852-8.547 4.756l1.72-4.756-1.72-4.755c2.184 1.904 5.707 3.702 8.547 4.755"/>
        <text fill="#3FB1FF" font-family="OpenSans-SemiBoldItalic, Open Sans" font-size="12" font-style="italic" font-weight="500" letter-spacing=".025" transform="translate(133 52)">
            <tspan x="18.481" y="111.602">DIAMETER</tspan>
        </text>
        <g stroke="#3FB1FF" stroke-width="2">
            <path d="M220.573 189.698v-93M139.573 189.698v-93"/>
        </g>
    </g>
</svg>
