<?xml version="1.0" encoding="UTF-8"?>
<svg id="Biohazard" xmlns="http://www.w3.org/2000/svg" viewBox="0 0 31.88976 28.34646">
  <defs>
    <style>
      .cls-1 {
        fill: #ffdf01;
      }
    </style>
  </defs>
  <g>
    <path class="cls-1" d="M13.49001,1.41732L.39734,24.09449c-1.09106,1.88976.27276,4.25197,2.45488,4.25197h26.18534c2.18211,0,3.54593-2.3622,2.45488-4.25197L18.39976,1.41732c-1.09106-1.88976-3.81869-1.88976-4.90975,0Z"/>
    <path d="M14.71744,2.12598L1.62478,24.80315c-.54553.94488.13638,2.12598,1.22744,2.12598h26.18534c1.09106,0,1.77297-1.1811,1.22744-2.12598L17.17232,2.12598c-.54553-.94488-1.90935-.94488-2.45488,0Z"/>
    <polygon class="cls-1" points="15.94488 2.83465 2.85221 25.51181 29.03755 25.51181 15.94488 2.83465"/>
  </g>
  <g>
    <path d="M20.33206,17.95202c0-.01596-.00016-.03188-.00045-.04778-.00148-.08154-.05868-.15354-.13881-.1687-.14666-.02774-.29574-.04239-.44551-.04239-.26899,0-.53218.0448-.78057.12833.00185.04333.00336.08676.00336.13054,0,1.1161-.60789,2.09237-1.50967,2.61662-.06755.03927-.10539.11671-.08577.19234.09237.35615.26365.69124.50712.97673.05288.06201.14459.07681.21557.03676,1.33369-.75256,2.23472-2.18189,2.23472-3.82245Z"/>
    <path d="M12.91968,17.95202c0-.04291.00151-.08545.00329-.12793-.39092-.13067-.81263-.16379-1.2257-.08743-.08029.01484-.13766.08695-.13913.16859-.00028.01556-.00044.03114-.00044.04677,0,1.64037.90082,3.06956,2.23426,3.8222.07418.04187.16709.02097.22212-.04405.23706-.28007.41002-.61076.50357-.96725.01989-.0758-.01808-.15356-.08586-.19288-.90311-.52392-1.51212-1.50091-1.51212-2.61801Z"/>
    <path d="M16.502,10.40268c0,.08304.05868.1527.13957.17147,1.36032.31562,2.37433,1.53435,2.37433,2.99069,0,1.5818-1.19605,2.88375-2.73303,3.05205-.08743.00957-.15232.08594-.15232.17389v.17317c0,.07425.04733.13905.11702.16467.33539.12327.57473.44524.57473.82339,0,.05025-.00431.09947-.01251.14737-.01267.0741.01895.1485.08405.18609l.14953.08633c.07617.04398.17475.02597.22676-.04496.91425-1.2469,2.63978-1.63172,4.00965-.84082,1.26121.72815,1.80966,2.21565,1.40287,3.55152-.02419.07943.0068.16509.07872.20661l.0927.05352c.09579.05531.21624.00853.25407-.09541.71442-1.96295-.05849-4.21416-1.93017-5.29477-.26497-.15298-.53936-.27452-.81886-.36684-.08682-.02868-.13739-.11626-.11881-.20579.0598-.28822.09174-.58662.09174-.89257,0-2.16168-1.5638-3.95692-3.6216-4.31919-.1084-.01908-.20844.06283-.20844.17289v.1067Z"/>
    <path d="M9.12837,21.24415c.07191-.04152.1029-.12717.07871-.20661-.4068-1.33587.14167-2.82337,1.40287-3.55153,1.36987-.7909,3.0954-.40607,4.00966.84083.05201.07093.15058.08894.22675.04496l.14953-.08633c.06511-.03759.09673-.11199.08406-.1861-.00819-.0479-.01251-.09713-.01251-.14738,0-.37815.23933-.70011.57471-.82338.06969-.02562.11702-.09041.11702-.16466v-.17319c0-.08796-.06488-.16432-.15232-.17389-1.53696-.16832-2.733-1.47026-2.733-3.05205,0-1.45632,1.01399-2.67506,2.3743-2.99069.08089-.01877.13957-.08844.13957-.17147v-.1067c0-.11006-.10005-.19197-.20844-.17289-2.05779.36226-3.62157,2.15752-3.62157,4.31919,0,.30595.03194.60435.09174.89257.01858.08953-.03199.17711-.11881.20579-.27951.09232-.55389.21386-.81886.36684-1.87168,1.08061-2.64459,3.33183-1.93016,5.29478.03783.10394.15828.15072.25407.09541l.0927-.05352Z"/>
    <path d="M22.20417,22.20925c-.07191-.04152-.16158-.02553-.21828.03513-.9535,1.0202-2.51592,1.28895-3.77711.56081-1.3675-.78953-1.89753-2.47183-1.27986-3.88553.03643-.08337.00776-.18056-.07103-.22605l-.15101-.08718c-.06395-.03692-.14352-.02909-.20011.01835-.15214.12754-.3478.20468-.56188.20468s-.40976-.07714-.56189-.20468c-.05659-.04744-.13616-.05527-.20011-.01835l-.151.08717c-.0788.04549-.10746.14268-.07103.22605.61768,1.41371.08765,3.09601-1.27986,3.88554-1.26119.72815-2.8236.45939-3.7771-.5608-.0567-.06066-.14637-.07665-.21828-.03513l-.09241.05335c-.09532.05503-.11623.18263-.0455.26696,1.34263,1.60091,3.67922,2.05753,5.55125.97672.26496-.15298.50742-.32984.72712-.52574.06825-.06085.16938-.06085.23763,0,.21971.1959.46216.37276.72712.52574,1.87204,1.08081,4.20862.62419,5.55126-.97673.07073-.08433.04982-.21193-.0455-.26696l-.0924-.05335Z"/>
    <path d="M15.94488,13.56484c-.81645,0-1.58016.22393-2.23475.61248-.06983.04145-.10253.12779-.07537.20431.12545.35352.32992.66933.59205.92739.05601.05514.1427.06102.21076.02171.44407-.2565.95866-.40391,1.50732-.40391s1.06324.14741,1.50732.40391c.06806.03931.15475.03343.21076-.02171.26213-.25805.4666-.57387.59204-.92739.02716-.07652-.00555-.16286-.07537-.20431-.6546-.38855-1.41831-.61248-2.23475-.61248Z"/>
  </g>
</svg>