<svg width="400" height="140" viewBox="0 0 400 140" fill="none" xmlns="http://www.w3.org/2000/svg">
<path d="M308 98L308 40" stroke="#3FB1FF" stroke-dasharray="2 2"/>
<path fill-rule="evenodd" clip-rule="evenodd" d="M308 105.75C309.11 102.659 310.718 99.7713 312.76 97.2L308 98.92L303.25 97.2C305.286 99.7741 306.89 102.662 308 105.75ZM308 34.25C309.11 37.3406 310.718 40.2287 312.76 42.8L308 41.08L303.25 42.8C305.286 40.2259 306.89 37.3384 308 34.25Z" fill="#3FB1FF"/>
<path d="M366.92 65.2702H369.92L370.14 64.1602H362.93L362.69 65.2702H365.69L363.69 74.8702H364.95L366.92 65.2702ZM361.33 64.1602H360.1L359.1 68.7202H354.26L355.26 64.1602H354L351.74 74.8702H353L354.06 69.8702H358.9L357.85 74.8702H359.07L361.33 64.1602ZM346.72 70.3802H348.84L348.13 73.6302C347.518 73.8338 346.875 73.9286 346.23 73.9102C345.843 73.9348 345.455 73.8761 345.093 73.7381C344.731 73.6001 344.402 73.3859 344.13 73.1102C343.604 72.5096 343.335 71.727 343.38 70.9302C343.364 69.9018 343.558 68.8809 343.95 67.9302C344.274 67.1095 344.817 66.3935 345.52 65.8602C346.171 65.3693 346.965 65.1058 347.78 65.1102C348.26 65.1089 348.737 65.1728 349.2 65.3002C349.614 65.4116 350.019 65.5554 350.41 65.7302L350.9 64.6202C350.411 64.4105 349.902 64.253 349.38 64.1502C348.853 64.0474 348.317 63.9972 347.78 64.0002C346.734 63.992 345.711 64.3062 344.85 64.9002C343.946 65.5316 343.233 66.4001 342.79 67.4102C342.287 68.5394 342.035 69.7641 342.05 71.0002C342.02 71.5386 342.1 72.0775 342.284 72.5845C342.467 73.0914 342.752 73.556 343.12 73.9502C343.524 74.3183 343.997 74.6018 344.513 74.7838C345.028 74.9659 345.574 75.0429 346.12 75.0102C347.167 75.0015 348.205 74.8156 349.19 74.4602L350.31 69.2502H347L346.72 70.3802ZM338.72 74.8702L341 64.1602H339.77L337.49 74.8702H338.72ZM335.41 73.7302H331.27L332.11 69.8002H336L336.2 68.7302H332.34L333.05 65.2902H337.2L337.43 64.1702H332.05L329.79 74.8802H335.17L335.41 73.7302ZM329.19 64.1302H328L327 68.7302H322.17L323.17 64.1702H321.92L319.6 74.8702H320.84L321.91 69.8702H326.74L325.69 74.8702H326.92L329.19 64.1302Z" fill="#3FB1FF"/>
<path d="M41.5 75.75C41.2348 75.75 40.9804 75.6446 40.7929 75.4571C40.6054 75.2696 40.5 75.0152 40.5 74.75V39.25C40.5 38.9848 40.6054 38.7304 40.7929 38.5429C40.9804 38.3554 41.2348 38.25 41.5 38.25H241.5C241.765 38.25 242.02 38.3554 242.207 38.5429C242.395 38.7304 242.5 38.9848 242.5 39.25V74.75C242.5 75.0152 242.395 75.2696 242.207 75.4571C242.02 75.6446 241.765 75.75 241.5 75.75M248 87.75H35C34.7348 87.75 34.4804 87.6446 34.2929 87.4571C34.1054 87.2696 34 87.0152 34 86.75V77.25C34 76.9848 34.1054 76.7304 34.2929 76.5429C34.4804 76.3554 34.7348 76.25 35 76.25H141.5H248C248.265 76.25 248.52 76.3554 248.707 76.5429C248.895 76.7304 249 76.9848 249 77.25V86.75C249 87.0152 248.895 87.2696 248.707 87.4571C248.52 87.6446 248.265 87.75 248 87.75Z" stroke="#B3B3B3"/>
<path d="M242 76.25H248C248.265 76.25 248.52 76.3554 248.707 76.5429C248.895 76.7304 249 76.9848 249 77.25V86.75C249 87.0152 248.895 87.2696 248.707 87.4571C248.52 87.6446 248.265 87.75 248 87.75H35C34.7348 87.75 34.4804 87.6446 34.2929 87.4571C34.1054 87.2696 34 87.0152 34 86.75V77.25C34 76.9848 34.1054 76.7304 34.2929 76.5429C34.4804 76.3554 34.7348 76.25 35 76.25H40.5M241.5 38.25C241.765 38.25 242.02 38.3554 242.207 38.5429C242.395 38.7304 242.5 38.9848 242.5 39.25V74.75C242.5 75.0152 242.395 75.2696 242.207 75.4571C242.02 75.6446 241.765 75.75 241.5 75.75M41.5 75.75C41.2348 75.75 40.9804 75.6446 40.7929 75.4571C40.6054 75.2696 40.5 75.0152 40.5 74.75V39.25C40.5 38.9848 40.6054 38.7304 40.7929 38.5429C40.9804 38.3554 41.2348 38.25 41.5 38.25" stroke="black" stroke-width="2"/>
<path d="M42.07 37.13L42 37V33.5499L42.07 33.45H56.42L56.5 33.5499V37L56.42 37.09M58.85 37.09L58.77 37V33.5499L58.85 33.45H73.2L73.27 33.5499V37L73.2 37.09M75.62 37.09L75.55 37V33.5499L75.62 33.45H90L90.07 33.5499V37L90 37.09M92.42 37.09L92.32 37V33.5499L92.39 33.45H106.74L106.82 33.5499V37L106.74 37.09M109.16 37.09L109.09 37V33.5499L109.16 33.45H123.52L123.59 33.5499V37L123.52 37.09M125.94 37.09L125.87 37V33.5499L125.94 33.45H140.29L140.36 33.5499V37L140.29 37.09M142.71 37.09L142.64 37V33.5499L142.71 33.45H157.06L157.13 33.5499V37L157.06 37.09M159.48 37.09L159.41 37V33.5499L159.48 33.45H173.84L173.91 33.5499V37L173.84 37.09M176.26 37.09L176.18 37V33.5499L176.26 33.45H190.61L190.68 33.5499V37L190.61 37.09M193.03 37.09L193 37V33.5499L193.07 33.45H207.42L207.49 33.5499V37L207.42 37.09M209.84 37.09L209.77 37V33.5499L209.84 33.45H224.2L224.27 33.5499V37L224.2 37.09M226.62 37.09L226.5 37V33.5499L226.58 33.45H240.93L241 33.5499V37L240.93 37.09" stroke="black" stroke-width="1.5"/>
<path d="M30 76H59.529C59.8273 76 60.11 76.1332 60.3 76.3631L69.2 87.1369C69.39 87.3668 69.6727 87.5 69.971 87.5H141.5H213.029C213.327 87.5 213.61 87.3668 213.8 87.1369L222.7 76.3631C222.89 76.1332 223.173 76 223.471 76H253C253.552 76 254 76.4477 254 77V96.5C254 97.0523 253.552 97.5 253 97.5H30C29.4477 97.5 29 97.0523 29 96.5V77C29 76.4477 29.4477 76 30 76Z" fill="#E3E3E3" stroke="black" stroke-width="2"/>
<path d="M34 106.5V97.5H141.25H248.5V106.5C248.5 107.052 248.052 107.5 247.5 107.5H141.25H35C34.4477 107.5 34 107.052 34 106.5Z" fill="#E3E3E3" fill-opacity="0.8" stroke="black" stroke-width="2"/>
<path d="M317 108H247.25M244 32H319" stroke="#3FB1FF" stroke-width="2"/>
</svg>
