<?xml version="1.0" encoding="UTF-8" standalone="no"?>
<!DOCTYPE svg PUBLIC "-//W3C//DTD SVG 1.1//EN" "http://www.w3.org/Graphics/SVG/1.1/DTD/svg11.dtd">
<svg width="100%" height="100%" viewBox="0 0 3807 2729" version="1.1" xmlns="http://www.w3.org/2000/svg" xmlns:xlink="http://www.w3.org/1999/xlink" xml:space="preserve" xmlns:serif="http://www.serif.com/" style="fill-rule:evenodd;clip-rule:evenodd;stroke-miterlimit:10;">
    <g transform="matrix(1,0,0,1,395.1,18.0998)">
        <g transform="matrix(1,0,0,1,-377,0)">
            <path d="M1858,2510.57L1828.04,2510.57C1791.72,2510.57 1762.27,2540.01 1762.27,2576.33L1762.27,2624.19C1762.27,2660.51 1791.72,2689.95 1828.04,2689.95L1858,2689.95C1894.32,2689.95 1923.76,2660.51 1923.76,2624.19L1923.76,2576.33C1923.76,2540.01 1894.32,2510.57 1858,2510.57Z" style="fill:none;fill-rule:nonzero;stroke:rgb(35,31,32);stroke-width:4px;"/>
        </g>
        <g transform="matrix(1,0,0,1,-377,0)">
            <path d="M984.845,2510.57L978.835,2510.57C942.516,2510.57 913.073,2540.01 913.073,2576.33L913.073,2624.19C913.073,2660.51 942.516,2689.95 978.835,2689.95L984.845,2689.95C1021.16,2689.95 1050.61,2660.51 1050.61,2624.19L1050.61,2576.33C1050.61,2540.01 1021.16,2510.57 984.845,2510.57Z" style="fill:none;fill-rule:nonzero;stroke:rgb(35,31,32);stroke-width:4px;"/>
        </g>
        <g transform="matrix(1,0,0,1,-377,0)">
            <path d="M109.658,537.091L67.762,537.091C31.443,537.091 2,566.534 2,602.853L2,650.716C2,687.035 31.443,716.478 67.762,716.478L109.658,716.478C145.978,716.478 175.42,687.035 175.42,650.716L175.42,602.853C175.42,566.534 145.978,537.091 109.658,537.091Z" style="fill:none;fill-rule:nonzero;stroke:rgb(35,31,32);stroke-width:4px;"/>
        </g>
        <g transform="matrix(1,0,0,1,-377,0)">
            <path d="M109.658,2091.95L67.762,2091.95C31.443,2091.95 2,2121.39 2,2157.71L2,2205.58C2,2241.9 31.443,2271.34 67.762,2271.34L109.658,2271.34C145.978,2271.34 175.42,2241.9 175.42,2205.58L175.42,2157.71C175.42,2121.39 145.978,2091.95 109.658,2091.95Z" style="fill:none;fill-rule:nonzero;stroke:rgb(35,31,32);stroke-width:4px;"/>
        </g>
        <g transform="matrix(1,0,0,1,-377,0)">
            <path d="M109.658,1573.68L67.762,1573.68C31.443,1573.68 2,1603.12 2,1639.44L2,1687.3C2,1723.62 31.443,1753.07 67.762,1753.07L109.658,1753.07C145.978,1753.07 175.42,1723.62 175.42,1687.3L175.42,1639.44C175.42,1603.12 145.978,1573.68 109.658,1573.68Z" style="fill:none;fill-rule:nonzero;stroke:rgb(35,31,32);stroke-width:4px;"/>
        </g>
        <g transform="matrix(1,0,0,1,-377,0)">
            <path d="M103.692,1055.36L67.762,1055.36C31.443,1055.36 2,1084.81 2,1121.13L2,1168.99C2,1205.31 31.443,1234.75 67.762,1234.75L103.692,1234.75C140.011,1234.75 169.454,1205.31 169.454,1168.99L169.454,1121.13C169.454,1084.81 140.011,1055.36 103.692,1055.36Z" style="fill:none;fill-rule:nonzero;stroke:rgb(35,31,32);stroke-width:4px;"/>
        </g>
        <g transform="matrix(1,0,0,1,-377,0)">
            <path d="M48.565,668.657L79.523,582.185L97.941,582.185L128.855,668.657L111.474,668.657L104.427,648.639L73.34,648.639L66.119,668.657L48.565,668.657ZM77.231,633.376L100.276,633.376L88.862,599.047L77.274,633.376L77.231,633.376Z" style="fill:none;fill-rule:nonzero;stroke:rgb(35,31,32);stroke-width:4px;"/>
        </g>
        <g transform="matrix(1,0,0,1,-377,0)">
            <path d="M54.488,1186.97L54.488,1100.46L85.835,1100.46C97.162,1100.46 105.55,1102.4 110.998,1106.34C116.489,1110.19 119.256,1115.81 119.256,1123.16C119.256,1127.48 118.175,1131.2 115.97,1134.4C113.765,1137.55 109.874,1140.28 104.253,1142.66C107.885,1143.56 110.825,1144.82 113.03,1146.37C115.278,1147.93 116.965,1149.66 118.175,1151.56C119.386,1153.42 120.207,1155.41 120.64,1157.49C121.072,1159.52 121.288,1161.55 121.288,1163.54C121.288,1171.5 118.564,1177.42 113.16,1181.22C107.755,1185.07 99.108,1186.97 87.261,1186.97L54.488,1186.97ZM71.869,1173.4L87.607,1173.4C92.882,1173.4 96.817,1172.36 99.497,1170.24C102.221,1168.12 103.561,1165.31 103.561,1161.77C103.561,1159.22 102.913,1157.1 101.573,1155.37C100.275,1153.6 98.46,1152.3 96.211,1151.43C93.963,1150.57 91.412,1150.14 88.558,1150.14L71.869,1150.14L71.869,1173.44L71.869,1173.4ZM71.869,1136.21L88.558,1136.21C90.331,1136.21 92.061,1136 93.704,1135.61C95.39,1135.18 96.86,1134.53 98.114,1133.62C99.411,1132.76 100.448,1131.63 101.227,1130.29C102.005,1128.91 102.351,1127.26 102.351,1125.41C102.351,1121.64 100.924,1118.83 98.114,1116.93C95.303,1114.99 91.715,1113.99 87.348,1113.99L71.869,1113.99L71.869,1136.26L71.869,1136.21Z" style="fill:none;fill-rule:nonzero;stroke:rgb(35,31,32);stroke-width:4px;"/>
        </g>
        <g transform="matrix(1,0,0,1,-377,0)">
            <path d="M90.721,1617.56C97.206,1617.56 103,1618.86 108.058,1621.5C113.16,1624.09 117.268,1627.64 120.381,1632.13C123.537,1636.63 125.396,1641.73 125.958,1647.39L107.669,1647.39C107.107,1644.41 106.113,1641.77 104.599,1639.44C103.129,1637.1 101.184,1635.25 98.806,1633.95C96.428,1632.61 93.531,1631.92 90.202,1631.92C86.181,1631.92 82.722,1632.91 79.782,1634.86C76.885,1636.8 74.637,1639.96 73.08,1644.32C71.524,1648.69 70.746,1654.4 70.746,1661.53C70.746,1672.3 72.475,1680.08 75.891,1684.92C79.349,1689.72 84.105,1692.1 90.202,1692.1C93.531,1692.1 96.428,1691.37 98.806,1689.81C101.184,1688.25 103.129,1686.22 104.599,1683.71C106.069,1681.16 107.107,1678.35 107.669,1675.33L125.958,1675.33C125.439,1679.43 124.445,1683.37 122.975,1687.09C121.505,1690.8 119.386,1694.09 116.706,1697.03C113.982,1699.93 110.523,1702.22 106.242,1703.9C101.962,1705.59 96.817,1706.41 90.764,1706.41C82.722,1706.41 75.761,1704.55 69.881,1700.79C64.001,1697.03 59.504,1691.8 56.304,1685.01C53.148,1678.22 51.592,1670.31 51.592,1661.27C51.592,1652.24 53.148,1644.41 56.304,1637.88C59.461,1631.35 63.957,1626.34 69.838,1622.79C75.718,1619.29 82.679,1617.52 90.764,1617.52L90.721,1617.56Z" style="fill:none;fill-rule:nonzero;stroke:rgb(35,31,32);stroke-width:4px;"/>
        </g>
        <g transform="matrix(1,0,0,1,-377,0)">
            <path d="M55.354,2137.05L66.12,2137.05C68.887,2137.05 71.611,2137.05 74.291,2137.09C77.058,2137.09 79.35,2137.09 81.166,2137.13C91.672,2137.39 100.19,2139.25 106.805,2142.75C113.42,2146.26 118.262,2151.19 121.332,2157.45C124.445,2163.77 126.002,2171.2 126.002,2179.81C126.002,2188.41 124.359,2196.54 121.116,2203.07C117.83,2209.55 112.858,2214.61 106.113,2218.16C99.412,2221.7 90.894,2223.48 80.561,2223.48L55.311,2223.48L55.311,2137L55.354,2137.05ZM72.951,2151.14L72.951,2209.38L80.95,2209.38C85.879,2209.38 90.375,2208.43 94.396,2206.53C98.46,2204.63 101.703,2201.47 104.124,2197.15C106.545,2192.78 107.756,2186.98 107.756,2179.76C107.756,2173.02 106.675,2167.57 104.513,2163.38C102.352,2159.14 99.282,2156.07 95.304,2154.13C91.326,2152.18 86.614,2151.19 81.123,2151.19L72.865,2151.19L72.951,2151.14Z" style="fill:none;fill-rule:nonzero;stroke:rgb(35,31,32);stroke-width:4px;"/>
        </g>
        <g transform="matrix(1,0,0,1,-377,0)">
            <path d="M976.846,2642.13L976.846,2577.36L961.411,2577.36L961.411,2567.51C966.34,2567.51 970.361,2567.03 973.388,2566.12C976.457,2565.17 978.749,2563.79 980.262,2562.06C981.775,2560.29 982.683,2558.12 982.943,2555.66L994.53,2555.66L994.53,2642.13L976.846,2642.13Z" style="fill:none;fill-rule:nonzero;stroke:rgb(35,31,32);stroke-width:4px;"/>
        </g>
        <g transform="matrix(1,0,0,1,-377,0)">
            <path d="M1811.82,2642.13L1811.82,2629.07C1811.82,2624.71 1812.65,2620.9 1814.29,2617.7C1815.93,2614.46 1818.09,2611.69 1820.73,2609.32C1823.45,2606.94 1826.39,2604.82 1829.59,2603.05C1832.84,2601.27 1836.04,2599.54 1839.28,2597.95C1842.52,2596.35 1845.46,2594.75 1848.14,2593.15C1850.87,2591.5 1853.03,2589.69 1854.67,2587.7C1856.31,2585.71 1857.14,2583.33 1857.14,2580.65C1857.14,2577.19 1855.93,2574.34 1853.5,2572.18C1851.13,2569.97 1847.84,2568.89 1843.65,2568.89C1839.45,2568.89 1835.6,2570.14 1832.58,2572.65C1829.55,2575.16 1827.69,2578.96 1826.96,2584.02L1810.27,2584.02C1810.35,2578.53 1811.61,2573.56 1814.12,2569.06C1816.62,2564.57 1820.38,2560.98 1825.36,2558.34C1830.33,2555.7 1836.6,2554.41 1844.12,2554.41C1850.56,2554.41 1856.14,2555.49 1860.81,2557.69C1865.52,2559.9 1869.16,2562.92 1871.71,2566.86C1874.26,2570.75 1875.55,2575.33 1875.55,2580.56C1875.55,2584.93 1874.78,2588.65 1873.18,2591.81C1871.58,2594.96 1869.46,2597.64 1866.82,2599.89C1864.18,2602.14 1861.29,2604.08 1858.13,2605.77C1854.97,2607.46 1851.82,2609.01 1848.66,2610.44C1845.55,2611.87 1842.69,2613.34 1840.06,2614.85C1837.42,2616.32 1835.3,2618.01 1833.7,2619.87C1832.1,2621.72 1831.32,2623.97 1831.32,2626.61L1831.32,2627.39L1875.38,2627.39L1875.38,2642.09L1811.87,2642.09L1811.82,2642.13Z" style="fill:none;fill-rule:nonzero;stroke:rgb(35,31,32);stroke-width:4px;"/>
        </g>
        <g transform="matrix(1,0,0,1,-377,0)">
            <path d="M2622.69,2510.57L2586.76,2510.57C2550.44,2510.57 2521,2540.01 2521,2576.33L2521,2624.19C2521,2660.51 2550.44,2689.95 2586.76,2689.95L2622.69,2689.95C2659.01,2689.95 2688.45,2660.51 2688.45,2624.19L2688.45,2576.33C2688.45,2540.01 2659.01,2510.57 2622.69,2510.57Z" style="fill:none;fill-rule:nonzero;stroke:rgb(35,31,32);stroke-width:4px;"/>
        </g>
        <g transform="matrix(1,0,0,1,-377,0)">
            <path d="M2570.76,2582.25C2570.76,2576.02 2572.23,2570.88 2575.13,2566.77C2578.07,2562.66 2582.05,2559.59 2587.02,2557.56C2591.99,2555.49 2597.53,2554.45 2603.67,2554.45C2610.11,2554.45 2615.86,2555.27 2620.88,2556.96C2625.93,2558.64 2629.91,2561.19 2632.85,2564.61C2635.75,2568.02 2637.22,2572.39 2637.22,2577.67C2637.22,2581.95 2635.96,2585.71 2633.5,2588.95C2631.04,2592.19 2627.01,2594.74 2621.44,2596.65C2624.64,2597.51 2627.58,2598.85 2630.3,2600.67C2633.02,2602.44 2635.19,2604.73 2636.83,2607.54C2638.47,2610.35 2639.29,2613.68 2639.29,2617.57C2639.29,2621.81 2638.34,2625.53 2636.48,2628.77C2634.62,2632.01 2632.03,2634.69 2628.7,2636.9C2625.37,2639.1 2621.57,2640.75 2617.2,2641.79C2612.83,2642.87 2608.21,2643.38 2603.28,2643.38C2596.36,2643.38 2590.44,2642.22 2585.51,2639.97C2580.62,2637.68 2576.9,2634.48 2574.27,2630.28C2571.67,2626.09 2570.33,2621.12 2570.25,2615.32L2587.06,2615.32C2587.89,2620.21 2589.83,2623.76 2592.82,2625.96C2595.8,2628.17 2599.34,2629.25 2603.45,2629.25C2607.04,2629.25 2610.11,2628.73 2612.66,2627.69C2615.25,2626.65 2617.24,2625.23 2618.58,2623.37C2619.97,2621.51 2620.66,2619.35 2620.66,2616.97C2620.66,2614.59 2619.92,2612.34 2618.5,2610.57C2617.11,2608.8 2615.17,2607.37 2612.62,2606.37C2610.11,2605.34 2607.26,2604.78 2604.01,2604.69L2595.76,2604.39L2595.76,2590.51L2603.19,2590.07C2606.3,2589.95 2609.03,2589.38 2611.32,2588.35C2613.61,2587.31 2615.43,2585.92 2616.68,2584.24C2617.98,2582.47 2618.67,2580.52 2618.67,2578.31C2618.67,2576.11 2618.02,2574.38 2616.68,2572.82C2615.38,2571.27 2613.57,2570.06 2611.23,2569.19C2608.9,2568.33 2606.26,2567.89 2603.28,2567.89C2600.51,2567.89 2598,2568.37 2595.67,2569.28C2593.33,2570.19 2591.47,2571.7 2590,2573.82C2588.53,2575.89 2587.67,2578.66 2587.45,2582.21L2570.76,2582.21L2570.76,2582.25Z" style="fill:none;fill-rule:nonzero;stroke:rgb(35,31,32);stroke-width:4px;"/>
        </g>
        <g transform="matrix(1,0,0,1,-377,0)">
            <path d="M3409.69,2510.57L3373.76,2510.57C3337.44,2510.57 3308,2540.01 3308,2576.33L3308,2624.19C3308,2660.51 3337.44,2689.95 3373.76,2689.95L3409.69,2689.95C3446.01,2689.95 3475.45,2660.51 3475.45,2624.19L3475.45,2576.33C3475.45,2540.01 3446.01,2510.57 3409.69,2510.57Z" style="fill:none;fill-rule:nonzero;stroke:rgb(35,31,32);stroke-width:4px;"/>
        </g>
        <g transform="matrix(1,0,0,1,-377,0)">
            <path d="M1436.97,2383.23C1436.97,2393.65 1428.45,2402.17 1418.03,2402.17L283.035,2402.17C272.615,2402.17 264.097,2393.65 264.097,2383.23L264.097,1918.83C264.097,1908.41 272.615,1899.9 283.035,1899.9L1417.98,1899.9C1428.4,1899.9 1436.92,1908.41 1436.92,1918.83L1436.92,2383.23L1436.97,2383.23Z" style="fill:none;fill-rule:nonzero;stroke:rgb(35,31,32);stroke-width:4px;"/>
        </g>
        <g transform="matrix(1,0,0,1,-377,0)">
            <path d="M1413.23,2129.7L1427.5,2129.7C1432.73,2129.7 1436.97,2125.46 1436.97,2120.23L1436.97,1918.83C1436.97,1908.41 1428.45,1899.9 1418.03,1899.9L283.035,1899.9C272.615,1899.9 264.097,1908.41 264.097,1918.83L264.097,2120.23C264.097,2125.46 268.334,2129.7 273.566,2129.7L287.791,2129.7C299.551,2129.7 309.106,2139.25 309.106,2151.01C309.106,2162.77 299.551,2172.33 287.791,2172.33L273.566,2172.33C268.334,2172.33 264.097,2176.57 264.097,2181.8L264.097,2383.19C264.097,2393.61 272.615,2402.13 283.035,2402.13L1417.98,2402.13C1428.4,2402.13 1436.92,2393.61 1436.92,2383.19L1436.92,2181.8C1436.92,2176.57 1432.69,2172.33 1427.45,2172.33L1413.23,2172.33C1401.47,2172.33 1391.91,2162.77 1391.91,2151.01C1391.91,2139.25 1401.47,2129.7 1413.23,2129.7Z" style="fill:none;fill-rule:nonzero;stroke:rgb(35,31,32);stroke-width:4px;"/>
        </g>
        <g transform="matrix(1,0,0,1,-377,0)">
            <path d="M304.37,2152.38C305.021,2143.23 298.134,2135.29 288.987,2134.64C279.841,2133.99 271.899,2140.88 271.248,2150.02C270.597,2159.17 277.484,2167.11 286.631,2167.76C295.777,2168.41 303.719,2161.53 304.37,2152.38Z" style="fill:none;fill-rule:nonzero;stroke:rgb(35,31,32);stroke-width:4px;"/>
        </g>
        <g transform="matrix(1,0,0,1,-377,0)">
            <path d="M294.882,2146.95L287.791,2142.84L280.701,2146.95L280.701,2155.16L287.791,2159.23L294.882,2155.16L294.882,2146.95Z" style="fill:none;fill-rule:nonzero;stroke:rgb(35,31,32);stroke-width:4px;"/>
        </g>
        <g transform="matrix(1,0,0,1,-377,0)">
            <path d="M1413.27,2167.62C1422.44,2167.62 1429.87,2160.18 1429.87,2151.01C1429.87,2141.84 1422.44,2134.41 1413.27,2134.41C1404.1,2134.41 1396.67,2141.84 1396.67,2151.01C1396.67,2160.18 1404.1,2167.62 1413.27,2167.62Z" style="fill:none;fill-rule:nonzero;stroke:rgb(35,31,32);stroke-width:4px;"/>
        </g>
        <g transform="matrix(1,0,0,1,-377,0)">
            <path d="M1420.36,2146.95L1413.27,2142.84L1406.14,2146.95L1406.14,2155.16L1413.27,2159.23L1420.36,2155.16L1420.36,2146.95Z" style="fill:none;fill-rule:nonzero;stroke:rgb(35,31,32);stroke-width:4px;"/>
        </g>
        <g transform="matrix(1,0,0,1,-377,0)">
            <path d="M723.741,1918.84C721.104,1918.84 719.028,1920.95 719.028,1923.55L719.028,2025.41L746.051,2025.41L746.051,1954.33L738.009,1954.33C736.712,1954.33 735.631,1953.29 735.631,1951.95L735.631,1937.73C735.631,1936.43 736.669,1935.35 738.009,1935.35L752.234,1935.35C753.531,1935.35 754.612,1936.39 754.612,1937.73L754.612,1945.77L825.692,1945.77L825.692,1918.75L723.784,1918.75L723.741,1918.84Z" style="fill:none;fill-rule:nonzero;stroke:rgb(35,31,32);stroke-width:4px;"/>
        </g>
        <g transform="matrix(1,0,0,1,-377,0)">
            <path d="M1382.44,1923.59C1382.44,1920.96 1380.33,1918.88 1377.73,1918.88L1275.87,1918.88L1275.87,1945.9L1346.95,1945.9L1346.95,1937.86C1346.95,1936.56 1347.99,1935.48 1349.33,1935.48L1363.55,1935.48C1364.85,1935.48 1365.93,1936.52 1365.93,1937.86L1365.93,1952.09C1365.93,1953.38 1364.89,1954.46 1363.55,1954.46L1355.51,1954.46L1355.51,2025.54L1382.53,2025.54L1382.53,1923.64L1382.44,1923.59Z" style="fill:none;fill-rule:nonzero;stroke:rgb(35,31,32);stroke-width:4px;"/>
        </g>
        <g transform="matrix(1,0,0,1,-377,0)">
            <path d="M1377.73,2383.24C1380.37,2383.24 1382.45,2381.12 1382.45,2378.52L1382.45,2276.66L1355.42,2276.66L1355.42,2347.74L1363.46,2347.74C1364.76,2347.74 1365.84,2348.78 1365.84,2350.12L1365.84,2364.34C1365.84,2365.64 1364.8,2366.72 1363.46,2366.72L1349.24,2366.72C1347.94,2366.72 1346.86,2365.68 1346.86,2364.34L1346.86,2356.3L1275.78,2356.3L1275.78,2383.32L1377.69,2383.32L1377.73,2383.24Z" style="fill:none;fill-rule:nonzero;stroke:rgb(35,31,32);stroke-width:4px;"/>
        </g>
        <g transform="matrix(1,0,0,1,-377,0)">
            <path d="M719.028,2378.48C719.028,2381.12 721.147,2383.19 723.741,2383.19L825.606,2383.19L825.606,2356.17L754.525,2356.17L754.525,2364.21C754.525,2365.51 753.488,2366.59 752.147,2366.59L737.923,2366.59C736.625,2366.59 735.545,2365.55 735.545,2364.21L735.545,2349.99C735.545,2348.69 736.582,2347.61 737.923,2347.61L745.965,2347.61L745.965,2276.53L718.942,2276.53L718.942,2378.44L719.028,2378.48Z" style="fill:none;fill-rule:nonzero;stroke:rgb(35,31,32);stroke-width:4px;"/>
        </g>
        <g transform="matrix(1,0,0,1,-377,0)">
            <path d="M2214.14,2383.23C2214.14,2393.65 2205.62,2402.17 2195.2,2402.17L1460.66,2402.17C1450.24,2402.17 1441.72,2393.65 1441.72,2383.23L1441.72,1918.83C1441.72,1908.41 1450.24,1899.9 1460.66,1899.9L2195.2,1899.9C2205.62,1899.9 2214.14,1908.41 2214.14,1918.83L2214.14,2383.23Z" style="fill:none;fill-rule:nonzero;stroke:rgb(35,31,32);stroke-width:4px;"/>
        </g>
        <g transform="matrix(1,0,0,1,-377,0)">
            <path d="M2190.44,2129.7L2204.67,2129.7C2209.9,2129.7 2214.14,2125.46 2214.14,2120.23L2214.14,1918.83C2214.14,1908.41 2205.62,1899.9 2195.2,1899.9L1460.66,1899.9C1450.24,1899.9 1441.72,1908.41 1441.72,1918.83L1441.72,2120.23C1441.72,2125.46 1445.96,2129.7 1451.19,2129.7L1465.41,2129.7C1477.17,2129.7 1486.73,2139.25 1486.73,2151.01C1486.73,2162.77 1477.17,2172.33 1465.41,2172.33L1451.19,2172.33C1445.96,2172.33 1441.72,2176.57 1441.72,2181.8L1441.72,2383.19C1441.72,2393.61 1450.24,2402.13 1460.66,2402.13L2195.2,2402.13C2205.62,2402.13 2214.14,2393.61 2214.14,2383.19L2214.14,2181.8C2214.14,2176.57 2209.9,2172.33 2204.67,2172.33L2190.44,2172.33C2178.68,2172.33 2169.13,2162.77 2169.13,2151.01C2169.13,2139.25 2178.68,2129.7 2190.44,2129.7Z" style="fill:none;fill-rule:nonzero;stroke:rgb(35,31,32);stroke-width:4px;"/>
        </g>
        <g transform="matrix(1,0,0,1,-377,0)">
            <path d="M1465.42,2167.62C1474.58,2167.62 1482.02,2160.18 1482.02,2151.01C1482.02,2141.84 1474.58,2134.41 1465.42,2134.41C1456.25,2134.41 1448.81,2141.84 1448.81,2151.01C1448.81,2160.18 1456.25,2167.62 1465.42,2167.62Z" style="fill:none;fill-rule:nonzero;stroke:rgb(35,31,32);stroke-width:4px;"/>
        </g>
        <g transform="matrix(1,0,0,1,-377,0)">
            <path d="M1472.51,2146.95L1465.41,2142.84L1458.28,2146.95L1458.28,2155.16L1465.41,2159.23L1472.51,2155.16L1472.51,2146.95Z" style="fill:none;fill-rule:nonzero;stroke:rgb(35,31,32);stroke-width:4px;"/>
        </g>
        <g transform="matrix(1,0,0,1,-377,0)">
            <path d="M2190.44,2167.62C2199.61,2167.62 2207.05,2160.18 2207.05,2151.01C2207.05,2141.84 2199.61,2134.41 2190.44,2134.41C2181.27,2134.41 2173.84,2141.84 2173.84,2151.01C2173.84,2160.18 2181.27,2167.62 2190.44,2167.62Z" style="fill:none;fill-rule:nonzero;stroke:rgb(35,31,32);stroke-width:4px;"/>
        </g>
        <g transform="matrix(1,0,0,1,-377,0)">
            <path d="M2197.53,2146.95L2190.44,2142.84L2183.35,2146.95L2183.35,2155.16L2190.44,2159.23L2197.53,2155.16L2197.53,2146.95Z" style="fill:none;fill-rule:nonzero;stroke:rgb(35,31,32);stroke-width:4px;"/>
        </g>
        <g transform="matrix(1,0,0,1,-377,0)">
            <path d="M1500.96,1918.84C1498.32,1918.84 1496.24,1920.95 1496.24,1923.55L1496.24,2025.41L1523.27,2025.41L1523.27,1954.33L1515.22,1954.33C1513.93,1954.33 1512.85,1953.29 1512.85,1951.95L1512.85,1937.73C1512.85,1936.43 1513.88,1935.35 1515.22,1935.35L1529.45,1935.35C1530.75,1935.35 1531.83,1936.39 1531.83,1937.73L1531.83,1945.77L1602.91,1945.77L1602.91,1918.75L1501,1918.75L1500.96,1918.84Z" style="fill:none;fill-rule:nonzero;stroke:rgb(35,31,32);stroke-width:4px;"/>
        </g>
        <g transform="matrix(1,0,0,1,-377,0)">
            <path d="M2159.62,1923.59C2159.62,1920.96 2157.5,1918.88 2154.9,1918.88L2053.04,1918.88L2053.04,1945.9L2124.12,1945.9L2124.12,1937.86C2124.12,1936.56 2125.16,1935.48 2126.5,1935.48L2140.72,1935.48C2142.02,1935.48 2143.1,1936.52 2143.1,1937.86L2143.1,1952.09C2143.1,1953.38 2142.06,1954.46 2140.72,1954.46L2132.68,1954.46L2132.68,2025.54L2159.7,2025.54L2159.7,1923.64L2159.62,1923.59Z" style="fill:none;fill-rule:nonzero;stroke:rgb(35,31,32);stroke-width:4px;"/>
        </g>
        <g transform="matrix(1,0,0,1,-377,0)">
            <path d="M2154.9,2383.24C2157.54,2383.24 2159.62,2381.12 2159.62,2378.52L2159.62,2276.66L2132.59,2276.66L2132.59,2347.74L2140.64,2347.74C2141.93,2347.74 2143.01,2348.78 2143.01,2350.12L2143.01,2364.34C2143.01,2365.64 2141.98,2366.72 2140.64,2366.72L2126.41,2366.72C2125.11,2366.72 2124.03,2365.68 2124.03,2364.34L2124.03,2356.3L2052.95,2356.3L2052.95,2383.32L2154.86,2383.32L2154.9,2383.24Z" style="fill:none;fill-rule:nonzero;stroke:rgb(35,31,32);stroke-width:4px;"/>
        </g>
        <g transform="matrix(1,0,0,1,-377,0)">
            <path d="M1496.2,2378.48C1496.2,2381.12 1498.32,2383.19 1500.91,2383.19L1602.78,2383.19L1602.78,2356.17L1531.7,2356.17L1531.7,2364.21C1531.7,2365.51 1530.66,2366.59 1529.32,2366.59L1515.09,2366.59C1513.8,2366.59 1512.72,2365.55 1512.72,2364.21L1512.72,2349.99C1512.72,2348.69 1513.75,2347.61 1515.09,2347.61L1523.14,2347.61L1523.14,2276.53L1496.11,2276.53L1496.11,2378.44L1496.2,2378.48Z" style="fill:none;fill-rule:nonzero;stroke:rgb(35,31,32);stroke-width:4px;"/>
        </g>
        <g transform="matrix(1,0,0,1,-377,0)">
            <path d="M2991.41,2383.23C2991.41,2393.65 2982.9,2402.17 2972.48,2402.17L2237.94,2402.17C2227.52,2402.17 2219,2393.65 2219,2383.23L2219,1918.83C2219,1908.41 2227.52,1899.9 2237.94,1899.9L2972.48,1899.9C2982.9,1899.9 2991.41,1908.41 2991.41,1918.83L2991.41,2383.23Z" style="fill:none;fill-rule:nonzero;stroke:rgb(35,31,32);stroke-width:4px;"/>
        </g>
        <g transform="matrix(1,0,0,1,-377,0)">
            <path d="M2991.14,1918.73C2991.14,1908.31 2982.62,1899.79 2972.2,1899.79L2237.66,1899.79C2227.24,1899.79 2218.72,1908.31 2218.72,1918.73L2218.72,2120.12C2218.72,2125.36 2222.96,2129.59 2228.19,2129.59L2242.41,2129.59C2254.17,2129.59 2263.73,2139.15 2263.73,2150.91C2263.73,2162.67 2254.17,2172.22 2242.41,2172.22L2228.19,2172.22C2222.96,2172.22 2218.72,2176.46 2218.72,2181.69L2218.72,2383.09C2218.72,2393.51 2227.24,2402.02 2237.66,2402.02L2972.2,2402.02C2982.62,2402.02 2991.14,2393.51 2991.14,2383.09" style="fill:none;fill-rule:nonzero;stroke:rgb(35,31,32);stroke-width:4px;"/>
        </g>
        <g transform="matrix(1,0,0,1,-377,0)">
            <path d="M2242.69,2167.62C2251.86,2167.62 2259.3,2160.18 2259.3,2151.01C2259.3,2141.84 2251.86,2134.41 2242.69,2134.41C2233.52,2134.41 2226.09,2141.84 2226.09,2151.01C2226.09,2160.18 2233.52,2167.62 2242.69,2167.62Z" style="fill:none;fill-rule:nonzero;stroke:rgb(35,31,32);stroke-width:4px;"/>
        </g>
        <g transform="matrix(1,0,0,1,-377,0)">
            <path d="M2249.78,2146.95L2242.69,2142.84L2235.56,2146.95L2235.56,2155.16L2242.69,2159.23L2249.78,2155.16L2249.78,2146.95Z" style="fill:none;fill-rule:nonzero;stroke:rgb(35,31,32);stroke-width:4px;"/>
        </g>
        <g transform="matrix(1,0,0,1,-377,0)">
            <path d="M2278.23,1918.84C2275.6,1918.84 2273.52,1920.95 2273.52,1923.55L2273.52,2025.41L2300.54,2025.41L2300.54,1954.33L2292.5,1954.33C2291.21,1954.33 2290.12,1953.29 2290.12,1951.95L2290.12,1937.73C2290.12,1936.43 2291.16,1935.35 2292.5,1935.35L2306.73,1935.35C2308.02,1935.35 2309.1,1936.39 2309.1,1937.73L2309.1,1945.77L2380.19,1945.77L2380.19,1918.75L2278.28,1918.75L2278.23,1918.84Z" style="fill:none;fill-rule:nonzero;stroke:rgb(35,31,32);stroke-width:4px;"/>
        </g>
        <g transform="matrix(1,0,0,1,-377,0)">
            <path d="M2936.89,1923.59C2936.89,1920.96 2934.78,1918.88 2932.18,1918.88L2830.32,1918.88L2830.32,1945.9L2901.4,1945.9L2901.4,1937.86C2901.4,1936.56 2902.44,1935.48 2903.78,1935.48L2918,1935.48C2919.3,1935.48 2920.38,1936.52 2920.38,1937.86L2920.38,1952.09C2920.38,1953.38 2919.34,1954.46 2918,1954.46L2909.96,1954.46L2909.96,2025.54L2936.98,2025.54L2936.98,1923.64L2936.89,1923.59Z" style="fill:none;fill-rule:nonzero;stroke:rgb(35,31,32);stroke-width:4px;"/>
        </g>
        <g transform="matrix(1,0,0,1,-377,0)">
            <path d="M2932.18,2383.24C2934.82,2383.24 2936.89,2381.12 2936.89,2378.52L2936.89,2276.66L2909.87,2276.66L2909.87,2347.74L2917.91,2347.74C2919.21,2347.74 2920.29,2348.78 2920.29,2350.12L2920.29,2364.34C2920.29,2365.64 2919.25,2366.72 2917.91,2366.72L2903.69,2366.72C2902.39,2366.72 2901.31,2365.68 2901.31,2364.34L2901.31,2356.3L2830.23,2356.3L2830.23,2383.32L2932.14,2383.32L2932.18,2383.24Z" style="fill:none;fill-rule:nonzero;stroke:rgb(35,31,32);stroke-width:4px;"/>
        </g>
        <g transform="matrix(1,0,0,1,-377,0)">
            <path d="M2273.48,2378.48C2273.48,2381.12 2275.6,2383.19 2278.19,2383.19L2380.06,2383.19L2380.06,2356.17L2308.98,2356.17L2308.98,2364.21C2308.98,2365.51 2307.94,2366.59 2306.6,2366.59L2292.37,2366.59C2291.08,2366.59 2289.99,2365.55 2289.99,2364.21L2289.99,2349.99C2289.99,2348.69 2291.03,2347.61 2292.37,2347.61L2300.41,2347.61L2300.41,2276.53L2273.39,2276.53L2273.39,2378.44L2273.48,2378.48Z" style="fill:none;fill-rule:nonzero;stroke:rgb(35,31,32);stroke-width:4px;"/>
        </g>
        <g transform="matrix(1,0,0,1,-377,0)">
            <path d="M3768.41,2383.23C3768.41,2393.65 3759.9,2402.17 3749.48,2402.17L3014.94,2402.17C3004.52,2402.17 2996,2393.65 2996,2383.23L2996,1918.83C2996,1908.41 3004.52,1899.9 3014.94,1899.9L3749.48,1899.9C3759.9,1899.9 3768.41,1908.41 3768.41,1918.83L3768.41,2383.23Z" style="fill:none;fill-rule:nonzero;stroke:rgb(35,31,32);stroke-width:4px;"/>
        </g>
        <g transform="matrix(1,0,0,1,-377,0)">
            <path d="M3391.6,2167.62C3400.77,2167.62 3408.21,2160.18 3408.21,2151.01C3408.21,2141.84 3400.77,2134.41 3391.6,2134.41C3382.43,2134.41 3375,2141.84 3375,2151.01C3375,2160.18 3382.43,2167.62 3391.6,2167.62Z" style="fill:none;fill-rule:nonzero;stroke:rgb(35,31,32);stroke-width:4px;"/>
        </g>
        <g transform="matrix(1,0,0,1,-377,0)">
            <path d="M3398.69,2146.95L3391.6,2142.84L3384.47,2146.95L3384.47,2155.16L3391.6,2159.23L3398.69,2155.16L3398.69,2146.95Z" style="fill:none;fill-rule:nonzero;stroke:rgb(35,31,32);stroke-width:4px;"/>
        </g>
        <g transform="matrix(1,0,0,1,-377,0)">
            <path d="M3055.23,1918.84C3052.6,1918.84 3050.52,1920.95 3050.52,1923.55L3050.52,2025.41L3077.54,2025.41L3077.54,1954.33L3069.5,1954.33C3068.21,1954.33 3067.12,1953.29 3067.12,1951.95L3067.12,1937.73C3067.12,1936.43 3068.16,1935.35 3069.5,1935.35L3083.73,1935.35C3085.02,1935.35 3086.1,1936.39 3086.1,1937.73L3086.1,1945.77L3157.19,1945.77L3157.19,1918.75L3055.28,1918.75L3055.23,1918.84Z" style="fill:none;fill-rule:nonzero;stroke:rgb(35,31,32);stroke-width:4px;"/>
        </g>
        <g transform="matrix(1,0,0,1,-377,0)">
            <path d="M3713.89,1923.59C3713.89,1920.96 3711.78,1918.88 3709.18,1918.88L3607.32,1918.88L3607.32,1945.9L3678.4,1945.9L3678.4,1937.86C3678.4,1936.56 3679.44,1935.48 3680.78,1935.48L3695,1935.48C3696.3,1935.48 3697.38,1936.52 3697.38,1937.86L3697.38,1952.09C3697.38,1953.38 3696.34,1954.46 3695,1954.46L3686.96,1954.46L3686.96,2025.54L3713.98,2025.54L3713.98,1923.64L3713.89,1923.59Z" style="fill:none;fill-rule:nonzero;stroke:rgb(35,31,32);stroke-width:4px;"/>
        </g>
        <g transform="matrix(1,0,0,1,-377,0)">
            <path d="M3709.18,2383.24C3711.82,2383.24 3713.89,2381.12 3713.89,2378.52L3713.89,2276.66L3686.87,2276.66L3686.87,2347.74L3694.91,2347.74C3696.21,2347.74 3697.29,2348.78 3697.29,2350.12L3697.29,2364.34C3697.29,2365.64 3696.25,2366.72 3694.91,2366.72L3680.69,2366.72C3679.39,2366.72 3678.31,2365.68 3678.31,2364.34L3678.31,2356.3L3607.23,2356.3L3607.23,2383.32L3709.14,2383.32L3709.18,2383.24Z" style="fill:none;fill-rule:nonzero;stroke:rgb(35,31,32);stroke-width:4px;"/>
        </g>
        <g transform="matrix(1,0,0,1,-377,0)">
            <path d="M3050.48,2378.48C3050.48,2381.12 3052.6,2383.19 3055.19,2383.19L3157.06,2383.19L3157.06,2356.17L3085.98,2356.17L3085.98,2364.21C3085.98,2365.51 3084.94,2366.59 3083.6,2366.59L3069.37,2366.59C3068.08,2366.59 3066.99,2365.55 3066.99,2364.21L3066.99,2349.99C3066.99,2348.69 3068.03,2347.61 3069.37,2347.61L3077.41,2347.61L3077.41,2276.53L3050.39,2276.53L3050.39,2378.44L3050.48,2378.48Z" style="fill:none;fill-rule:nonzero;stroke:rgb(35,31,32);stroke-width:4px;"/>
        </g>
        <g transform="matrix(1,0,0,1,-377,0)">
            <path d="M1436.97,1876.16C1436.97,1886.58 1428.45,1895.1 1418.03,1895.1L283.035,1895.1C272.615,1895.1 264.097,1886.58 264.097,1876.16L264.097,1411.76C264.097,1401.34 272.615,1392.82 283.035,1392.82L1417.98,1392.82C1428.4,1392.82 1436.92,1401.34 1436.92,1411.76L1436.92,1876.16L1436.97,1876.16Z" style="fill:none;fill-rule:nonzero;stroke:rgb(35,31,32);stroke-width:4px;"/>
        </g>
        <g transform="matrix(1,0,0,1,-377,0)">
            <path d="M1413.23,1622.66L1427.5,1622.66C1432.73,1622.66 1436.97,1618.43 1436.97,1613.19L1436.97,1411.8C1436.97,1401.38 1428.45,1392.86 1418.03,1392.86L283.035,1392.86C272.615,1392.86 264.097,1401.38 264.097,1411.8L264.097,1613.19C264.097,1618.43 268.334,1622.66 273.566,1622.66L287.791,1622.66C299.551,1622.66 309.106,1632.22 309.106,1643.98C309.106,1655.74 299.551,1665.29 287.791,1665.29L273.566,1665.29C268.334,1665.29 264.097,1669.53 264.097,1674.76L264.097,1876.16C264.097,1886.58 272.615,1895.09 283.035,1895.09L1417.98,1895.09C1428.4,1895.09 1436.92,1886.58 1436.92,1876.16L1436.92,1674.76C1436.92,1669.53 1432.69,1665.29 1427.45,1665.29L1413.23,1665.29C1401.47,1665.29 1391.91,1655.74 1391.91,1643.98C1391.91,1632.17 1401.47,1622.66 1413.23,1622.66Z" style="fill:none;fill-rule:nonzero;stroke:rgb(35,31,32);stroke-width:4px;"/>
        </g>
        <g transform="matrix(1,0,0,1,-377,0)">
            <path d="M304.395,1645.29C305.046,1636.15 298.159,1628.2 289.012,1627.55C279.866,1626.9 271.924,1633.79 271.273,1642.94C270.622,1652.08 277.509,1660.02 286.656,1660.67C295.802,1661.33 303.744,1654.44 304.395,1645.29Z" style="fill:none;fill-rule:nonzero;stroke:rgb(35,31,32);stroke-width:4px;"/>
        </g>
        <g transform="matrix(1,0,0,1,-377,0)">
            <path d="M294.882,1639.87L287.791,1635.77L280.7,1639.87L280.7,1648.09L287.791,1652.2L294.882,1648.09L294.882,1639.87Z" style="fill:none;fill-rule:nonzero;stroke:rgb(35,31,32);stroke-width:4px;"/>
        </g>
        <g transform="matrix(1,0,0,1,-377,0)">
            <path d="M1413.27,1660.58C1422.44,1660.58 1429.87,1653.15 1429.87,1643.98C1429.87,1634.81 1422.44,1627.38 1413.27,1627.38C1404.1,1627.38 1396.67,1634.81 1396.67,1643.98C1396.67,1653.15 1404.1,1660.58 1413.27,1660.58Z" style="fill:none;fill-rule:nonzero;stroke:rgb(35,31,32);stroke-width:4px;"/>
        </g>
        <g transform="matrix(1,0,0,1,-377,0)">
            <path d="M1420.36,1639.88L1413.27,1635.77L1406.14,1639.88L1406.14,1648.09L1413.27,1652.2L1420.36,1648.09L1420.36,1639.88Z" style="fill:none;fill-rule:nonzero;stroke:rgb(35,31,32);stroke-width:4px;"/>
        </g>
        <g transform="matrix(1,0,0,1,-377,0)">
            <path d="M723.741,1411.76C721.104,1411.76 719.028,1413.88 719.028,1416.47L719.028,1518.34L746.051,1518.34L746.051,1447.26L738.009,1447.26C736.712,1447.26 735.631,1446.22 735.631,1444.88L735.631,1430.65C735.631,1429.36 736.669,1428.28 738.009,1428.28L752.234,1428.28C753.531,1428.28 754.612,1429.31 754.612,1430.65L754.612,1438.7L825.692,1438.7L825.692,1411.67L723.784,1411.67L723.741,1411.76Z" style="fill:none;fill-rule:nonzero;stroke:rgb(35,31,32);stroke-width:4px;"/>
        </g>
        <g transform="matrix(1,0,0,1,-377,0)">
            <path d="M1382.44,1416.52C1382.44,1413.88 1380.33,1411.8 1377.73,1411.8L1275.87,1411.8L1275.87,1438.83L1346.95,1438.83L1346.95,1430.78C1346.95,1429.49 1347.99,1428.41 1349.33,1428.41L1363.55,1428.41C1364.85,1428.41 1365.93,1429.44 1365.93,1430.78L1365.93,1445.01C1365.93,1446.31 1364.89,1447.39 1363.55,1447.39L1355.51,1447.39L1355.51,1518.47L1382.53,1518.47L1382.53,1416.56L1382.44,1416.52Z" style="fill:none;fill-rule:nonzero;stroke:rgb(35,31,32);stroke-width:4px;"/>
        </g>
        <g transform="matrix(1,0,0,1,-377,0)">
            <path d="M1377.73,1876.16C1380.37,1876.16 1382.45,1874.04 1382.45,1871.45L1382.45,1769.58L1355.42,1769.58L1355.42,1840.66L1363.46,1840.66C1364.76,1840.66 1365.84,1841.7 1365.84,1843.04L1365.84,1857.27C1365.84,1858.56 1364.8,1859.64 1363.46,1859.64L1349.24,1859.64C1347.94,1859.64 1346.86,1858.61 1346.86,1857.27L1346.86,1849.22L1275.78,1849.22L1275.78,1876.25L1377.69,1876.25L1377.73,1876.16Z" style="fill:none;fill-rule:nonzero;stroke:rgb(35,31,32);stroke-width:4px;"/>
        </g>
        <g transform="matrix(1,0,0,1,-377,0)">
            <path d="M719.028,1871.45C719.028,1874.08 721.147,1876.16 723.741,1876.16L825.606,1876.16L825.606,1849.14L754.525,1849.14L754.525,1857.18C754.525,1858.48 753.488,1859.56 752.147,1859.56L737.923,1859.56C736.625,1859.56 735.545,1858.52 735.545,1857.18L735.545,1842.95C735.545,1841.66 736.582,1840.58 737.923,1840.58L745.965,1840.58L745.965,1769.5L718.942,1769.5L718.942,1871.4L719.028,1871.45Z" style="fill:none;fill-rule:nonzero;stroke:rgb(35,31,32);stroke-width:4px;"/>
        </g>
        <g transform="matrix(1,0,0,1,-377,0)">
            <path d="M2214.14,1876.16C2214.14,1886.58 2205.62,1895.1 2195.2,1895.1L1460.66,1895.1C1450.24,1895.1 1441.72,1886.58 1441.72,1876.16L1441.72,1411.76C1441.72,1401.34 1450.24,1392.82 1460.66,1392.82L2195.2,1392.82C2205.62,1392.82 2214.14,1401.34 2214.14,1411.76L2214.14,1876.16Z" style="fill:none;fill-rule:nonzero;stroke:rgb(35,31,32);stroke-width:4px;"/>
        </g>
        <g transform="matrix(1,0,0,1,-377,0)">
            <path d="M2190.44,1622.66L2204.67,1622.66C2209.9,1622.66 2214.14,1618.43 2214.14,1613.19L2214.14,1411.8C2214.14,1401.38 2205.62,1392.86 2195.2,1392.86L1460.66,1392.86C1450.24,1392.86 1441.72,1401.38 1441.72,1411.8L1441.72,1613.19C1441.72,1618.43 1445.96,1622.66 1451.19,1622.66L1465.41,1622.66C1477.17,1622.66 1486.73,1632.22 1486.73,1643.98C1486.73,1655.74 1477.17,1665.29 1465.41,1665.29L1451.19,1665.29C1445.96,1665.29 1441.72,1669.53 1441.72,1674.76L1441.72,1876.16C1441.72,1886.58 1450.24,1895.09 1460.66,1895.09L2195.2,1895.09C2205.62,1895.09 2214.14,1886.58 2214.14,1876.16L2214.14,1674.76C2214.14,1669.53 2209.9,1665.29 2204.67,1665.29L2190.44,1665.29C2178.68,1665.29 2169.13,1655.74 2169.13,1643.98C2169.13,1632.17 2178.68,1622.66 2190.44,1622.66Z" style="fill:none;fill-rule:nonzero;stroke:rgb(35,31,32);stroke-width:4px;"/>
        </g>
        <g transform="matrix(1,0,0,1,-377,0)">
            <path d="M1465.42,1660.58C1474.58,1660.58 1482.02,1653.15 1482.02,1643.98C1482.02,1634.81 1474.58,1627.38 1465.42,1627.38C1456.25,1627.38 1448.81,1634.81 1448.81,1643.98C1448.81,1653.15 1456.25,1660.58 1465.42,1660.58Z" style="fill:none;fill-rule:nonzero;stroke:rgb(35,31,32);stroke-width:4px;"/>
        </g>
        <g transform="matrix(1,0,0,1,-377,0)">
            <path d="M1472.51,1639.87L1465.41,1635.77L1458.28,1639.87L1458.28,1648.09L1465.41,1652.2L1472.51,1648.09L1472.51,1639.87Z" style="fill:none;fill-rule:nonzero;stroke:rgb(35,31,32);stroke-width:4px;"/>
        </g>
        <g transform="matrix(1,0,0,1,-377,0)">
            <path d="M2190.44,1660.58C2199.61,1660.58 2207.05,1653.15 2207.05,1643.98C2207.05,1634.81 2199.61,1627.38 2190.44,1627.38C2181.27,1627.38 2173.84,1634.81 2173.84,1643.98C2173.84,1653.15 2181.27,1660.58 2190.44,1660.58Z" style="fill:none;fill-rule:nonzero;stroke:rgb(35,31,32);stroke-width:4px;"/>
        </g>
        <g transform="matrix(1,0,0,1,-377,0)">
            <path d="M2197.53,1639.88L2190.44,1635.77L2183.35,1639.88L2183.35,1648.09L2190.44,1652.2L2197.53,1648.09L2197.53,1639.88Z" style="fill:none;fill-rule:nonzero;stroke:rgb(35,31,32);stroke-width:4px;"/>
        </g>
        <g transform="matrix(1,0,0,1,-377,0)">
            <path d="M1500.96,1411.76C1498.32,1411.76 1496.24,1413.88 1496.24,1416.47L1496.24,1518.34L1523.27,1518.34L1523.27,1447.26L1515.22,1447.26C1513.93,1447.26 1512.85,1446.22 1512.85,1444.88L1512.85,1430.65C1512.85,1429.36 1513.88,1428.28 1515.22,1428.28L1529.45,1428.28C1530.75,1428.28 1531.83,1429.31 1531.83,1430.65L1531.83,1438.7L1602.91,1438.7L1602.91,1411.67L1501,1411.67L1500.96,1411.76Z" style="fill:none;fill-rule:nonzero;stroke:rgb(35,31,32);stroke-width:4px;"/>
        </g>
        <g transform="matrix(1,0,0,1,-377,0)">
            <path d="M2159.62,1416.52C2159.62,1413.88 2157.5,1411.8 2154.9,1411.8L2053.04,1411.8L2053.04,1438.83L2124.12,1438.83L2124.12,1430.78C2124.12,1429.49 2125.16,1428.41 2126.5,1428.41L2140.72,1428.41C2142.02,1428.41 2143.1,1429.44 2143.1,1430.78L2143.1,1445.01C2143.1,1446.31 2142.06,1447.39 2140.72,1447.39L2132.68,1447.39L2132.68,1518.47L2159.7,1518.47L2159.7,1416.56L2159.62,1416.52Z" style="fill:none;fill-rule:nonzero;stroke:rgb(35,31,32);stroke-width:4px;"/>
        </g>
        <g transform="matrix(1,0,0,1,-377,0)">
            <path d="M2154.9,1876.16C2157.54,1876.16 2159.62,1874.04 2159.62,1871.45L2159.62,1769.58L2132.59,1769.58L2132.59,1840.66L2140.64,1840.66C2141.93,1840.66 2143.01,1841.7 2143.01,1843.04L2143.01,1857.27C2143.01,1858.56 2141.98,1859.64 2140.64,1859.64L2126.41,1859.64C2125.11,1859.64 2124.03,1858.61 2124.03,1857.27L2124.03,1849.22L2052.95,1849.22L2052.95,1876.25L2154.86,1876.25L2154.9,1876.16Z" style="fill:none;fill-rule:nonzero;stroke:rgb(35,31,32);stroke-width:4px;"/>
        </g>
        <g transform="matrix(1,0,0,1,-377,0)">
            <path d="M1496.2,1871.45C1496.2,1874.08 1498.32,1876.16 1500.91,1876.16L1602.78,1876.16L1602.78,1849.14L1531.7,1849.14L1531.7,1857.18C1531.7,1858.48 1530.66,1859.56 1529.32,1859.56L1515.09,1859.56C1513.8,1859.56 1512.72,1858.52 1512.72,1857.18L1512.72,1842.95C1512.72,1841.66 1513.75,1840.58 1515.09,1840.58L1523.14,1840.58L1523.14,1769.5L1496.11,1769.5L1496.11,1871.4L1496.2,1871.45Z" style="fill:none;fill-rule:nonzero;stroke:rgb(35,31,32);stroke-width:4px;"/>
        </g>
        <g transform="matrix(1,0,0,1,-377,0)">
            <path d="M2991.41,1876.16C2991.41,1886.58 2982.9,1895.1 2972.48,1895.1L2237.94,1895.1C2227.52,1895.1 2219,1886.58 2219,1876.16L2219,1411.76C2219,1401.34 2227.52,1392.82 2237.94,1392.82L2972.48,1392.82C2982.9,1392.82 2991.41,1401.34 2991.41,1411.76L2991.41,1876.16Z" style="fill:none;fill-rule:nonzero;stroke:rgb(35,31,32);stroke-width:4px;"/>
        </g>
        <g transform="matrix(1,0,0,1,-377,0)">
            <path d="M2991.14,1411.73C2991.14,1401.31 2982.62,1392.79 2972.2,1392.79L2237.66,1392.79C2227.24,1392.79 2218.72,1401.31 2218.72,1411.73L2218.72,1613.12C2218.72,1618.36 2222.96,1622.59 2228.19,1622.59L2242.41,1622.59C2254.17,1622.59 2263.73,1632.15 2263.73,1643.91C2263.73,1655.67 2254.17,1665.22 2242.41,1665.22L2228.19,1665.22C2222.96,1665.22 2218.72,1669.46 2218.72,1674.69L2218.72,1876.09C2218.72,1886.51 2227.24,1895.02 2237.66,1895.02L2972.2,1895.02C2982.62,1895.02 2991.14,1886.51 2991.14,1876.09" style="fill:none;fill-rule:nonzero;stroke:rgb(35,31,32);stroke-width:4px;"/>
        </g>
        <g transform="matrix(1,0,0,1,-377,0)">
            <path d="M2242.69,1660.58C2251.86,1660.58 2259.3,1653.15 2259.3,1643.98C2259.3,1634.81 2251.86,1627.38 2242.69,1627.38C2233.52,1627.38 2226.09,1634.81 2226.09,1643.98C2226.09,1653.15 2233.52,1660.58 2242.69,1660.58Z" style="fill:none;fill-rule:nonzero;stroke:rgb(35,31,32);stroke-width:4px;"/>
        </g>
        <g transform="matrix(1,0,0,1,-377,0)">
            <path d="M2249.78,1639.87L2242.69,1635.77L2235.56,1639.87L2235.56,1648.09L2242.69,1652.2L2249.78,1648.09L2249.78,1639.87Z" style="fill:none;fill-rule:nonzero;stroke:rgb(35,31,32);stroke-width:4px;"/>
        </g>
        <g transform="matrix(1,0,0,1,-377,0)">
            <path d="M2278.23,1411.76C2275.6,1411.76 2273.52,1413.88 2273.52,1416.47L2273.52,1518.34L2300.54,1518.34L2300.54,1447.26L2292.5,1447.26C2291.21,1447.26 2290.12,1446.22 2290.12,1444.88L2290.12,1430.65C2290.12,1429.36 2291.16,1428.28 2292.5,1428.28L2306.73,1428.28C2308.02,1428.28 2309.1,1429.31 2309.1,1430.65L2309.1,1438.7L2380.19,1438.7L2380.19,1411.67L2278.28,1411.67L2278.23,1411.76Z" style="fill:none;fill-rule:nonzero;stroke:rgb(35,31,32);stroke-width:4px;"/>
        </g>
        <g transform="matrix(1,0,0,1,-377,0)">
            <path d="M2936.89,1416.52C2936.89,1413.88 2934.78,1411.8 2932.18,1411.8L2830.32,1411.8L2830.32,1438.83L2901.4,1438.83L2901.4,1430.78C2901.4,1429.49 2902.44,1428.41 2903.78,1428.41L2918,1428.41C2919.3,1428.41 2920.38,1429.44 2920.38,1430.78L2920.38,1445.01C2920.38,1446.31 2919.34,1447.39 2918,1447.39L2909.96,1447.39L2909.96,1518.47L2936.98,1518.47L2936.98,1416.56L2936.89,1416.52Z" style="fill:none;fill-rule:nonzero;stroke:rgb(35,31,32);stroke-width:4px;"/>
        </g>
        <g transform="matrix(1,0,0,1,-377,0)">
            <path d="M2932.18,1876.16C2934.82,1876.16 2936.89,1874.04 2936.89,1871.45L2936.89,1769.58L2909.87,1769.58L2909.87,1840.66L2917.91,1840.66C2919.21,1840.66 2920.29,1841.7 2920.29,1843.04L2920.29,1857.27C2920.29,1858.56 2919.25,1859.64 2917.91,1859.64L2903.69,1859.64C2902.39,1859.64 2901.31,1858.61 2901.31,1857.27L2901.31,1849.22L2830.23,1849.22L2830.23,1876.25L2932.14,1876.25L2932.18,1876.16Z" style="fill:none;fill-rule:nonzero;stroke:rgb(35,31,32);stroke-width:4px;"/>
        </g>
        <g transform="matrix(1,0,0,1,-377,0)">
            <path d="M2273.48,1871.45C2273.48,1874.08 2275.6,1876.16 2278.19,1876.16L2380.06,1876.16L2380.06,1849.14L2308.98,1849.14L2308.98,1857.18C2308.98,1858.48 2307.94,1859.56 2306.6,1859.56L2292.37,1859.56C2291.08,1859.56 2289.99,1858.52 2289.99,1857.18L2289.99,1842.95C2289.99,1841.66 2291.03,1840.58 2292.37,1840.58L2300.41,1840.58L2300.41,1769.5L2273.39,1769.5L2273.39,1871.4L2273.48,1871.45Z" style="fill:none;fill-rule:nonzero;stroke:rgb(35,31,32);stroke-width:4px;"/>
        </g>
        <g transform="matrix(1,0,0,1,-377,0)">
            <path d="M3768.41,1876.16C3768.41,1886.58 3759.9,1895.1 3749.48,1895.1L3014.94,1895.1C3004.52,1895.1 2996,1886.58 2996,1876.16L2996,1411.76C2996,1401.34 3004.52,1392.82 3014.94,1392.82L3749.48,1392.82C3759.9,1392.82 3768.41,1401.34 3768.41,1411.76L3768.41,1876.16Z" style="fill:none;fill-rule:nonzero;stroke:rgb(35,31,32);stroke-width:4px;"/>
        </g>
        <g transform="matrix(1,0,0,1,-377,0)">
            <path d="M3391.6,1660.58C3400.77,1660.58 3408.21,1653.15 3408.21,1643.98C3408.21,1634.81 3400.77,1627.38 3391.6,1627.38C3382.43,1627.38 3375,1634.81 3375,1643.98C3375,1653.15 3382.43,1660.58 3391.6,1660.58Z" style="fill:none;fill-rule:nonzero;stroke:rgb(35,31,32);stroke-width:4px;"/>
        </g>
        <g transform="matrix(1,0,0,1,-377,0)">
            <path d="M3398.69,1639.87L3391.6,1635.77L3384.47,1639.87L3384.47,1648.09L3391.6,1652.2L3398.69,1648.09L3398.69,1639.87Z" style="fill:none;fill-rule:nonzero;stroke:rgb(35,31,32);stroke-width:4px;"/>
        </g>
        <g transform="matrix(1,0,0,1,-377,0)">
            <path d="M3055.23,1411.76C3052.6,1411.76 3050.52,1413.88 3050.52,1416.47L3050.52,1518.34L3077.54,1518.34L3077.54,1447.26L3069.5,1447.26C3068.21,1447.26 3067.12,1446.22 3067.12,1444.88L3067.12,1430.65C3067.12,1429.36 3068.16,1428.28 3069.5,1428.28L3083.73,1428.28C3085.02,1428.28 3086.1,1429.31 3086.1,1430.65L3086.1,1438.7L3157.19,1438.7L3157.19,1411.67L3055.28,1411.67L3055.23,1411.76Z" style="fill:none;fill-rule:nonzero;stroke:rgb(35,31,32);stroke-width:4px;"/>
        </g>
        <g transform="matrix(1,0,0,1,-377,0)">
            <path d="M3713.89,1416.52C3713.89,1413.88 3711.78,1411.8 3709.18,1411.8L3607.32,1411.8L3607.32,1438.83L3678.4,1438.83L3678.4,1430.78C3678.4,1429.49 3679.44,1428.41 3680.78,1428.41L3695,1428.41C3696.3,1428.41 3697.38,1429.44 3697.38,1430.78L3697.38,1445.01C3697.38,1446.31 3696.34,1447.39 3695,1447.39L3686.96,1447.39L3686.96,1518.47L3713.98,1518.47L3713.98,1416.56L3713.89,1416.52Z" style="fill:none;fill-rule:nonzero;stroke:rgb(35,31,32);stroke-width:4px;"/>
        </g>
        <g transform="matrix(1,0,0,1,-377,0)">
            <path d="M3709.18,1876.16C3711.82,1876.16 3713.89,1874.04 3713.89,1871.45L3713.89,1769.58L3686.87,1769.58L3686.87,1840.66L3694.91,1840.66C3696.21,1840.66 3697.29,1841.7 3697.29,1843.04L3697.29,1857.27C3697.29,1858.56 3696.25,1859.64 3694.91,1859.64L3680.69,1859.64C3679.39,1859.64 3678.31,1858.61 3678.31,1857.27L3678.31,1849.22L3607.23,1849.22L3607.23,1876.25L3709.14,1876.25L3709.18,1876.16Z" style="fill:none;fill-rule:nonzero;stroke:rgb(35,31,32);stroke-width:4px;"/>
        </g>
        <g transform="matrix(1,0,0,1,-377,0)">
            <path d="M3050.48,1871.45C3050.48,1874.08 3052.6,1876.16 3055.19,1876.16L3157.06,1876.16L3157.06,1849.14L3085.98,1849.14L3085.98,1857.18C3085.98,1858.48 3084.94,1859.56 3083.6,1859.56L3069.37,1859.56C3068.08,1859.56 3066.99,1858.52 3066.99,1857.18L3066.99,1842.95C3066.99,1841.66 3068.03,1840.58 3069.37,1840.58L3077.41,1840.58L3077.41,1769.5L3050.39,1769.5L3050.39,1871.4L3050.48,1871.45Z" style="fill:none;fill-rule:nonzero;stroke:rgb(35,31,32);stroke-width:4px;"/>
        </g>
        <g transform="matrix(1,0,0,1,-377,0)">
            <path d="M1436.97,1369.13C1436.97,1379.55 1428.45,1388.07 1418.03,1388.07L283.035,1388.07C272.615,1388.07 264.097,1379.55 264.097,1369.13L264.097,904.729C264.097,894.31 272.615,885.792 283.035,885.792L1417.98,885.792C1428.4,885.792 1436.92,894.31 1436.92,904.729L1436.92,1369.13L1436.97,1369.13Z" style="fill:none;fill-rule:nonzero;stroke:rgb(35,31,32);stroke-width:4px;"/>
        </g>
        <g transform="matrix(1,0,0,1,-377,0)">
            <path d="M1413.23,1115.59L1427.5,1115.59C1432.73,1115.59 1436.97,1111.36 1436.97,1106.12L1436.97,904.729C1436.97,894.31 1428.45,885.792 1418.03,885.792L283.035,885.792C272.615,885.792 264.097,894.31 264.097,904.729L264.097,1106.12C264.097,1111.36 268.334,1115.59 273.566,1115.59L287.791,1115.59C299.551,1115.59 309.106,1125.15 309.106,1136.91C309.106,1148.67 299.551,1158.22 287.791,1158.22L273.566,1158.22C268.334,1158.22 264.097,1162.46 264.097,1167.69L264.097,1369.09C264.097,1379.51 272.615,1388.02 283.035,1388.02L1417.98,1388.02C1428.4,1388.02 1436.92,1379.51 1436.92,1369.09L1436.92,1167.69C1436.92,1162.46 1432.69,1158.22 1427.45,1158.22L1413.23,1158.22C1401.47,1158.22 1391.91,1148.67 1391.91,1136.91C1391.91,1125.1 1401.47,1115.59 1413.23,1115.59Z" style="fill:none;fill-rule:nonzero;stroke:rgb(35,31,32);stroke-width:4px;"/>
        </g>
        <g transform="matrix(1,0,0,1,-377,0)">
            <path d="M304.376,1138.2C305.027,1129.05 298.14,1121.11 288.994,1120.46C279.847,1119.81 271.905,1126.7 271.255,1135.84C270.604,1144.99 277.491,1152.93 286.637,1153.58C295.783,1154.23 303.725,1147.35 304.376,1138.2Z" style="fill:none;fill-rule:nonzero;stroke:rgb(35,31,32);stroke-width:4px;"/>
        </g>
        <g transform="matrix(1,0,0,1,-377,0)">
            <path d="M294.881,1132.8L287.79,1128.69L280.699,1132.8L280.699,1141.01L287.79,1145.12L294.881,1141.01L294.881,1132.8Z" style="fill:none;fill-rule:nonzero;stroke:rgb(35,31,32);stroke-width:4px;"/>
        </g>
        <g transform="matrix(1,0,0,1,-377,0)">
            <path d="M1413.27,1153.51C1422.44,1153.51 1429.87,1146.08 1429.87,1136.91C1429.87,1127.74 1422.44,1120.31 1413.27,1120.31C1404.1,1120.31 1396.67,1127.74 1396.67,1136.91C1396.67,1146.08 1404.1,1153.51 1413.27,1153.51Z" style="fill:none;fill-rule:nonzero;stroke:rgb(35,31,32);stroke-width:4px;"/>
        </g>
        <g transform="matrix(1,0,0,1,-377,0)">
            <path d="M1420.36,1132.8L1413.27,1128.7L1406.14,1132.8L1406.14,1141.02L1413.27,1145.13L1420.36,1141.02L1420.36,1132.8Z" style="fill:none;fill-rule:nonzero;stroke:rgb(35,31,32);stroke-width:4px;"/>
        </g>
        <g transform="matrix(1,0,0,1,-377,0)">
            <path d="M723.741,904.731C721.104,904.731 719.028,906.85 719.028,909.444L719.028,1011.31L746.051,1011.31L746.051,940.228L738.009,940.228C736.712,940.228 735.631,939.19 735.631,937.85L735.631,923.625C735.631,922.328 736.669,921.247 738.009,921.247L752.234,921.247C753.531,921.247 754.612,922.285 754.612,923.625L754.612,931.667L825.692,931.667L825.692,904.645L723.784,904.645L723.741,904.731Z" style="fill:none;fill-rule:nonzero;stroke:rgb(35,31,32);stroke-width:4px;"/>
        </g>
        <g transform="matrix(1,0,0,1,-377,0)">
            <path d="M1382.44,909.441C1382.44,906.804 1380.33,904.729 1377.73,904.729L1275.87,904.729L1275.87,931.751L1346.95,931.751L1346.95,923.709C1346.95,922.412 1347.99,921.331 1349.33,921.331L1363.55,921.331C1364.85,921.331 1365.93,922.369 1365.93,923.709L1365.93,937.934C1365.93,939.231 1364.89,940.312 1363.55,940.312L1355.51,940.312L1355.51,1011.39L1382.53,1011.39L1382.53,909.485L1382.44,909.441Z" style="fill:none;fill-rule:nonzero;stroke:rgb(35,31,32);stroke-width:4px;"/>
        </g>
        <g transform="matrix(1,0,0,1,-377,0)">
            <path d="M1377.73,1369.13C1380.37,1369.13 1382.45,1367.01 1382.45,1364.42L1382.45,1262.55L1355.42,1262.55L1355.42,1333.64L1363.46,1333.64C1364.76,1333.64 1365.84,1334.67 1365.84,1336.01L1365.84,1350.24C1365.84,1351.53 1364.8,1352.62 1363.46,1352.62L1349.24,1352.62C1347.94,1352.62 1346.86,1351.58 1346.86,1350.24L1346.86,1342.2L1275.78,1342.2L1275.78,1369.22L1377.69,1369.22L1377.73,1369.13Z" style="fill:none;fill-rule:nonzero;stroke:rgb(35,31,32);stroke-width:4px;"/>
        </g>
        <g transform="matrix(1,0,0,1,-377,0)">
            <path d="M719.028,1364.37C719.028,1367.01 721.147,1369.09 723.741,1369.09L825.606,1369.09L825.606,1342.06L754.525,1342.06L754.525,1350.11C754.525,1351.4 753.488,1352.48 752.147,1352.48L737.923,1352.48C736.625,1352.48 735.545,1351.45 735.545,1350.11L735.545,1335.88C735.545,1334.59 736.582,1333.5 737.923,1333.5L745.965,1333.5L745.965,1262.42L718.942,1262.42L718.942,1364.33L719.028,1364.37Z" style="fill:none;fill-rule:nonzero;stroke:rgb(35,31,32);stroke-width:4px;"/>
        </g>
        <g transform="matrix(1,0,0,1,-377,0)">
            <path d="M2214.14,1369.13C2214.14,1379.55 2205.62,1388.07 2195.2,1388.07L1460.66,1388.07C1450.24,1388.07 1441.72,1379.55 1441.72,1369.13L1441.72,904.729C1441.72,894.31 1450.24,885.792 1460.66,885.792L2195.2,885.792C2205.62,885.792 2214.14,894.31 2214.14,904.729L2214.14,1369.13Z" style="fill:none;fill-rule:nonzero;stroke:rgb(35,31,32);stroke-width:4px;"/>
        </g>
        <g transform="matrix(1,0,0,1,-377,0)">
            <path d="M2190.44,1115.59L2204.67,1115.59C2209.9,1115.59 2214.14,1111.36 2214.14,1106.12L2214.14,904.729C2214.14,894.31 2205.62,885.792 2195.2,885.792L1460.66,885.792C1450.24,885.792 1441.72,894.31 1441.72,904.729L1441.72,1106.12C1441.72,1111.36 1445.96,1115.59 1451.19,1115.59L1465.41,1115.59C1477.17,1115.59 1486.73,1125.15 1486.73,1136.91C1486.73,1148.67 1477.17,1158.22 1465.41,1158.22L1451.19,1158.22C1445.96,1158.22 1441.72,1162.46 1441.72,1167.69L1441.72,1369.09C1441.72,1379.51 1450.24,1388.02 1460.66,1388.02L2195.2,1388.02C2205.62,1388.02 2214.14,1379.51 2214.14,1369.09L2214.14,1167.69C2214.14,1162.46 2209.9,1158.22 2204.67,1158.22L2190.44,1158.22C2178.68,1158.22 2169.13,1148.67 2169.13,1136.91C2169.13,1125.1 2178.68,1115.59 2190.44,1115.59Z" style="fill:none;fill-rule:nonzero;stroke:rgb(35,31,32);stroke-width:4px;"/>
        </g>
        <g transform="matrix(1,0,0,1,-377,0)">
            <path d="M1465.42,1153.51C1474.58,1153.51 1482.02,1146.08 1482.02,1136.91C1482.02,1127.74 1474.58,1120.31 1465.42,1120.31C1456.25,1120.31 1448.81,1127.74 1448.81,1136.91C1448.81,1146.08 1456.25,1153.51 1465.42,1153.51Z" style="fill:none;fill-rule:nonzero;stroke:rgb(35,31,32);stroke-width:4px;"/>
        </g>
        <g transform="matrix(1,0,0,1,-377,0)">
            <path d="M1472.51,1132.8L1465.41,1128.7L1458.28,1132.8L1458.28,1141.02L1465.41,1145.13L1472.51,1141.02L1472.51,1132.8Z" style="fill:none;fill-rule:nonzero;stroke:rgb(35,31,32);stroke-width:4px;"/>
        </g>
        <g transform="matrix(1,0,0,1,-377,0)">
            <path d="M2190.44,1153.51C2199.61,1153.51 2207.05,1146.08 2207.05,1136.91C2207.05,1127.74 2199.61,1120.31 2190.44,1120.31C2181.27,1120.31 2173.84,1127.74 2173.84,1136.91C2173.84,1146.08 2181.27,1153.51 2190.44,1153.51Z" style="fill:none;fill-rule:nonzero;stroke:rgb(35,31,32);stroke-width:4px;"/>
        </g>
        <g transform="matrix(1,0,0,1,-377,0)">
            <path d="M2197.53,1132.8L2190.44,1128.7L2183.35,1132.8L2183.35,1141.02L2190.44,1145.13L2197.53,1141.02L2197.53,1132.8Z" style="fill:none;fill-rule:nonzero;stroke:rgb(35,31,32);stroke-width:4px;"/>
        </g>
        <g transform="matrix(1,0,0,1,-377,0)">
            <path d="M1500.96,904.731C1498.32,904.731 1496.24,906.85 1496.24,909.444L1496.24,1011.31L1523.27,1011.31L1523.27,940.228L1515.22,940.228C1513.93,940.228 1512.85,939.19 1512.85,937.85L1512.85,923.625C1512.85,922.328 1513.88,921.247 1515.22,921.247L1529.45,921.247C1530.75,921.247 1531.83,922.285 1531.83,923.625L1531.83,931.667L1602.91,931.667L1602.91,904.645L1501,904.645L1500.96,904.731Z" style="fill:none;fill-rule:nonzero;stroke:rgb(35,31,32);stroke-width:4px;"/>
        </g>
        <g transform="matrix(1,0,0,1,-377,0)">
            <path d="M2159.62,909.441C2159.62,906.804 2157.5,904.729 2154.9,904.729L2053.04,904.729L2053.04,931.751L2124.12,931.751L2124.12,923.709C2124.12,922.412 2125.16,921.331 2126.5,921.331L2140.72,921.331C2142.02,921.331 2143.1,922.369 2143.1,923.709L2143.1,937.934C2143.1,939.231 2142.06,940.312 2140.72,940.312L2132.68,940.312L2132.68,1011.39L2159.7,1011.39L2159.7,909.485L2159.62,909.441Z" style="fill:none;fill-rule:nonzero;stroke:rgb(35,31,32);stroke-width:4px;"/>
        </g>
        <g transform="matrix(1,0,0,1,-377,0)">
            <path d="M2154.9,1369.13C2157.54,1369.13 2159.62,1367.01 2159.62,1364.42L2159.62,1262.55L2132.59,1262.55L2132.59,1333.64L2140.64,1333.64C2141.93,1333.64 2143.01,1334.67 2143.01,1336.01L2143.01,1350.24C2143.01,1351.53 2141.98,1352.62 2140.64,1352.62L2126.41,1352.62C2125.11,1352.62 2124.03,1351.58 2124.03,1350.24L2124.03,1342.2L2052.95,1342.2L2052.95,1369.22L2154.86,1369.22L2154.9,1369.13Z" style="fill:none;fill-rule:nonzero;stroke:rgb(35,31,32);stroke-width:4px;"/>
        </g>
        <g transform="matrix(1,0,0,1,-377,0)">
            <path d="M1496.2,1364.37C1496.2,1367.01 1498.32,1369.09 1500.91,1369.09L1602.78,1369.09L1602.78,1342.06L1531.7,1342.06L1531.7,1350.11C1531.7,1351.4 1530.66,1352.48 1529.32,1352.48L1515.09,1352.48C1513.8,1352.48 1512.72,1351.45 1512.72,1350.11L1512.72,1335.88C1512.72,1334.59 1513.75,1333.5 1515.09,1333.5L1523.14,1333.5L1523.14,1262.42L1496.11,1262.42L1496.11,1364.33L1496.2,1364.37Z" style="fill:none;fill-rule:nonzero;stroke:rgb(35,31,32);stroke-width:4px;"/>
        </g>
        <g transform="matrix(1,0,0,1,-377,0)">
            <path d="M2991.41,1369.13C2991.41,1379.55 2982.9,1388.07 2972.48,1388.07L2237.94,1388.07C2227.52,1388.07 2219,1379.55 2219,1369.13L2219,904.729C2219,894.31 2227.52,885.792 2237.94,885.792L2972.48,885.792C2982.9,885.792 2991.41,894.31 2991.41,904.729L2991.41,1369.13Z" style="fill:none;fill-rule:nonzero;stroke:rgb(35,31,32);stroke-width:4px;"/>
        </g>
        <g transform="matrix(1,0,0,1,-377,0)">
            <path d="M2991.14,904.729C2991.14,894.31 2982.62,885.792 2972.2,885.792L2237.66,885.792C2227.24,885.792 2218.72,894.31 2218.72,904.729L2218.72,1106.12C2218.72,1111.36 2222.96,1115.59 2228.19,1115.59L2242.41,1115.59C2254.17,1115.59 2263.73,1125.15 2263.73,1136.91C2263.73,1148.67 2254.17,1158.22 2242.41,1158.22L2228.19,1158.22C2222.96,1158.22 2218.72,1162.46 2218.72,1167.69L2218.72,1369.09C2218.72,1379.51 2227.24,1388.02 2237.66,1388.02L2972.2,1388.02C2982.62,1388.02 2991.14,1379.51 2991.14,1369.09" style="fill:none;fill-rule:nonzero;stroke:rgb(35,31,32);stroke-width:4px;"/>
        </g>
        <g transform="matrix(1,0,0,1,-377,0)">
            <path d="M2242.69,1153.51C2251.86,1153.51 2259.3,1146.08 2259.3,1136.91C2259.3,1127.74 2251.86,1120.31 2242.69,1120.31C2233.52,1120.31 2226.09,1127.74 2226.09,1136.91C2226.09,1146.08 2233.52,1153.51 2242.69,1153.51Z" style="fill:none;fill-rule:nonzero;stroke:rgb(35,31,32);stroke-width:4px;"/>
        </g>
        <g transform="matrix(1,0,0,1,-377,0)">
            <path d="M2249.78,1132.8L2242.69,1128.7L2235.56,1132.8L2235.56,1141.02L2242.69,1145.13L2249.78,1141.02L2249.78,1132.8Z" style="fill:none;fill-rule:nonzero;stroke:rgb(35,31,32);stroke-width:4px;"/>
        </g>
        <g transform="matrix(1,0,0,1,-377,0)">
            <path d="M2278.23,904.731C2275.6,904.731 2273.52,906.85 2273.52,909.444L2273.52,1011.31L2300.54,1011.31L2300.54,940.228L2292.5,940.228C2291.21,940.228 2290.12,939.19 2290.12,937.85L2290.12,923.625C2290.12,922.328 2291.16,921.247 2292.5,921.247L2306.73,921.247C2308.02,921.247 2309.1,922.285 2309.1,923.625L2309.1,931.667L2380.19,931.667L2380.19,904.645L2278.28,904.645L2278.23,904.731Z" style="fill:none;fill-rule:nonzero;stroke:rgb(35,31,32);stroke-width:4px;"/>
        </g>
        <g transform="matrix(1,0,0,1,-377,0)">
            <path d="M2936.89,909.441C2936.89,906.804 2934.78,904.729 2932.18,904.729L2830.32,904.729L2830.32,931.751L2901.4,931.751L2901.4,923.709C2901.4,922.412 2902.44,921.331 2903.78,921.331L2918,921.331C2919.3,921.331 2920.38,922.369 2920.38,923.709L2920.38,937.934C2920.38,939.231 2919.34,940.312 2918,940.312L2909.96,940.312L2909.96,1011.39L2936.98,1011.39L2936.98,909.485L2936.89,909.441Z" style="fill:none;fill-rule:nonzero;stroke:rgb(35,31,32);stroke-width:4px;"/>
        </g>
        <g transform="matrix(1,0,0,1,-377,0)">
            <path d="M2932.18,1369.13C2934.82,1369.13 2936.89,1367.01 2936.89,1364.42L2936.89,1262.55L2909.87,1262.55L2909.87,1333.64L2917.91,1333.64C2919.21,1333.64 2920.29,1334.67 2920.29,1336.01L2920.29,1350.24C2920.29,1351.53 2919.25,1352.62 2917.91,1352.62L2903.69,1352.62C2902.39,1352.62 2901.31,1351.58 2901.31,1350.24L2901.31,1342.2L2830.23,1342.2L2830.23,1369.22L2932.14,1369.22L2932.18,1369.13Z" style="fill:none;fill-rule:nonzero;stroke:rgb(35,31,32);stroke-width:4px;"/>
        </g>
        <g transform="matrix(1,0,0,1,-377,0)">
            <path d="M2273.48,1364.37C2273.48,1367.01 2275.6,1369.09 2278.19,1369.09L2380.06,1369.09L2380.06,1342.06L2308.98,1342.06L2308.98,1350.11C2308.98,1351.4 2307.94,1352.48 2306.6,1352.48L2292.37,1352.48C2291.08,1352.48 2289.99,1351.45 2289.99,1350.11L2289.99,1335.88C2289.99,1334.59 2291.03,1333.5 2292.37,1333.5L2300.41,1333.5L2300.41,1262.42L2273.39,1262.42L2273.39,1364.33L2273.48,1364.37Z" style="fill:none;fill-rule:nonzero;stroke:rgb(35,31,32);stroke-width:4px;"/>
        </g>
        <g transform="matrix(1,0,0,1,-377,0)">
            <path d="M3768.41,1369.13C3768.41,1379.55 3759.9,1388.07 3749.48,1388.07L3014.94,1388.07C3004.52,1388.07 2996,1379.55 2996,1369.13L2996,904.729C2996,894.31 3004.52,885.792 3014.94,885.792L3749.48,885.792C3759.9,885.792 3768.41,894.31 3768.41,904.729L3768.41,1369.13Z" style="fill:none;fill-rule:nonzero;stroke:rgb(35,31,32);stroke-width:4px;"/>
        </g>
        <g transform="matrix(1,0,0,1,-377,0)">
            <path d="M3391.6,1153.51C3400.77,1153.51 3408.21,1146.08 3408.21,1136.91C3408.21,1127.74 3400.77,1120.31 3391.6,1120.31C3382.43,1120.31 3375,1127.74 3375,1136.91C3375,1146.08 3382.43,1153.51 3391.6,1153.51Z" style="fill:none;fill-rule:nonzero;stroke:rgb(35,31,32);stroke-width:4px;"/>
        </g>
        <g transform="matrix(1,0,0,1,-377,0)">
            <path d="M3398.69,1132.8L3391.6,1128.7L3384.47,1132.8L3384.47,1141.02L3391.6,1145.13L3398.69,1141.02L3398.69,1132.8Z" style="fill:none;fill-rule:nonzero;stroke:rgb(35,31,32);stroke-width:4px;"/>
        </g>
        <g transform="matrix(1,0,0,1,-377,0)">
            <path d="M3055.23,904.731C3052.6,904.731 3050.52,906.85 3050.52,909.444L3050.52,1011.31L3077.54,1011.31L3077.54,940.228L3069.5,940.228C3068.21,940.228 3067.12,939.19 3067.12,937.85L3067.12,923.625C3067.12,922.328 3068.16,921.247 3069.5,921.247L3083.73,921.247C3085.02,921.247 3086.1,922.285 3086.1,923.625L3086.1,931.667L3157.19,931.667L3157.19,904.645L3055.28,904.645L3055.23,904.731Z" style="fill:none;fill-rule:nonzero;stroke:rgb(35,31,32);stroke-width:4px;"/>
        </g>
        <g transform="matrix(1,0,0,1,-377,0)">
            <path d="M3713.89,909.441C3713.89,906.804 3711.78,904.729 3709.18,904.729L3607.32,904.729L3607.32,931.751L3678.4,931.751L3678.4,923.709C3678.4,922.412 3679.44,921.331 3680.78,921.331L3695,921.331C3696.3,921.331 3697.38,922.369 3697.38,923.709L3697.38,937.934C3697.38,939.231 3696.34,940.312 3695,940.312L3686.96,940.312L3686.96,1011.39L3713.98,1011.39L3713.98,909.485L3713.89,909.441Z" style="fill:none;fill-rule:nonzero;stroke:rgb(35,31,32);stroke-width:4px;"/>
        </g>
        <g transform="matrix(1,0,0,1,-377,0)">
            <path d="M3709.18,1369.13C3711.82,1369.13 3713.89,1367.01 3713.89,1364.42L3713.89,1262.55L3686.87,1262.55L3686.87,1333.64L3694.91,1333.64C3696.21,1333.64 3697.29,1334.67 3697.29,1336.01L3697.29,1350.24C3697.29,1351.53 3696.25,1352.62 3694.91,1352.62L3680.69,1352.62C3679.39,1352.62 3678.31,1351.58 3678.31,1350.24L3678.31,1342.2L3607.23,1342.2L3607.23,1369.22L3709.14,1369.22L3709.18,1369.13Z" style="fill:none;fill-rule:nonzero;stroke:rgb(35,31,32);stroke-width:4px;"/>
        </g>
        <g transform="matrix(1,0,0,1,-377,0)">
            <path d="M3050.48,1364.37C3050.48,1367.01 3052.6,1369.09 3055.19,1369.09L3157.06,1369.09L3157.06,1342.06L3085.98,1342.06L3085.98,1350.11C3085.98,1351.4 3084.94,1352.48 3083.6,1352.48L3069.37,1352.48C3068.08,1352.48 3066.99,1351.45 3066.99,1350.11L3066.99,1335.88C3066.99,1334.59 3068.03,1333.5 3069.37,1333.5L3077.41,1333.5L3077.41,1262.42L3050.39,1262.42L3050.39,1364.33L3050.48,1364.37Z" style="fill:none;fill-rule:nonzero;stroke:rgb(35,31,32);stroke-width:4px;"/>
        </g>
        <g transform="matrix(1,0,0,1,-377,0)">
            <path d="M1436.97,862.054C1436.97,872.474 1428.45,880.992 1418.03,880.992L283.035,880.992C272.615,880.992 264.097,872.474 264.097,862.054L264.097,397.654C264.097,387.234 272.615,378.717 283.035,378.717L1417.98,378.717C1428.4,378.717 1436.92,387.234 1436.92,397.654L1436.92,862.054L1436.97,862.054Z" style="fill:none;fill-rule:nonzero;stroke:rgb(35,31,32);stroke-width:4px;"/>
        </g>
        <g transform="matrix(1,0,0,1,-377,0)">
            <path d="M1413.23,608.517L1427.5,608.517C1432.73,608.517 1436.97,604.28 1436.97,599.048L1436.97,397.654C1436.97,387.234 1428.45,378.717 1418.03,378.717L283.035,378.717C272.615,378.717 264.097,387.234 264.097,397.654L264.097,599.048C264.097,604.28 268.334,608.517 273.566,608.517L287.791,608.517C299.551,608.517 309.106,618.072 309.106,629.833C309.106,641.593 299.551,651.148 287.791,651.148L273.566,651.148C268.334,651.148 264.097,655.385 264.097,660.617L264.097,862.011C264.097,872.431 272.615,880.949 283.035,880.949L1417.98,880.949C1428.4,880.949 1436.92,872.431 1436.92,862.011L1436.92,660.617C1436.92,655.385 1432.69,651.148 1427.45,651.148L1413.23,651.148C1401.47,651.148 1391.91,641.593 1391.91,629.833C1391.91,618.029 1401.47,608.517 1413.23,608.517Z" style="fill:none;fill-rule:nonzero;stroke:rgb(35,31,32);stroke-width:4px;"/>
        </g>
        <g transform="matrix(1,0,0,1,-377,0)">
            <path d="M304.401,631.112C305.052,621.966 298.165,614.024 289.019,613.373C279.872,612.722 271.93,619.609 271.279,628.756C270.629,637.902 277.516,645.844 286.662,646.495C295.808,647.146 303.75,640.259 304.401,631.112Z" style="fill:none;fill-rule:nonzero;stroke:rgb(35,31,32);stroke-width:4px;"/>
        </g>
        <g transform="matrix(1,0,0,1,-377,0)">
            <path d="M294.882,625.722L287.791,621.658L280.7,625.722L280.7,633.937L287.791,638.045L294.882,633.937L294.882,625.722Z" style="fill:none;fill-rule:nonzero;stroke:rgb(35,31,32);stroke-width:4px;"/>
        </g>
        <g transform="matrix(1,0,0,1,-377,0)">
            <path d="M1413.27,646.478C1422.44,646.478 1429.87,639.045 1429.87,629.875C1429.87,620.706 1422.44,613.272 1413.27,613.272C1404.1,613.272 1396.67,620.706 1396.67,629.875C1396.67,639.045 1404.1,646.478 1413.27,646.478Z" style="fill:none;fill-rule:nonzero;stroke:rgb(35,31,32);stroke-width:4px;"/>
        </g>
        <g transform="matrix(1,0,0,1,-377,0)">
            <path d="M1420.36,625.726L1413.27,621.662L1406.14,625.726L1406.14,633.941L1413.27,638.049L1420.36,633.941L1420.36,625.726Z" style="fill:none;fill-rule:nonzero;stroke:rgb(35,31,32);stroke-width:4px;"/>
        </g>
        <g transform="matrix(1,0,0,1,-377,0)">
            <path d="M723.741,397.655C721.104,397.655 719.028,399.773 719.028,402.367L719.028,504.232L746.051,504.232L746.051,433.151L738.009,433.151C736.712,433.151 735.631,432.114 735.631,430.774L735.631,416.549C735.631,415.252 736.669,414.171 738.009,414.171L752.234,414.171C753.531,414.171 754.612,415.208 754.612,416.549L754.612,424.591L825.692,424.591L825.692,397.611L723.784,397.611L723.741,397.655Z" style="fill:none;fill-rule:nonzero;stroke:rgb(35,31,32);stroke-width:4px;"/>
        </g>
        <g transform="matrix(1,0,0,1,-377,0)">
            <path d="M1382.44,402.409C1382.44,399.772 1380.33,397.696 1377.73,397.696L1275.87,397.696L1275.87,424.719L1346.95,424.719L1346.95,416.677C1346.95,415.38 1347.99,414.299 1349.33,414.299L1363.55,414.299C1364.85,414.299 1365.93,415.337 1365.93,416.677L1365.93,430.902C1365.93,432.199 1364.89,433.28 1363.55,433.28L1355.51,433.28L1355.51,504.36L1382.53,504.36L1382.53,402.452L1382.44,402.409Z" style="fill:none;fill-rule:nonzero;stroke:rgb(35,31,32);stroke-width:4px;"/>
        </g>
        <g transform="matrix(1,0,0,1,-377,0)">
            <path d="M1377.73,862.053C1380.37,862.053 1382.45,859.934 1382.45,857.34L1382.45,755.476L1355.42,755.476L1355.42,826.556L1363.46,826.556C1364.76,826.556 1365.84,827.594 1365.84,828.934L1365.84,843.159C1365.84,844.456 1364.8,845.537 1363.46,845.537L1349.24,845.537C1347.94,845.537 1346.86,844.499 1346.86,843.159L1346.86,835.117L1275.78,835.117L1275.78,862.139L1377.69,862.139L1377.73,862.053Z" style="fill:none;fill-rule:nonzero;stroke:rgb(35,31,32);stroke-width:4px;"/>
        </g>
        <g transform="matrix(1,0,0,1,-377,0)">
            <path d="M719.028,857.3C719.028,859.937 721.147,862.012 723.741,862.012L825.606,862.012L825.606,834.99L754.525,834.99L754.525,843.032C754.525,844.329 753.488,845.41 752.147,845.41L737.923,845.41C736.625,845.41 735.545,844.372 735.545,843.032L735.545,828.807C735.545,827.51 736.582,826.429 737.923,826.429L745.965,826.429L745.965,755.349L718.942,755.349L718.942,857.256L719.028,857.3Z" style="fill:none;fill-rule:nonzero;stroke:rgb(35,31,32);stroke-width:4px;"/>
        </g>
        <g transform="matrix(1,0,0,1,-377,0)">
            <path d="M1417.98,373.961L283.035,373.961C272.571,373.961 264.097,365.487 264.097,355.024L264.097,20.938C264.097,10.474 272.571,2 283.035,2L1417.98,2C1428.45,2 1436.92,10.474 1436.92,20.938L1436.92,355.024C1436.92,365.487 1428.45,373.961 1417.98,373.961Z" style="fill:none;fill-rule:nonzero;stroke:rgb(35,31,32);stroke-width:4px;"/>
        </g>
        <g transform="matrix(1,0,0,1,-377,0)">
            <path d="M2214.14,862.054C2214.14,872.474 2205.62,880.992 2195.2,880.992L1460.66,880.992C1450.24,880.992 1441.72,872.474 1441.72,862.054L1441.72,397.654C1441.72,387.234 1450.24,378.717 1460.66,378.717L2195.2,378.717C2205.62,378.717 2214.14,387.234 2214.14,397.654L2214.14,862.054Z" style="fill:none;fill-rule:nonzero;stroke:rgb(35,31,32);stroke-width:4px;"/>
        </g>
        <g transform="matrix(1,0,0,1,-377,0)">
            <path d="M2190.44,608.517L2204.67,608.517C2209.9,608.517 2214.14,604.28 2214.14,599.048L2214.14,397.654C2214.14,387.234 2205.62,378.717 2195.2,378.717L1460.66,378.717C1450.24,378.717 1441.72,387.234 1441.72,397.654L1441.72,599.048C1441.72,604.28 1445.96,608.517 1451.19,608.517L1465.41,608.517C1477.17,608.517 1486.73,618.072 1486.73,629.833C1486.73,641.593 1477.17,651.148 1465.41,651.148L1451.19,651.148C1445.96,651.148 1441.72,655.385 1441.72,660.617L1441.72,862.011C1441.72,872.431 1450.24,880.949 1460.66,880.949L2195.2,880.949C2205.62,880.949 2214.14,872.431 2214.14,862.011L2214.14,660.617C2214.14,655.385 2209.9,651.148 2204.67,651.148L2190.44,651.148C2178.68,651.148 2169.13,641.593 2169.13,629.833C2169.13,618.029 2178.68,608.517 2190.44,608.517Z" style="fill:none;fill-rule:nonzero;stroke:rgb(35,31,32);stroke-width:4px;"/>
        </g>
        <g transform="matrix(1,0,0,1,-377,0)">
            <path d="M1465.42,646.478C1474.58,646.478 1482.02,639.045 1482.02,629.875C1482.02,620.706 1474.58,613.272 1465.42,613.272C1456.25,613.272 1448.81,620.706 1448.81,629.875C1448.81,639.045 1456.25,646.478 1465.42,646.478Z" style="fill:none;fill-rule:nonzero;stroke:rgb(35,31,32);stroke-width:4px;"/>
        </g>
        <g transform="matrix(1,0,0,1,-377,0)">
            <path d="M1472.51,625.726L1465.41,621.662L1458.28,625.726L1458.28,633.941L1465.41,638.049L1472.51,633.941L1472.51,625.726Z" style="fill:none;fill-rule:nonzero;stroke:rgb(35,31,32);stroke-width:4px;"/>
        </g>
        <g transform="matrix(1,0,0,1,-377,0)">
            <path d="M2190.44,646.478C2199.61,646.478 2207.05,639.045 2207.05,629.875C2207.05,620.706 2199.61,613.272 2190.44,613.272C2181.27,613.272 2173.84,620.706 2173.84,629.875C2173.84,639.045 2181.27,646.478 2190.44,646.478Z" style="fill:none;fill-rule:nonzero;stroke:rgb(35,31,32);stroke-width:4px;"/>
        </g>
        <g transform="matrix(1,0,0,1,-377,0)">
            <path d="M2197.53,625.726L2190.44,621.662L2183.35,625.726L2183.35,633.941L2190.44,638.049L2197.53,633.941L2197.53,625.726Z" style="fill:none;fill-rule:nonzero;stroke:rgb(35,31,32);stroke-width:4px;"/>
        </g>
        <g transform="matrix(1,0,0,1,-377,0)">
            <path d="M1500.96,397.655C1498.32,397.655 1496.24,399.773 1496.24,402.367L1496.24,504.232L1523.27,504.232L1523.27,433.151L1515.22,433.151C1513.93,433.151 1512.85,432.114 1512.85,430.774L1512.85,416.549C1512.85,415.252 1513.88,414.171 1515.22,414.171L1529.45,414.171C1530.75,414.171 1531.83,415.208 1531.83,416.549L1531.83,424.591L1602.91,424.591L1602.91,397.611L1501,397.611L1500.96,397.655Z" style="fill:none;fill-rule:nonzero;stroke:rgb(35,31,32);stroke-width:4px;"/>
        </g>
        <g transform="matrix(1,0,0,1,-377,0)">
            <path d="M2159.62,402.409C2159.62,399.772 2157.5,397.696 2154.9,397.696L2053.04,397.696L2053.04,424.719L2124.12,424.719L2124.12,416.677C2124.12,415.38 2125.16,414.299 2126.5,414.299L2140.72,414.299C2142.02,414.299 2143.1,415.337 2143.1,416.677L2143.1,430.902C2143.1,432.199 2142.06,433.28 2140.72,433.28L2132.68,433.28L2132.68,504.36L2159.7,504.36L2159.7,402.452L2159.62,402.409Z" style="fill:none;fill-rule:nonzero;stroke:rgb(35,31,32);stroke-width:4px;"/>
        </g>
        <g transform="matrix(1,0,0,1,-377,0)">
            <path d="M2154.9,862.053C2157.54,862.053 2159.62,859.934 2159.62,857.34L2159.62,755.476L2132.59,755.476L2132.59,826.556L2140.64,826.556C2141.93,826.556 2143.01,827.594 2143.01,828.934L2143.01,843.159C2143.01,844.456 2141.98,845.537 2140.64,845.537L2126.41,845.537C2125.11,845.537 2124.03,844.499 2124.03,843.159L2124.03,835.117L2052.95,835.117L2052.95,862.139L2154.86,862.139L2154.9,862.053Z" style="fill:none;fill-rule:nonzero;stroke:rgb(35,31,32);stroke-width:4px;"/>
        </g>
        <g transform="matrix(1,0,0,1,-377,0)">
            <path d="M1496.2,857.3C1496.2,859.937 1498.32,862.012 1500.91,862.012L1602.78,862.012L1602.78,834.99L1531.7,834.99L1531.7,843.032C1531.7,844.329 1530.66,845.41 1529.32,845.41L1515.09,845.41C1513.8,845.41 1512.72,844.372 1512.72,843.032L1512.72,828.807C1512.72,827.51 1513.75,826.429 1515.09,826.429L1523.14,826.429L1523.14,755.349L1496.11,755.349L1496.11,857.256L1496.2,857.3Z" style="fill:none;fill-rule:nonzero;stroke:rgb(35,31,32);stroke-width:4px;"/>
        </g>
        <g transform="matrix(1,0,0,1,-377,0)">
            <path d="M2991.41,862.054C2991.41,872.474 2982.9,880.992 2972.48,880.992L2237.94,880.992C2227.52,880.992 2219,872.474 2219,862.054L2219,397.654C2219,387.234 2227.52,378.717 2237.94,378.717L2972.48,378.717C2982.9,378.717 2991.41,387.234 2991.41,397.654L2991.41,862.054Z" style="fill:none;fill-rule:nonzero;stroke:rgb(35,31,32);stroke-width:4px;"/>
        </g>
        <g transform="matrix(1,0,0,1,-377,0)">
            <path d="M2991.14,397.729C2991.14,387.31 2982.62,378.792 2972.2,378.792L2237.66,378.792C2227.24,378.792 2218.72,387.31 2218.72,397.729L2218.72,599.124C2218.72,604.355 2222.96,608.592 2228.19,608.592L2242.41,608.592C2254.17,608.592 2263.73,618.148 2263.73,629.908C2263.73,641.668 2254.17,651.223 2242.41,651.223L2228.19,651.223C2222.96,651.223 2218.72,655.46 2218.72,660.692L2218.72,862.086C2218.72,872.506 2227.24,881.024 2237.66,881.024L2972.2,881.024C2982.62,881.024 2991.14,872.506 2991.14,862.086" style="fill:none;fill-rule:nonzero;stroke:rgb(35,31,32);stroke-width:4px;"/>
        </g>
        <g transform="matrix(1,0,0,1,-377,0)">
            <path d="M2242.69,646.478C2251.86,646.478 2259.3,639.045 2259.3,629.875C2259.3,620.706 2251.86,613.272 2242.69,613.272C2233.52,613.272 2226.09,620.706 2226.09,629.875C2226.09,639.045 2233.52,646.478 2242.69,646.478Z" style="fill:none;fill-rule:nonzero;stroke:rgb(35,31,32);stroke-width:4px;"/>
        </g>
        <g transform="matrix(1,0,0,1,-377,0)">
            <path d="M2249.78,625.726L2242.69,621.662L2235.56,625.726L2235.56,633.941L2242.69,638.049L2249.78,633.941L2249.78,625.726Z" style="fill:none;fill-rule:nonzero;stroke:rgb(35,31,32);stroke-width:4px;"/>
        </g>
        <g transform="matrix(1,0,0,1,-377,0)">
            <path d="M2278.23,397.655C2275.6,397.655 2273.52,399.773 2273.52,402.367L2273.52,504.232L2300.54,504.232L2300.54,433.151L2292.5,433.151C2291.21,433.151 2290.12,432.114 2290.12,430.774L2290.12,416.549C2290.12,415.252 2291.16,414.171 2292.5,414.171L2306.73,414.171C2308.02,414.171 2309.1,415.208 2309.1,416.549L2309.1,424.591L2380.19,424.591L2380.19,397.611L2278.28,397.611L2278.23,397.655Z" style="fill:none;fill-rule:nonzero;stroke:rgb(35,31,32);stroke-width:4px;"/>
        </g>
        <g transform="matrix(1,0,0,1,-377,0)">
            <path d="M2936.89,402.409C2936.89,399.772 2934.78,397.696 2932.18,397.696L2830.32,397.696L2830.32,424.719L2901.4,424.719L2901.4,416.677C2901.4,415.38 2902.44,414.299 2903.78,414.299L2918,414.299C2919.3,414.299 2920.38,415.337 2920.38,416.677L2920.38,430.902C2920.38,432.199 2919.34,433.28 2918,433.28L2909.96,433.28L2909.96,504.36L2936.98,504.36L2936.98,402.452L2936.89,402.409Z" style="fill:none;fill-rule:nonzero;stroke:rgb(35,31,32);stroke-width:4px;"/>
        </g>
        <g transform="matrix(1,0,0,1,-377,0)">
            <path d="M2932.18,862.053C2934.82,862.053 2936.89,859.934 2936.89,857.34L2936.89,755.476L2909.87,755.476L2909.87,826.556L2917.91,826.556C2919.21,826.556 2920.29,827.594 2920.29,828.934L2920.29,843.159C2920.29,844.456 2919.25,845.537 2917.91,845.537L2903.69,845.537C2902.39,845.537 2901.31,844.499 2901.31,843.159L2901.31,835.117L2830.23,835.117L2830.23,862.139L2932.14,862.139L2932.18,862.053Z" style="fill:none;fill-rule:nonzero;stroke:rgb(35,31,32);stroke-width:4px;"/>
        </g>
        <g transform="matrix(1,0,0,1,-377,0)">
            <path d="M2273.48,857.3C2273.48,859.937 2275.6,862.012 2278.19,862.012L2380.06,862.012L2380.06,834.99L2308.98,834.99L2308.98,843.032C2308.98,844.329 2307.94,845.41 2306.6,845.41L2292.37,845.41C2291.08,845.41 2289.99,844.372 2289.99,843.032L2289.99,828.807C2289.99,827.51 2291.03,826.429 2292.37,826.429L2300.41,826.429L2300.41,755.349L2273.39,755.349L2273.39,857.256L2273.48,857.3Z" style="fill:none;fill-rule:nonzero;stroke:rgb(35,31,32);stroke-width:4px;"/>
        </g>
        <g transform="matrix(1,0,0,1,-377,0)">
            <path d="M3768.41,862.054C3768.41,872.474 3759.9,880.992 3749.48,880.992L3014.94,880.992C3004.52,880.992 2996,872.474 2996,862.054L2996,397.654C2996,387.234 3004.52,378.717 3014.94,378.717L3749.48,378.717C3759.9,378.717 3768.41,387.234 3768.41,397.654L3768.41,862.054Z" style="fill:none;fill-rule:nonzero;stroke:rgb(35,31,32);stroke-width:4px;"/>
        </g>
        <g transform="matrix(1,0,0,1,-377,0)">
            <path d="M3391.6,646.478C3400.77,646.478 3408.21,639.045 3408.21,629.875C3408.21,620.706 3400.77,613.272 3391.6,613.272C3382.43,613.272 3375,620.706 3375,629.875C3375,639.045 3382.43,646.478 3391.6,646.478Z" style="fill:none;fill-rule:nonzero;stroke:rgb(35,31,32);stroke-width:4px;"/>
        </g>
        <g transform="matrix(1,0,0,1,-377,0)">
            <path d="M3398.69,625.726L3391.6,621.662L3384.47,625.726L3384.47,633.941L3391.6,638.049L3398.69,633.941L3398.69,625.726Z" style="fill:none;fill-rule:nonzero;stroke:rgb(35,31,32);stroke-width:4px;"/>
        </g>
        <g transform="matrix(1,0,0,1,-377,0)">
            <path d="M3055.23,397.655C3052.6,397.655 3050.52,399.773 3050.52,402.367L3050.52,504.232L3077.54,504.232L3077.54,433.151L3069.5,433.151C3068.21,433.151 3067.12,432.114 3067.12,430.774L3067.12,416.549C3067.12,415.252 3068.16,414.171 3069.5,414.171L3083.73,414.171C3085.02,414.171 3086.1,415.208 3086.1,416.549L3086.1,424.591L3157.19,424.591L3157.19,397.611L3055.28,397.611L3055.23,397.655Z" style="fill:none;fill-rule:nonzero;stroke:rgb(35,31,32);stroke-width:4px;"/>
        </g>
        <g transform="matrix(1,0,0,1,-377,0)">
            <path d="M3713.89,402.409C3713.89,399.772 3711.78,397.696 3709.18,397.696L3607.32,397.696L3607.32,424.719L3678.4,424.719L3678.4,416.677C3678.4,415.38 3679.44,414.299 3680.78,414.299L3695,414.299C3696.3,414.299 3697.38,415.337 3697.38,416.677L3697.38,430.902C3697.38,432.199 3696.34,433.28 3695,433.28L3686.96,433.28L3686.96,504.36L3713.98,504.36L3713.98,402.452L3713.89,402.409Z" style="fill:none;fill-rule:nonzero;stroke:rgb(35,31,32);stroke-width:4px;"/>
        </g>
        <g transform="matrix(1,0,0,1,-377,0)">
            <path d="M3709.18,862.053C3711.82,862.053 3713.89,859.934 3713.89,857.34L3713.89,755.476L3686.87,755.476L3686.87,826.556L3694.91,826.556C3696.21,826.556 3697.29,827.594 3697.29,828.934L3697.29,843.159C3697.29,844.456 3696.25,845.537 3694.91,845.537L3680.69,845.537C3679.39,845.537 3678.31,844.499 3678.31,843.159L3678.31,835.117L3607.23,835.117L3607.23,862.139L3709.14,862.139L3709.18,862.053Z" style="fill:none;fill-rule:nonzero;stroke:rgb(35,31,32);stroke-width:4px;"/>
        </g>
        <g transform="matrix(1,0,0,1,-377,0)">
            <path d="M3050.48,857.3C3050.48,859.937 3052.6,862.012 3055.19,862.012L3157.06,862.012L3157.06,834.99L3085.98,834.99L3085.98,843.032C3085.98,844.329 3084.94,845.41 3083.6,845.41L3069.37,845.41C3068.08,845.41 3066.99,844.372 3066.99,843.032L3066.99,828.807C3066.99,827.51 3068.03,826.429 3069.37,826.429L3077.41,826.429L3077.41,755.349L3050.39,755.349L3050.39,857.256L3050.48,857.3Z" style="fill:none;fill-rule:nonzero;stroke:rgb(35,31,32);stroke-width:4px;"/>
        </g>
        <g transform="matrix(1,0,0,1,-377,0)">
            <path d="M3394.75,2642.43L3394.74,2644.44L3415.55,2644.44L3415.55,2625.31L3428.88,2625.31L3428.88,2606.66L3415.55,2606.66L3415.55,2554L3395.39,2554L3394.79,2554.81L3355.4,2607.77L3355,2608.3L3355,2625.31L3394.8,2625.31L3394.75,2642.43ZM3394.81,2583L3394.81,2606.66L3377.13,2606.66L3394.81,2583Z" style="fill:none;fill-rule:nonzero;stroke:black;stroke-width:4px;stroke-miterlimit:4;"/>
        </g>
    </g>
</svg>
