<svg width="6051" height="2692" viewBox="0 0 6051 2692" fill="none" xmlns="http://www.w3.org/2000/svg">
<path d="M5985.35 207H5287.11C5251.96 207 5223.47 235.489 5223.47 270.633V968.78C5223.47 1003.92 5251.96 1032.41 5287.11 1032.41H5985.35C6020.51 1032.41 6049 1003.92 6049 968.78V270.633C6049 235.489 6020.51 207 5985.35 207Z" stroke="#010101" stroke-width="4" stroke-miterlimit="10"/>
<path d="M5979.32 249.799H5293.11C5278.27 249.799 5266.27 261.838 5266.27 276.671V757.803C5266.27 776.788 5281.63 792.186 5300.62 792.186H5436.85C5451.69 792.186 5463.73 804.188 5463.73 819.058V955.269C5463.73 974.253 5479.13 989.614 5498.11 989.614H5979.32C5994.15 989.614 6006.19 977.612 6006.19 962.741V276.671C6006.19 261.838 5994.15 249.799 5979.32 249.799Z" stroke="#010101" stroke-width="4" stroke-miterlimit="10"/>
<path d="M4465.2 1036.78H4432V1054.25H4465.2V1036.78Z" stroke="#010101" stroke-width="4" stroke-miterlimit="10"/>
<path d="M4549.93 935.46H4531.59V969.525H4549.93V935.46Z" stroke="#010101" stroke-width="4" stroke-miterlimit="10"/>
<path d="M5206.87 935.46H5178.04V969.525H5206.87V935.46Z" stroke="#010101" stroke-width="4" stroke-miterlimit="10"/>
<path d="M4549.93 1373.06H4531.59V1407.12H4549.93V1373.06Z" stroke="#010101" stroke-width="4" stroke-miterlimit="10"/>
<path d="M5195.51 1373.06H5178.04V1407.12H5195.51V1373.06Z" stroke="#010101" stroke-width="4" stroke-miterlimit="10"/>
<path d="M4549.93 1815.03H4531.59V1849.09H4549.93V1815.03Z" stroke="#010101" stroke-width="4" stroke-miterlimit="10"/>
<path d="M5195.51 1815.03H5178.04V1849.09H5195.51V1815.03Z" stroke="#010101" stroke-width="4" stroke-miterlimit="10"/>
<path d="M5838.47 1373.06H5820.12V1407.12H5838.47V1373.06Z" stroke="#010101" stroke-width="4" stroke-miterlimit="10"/>
<path d="M5838.47 1815.03H5820.12V1849.09H5838.47V1815.03Z" stroke="#010101" stroke-width="4" stroke-miterlimit="10"/>
<path d="M4465.2 1477.87H4432V1496.22H4465.2V1477.87Z" stroke="#010101" stroke-width="4" stroke-miterlimit="10"/>
<path d="M4465.2 1919.84H4432V1937.31H4465.2V1919.84Z" stroke="#010101" stroke-width="4" stroke-miterlimit="10"/>
<path d="M5110.77 1036.78H5077.58V1054.25H5110.77V1036.78Z" stroke="#010101" stroke-width="4" stroke-miterlimit="10"/>
<path d="M5110.77 1477.87H5077.58V1496.22H5110.77V1477.87Z" stroke="#010101" stroke-width="4" stroke-miterlimit="10"/>
<path d="M5110.77 1919.84H5077.58V1937.31H5110.77V1919.84Z" stroke="#010101" stroke-width="4" stroke-miterlimit="10"/>
<path d="M5757.22 1477.87H5723.15V1496.22H5757.22V1477.87Z" stroke="#010101" stroke-width="4" stroke-miterlimit="10"/>
<path d="M5757.22 1919.84H5723.15V1937.31H5757.22V1919.84Z" stroke="#010101" stroke-width="4" stroke-miterlimit="10"/>
<path d="M4549.93 2256.99H4531.59V2291.06H4549.93V2256.99Z" stroke="#010101" stroke-width="4" stroke-miterlimit="10"/>
<path d="M5195.51 2256.99H5178.04V2291.06H5195.51V2256.99Z" stroke="#010101" stroke-width="4" stroke-miterlimit="10"/>
<path d="M5838.47 2256.99H5820.12V2291.06H5838.47V2256.99Z" stroke="#010101" stroke-width="4" stroke-miterlimit="10"/>
<path d="M4465.2 2361.81H4432V2379.28H4465.2V2361.81Z" stroke="#010101" stroke-width="4" stroke-miterlimit="10"/>
<path d="M5110.77 2361.81H5077.58V2379.28H5110.77V2361.81Z" stroke="#010101" stroke-width="4" stroke-miterlimit="10"/>
<path d="M5757.22 2361.81H5723.15V2379.28H5757.22V2361.81Z" stroke="#010101" stroke-width="4" stroke-miterlimit="10"/>
<path d="M4213.37 2073.38C4214.69 2072.92 4216.28 2072.7 4217.6 2072.7H4256.11C4257.43 2072.7 4258.34 2073.57 4258.34 2074.93V2183.56C4258.34 2184.47 4258.79 2184.89 4259.66 2184.89H4280.39C4281.71 2184.89 4282.62 2185.8 4282.62 2187.13V2222.44C4282.62 2223.77 4281.71 2224.68 4280.39 2224.68H4184.86C4183.54 2224.68 4182.64 2223.77 4182.64 2222.44V2187.13C4182.64 2185.8 4183.54 2184.89 4184.86 2184.89H4210.46C4211.33 2184.89 4211.78 2184.44 4211.78 2183.56V2114.49C4211.56 2113.81 4211.11 2113.35 4210.46 2113.35L4182.64 2120.06C4181.31 2120.06 4180.41 2119.15 4180.41 2117.82V2083.19C4180.41 2081.87 4180.86 2080.73 4182.64 2080.27L4213.37 2073.34V2073.38Z" stroke="#010101" stroke-width="4"/>
<path d="M4832.8 2112.61L4831.25 2078.31C4831.25 2076.99 4832.12 2076.31 4833.48 2076.09C4841.75 2073.86 4864.69 2070.95 4884.75 2070.95C4915.51 2070.95 4936.02 2075.41 4936.02 2109.25C4936.02 2128.66 4932.66 2136.22 4914.86 2151.14C4888.34 2173.2 4882.1 2178.75 4882.1 2182.79C4882.1 2184.79 4882.33 2185.02 4884.33 2185.02H4934.7C4936.02 2185.02 4936.93 2185.92 4936.93 2187.25V2222.45C4936.93 2223.77 4936.02 2224.68 4934.7 2224.68H4831.06C4829.28 2224.68 4827.73 2224.22 4827.73 2222.45V2193.25C4827.73 2186.57 4828.19 2183.66 4829.28 2180.33C4831.74 2173.42 4839.52 2162.96 4852.67 2151.59C4875.19 2132.21 4884.75 2123.75 4884.75 2116.84C4884.75 2109.93 4880.06 2110.16 4868.69 2110.16C4861.78 2110.16 4842.39 2113.06 4835.03 2114.84C4833.7 2115.07 4832.8 2113.93 4832.8 2112.61Z" stroke="#010101" stroke-width="4"/>
<path d="M5539.21 2136.69C5539.21 2137.37 5539.89 2137.59 5540.53 2137.59C5567.47 2137.59 5579.01 2148.5 5579.01 2177.68C5579.01 2217.55 5553.43 2226.42 5515.6 2226.42C5503.15 2226.42 5487.79 2224.65 5474.66 2222.19C5473.34 2221.97 5472.44 2221.29 5472.44 2219.97L5474.89 2186.1C5474.89 2185.42 5475.79 2184.78 5477.11 2184.78C5484.7 2186.1 5499.37 2187.24 5507.18 2187.24C5522.54 2187.24 5528.08 2185.01 5528.08 2173.65C5528.08 2164.06 5521.18 2163.15 5491.37 2163.15H5483.15C5481.83 2163.15 5480.92 2162.73 5480.92 2161.83V2138.69C5480.92 2137.14 5481.15 2136.23 5483.38 2134.87C5508.54 2119.06 5515.86 2114.37 5515.86 2112.15C5515.86 2111.24 5514.95 2111.01 5514.31 2111.01H5475.61C5474.28 2111.01 5473.61 2110.15 5473.61 2108.79V2074.92C5473.61 2073.6 5474.51 2072.7 5475.83 2072.7H5573.73C5574.86 2072.7 5575.96 2072.92 5575.96 2074.24V2108.79C5575.96 2109.65 5575.96 2111.01 5573.73 2112.79C5564.6 2119.92 5556.15 2125.47 5540.34 2135.29C5539.44 2135.74 5539.25 2135.97 5539.25 2136.61L5539.21 2136.69Z" stroke="#010101" stroke-width="4"/>
<path d="M4172.55 1734.85C4172.55 1724.87 4173 1721.97 4199.07 1637.32C4199.53 1635.55 4200.62 1635.1 4201.98 1635.1H4241.43C4242.75 1635.1 4243.89 1635.77 4243.89 1637.54C4225.41 1690.89 4216.27 1719.79 4216.27 1723.78C4216.27 1725.32 4216.95 1725.55 4217.85 1725.55H4232.78C4233.69 1725.55 4234.1 1725.1 4234.1 1724.23V1689.57C4234.1 1688.25 4235.01 1687.35 4236.33 1687.35H4276.01C4277.33 1687.35 4278.24 1688.25 4278.24 1689.57V1724.23C4278.24 1725.13 4278.69 1725.55 4279.56 1725.55H4288.25C4289.57 1725.55 4290.48 1726.45 4290.48 1727.77V1761.79C4290.48 1763.11 4289.57 1764.01 4288.25 1764.01H4279.56C4278.65 1764.01 4278.24 1764.47 4278.24 1765.33V1783.98C4278.24 1785.3 4277.33 1786.2 4276.01 1786.2H4236.33C4235.01 1786.2 4234.1 1785.3 4234.1 1783.98V1765.33C4234.1 1764.43 4233.65 1764.01 4232.78 1764.01H4174.81C4173.49 1764.01 4172.58 1763.11 4172.58 1761.79V1734.89L4172.55 1734.85Z" stroke="#010101" stroke-width="4"/>
<path d="M4881.51 1673.18C4879.96 1673.18 4879.5 1673.63 4879.28 1674.94L4878.37 1689.14C4878.37 1690.23 4878.82 1690.9 4879.69 1690.9C4916.47 1690.9 4933.44 1697.78 4933.44 1732.33C4933.44 1780.4 4906.68 1787.95 4867.68 1787.95C4854.75 1787.95 4836.91 1785.96 4827.99 1784.19C4827.09 1783.97 4826.86 1783.52 4826.86 1782.2L4829.09 1747.2C4829.09 1746.53 4830 1745.62 4831.09 1746.07C4838.46 1747.84 4854.49 1748.74 4862.76 1748.74C4876.14 1748.74 4882.15 1747.2 4882.15 1737.66C4882.15 1727.03 4879.47 1725.27 4850.03 1725.27H4834.87C4832.41 1725.27 4830.18 1723.95 4830.18 1721.29L4832.64 1637.99C4832.64 1635.55 4833.09 1635.1 4835.1 1635.1H4926.26C4927.58 1635.1 4928.48 1636 4928.48 1637.31V1671C4928.48 1672.31 4927.58 1673.22 4926.26 1673.22H4881.43L4881.51 1673.18Z" stroke="#010101" stroke-width="4"/>
<path d="M5531.87 1684.48C5531.65 1684.93 5531.42 1685.8 5531.42 1686.47C5531.42 1687.37 5531.65 1688.05 5533.2 1688.05C5538.82 1687.15 5542.39 1687.15 5545.31 1687.15C5575.3 1687.15 5583.38 1703.11 5583.38 1736.99C5583.38 1780.85 5559.89 1787.95 5527.62 1787.95C5486.44 1787.95 5468.07 1778.19 5468.07 1736.76C5468.07 1701.98 5472.32 1681.82 5510.16 1637.31C5511.76 1635.55 5512.86 1635.1 5515.55 1635.1H5563.49C5566.41 1635.1 5566.64 1635.77 5566.64 1638.63C5566.64 1640.39 5549.41 1657.44 5531.91 1684.48H5531.87ZM5524.93 1717.49C5515.74 1717.49 5513.96 1719.71 5513.96 1734.36C5513.96 1749 5516.65 1751.41 5524.93 1751.41C5533.66 1751.41 5536.35 1749.64 5536.35 1734.36C5536.35 1719.07 5533.43 1717.49 5524.93 1717.49Z" stroke="#010101" stroke-width="4"/>
<path d="M4250.8 1296.36C4245.68 1311.46 4244.82 1322.58 4244.82 1337.23C4244.82 1339.87 4243.91 1339.87 4242.37 1339.87H4196.19C4194.42 1339.87 4192.84 1339.45 4192.84 1337.65V1331.43C4192.84 1278.31 4230.82 1245.65 4230.82 1231.86C4230.82 1230.96 4230.37 1230.54 4229.5 1230.54H4180.01C4178.69 1230.54 4177.79 1229.64 4177.79 1228.32V1190.98C4177.79 1189.67 4178.69 1188.76 4180.01 1188.76H4283.02C4284.33 1188.76 4285.24 1189.67 4285.24 1190.98V1218.56C4285.24 1219.88 4285.01 1222.33 4283.92 1225.23C4271.28 1256.12 4260.17 1268.33 4250.84 1296.32L4250.8 1296.36Z" stroke="#010101" stroke-width="4"/>
<path d="M4824.93 1223.45C4824.93 1193.75 4847.33 1186.14 4880.15 1186.14C4912.96 1186.14 4935.37 1193.75 4935.37 1223.45C4935.37 1241.1 4931.84 1250.49 4915.41 1257.84C4915.18 1257.84 4914.32 1258.52 4914.32 1259.85C4914.32 1260.98 4915.22 1261.4 4915.63 1261.63C4935.59 1271.02 4938.68 1282.19 4938.68 1300.94C4938.68 1334.23 4913.42 1342.49 4880.15 1342.49C4846.88 1342.49 4821.62 1334.23 4821.62 1300.94C4821.62 1282.19 4824.93 1271.02 4844.66 1262.72C4845.11 1262.5 4845.98 1262.04 4845.98 1260.94C4845.98 1259.62 4845.07 1258.94 4844.89 1258.94C4828.46 1251.55 4824.93 1241.51 4824.93 1223.41V1223.45ZM4879.92 1277.5C4870.82 1277.5 4867.52 1283.97 4867.52 1293.14C4867.52 1304.31 4871.05 1306.09 4880.15 1306.09C4889.24 1306.09 4893 1304.08 4893 1293.14C4893 1283.97 4889.47 1277.5 4879.92 1277.5ZM4880.15 1218.98C4871.28 1218.98 4868.16 1220.53 4868.16 1231.93C4868.16 1240.64 4870.15 1247.57 4879.7 1247.57C4889.24 1247.57 4891.46 1240.64 4891.46 1231.93C4891.46 1220.76 4888.57 1218.98 4880.15 1218.98Z" stroke="#010101" stroke-width="4"/>
<path d="M4148.73 747.472C4150.05 747.02 4151.63 746.794 4152.95 746.794H4191.47C4192.79 746.794 4193.69 747.66 4193.69 749.017V857.026C4193.69 857.93 4194.15 858.344 4195.02 858.344H4215.74C4217.07 858.344 4217.97 859.249 4217.97 860.567V895.679C4217.97 896.997 4217.07 897.901 4215.74 897.901H4120.22C4118.9 897.901 4117.99 896.997 4117.99 895.679V860.567C4117.99 859.249 4118.9 858.344 4120.22 858.344H4145.82C4146.69 858.344 4147.14 857.892 4147.14 857.026V788.348C4146.91 787.669 4146.46 787.217 4145.82 787.217L4117.99 793.886C4116.67 793.886 4115.76 792.981 4115.76 791.663V757.229C4115.76 755.911 4116.22 754.781 4117.99 754.329L4148.73 747.434V747.472Z" stroke="#010101" stroke-width="4"/>
<path d="M4333.27 891.361C4322.8 898.288 4314.97 900.522 4296.48 900.522C4277.99 900.522 4270.39 898.288 4259.92 891.361C4243.43 880.42 4238.06 845.781 4238.06 822.348C4238.06 798.915 4243.43 764.276 4259.92 753.335C4270.39 746.407 4278.22 744.174 4296.48 744.174C4314.74 744.174 4322.8 746.407 4333.27 753.335C4349.79 764.276 4355.12 798.687 4355.12 822.348C4355.12 846.008 4349.79 880.42 4333.27 891.361ZM4290.24 860.091C4292.02 863.422 4293.15 863.877 4296.48 863.877C4300.04 863.877 4301.62 863.195 4302.95 860.091C4305.4 854.526 4307.41 836.431 4307.41 822.348C4307.41 808.265 4305.63 789.98 4302.95 784.378C4301.4 781.046 4300.04 780.592 4296.48 780.592C4293.12 780.592 4291.57 781.273 4290.24 784.378C4287.79 789.526 4285.78 808.038 4285.78 822.348C4285.78 836.658 4287.79 854.942 4290.24 860.091Z" stroke="#010101" stroke-width="4"/>
<path d="M4796.92 747.472C4798.24 747.02 4799.83 746.794 4801.15 746.794H4839.66C4840.99 746.794 4841.89 747.66 4841.89 749.017V857.026C4841.89 857.93 4842.35 858.344 4843.21 858.344H4863.94C4865.26 858.344 4866.17 859.249 4866.17 860.567V895.679C4866.17 896.997 4865.26 897.901 4863.94 897.901H4768.42C4767.1 897.901 4766.19 896.997 4766.19 895.679V860.567C4766.19 859.249 4767.1 858.344 4768.42 858.344H4794.02C4794.88 858.344 4795.34 857.892 4795.34 857.026V788.348C4795.11 787.669 4794.66 787.217 4794.02 787.217L4766.19 793.886C4764.87 793.886 4763.96 792.981 4763.96 791.663V757.229C4763.96 755.911 4764.41 754.781 4766.19 754.329L4796.92 747.434V747.472Z" stroke="#010101" stroke-width="4"/>
<path d="M4927.09 747.472C4928.41 747.02 4929.99 746.794 4931.32 746.794H4969.83C4971.15 746.794 4972.06 747.66 4972.06 749.017V857.026C4972.06 857.93 4972.51 858.344 4973.38 858.344H4994.11C4995.43 858.344 4996.33 859.249 4996.33 860.567V895.679C4996.33 896.997 4995.43 897.901 4994.11 897.901H4898.58C4897.26 897.901 4896.35 896.997 4896.35 895.679V860.567C4896.35 859.249 4897.26 858.344 4898.58 858.344H4924.18C4925.05 858.344 4925.5 857.892 4925.5 857.026V788.348C4925.27 787.669 4924.82 787.217 4924.18 787.217L4896.35 793.886C4895.03 793.886 4894.12 792.981 4894.12 791.663V757.229C4894.12 755.911 4894.58 754.781 4896.35 754.329L4927.09 747.434V747.472Z" stroke="#010101" stroke-width="4"/>
<path d="M5519.19 1290.16C5519.41 1289.71 5519.64 1288.84 5519.64 1288.16C5519.64 1287.29 5519.41 1286.61 5517.87 1286.61C5512.29 1287.52 5508.75 1287.52 5505.85 1287.52C5476.09 1287.52 5468.07 1271.47 5468.07 1237.4C5468.07 1193.28 5491.39 1186.14 5523.4 1186.14C5564.28 1186.14 5582.51 1195.92 5582.51 1237.62C5582.51 1272.6 5578.29 1292.88 5540.73 1337.64C5539.15 1339.42 5538.06 1339.87 5535.38 1339.87H5487.81C5484.91 1339.87 5484.68 1339.19 5484.68 1336.32C5484.68 1334.54 5501.78 1317.39 5519.15 1290.2L5519.19 1290.16ZM5526.08 1256.73C5535.19 1256.73 5536.97 1254.51 5536.97 1239.78C5536.97 1225.04 5534.29 1222.85 5526.08 1222.85C5517.41 1222.85 5515.42 1224.4 5515.42 1239.78C5515.42 1255.15 5517.64 1256.73 5526.08 1256.73Z" stroke="#010101" stroke-width="4"/>
<path d="M4508 602.674H3952.4V630.624H4508V602.674Z" stroke="#010101" stroke-width="4" stroke-miterlimit="10"/>
<path d="M5152.71 602.674H4597.11V630.624H5152.71V602.674Z" stroke="#010101" stroke-width="4" stroke-miterlimit="10"/>
<path d="M4567.41 662.069H4538.58V929.346H4567.41V662.069Z" stroke="#010101" stroke-width="4" stroke-miterlimit="10"/>
<path d="M3920.95 662.069H3893V1010.58H3920.95V662.069Z" stroke="#010101" stroke-width="4" stroke-miterlimit="10"/>
<path d="M4425.88 1042.02H3952.4V1069.97H4425.88V1042.02Z" stroke="#010101" stroke-width="4" stroke-miterlimit="10"/>
<path d="M5071.46 1042.02H4597.98V1069.97H5071.46V1042.02Z" stroke="#010101" stroke-width="4" stroke-miterlimit="10"/>
<path d="M4506.25 1042.02H4471.31V1069.97H4506.25V1042.02Z" stroke="#010101" stroke-width="4" stroke-miterlimit="10"/>
<path d="M4567.41 975.639H4538.58V1010.58H4567.41V975.639Z" stroke="#010101" stroke-width="4" stroke-miterlimit="10"/>
<path d="M5209.49 662.069H5184.15V929.346H5209.49V662.069Z" stroke="#010101" stroke-width="4" stroke-miterlimit="10"/>
<path d="M3920.95 1103.16H3893V1450.8H3920.95V1103.16Z" stroke="#010101" stroke-width="4" stroke-miterlimit="10"/>
<path d="M5800.03 1043.77H5244.43V1069.97H5800.03V1043.77Z" stroke="#010101" stroke-width="4" stroke-miterlimit="10"/>
<path d="M4567.41 1100.54H4538.58V1367.82H4567.41V1100.54Z" stroke="#010101" stroke-width="4" stroke-miterlimit="10"/>
<path d="M5212.98 1100.54H5184.15V1367.82H5212.98V1100.54Z" stroke="#010101" stroke-width="4" stroke-miterlimit="10"/>
<path d="M5209.49 975.639H5184.15V1010.58H5209.49V975.639Z" stroke="#010101" stroke-width="4" stroke-miterlimit="10"/>
<path d="M5151.83 1042.02H5116.89V1069.97H5151.83V1042.02Z" stroke="#010101" stroke-width="4" stroke-miterlimit="10"/>
<path d="M5212.98 1413.24H5184.15V1448.18H5212.98V1413.24Z" stroke="#010101" stroke-width="4" stroke-miterlimit="10"/>
<path d="M4567.41 1413.24H4538.58V1448.18H4567.41V1413.24Z" stroke="#010101" stroke-width="4" stroke-miterlimit="10"/>
<path d="M5855.94 1100.54H5827.11V1367.82H5855.94V1100.54Z" stroke="#010101" stroke-width="4" stroke-miterlimit="10"/>
<path d="M5855.94 1413.24H5827.11V1448.18H5855.94V1413.24Z" stroke="#010101" stroke-width="4" stroke-miterlimit="10"/>
<path d="M5717.91 1483.99H5244.43V1511.94H5717.91V1483.99Z" stroke="#010101" stroke-width="4" stroke-miterlimit="10"/>
<path d="M5798.28 1483.99H5763.34V1511.94H5798.28V1483.99Z" stroke="#010101" stroke-width="4" stroke-miterlimit="10"/>
<path d="M5071.46 1483.99H4597.98V1511.94H5071.46V1483.99Z" stroke="#010101" stroke-width="4" stroke-miterlimit="10"/>
<path d="M5151.83 1483.99H5116.89V1511.94H5151.83V1483.99Z" stroke="#010101" stroke-width="4" stroke-miterlimit="10"/>
<path d="M4506.25 1483.99H4471.31V1511.94H4506.25V1483.99Z" stroke="#010101" stroke-width="4" stroke-miterlimit="10"/>
<path d="M4425.88 1483.99H3952.4V1511.94H4425.88V1483.99Z" stroke="#010101" stroke-width="4" stroke-miterlimit="10"/>
<path d="M3920.95 1543.38H3893V1891.89H3920.95V1543.38Z" stroke="#010101" stroke-width="4" stroke-miterlimit="10"/>
<path d="M4567.41 1541.64H4538.58V1808.91H4567.41V1541.64Z" stroke="#010101" stroke-width="4" stroke-miterlimit="10"/>
<path d="M5212.98 1541.64H5184.15V1808.91H5212.98V1541.64Z" stroke="#010101" stroke-width="4" stroke-miterlimit="10"/>
<path d="M5855.94 1541.64H5827.11V1808.91H5855.94V1541.64Z" stroke="#010101" stroke-width="4" stroke-miterlimit="10"/>
<path d="M5212.98 1855.21H5184.15V1890.14H5212.98V1855.21Z" stroke="#010101" stroke-width="4" stroke-miterlimit="10"/>
<path d="M5855.94 1855.21H5827.11V1890.14H5855.94V1855.21Z" stroke="#010101" stroke-width="4" stroke-miterlimit="10"/>
<path d="M4567.41 1855.21H4538.58V1890.14H4567.41V1855.21Z" stroke="#010101" stroke-width="4" stroke-miterlimit="10"/>
<path d="M5855.94 1984.48H5827.11V2251.75H5855.94V1984.48Z" stroke="#010101" stroke-width="4" stroke-miterlimit="10"/>
<path d="M5855.94 2297.17H5827.11V2332.11H5855.94V2297.17Z" stroke="#010101" stroke-width="4" stroke-miterlimit="10"/>
<path d="M5717.91 1925.08H5244.43V1953.91H5717.91V1925.08Z" stroke="#010101" stroke-width="4" stroke-miterlimit="10"/>
<path d="M5798.28 1925.08H5763.34V1953.91H5798.28V1925.08Z" stroke="#010101" stroke-width="4" stroke-miterlimit="10"/>
<path d="M5717.91 2367.05H5244.43V2395H5717.91V2367.05Z" stroke="#010101" stroke-width="4" stroke-miterlimit="10"/>
<path d="M5798.28 2367.05H5763.34V2395H5798.28V2367.05Z" stroke="#010101" stroke-width="4" stroke-miterlimit="10"/>
<path d="M3920.95 1983.6H3893V2332.11H3920.95V1983.6Z" stroke="#010101" stroke-width="4" stroke-miterlimit="10"/>
<path d="M4567.41 1984.48H4538.58V2251.75H4567.41V1984.48Z" stroke="#010101" stroke-width="4" stroke-miterlimit="10"/>
<path d="M4567.41 2297.17H4538.58V2332.11H4567.41V2297.17Z" stroke="#010101" stroke-width="4" stroke-miterlimit="10"/>
<path d="M5212.98 1984.48H5184.15V2251.75H5212.98V1984.48Z" stroke="#010101" stroke-width="4" stroke-miterlimit="10"/>
<path d="M5212.98 2297.17H5184.15V2332.11H5212.98V2297.17Z" stroke="#010101" stroke-width="4" stroke-miterlimit="10"/>
<path d="M4425.88 1925.08H3952.4V1953.91H4425.88V1925.08Z" stroke="#010101" stroke-width="4" stroke-miterlimit="10"/>
<path d="M4506.25 1925.08H4471.31V1953.91H4506.25V1925.08Z" stroke="#010101" stroke-width="4" stroke-miterlimit="10"/>
<path d="M4425.88 2367.05H3952.4V2395H4425.88V2367.05Z" stroke="#010101" stroke-width="4" stroke-miterlimit="10"/>
<path d="M4506.25 2367.05H4471.31V2395H4506.25V2367.05Z" stroke="#010101" stroke-width="4" stroke-miterlimit="10"/>
<path d="M5071.46 1925.08H4597.98V1953.91H5071.46V1925.08Z" stroke="#010101" stroke-width="4" stroke-miterlimit="10"/>
<path d="M5151.83 1925.08H5116.89V1953.91H5151.83V1925.08Z" stroke="#010101" stroke-width="4" stroke-miterlimit="10"/>
<path d="M5071.46 2367.05H4597.98V2395H5071.46V2367.05Z" stroke="#010101" stroke-width="4" stroke-miterlimit="10"/>
<path d="M5151.83 2367.05H5116.89V2395H5151.83V2367.05Z" stroke="#010101" stroke-width="4" stroke-miterlimit="10"/>
<path d="M2737.08 2510.59H2701.15C2664.83 2510.59 2635.39 2540.03 2635.39 2576.35V2624.21C2635.39 2660.53 2664.83 2689.98 2701.15 2689.98H2737.08C2773.4 2689.98 2802.84 2660.53 2802.84 2624.21V2576.35C2802.84 2540.03 2773.4 2510.59 2737.08 2510.59Z" stroke="#231F20" stroke-width="4" stroke-miterlimit="10"/>
<path d="M1858 2510.59H1828.04C1791.72 2510.59 1762.27 2540.03 1762.27 2576.35V2624.21C1762.27 2660.53 1791.72 2689.98 1828.04 2689.98H1858C1894.32 2689.98 1923.76 2660.53 1923.76 2624.21V2576.35C1923.76 2540.03 1894.32 2510.59 1858 2510.59Z" stroke="#231F20" stroke-width="4" stroke-miterlimit="10"/>
<path d="M984.845 2510.59H978.835C942.516 2510.59 913.073 2540.03 913.073 2576.35V2624.21C913.073 2660.53 942.516 2689.98 978.835 2689.98H984.845C1021.16 2689.98 1050.61 2660.53 1050.61 2624.21V2576.35C1050.61 2540.03 1021.16 2510.59 984.845 2510.59Z" stroke="#231F20" stroke-width="4" stroke-miterlimit="10"/>
<path d="M109.658 537.114H67.7623C31.4428 537.114 2 566.557 2 602.877V650.739C2 687.058 31.4428 716.501 67.7623 716.501H109.658C145.978 716.501 175.42 687.058 175.42 650.739V602.877C175.42 566.557 145.978 537.114 109.658 537.114Z" stroke="#231F20" stroke-width="4" stroke-miterlimit="10"/>
<path d="M109.658 2091.97H67.7623C31.4428 2091.97 2 2121.42 2 2157.74V2205.6C2 2241.92 31.4428 2271.36 67.7623 2271.36H109.658C145.978 2271.36 175.42 2241.92 175.42 2205.6V2157.74C175.42 2121.42 145.978 2091.97 109.658 2091.97Z" stroke="#231F20" stroke-width="4" stroke-miterlimit="10"/>
<path d="M109.658 1573.7H67.7623C31.4428 1573.7 2 1603.14 2 1639.46V1687.33C2 1723.65 31.4428 1753.09 67.7623 1753.09H109.658C145.978 1753.09 175.42 1723.65 175.42 1687.33V1639.46C175.42 1603.14 145.978 1573.7 109.658 1573.7Z" stroke="#231F20" stroke-width="4" stroke-miterlimit="10"/>
<path d="M103.692 1055.39H67.7623C31.4428 1055.39 2 1084.83 2 1121.15V1169.01C2 1205.33 31.4428 1234.77 67.7623 1234.77H103.692C140.011 1234.77 169.454 1205.33 169.454 1169.01V1121.15C169.454 1084.83 140.011 1055.39 103.692 1055.39Z" stroke="#231F20" stroke-width="4" stroke-miterlimit="10"/>
<path d="M48.5654 668.68L79.5226 582.208H97.9412L128.855 668.68H111.474L104.427 648.662H73.3398L66.1193 668.68H48.6087H48.5654ZM77.2311 633.4H100.276L88.8616 599.07L77.2743 633.4H77.2311Z" stroke="#231F20" stroke-width="4" stroke-miterlimit="10"/>
<path d="M54.4883 1186.95V1100.48H85.8345C97.1624 1100.48 105.55 1102.43 110.998 1106.36C116.489 1110.21 119.256 1115.83 119.256 1123.18C119.256 1127.5 118.175 1131.22 115.97 1134.42C113.765 1137.58 109.874 1140.3 104.253 1142.68C107.885 1143.59 110.825 1144.84 113.03 1146.4C115.278 1147.95 116.965 1149.68 118.175 1151.59C119.386 1153.45 120.207 1155.43 120.64 1157.51C121.072 1159.54 121.288 1161.57 121.288 1163.56C121.288 1171.52 118.564 1177.44 113.16 1181.25C107.755 1185.09 99.1081 1187 87.2613 1187H54.4883V1186.95ZM71.8692 1173.42H87.6072C92.882 1173.42 96.8165 1172.38 99.4972 1170.26C102.221 1168.15 103.561 1165.34 103.561 1161.79C103.561 1159.24 102.913 1157.12 101.573 1155.39C100.275 1153.62 98.4595 1152.32 96.2112 1151.46C93.9629 1150.59 91.412 1150.16 88.5584 1150.16H71.8692V1173.46V1173.42ZM71.8692 1136.24H88.5584C90.3311 1136.24 92.0605 1136.02 93.7035 1135.63C95.3897 1135.2 96.8597 1134.55 98.1136 1133.64C99.4107 1132.78 100.448 1131.65 101.227 1130.31C102.005 1128.93 102.351 1127.29 102.351 1125.43C102.351 1121.67 100.924 1118.86 98.1136 1116.95C95.3032 1115.01 91.7146 1114.01 87.3478 1114.01H71.8692V1136.28V1136.24Z" stroke="#231F20" stroke-width="4" stroke-miterlimit="10"/>
<path d="M90.7206 1617.59C97.206 1617.59 103 1618.88 108.058 1621.52C113.16 1624.11 117.268 1627.66 120.381 1632.16C123.537 1636.65 125.396 1641.75 125.958 1647.42H107.669C107.107 1644.43 106.113 1641.8 104.599 1639.46C103.129 1637.13 101.184 1635.27 98.8057 1633.97C96.4277 1632.63 93.5309 1631.94 90.2017 1631.94C86.1808 1631.94 82.7219 1632.93 79.7818 1634.88C76.885 1636.83 74.6367 1639.98 73.0802 1644.35C71.5237 1648.72 70.7455 1654.42 70.7455 1661.56C70.7455 1672.32 72.4749 1680.1 75.8905 1684.95C79.3494 1689.75 84.1054 1692.12 90.2017 1692.12C93.5309 1692.12 96.4277 1691.39 98.8057 1689.83C101.184 1688.28 103.129 1686.24 104.599 1683.74C106.069 1681.19 107.107 1678.38 107.669 1675.35H125.958C125.439 1679.46 124.445 1683.39 122.975 1687.11C121.505 1690.83 119.386 1694.11 116.706 1697.05C113.982 1699.95 110.523 1702.24 106.242 1703.93C101.962 1705.61 96.8169 1706.44 90.7638 1706.44C82.7219 1706.44 75.7608 1704.58 69.8807 1700.81C64.0006 1697.05 59.504 1691.82 56.3045 1685.03C53.1483 1678.25 51.5918 1670.33 51.5918 1661.3C51.5918 1652.26 53.1483 1644.43 56.3045 1637.91C59.4608 1631.38 63.9573 1626.36 69.8375 1622.82C75.7176 1619.31 82.6786 1617.54 90.7638 1617.54L90.7206 1617.59Z" stroke="#231F20" stroke-width="4" stroke-miterlimit="10"/>
<path d="M55.3538 2137.07H66.1196C68.8867 2137.07 71.6106 2137.07 74.2913 2137.11C77.0584 2137.11 79.3499 2137.11 81.1658 2137.16C91.6722 2137.42 100.19 2139.28 106.805 2142.78C113.42 2146.28 118.262 2151.21 121.332 2157.48C124.445 2163.79 126.002 2171.23 126.002 2179.83C126.002 2188.44 124.359 2196.56 121.116 2203.09C117.83 2209.58 112.858 2214.64 106.113 2218.18C99.4115 2221.73 90.894 2223.5 80.5605 2223.5H55.3105V2137.03L55.3538 2137.07ZM72.9509 2151.17V2209.4H80.9496C85.8785 2209.4 90.3751 2208.45 94.3961 2206.55C98.4603 2204.65 101.703 2201.49 104.124 2197.17C106.545 2192.8 107.756 2187.01 107.756 2179.79C107.756 2173.04 106.675 2167.6 104.513 2163.4C102.352 2159.16 99.2818 2156.09 95.304 2154.15C91.3263 2152.2 86.6136 2151.21 81.1226 2151.21H72.8645L72.9509 2151.17Z" stroke="#231F20" stroke-width="4" stroke-miterlimit="10"/>
<path d="M976.846 2642.16V2577.39H961.411V2567.53C966.34 2567.53 970.361 2567.05 973.388 2566.15C976.457 2565.2 978.749 2563.81 980.262 2562.08C981.775 2560.31 982.683 2558.15 982.943 2555.68H994.53V2642.16H976.846Z" stroke="#231F20" stroke-width="4" stroke-miterlimit="10"/>
<path d="M1811.82 2642.16V2629.1C1811.82 2624.73 1812.65 2620.93 1814.29 2617.73C1815.93 2614.48 1818.09 2611.72 1820.73 2609.34C1823.45 2606.96 1826.39 2604.84 1829.59 2603.07C1832.84 2601.3 1836.04 2599.57 1839.28 2597.97C1842.52 2596.37 1845.46 2594.77 1848.14 2593.17C1850.87 2591.53 1853.03 2589.71 1854.67 2587.72C1856.31 2585.73 1857.14 2583.35 1857.14 2580.67C1857.14 2577.22 1855.93 2574.36 1853.5 2572.2C1851.13 2569.99 1847.84 2568.91 1843.65 2568.91C1839.45 2568.91 1835.6 2570.17 1832.58 2572.68C1829.55 2575.18 1827.69 2578.99 1826.96 2584.05H1810.27C1810.35 2578.56 1811.61 2573.58 1814.12 2569.09C1816.62 2564.59 1820.38 2561 1825.36 2558.36C1830.33 2555.73 1836.6 2554.43 1844.12 2554.43C1850.56 2554.43 1856.14 2555.51 1860.81 2557.72C1865.52 2559.92 1869.16 2562.95 1871.71 2566.88C1874.26 2570.77 1875.55 2575.36 1875.55 2580.59C1875.55 2584.95 1874.78 2588.67 1873.18 2591.83C1871.58 2594.99 1869.46 2597.67 1866.82 2599.91C1864.18 2602.16 1861.29 2604.11 1858.13 2605.79C1854.97 2607.48 1851.82 2609.04 1848.66 2610.46C1845.55 2611.89 1842.69 2613.36 1840.06 2614.87C1837.42 2616.34 1835.3 2618.03 1833.7 2619.89C1832.1 2621.75 1831.32 2624 1831.32 2626.63V2627.41H1875.38V2642.11H1811.87L1811.82 2642.16Z" stroke="#231F20" stroke-width="4" stroke-miterlimit="10"/>
<path d="M2685.15 2582.27C2685.15 2576.05 2686.62 2570.9 2689.52 2566.79C2692.46 2562.69 2696.44 2559.62 2701.41 2557.58C2706.38 2555.51 2711.92 2554.47 2718.06 2554.47C2724.5 2554.47 2730.25 2555.29 2735.26 2556.98C2740.32 2558.67 2744.3 2561.22 2747.24 2564.63C2750.14 2568.05 2751.61 2572.41 2751.61 2577.69C2751.61 2581.97 2750.35 2585.73 2747.89 2588.97C2745.42 2592.22 2741.4 2594.77 2735.83 2596.67C2739.02 2597.53 2741.96 2598.88 2744.69 2600.69C2747.41 2602.46 2749.57 2604.76 2751.22 2607.57C2752.86 2610.38 2753.68 2613.71 2753.68 2617.6C2753.68 2621.83 2752.73 2625.55 2750.87 2628.79C2749.01 2632.04 2746.42 2634.72 2743.09 2636.92C2739.76 2639.13 2735.95 2640.77 2731.59 2641.81C2727.22 2642.89 2722.59 2643.41 2717.67 2643.41C2710.75 2643.41 2704.82 2642.24 2699.9 2639.99C2695.01 2637.7 2691.29 2634.5 2688.65 2630.31C2686.06 2626.11 2684.72 2621.14 2684.63 2615.35H2701.45C2702.27 2620.23 2704.22 2623.78 2707.2 2625.98C2710.19 2628.19 2713.73 2629.27 2717.84 2629.27C2721.43 2629.27 2724.5 2628.75 2727.05 2627.71C2729.64 2626.68 2731.63 2625.25 2732.97 2623.39C2734.36 2621.53 2735.05 2619.37 2735.05 2616.99C2735.05 2614.61 2734.31 2612.36 2732.89 2610.59C2731.5 2608.82 2729.56 2607.39 2727 2606.4C2724.5 2605.36 2721.64 2604.8 2718.4 2604.71L2710.14 2604.41V2590.53L2717.58 2590.1C2720.69 2589.97 2723.42 2589.41 2725.71 2588.37C2728 2587.33 2729.82 2585.95 2731.07 2584.26C2732.37 2582.49 2733.06 2580.54 2733.06 2578.34C2733.06 2576.13 2732.41 2574.4 2731.07 2572.85C2729.77 2571.29 2727.96 2570.08 2725.62 2569.22C2723.29 2568.35 2720.65 2567.92 2717.67 2567.92C2714.9 2567.92 2712.39 2568.39 2710.06 2569.3C2707.72 2570.21 2705.86 2571.72 2704.39 2573.84C2702.92 2575.92 2702.06 2578.68 2701.84 2582.23H2685.15V2582.27Z" stroke="#231F20" stroke-width="4" stroke-miterlimit="10"/>
<path d="M1436.97 2383.26C1436.97 2393.68 1428.45 2402.19 1418.03 2402.19H283.035C272.615 2402.19 264.097 2393.68 264.097 2383.26V1918.86C264.097 1908.44 272.615 1899.92 283.035 1899.92H1417.98C1428.4 1899.92 1436.92 1908.44 1436.92 1918.86V2383.26H1436.97Z" stroke="#231F20" stroke-width="4" stroke-miterlimit="10"/>
<path d="M1413.27 2129.72H1427.5C1432.73 2129.72 1436.97 2125.48 1436.97 2120.25V1918.86C1436.97 1908.44 1428.45 1899.92 1418.03 1899.92H283.035C272.615 1899.92 264.097 1908.44 264.097 1918.86V2120.25C264.097 2125.48 268.334 2129.72 273.566 2129.72H287.791C299.551 2129.72 309.106 2139.28 309.106 2151.04C309.106 2162.8 299.551 2172.35 287.791 2172.35H273.566C268.334 2172.35 264.097 2176.59 264.097 2181.82V2383.21C264.097 2393.63 272.615 2402.15 283.035 2402.15H1417.98C1428.4 2402.15 1436.92 2393.63 1436.92 2383.21V2181.82C1436.92 2176.59 1432.69 2172.35 1427.45 2172.35H1413.23C1401.47 2172.35 1391.91 2162.8 1391.91 2151.04C1391.91 2139.28 1401.47 2129.72 1413.23 2129.72H1413.27Z" stroke="#231F20" stroke-width="4" stroke-miterlimit="10"/>
<path d="M304.37 2152.4C305.021 2143.26 298.134 2135.32 288.987 2134.67C279.841 2134.01 271.899 2140.9 271.248 2150.05C270.597 2159.19 277.484 2167.14 286.631 2167.79C295.777 2168.44 303.719 2161.55 304.37 2152.4Z" stroke="#231F20" stroke-width="4" stroke-miterlimit="10"/>
<path d="M294.882 2146.97L287.791 2142.87L280.701 2146.97V2155.19L287.791 2159.25L294.882 2155.19V2146.97Z" stroke="#231F20" stroke-width="4" stroke-miterlimit="10"/>
<path d="M1413.27 2167.64C1422.44 2167.64 1429.87 2160.21 1429.87 2151.04C1429.87 2141.87 1422.44 2134.43 1413.27 2134.43C1404.1 2134.43 1396.67 2141.87 1396.67 2151.04C1396.67 2160.21 1404.1 2167.64 1413.27 2167.64Z" stroke="#231F20" stroke-width="4" stroke-miterlimit="10"/>
<path d="M1420.36 2146.97L1413.27 2142.87L1406.14 2146.97V2155.19L1413.27 2159.25L1420.36 2155.19V2146.97Z" stroke="#231F20" stroke-width="4" stroke-miterlimit="10"/>
<path d="M723.741 1918.86C721.104 1918.86 719.028 1920.98 719.028 1923.57V2025.44H746.051V1954.36H738.009C736.712 1954.36 735.631 1953.32 735.631 1951.98V1937.75C735.631 1936.46 736.669 1935.38 738.009 1935.38H752.234C753.531 1935.38 754.612 1936.41 754.612 1937.75V1945.8H825.692V1918.77H723.784L723.741 1918.86Z" stroke="#231F20" stroke-width="4" stroke-miterlimit="10"/>
<path d="M1382.44 1923.62C1382.44 1920.98 1380.33 1918.9 1377.73 1918.9H1275.87V1945.93H1346.95V1937.88C1346.95 1936.59 1347.99 1935.51 1349.33 1935.51H1363.55C1364.85 1935.51 1365.93 1936.54 1365.93 1937.88V1952.11C1365.93 1953.41 1364.89 1954.49 1363.55 1954.49H1355.51V2025.57H1382.53V1923.66L1382.44 1923.62Z" stroke="#231F20" stroke-width="4" stroke-miterlimit="10"/>
<path d="M1377.73 2383.26C1380.37 2383.26 1382.45 2381.14 1382.45 2378.55V2276.68H1355.42V2347.76H1363.46C1364.76 2347.76 1365.84 2348.8 1365.84 2350.14V2364.37C1365.84 2365.66 1364.8 2366.74 1363.46 2366.74H1349.24C1347.94 2366.74 1346.86 2365.71 1346.86 2364.37V2356.32H1275.78V2383.35H1377.69L1377.73 2383.26Z" stroke="#231F20" stroke-width="4" stroke-miterlimit="10"/>
<path d="M719.028 2378.5C719.028 2381.14 721.147 2383.22 723.741 2383.22H825.606V2356.19H754.525V2364.23C754.525 2365.53 753.488 2366.61 752.147 2366.61H737.923C736.625 2366.61 735.545 2365.58 735.545 2364.23V2350.01C735.545 2348.71 736.582 2347.63 737.923 2347.63H745.965V2276.55H718.942V2378.46L719.028 2378.5Z" stroke="#231F20" stroke-width="4" stroke-miterlimit="10"/>
<path d="M2214.14 2383.26C2214.14 2393.68 2205.62 2402.19 2195.2 2402.19H1460.66C1450.24 2402.19 1441.72 2393.68 1441.72 2383.26V1918.86C1441.72 1908.44 1450.24 1899.92 1460.66 1899.92H2195.2C2205.62 1899.92 2214.14 1908.44 2214.14 1918.86V2383.26Z" stroke="#231F20" stroke-width="4" stroke-miterlimit="10"/>
<path d="M2190.44 2129.72H2204.67C2209.9 2129.72 2214.14 2125.48 2214.14 2120.25V1918.86C2214.14 1908.44 2205.62 1899.92 2195.2 1899.92H1460.66C1450.24 1899.92 1441.72 1908.44 1441.72 1918.86V2120.25C1441.72 2125.48 1445.96 2129.72 1451.19 2129.72H1465.41C1477.17 2129.72 1486.73 2139.28 1486.73 2151.04C1486.73 2162.8 1477.17 2172.35 1465.41 2172.35H1451.19C1445.96 2172.35 1441.72 2176.59 1441.72 2181.82V2383.21C1441.72 2393.63 1450.24 2402.15 1460.66 2402.15H2195.2C2205.62 2402.15 2214.14 2393.63 2214.14 2383.21V2181.82C2214.14 2176.59 2209.9 2172.35 2204.67 2172.35H2190.44C2178.68 2172.35 2169.13 2162.8 2169.13 2151.04C2169.13 2139.28 2178.68 2129.72 2190.44 2129.72Z" stroke="#231F20" stroke-width="4" stroke-miterlimit="10"/>
<path d="M1465.42 2167.64C1474.58 2167.64 1482.02 2160.21 1482.02 2151.04C1482.02 2141.87 1474.58 2134.43 1465.42 2134.43C1456.25 2134.43 1448.81 2141.87 1448.81 2151.04C1448.81 2160.21 1456.25 2167.64 1465.42 2167.64Z" stroke="#231F20" stroke-width="4" stroke-miterlimit="10"/>
<path d="M1472.51 2146.97L1465.41 2142.87L1458.28 2146.97V2155.19L1465.41 2159.25L1472.51 2155.19V2146.97Z" stroke="#231F20" stroke-width="4" stroke-miterlimit="10"/>
<path d="M2190.44 2167.64C2199.61 2167.64 2207.05 2160.21 2207.05 2151.04C2207.05 2141.87 2199.61 2134.43 2190.44 2134.43C2181.27 2134.43 2173.84 2141.87 2173.84 2151.04C2173.84 2160.21 2181.27 2167.64 2190.44 2167.64Z" stroke="#231F20" stroke-width="4" stroke-miterlimit="10"/>
<path d="M2197.53 2146.97L2190.44 2142.87L2183.35 2146.97V2155.19L2190.44 2159.25L2197.53 2155.19V2146.97Z" stroke="#231F20" stroke-width="4" stroke-miterlimit="10"/>
<path d="M1500.96 1918.86C1498.32 1918.86 1496.24 1920.98 1496.24 1923.57V2025.44H1523.27V1954.36H1515.22C1513.93 1954.36 1512.85 1953.32 1512.85 1951.98V1937.75C1512.85 1936.46 1513.88 1935.38 1515.22 1935.38H1529.45C1530.75 1935.38 1531.83 1936.41 1531.83 1937.75V1945.8H1602.91V1918.77H1501L1500.96 1918.86Z" stroke="#231F20" stroke-width="4" stroke-miterlimit="10"/>
<path d="M2159.62 1923.62C2159.62 1920.98 2157.5 1918.9 2154.9 1918.9H2053.04V1945.93H2124.12V1937.88C2124.12 1936.59 2125.16 1935.51 2126.5 1935.51H2140.72C2142.02 1935.51 2143.1 1936.54 2143.1 1937.88V1952.11C2143.1 1953.41 2142.06 1954.49 2140.72 1954.49H2132.68V2025.57H2159.7V1923.66L2159.62 1923.62Z" stroke="#231F20" stroke-width="4" stroke-miterlimit="10"/>
<path d="M2154.9 2383.26C2157.54 2383.26 2159.62 2381.14 2159.62 2378.55V2276.68H2132.59V2347.76H2140.64C2141.93 2347.76 2143.01 2348.8 2143.01 2350.14V2364.37C2143.01 2365.66 2141.98 2366.74 2140.64 2366.74H2126.41C2125.11 2366.74 2124.03 2365.71 2124.03 2364.37V2356.32H2052.95V2383.35H2154.86L2154.9 2383.26Z" stroke="#231F20" stroke-width="4" stroke-miterlimit="10"/>
<path d="M1496.2 2378.5C1496.2 2381.14 1498.32 2383.22 1500.91 2383.22H1602.78V2356.19H1531.7V2364.23C1531.7 2365.53 1530.66 2366.61 1529.32 2366.61H1515.09C1513.8 2366.61 1512.72 2365.58 1512.72 2364.23V2350.01C1512.72 2348.71 1513.75 2347.63 1515.09 2347.63H1523.14V2276.55H1496.11V2378.46L1496.2 2378.5Z" stroke="#231F20" stroke-width="4" stroke-miterlimit="10"/>
<path d="M2218.89 1918.86C2218.89 1908.44 2227.41 1899.92 2237.83 1899.92H3372.78C3383.2 1899.92 3391.72 1908.44 3391.72 1918.86V2383.26C3391.72 2393.68 3383.2 2402.19 3372.78 2402.19H2237.83C2227.41 2402.19 2218.89 2393.68 2218.89 2383.26V1918.86Z" stroke="#231F20" stroke-width="4" stroke-miterlimit="10"/>
<path d="M2242.58 2172.39H2228.36C2223.13 2172.39 2218.89 2176.63 2218.89 2181.86V2383.26C2218.89 2393.68 2227.41 2402.19 2237.83 2402.19H3372.78C3383.2 2402.19 3391.72 2393.68 3391.72 2383.26V2181.86C3391.72 2176.63 3387.48 2172.39 3382.25 2172.39H3368.02C3356.26 2172.39 3346.71 2162.84 3346.71 2151.08C3346.71 2139.32 3356.26 2129.76 3368.02 2129.76H3382.25C3387.48 2129.76 3391.72 2125.53 3391.72 2120.29V1918.9C3391.72 1908.48 3383.2 1899.96 3372.78 1899.96H2237.83C2227.41 1899.96 2218.89 1908.48 2218.89 1918.9V2120.29C2218.89 2125.53 2223.13 2129.76 2228.36 2129.76H2242.58C2254.35 2129.76 2263.9 2139.32 2263.9 2151.08C2263.9 2162.88 2254.35 2172.39 2242.58 2172.39Z" stroke="#231F20" stroke-width="4" stroke-miterlimit="10"/>
<path d="M3368.07 2167.64C3377.24 2167.64 3384.67 2160.21 3384.67 2151.04C3384.67 2141.87 3377.24 2134.43 3368.07 2134.43C3358.9 2134.43 3351.46 2141.87 3351.46 2151.04C3351.46 2160.21 3358.9 2167.64 3368.07 2167.64Z" stroke="#231F20" stroke-width="4" stroke-miterlimit="10"/>
<path d="M3360.93 2155.19L3368.07 2159.25L3375.16 2155.19V2146.97L3368.07 2142.87L3360.93 2146.97V2155.19Z" stroke="#231F20" stroke-width="4" stroke-miterlimit="10"/>
<path d="M2242.59 2167.64C2251.75 2167.64 2259.19 2160.21 2259.19 2151.04C2259.19 2141.87 2251.75 2134.43 2242.59 2134.43C2233.42 2134.43 2225.98 2141.87 2225.98 2151.04C2225.98 2160.21 2233.42 2167.64 2242.59 2167.64Z" stroke="#231F20" stroke-width="4" stroke-miterlimit="10"/>
<path d="M2235.45 2155.19L2242.58 2159.25L2249.68 2155.19V2146.97L2242.58 2142.87L2235.45 2146.97V2155.19Z" stroke="#231F20" stroke-width="4" stroke-miterlimit="10"/>
<path d="M2932.07 2383.26C2934.71 2383.26 2936.79 2381.14 2936.79 2378.55V2276.68H2909.76V2347.76H2917.81C2919.1 2347.76 2920.18 2348.8 2920.18 2350.14V2364.37C2920.18 2365.66 2919.15 2366.74 2917.81 2366.74H2903.58C2902.28 2366.74 2901.2 2365.71 2901.2 2364.37V2356.32H2830.12V2383.35H2932.03L2932.07 2383.26Z" stroke="#231F20" stroke-width="4" stroke-miterlimit="10"/>
<path d="M2273.37 2378.5C2273.37 2381.14 2275.49 2383.22 2278.08 2383.22H2379.95V2356.19H2308.87V2364.23C2308.87 2365.53 2307.83 2366.61 2306.49 2366.61H2292.26C2290.97 2366.61 2289.89 2365.58 2289.89 2364.23V2350.01C2289.89 2348.71 2290.92 2347.63 2292.26 2347.63H2300.31V2276.55H2273.28V2378.46L2273.37 2378.5Z" stroke="#231F20" stroke-width="4" stroke-miterlimit="10"/>
<path d="M2278.13 1918.86C2275.49 1918.86 2273.41 1920.98 2273.41 1923.57V2025.44H2300.44V1954.36H2292.39C2291.1 1954.36 2290.02 1953.32 2290.02 1951.98V1937.75C2290.02 1936.46 2291.05 1935.38 2292.39 1935.38H2306.62C2307.92 1935.38 2309 1936.41 2309 1937.75V1945.8H2380.08V1918.77H2278.17L2278.13 1918.86Z" stroke="#231F20" stroke-width="4" stroke-miterlimit="10"/>
<path d="M2936.79 1923.62C2936.79 1920.98 2934.67 1918.9 2932.07 1918.9H2830.21V1945.93H2901.29V1937.88C2901.29 1936.59 2902.33 1935.51 2903.67 1935.51H2917.89C2919.19 1935.51 2920.27 1936.54 2920.27 1937.88V1952.11C2920.27 1953.41 2919.23 1954.49 2917.89 1954.49H2909.85V2025.57H2936.87V1923.66L2936.79 1923.62Z" stroke="#231F20" stroke-width="4" stroke-miterlimit="10"/>
<path d="M1436.97 1876.18C1436.97 1886.6 1428.45 1895.12 1418.03 1895.12H283.035C272.615 1895.12 264.097 1886.6 264.097 1876.18V1411.78C264.097 1401.36 272.615 1392.84 283.035 1392.84H1417.98C1428.4 1392.84 1436.92 1401.36 1436.92 1411.78V1876.18H1436.97Z" stroke="#231F20" stroke-width="4" stroke-miterlimit="10"/>
<path d="M1413.27 1622.69H1427.5C1432.73 1622.69 1436.97 1618.45 1436.97 1613.22V1411.82C1436.97 1401.4 1428.45 1392.89 1418.03 1392.89H283.035C272.615 1392.89 264.097 1401.4 264.097 1411.82V1613.22C264.097 1618.45 268.334 1622.69 273.566 1622.69H287.791C299.551 1622.69 309.106 1632.24 309.106 1644C309.106 1655.76 299.551 1665.32 287.791 1665.32H273.566C268.334 1665.32 264.097 1669.55 264.097 1674.79V1876.18C264.097 1886.6 272.615 1895.12 283.035 1895.12H1417.98C1428.4 1895.12 1436.92 1886.6 1436.92 1876.18V1674.79C1436.92 1669.55 1432.69 1665.32 1427.45 1665.32H1413.23C1401.47 1665.32 1391.91 1655.76 1391.91 1644C1391.91 1632.2 1401.47 1622.69 1413.23 1622.69H1413.27Z" stroke="#231F20" stroke-width="4" stroke-miterlimit="10"/>
<path d="M304.395 1645.32C305.046 1636.17 298.159 1628.23 289.012 1627.58C279.866 1626.93 271.924 1633.81 271.273 1642.96C270.622 1652.1 277.509 1660.05 286.656 1660.7C295.802 1661.35 303.744 1654.46 304.395 1645.32Z" stroke="#231F20" stroke-width="4" stroke-miterlimit="10"/>
<path d="M294.882 1639.9L287.791 1635.79L280.7 1639.9V1648.11L287.791 1652.22L294.882 1648.11V1639.9Z" stroke="#231F20" stroke-width="4" stroke-miterlimit="10"/>
<path d="M1413.27 1660.61C1422.44 1660.61 1429.87 1653.17 1429.87 1644C1429.87 1634.83 1422.44 1627.4 1413.27 1627.4C1404.1 1627.4 1396.67 1634.83 1396.67 1644C1396.67 1653.17 1404.1 1660.61 1413.27 1660.61Z" stroke="#231F20" stroke-width="4" stroke-miterlimit="10"/>
<path d="M1420.36 1639.9L1413.27 1635.79L1406.14 1639.9V1648.11L1413.27 1652.22L1420.36 1648.11V1639.9Z" stroke="#231F20" stroke-width="4" stroke-miterlimit="10"/>
<path d="M723.741 1411.78C721.104 1411.78 719.028 1413.9 719.028 1416.5V1518.36H746.051V1447.28H738.009C736.712 1447.28 735.631 1446.24 735.631 1444.9V1430.68C735.631 1429.38 736.669 1428.3 738.009 1428.3H752.234C753.531 1428.3 754.612 1429.34 754.612 1430.68V1438.72H825.692V1411.7H723.784L723.741 1411.78Z" stroke="#231F20" stroke-width="4" stroke-miterlimit="10"/>
<path d="M1382.44 1416.54C1382.44 1413.9 1380.33 1411.83 1377.73 1411.83H1275.87V1438.85H1346.95V1430.81C1346.95 1429.51 1347.99 1428.43 1349.33 1428.43H1363.55C1364.85 1428.43 1365.93 1429.47 1365.93 1430.81V1445.03C1365.93 1446.33 1364.89 1447.41 1363.55 1447.41H1355.51V1518.49H1382.53V1416.58L1382.44 1416.54Z" stroke="#231F20" stroke-width="4" stroke-miterlimit="10"/>
<path d="M1377.73 1876.18C1380.37 1876.18 1382.45 1874.07 1382.45 1871.47V1769.61H1355.42V1840.69H1363.46C1364.76 1840.69 1365.84 1841.72 1365.84 1843.06V1857.29C1365.84 1858.59 1364.8 1859.67 1363.46 1859.67H1349.24C1347.94 1859.67 1346.86 1858.63 1346.86 1857.29V1849.25H1275.78V1876.27H1377.69L1377.73 1876.18Z" stroke="#231F20" stroke-width="4" stroke-miterlimit="10"/>
<path d="M719.028 1871.47C719.028 1874.11 721.147 1876.18 723.741 1876.18H825.606V1849.16H754.525V1857.2C754.525 1858.5 753.488 1859.58 752.147 1859.58H737.923C736.625 1859.58 735.545 1858.54 735.545 1857.2V1842.98C735.545 1841.68 736.582 1840.6 737.923 1840.6H745.965V1769.52H718.942V1871.43L719.028 1871.47Z" stroke="#231F20" stroke-width="4" stroke-miterlimit="10"/>
<path d="M2214.14 1876.18C2214.14 1886.6 2205.62 1895.12 2195.2 1895.12H1460.66C1450.24 1895.12 1441.72 1886.6 1441.72 1876.18V1411.78C1441.72 1401.36 1450.24 1392.84 1460.66 1392.84H2195.2C2205.62 1392.84 2214.14 1401.36 2214.14 1411.78V1876.18Z" stroke="#231F20" stroke-width="4" stroke-miterlimit="10"/>
<path d="M2190.44 1622.69H2204.67C2209.9 1622.69 2214.14 1618.45 2214.14 1613.22V1411.82C2214.14 1401.4 2205.62 1392.89 2195.2 1392.89H1460.66C1450.24 1392.89 1441.72 1401.4 1441.72 1411.82V1613.22C1441.72 1618.45 1445.96 1622.69 1451.19 1622.69H1465.41C1477.17 1622.69 1486.73 1632.24 1486.73 1644C1486.73 1655.76 1477.17 1665.32 1465.41 1665.32H1451.19C1445.96 1665.32 1441.72 1669.55 1441.72 1674.79V1876.18C1441.72 1886.6 1450.24 1895.12 1460.66 1895.12H2195.2C2205.62 1895.12 2214.14 1886.6 2214.14 1876.18V1674.79C2214.14 1669.55 2209.9 1665.32 2204.67 1665.32H2190.44C2178.68 1665.32 2169.13 1655.76 2169.13 1644C2169.13 1632.2 2178.68 1622.69 2190.44 1622.69Z" stroke="#231F20" stroke-width="4" stroke-miterlimit="10"/>
<path d="M1465.42 1660.61C1474.58 1660.61 1482.02 1653.17 1482.02 1644C1482.02 1634.83 1474.58 1627.4 1465.42 1627.4C1456.25 1627.4 1448.81 1634.83 1448.81 1644C1448.81 1653.17 1456.25 1660.61 1465.42 1660.61Z" stroke="#231F20" stroke-width="4" stroke-miterlimit="10"/>
<path d="M1472.51 1639.9L1465.41 1635.79L1458.28 1639.9V1648.11L1465.41 1652.22L1472.51 1648.11V1639.9Z" stroke="#231F20" stroke-width="4" stroke-miterlimit="10"/>
<path d="M2190.44 1660.61C2199.61 1660.61 2207.05 1653.17 2207.05 1644C2207.05 1634.83 2199.61 1627.4 2190.44 1627.4C2181.27 1627.4 2173.84 1634.83 2173.84 1644C2173.84 1653.17 2181.27 1660.61 2190.44 1660.61Z" stroke="#231F20" stroke-width="4" stroke-miterlimit="10"/>
<path d="M2197.53 1639.9L2190.44 1635.79L2183.35 1639.9V1648.11L2190.44 1652.22L2197.53 1648.11V1639.9Z" stroke="#231F20" stroke-width="4" stroke-miterlimit="10"/>
<path d="M1500.96 1411.78C1498.32 1411.78 1496.24 1413.9 1496.24 1416.5V1518.36H1523.27V1447.28H1515.22C1513.93 1447.28 1512.85 1446.24 1512.85 1444.9V1430.68C1512.85 1429.38 1513.88 1428.3 1515.22 1428.3H1529.45C1530.75 1428.3 1531.83 1429.34 1531.83 1430.68V1438.72H1602.91V1411.7H1501L1500.96 1411.78Z" stroke="#231F20" stroke-width="4" stroke-miterlimit="10"/>
<path d="M2159.62 1416.54C2159.62 1413.9 2157.5 1411.83 2154.9 1411.83H2053.04V1438.85H2124.12V1430.81C2124.12 1429.51 2125.16 1428.43 2126.5 1428.43H2140.72C2142.02 1428.43 2143.1 1429.47 2143.1 1430.81V1445.03C2143.1 1446.33 2142.06 1447.41 2140.72 1447.41H2132.68V1518.49H2159.7V1416.58L2159.62 1416.54Z" stroke="#231F20" stroke-width="4" stroke-miterlimit="10"/>
<path d="M2154.9 1876.18C2157.54 1876.18 2159.62 1874.07 2159.62 1871.47V1769.61H2132.59V1840.69H2140.64C2141.93 1840.69 2143.01 1841.72 2143.01 1843.06V1857.29C2143.01 1858.59 2141.98 1859.67 2140.64 1859.67H2126.41C2125.11 1859.67 2124.03 1858.63 2124.03 1857.29V1849.25H2052.95V1876.27H2154.86L2154.9 1876.18Z" stroke="#231F20" stroke-width="4" stroke-miterlimit="10"/>
<path d="M1496.2 1871.47C1496.2 1874.11 1498.32 1876.18 1500.91 1876.18H1602.78V1849.16H1531.7V1857.2C1531.7 1858.5 1530.66 1859.58 1529.32 1859.58H1515.09C1513.8 1859.58 1512.72 1858.54 1512.72 1857.2V1842.98C1512.72 1841.68 1513.75 1840.6 1515.09 1840.6H1523.14V1769.52H1496.11V1871.43L1496.2 1871.47Z" stroke="#231F20" stroke-width="4" stroke-miterlimit="10"/>
<path d="M2218.89 1411.78C2218.89 1401.36 2227.41 1392.84 2237.83 1392.84H3372.78C3383.2 1392.84 3391.72 1401.36 3391.72 1411.78V1876.18C3391.72 1886.6 3383.2 1895.12 3372.78 1895.12H2237.83C2227.41 1895.12 2218.89 1886.6 2218.89 1876.18V1411.78Z" stroke="#231F20" stroke-width="4" stroke-miterlimit="10"/>
<path d="M2242.58 1665.32H2228.36C2223.13 1665.32 2218.89 1669.55 2218.89 1674.79V1876.18C2218.89 1886.6 2227.41 1895.12 2237.83 1895.12H3372.78C3383.2 1895.12 3391.72 1886.6 3391.72 1876.18V1674.79C3391.72 1669.55 3387.48 1665.32 3382.25 1665.32H3368.02C3356.26 1665.32 3346.71 1655.76 3346.71 1644C3346.71 1632.24 3356.26 1622.69 3368.02 1622.69H3382.25C3387.48 1622.69 3391.72 1618.45 3391.72 1613.22V1411.82C3391.72 1401.4 3383.2 1392.89 3372.78 1392.89H2237.83C2227.41 1392.89 2218.89 1401.4 2218.89 1411.82V1613.22C2218.89 1618.45 2223.13 1622.69 2228.36 1622.69H2242.58C2254.35 1622.69 2263.9 1632.24 2263.9 1644C2263.9 1655.81 2254.35 1665.32 2242.58 1665.32Z" stroke="#231F20" stroke-width="4" stroke-miterlimit="10"/>
<path d="M3368.07 1660.61C3377.24 1660.61 3384.67 1653.17 3384.67 1644C3384.67 1634.83 3377.24 1627.4 3368.07 1627.4C3358.9 1627.4 3351.46 1634.83 3351.46 1644C3351.46 1653.17 3358.9 1660.61 3368.07 1660.61Z" stroke="#231F20" stroke-width="4" stroke-miterlimit="10"/>
<path d="M3360.93 1648.11L3368.07 1652.22L3375.16 1648.11V1639.9L3368.07 1635.79L3360.93 1639.9V1648.11Z" stroke="#231F20" stroke-width="4" stroke-miterlimit="10"/>
<path d="M2242.59 1660.61C2251.75 1660.61 2259.19 1653.17 2259.19 1644C2259.19 1634.83 2251.75 1627.4 2242.59 1627.4C2233.42 1627.4 2225.98 1634.83 2225.98 1644C2225.98 1653.17 2233.42 1660.61 2242.59 1660.61Z" stroke="#231F20" stroke-width="4" stroke-miterlimit="10"/>
<path d="M2235.45 1648.11L2242.58 1652.22L2249.68 1648.11V1639.9L2242.58 1635.79L2235.45 1639.9V1648.11Z" stroke="#231F20" stroke-width="4" stroke-miterlimit="10"/>
<path d="M2932.07 1876.18C2934.71 1876.18 2936.79 1874.07 2936.79 1871.47V1769.61H2909.76V1840.69H2917.81C2919.1 1840.69 2920.18 1841.72 2920.18 1843.06V1857.29C2920.18 1858.59 2919.15 1859.67 2917.81 1859.67H2903.58C2902.28 1859.67 2901.2 1858.63 2901.2 1857.29V1849.25H2830.12V1876.27H2932.03L2932.07 1876.18Z" stroke="#231F20" stroke-width="4" stroke-miterlimit="10"/>
<path d="M2273.37 1871.47C2273.37 1874.11 2275.49 1876.18 2278.08 1876.18H2379.95V1849.16H2308.87V1857.2C2308.87 1858.5 2307.83 1859.58 2306.49 1859.58H2292.26C2290.97 1859.58 2289.89 1858.54 2289.89 1857.2V1842.98C2289.89 1841.68 2290.92 1840.6 2292.26 1840.6H2300.31V1769.52H2273.28V1871.43L2273.37 1871.47Z" stroke="#231F20" stroke-width="4" stroke-miterlimit="10"/>
<path d="M2278.13 1411.78C2275.49 1411.78 2273.41 1413.9 2273.41 1416.5V1518.36H2300.44V1447.28H2292.39C2291.1 1447.28 2290.02 1446.24 2290.02 1444.9V1430.68C2290.02 1429.38 2291.05 1428.3 2292.39 1428.3H2306.62C2307.92 1428.3 2309 1429.34 2309 1430.68V1438.72H2380.08V1411.7H2278.17L2278.13 1411.78Z" stroke="#231F20" stroke-width="4" stroke-miterlimit="10"/>
<path d="M2936.79 1416.54C2936.79 1413.9 2934.67 1411.83 2932.07 1411.83H2830.21V1438.85H2901.29V1430.81C2901.29 1429.51 2902.33 1428.43 2903.67 1428.43H2917.89C2919.19 1428.43 2920.27 1429.47 2920.27 1430.81V1445.03C2920.27 1446.33 2919.23 1447.41 2917.89 1447.41H2909.85V1518.49H2936.87V1416.58L2936.79 1416.54Z" stroke="#231F20" stroke-width="4" stroke-miterlimit="10"/>
<path d="M1436.97 1369.15C1436.97 1379.57 1428.45 1388.09 1418.03 1388.09H283.035C272.615 1388.09 264.097 1379.57 264.097 1369.15V904.753C264.097 894.333 272.615 885.815 283.035 885.815H1417.98C1428.4 885.815 1436.92 894.333 1436.92 904.753V1369.15H1436.97Z" stroke="#231F20" stroke-width="4" stroke-miterlimit="10"/>
<path d="M1413.27 1115.62H1427.5C1432.73 1115.62 1436.97 1111.38 1436.97 1106.15V904.753C1436.97 894.333 1428.45 885.815 1418.03 885.815H283.035C272.615 885.815 264.097 894.333 264.097 904.753V1106.15C264.097 1111.38 268.334 1115.62 273.566 1115.62H287.791C299.551 1115.62 309.106 1125.17 309.106 1136.93C309.106 1148.69 299.551 1158.25 287.791 1158.25H273.566C268.334 1158.25 264.097 1162.48 264.097 1167.72V1369.11C264.097 1379.53 272.615 1388.05 283.035 1388.05H1417.98C1428.4 1388.05 1436.92 1379.53 1436.92 1369.11V1167.72C1436.92 1162.48 1432.69 1158.25 1427.45 1158.25H1413.23C1401.47 1158.25 1391.91 1148.69 1391.91 1136.93C1391.91 1125.13 1401.47 1115.62 1413.23 1115.62H1413.27Z" stroke="#231F20" stroke-width="4" stroke-miterlimit="10"/>
<path d="M304.376 1138.22C305.027 1129.08 298.14 1121.14 288.994 1120.48C279.847 1119.83 271.905 1126.72 271.255 1135.87C270.604 1145.01 277.491 1152.96 286.637 1153.61C295.783 1154.26 303.725 1147.37 304.376 1138.22Z" stroke="#231F20" stroke-width="4" stroke-miterlimit="10"/>
<path d="M294.881 1132.82L287.79 1128.71L280.699 1132.82V1141.04L287.79 1145.14L294.881 1141.04V1132.82Z" stroke="#231F20" stroke-width="4" stroke-miterlimit="10"/>
<path d="M1413.27 1153.53C1422.44 1153.53 1429.87 1146.1 1429.87 1136.93C1429.87 1127.76 1422.44 1120.33 1413.27 1120.33C1404.1 1120.33 1396.67 1127.76 1396.67 1136.93C1396.67 1146.1 1404.1 1153.53 1413.27 1153.53Z" stroke="#231F20" stroke-width="4" stroke-miterlimit="10"/>
<path d="M1420.36 1132.83L1413.27 1128.72L1406.14 1132.83V1141.04L1413.27 1145.15L1420.36 1141.04V1132.83Z" stroke="#231F20" stroke-width="4" stroke-miterlimit="10"/>
<path d="M723.741 904.754C721.104 904.754 719.028 906.873 719.028 909.467V1011.33H746.051V940.251H738.009C736.712 940.251 735.631 939.214 735.631 937.873V923.649C735.631 922.352 736.669 921.271 738.009 921.271H752.234C753.531 921.271 754.612 922.308 754.612 923.649V931.691H825.692V904.668H723.784L723.741 904.754Z" stroke="#231F20" stroke-width="4" stroke-miterlimit="10"/>
<path d="M1382.44 909.465C1382.44 906.827 1380.33 904.752 1377.73 904.752H1275.87V931.775H1346.95V923.733C1346.95 922.436 1347.99 921.355 1349.33 921.355H1363.55C1364.85 921.355 1365.93 922.392 1365.93 923.733V937.957C1365.93 939.254 1364.89 940.335 1363.55 940.335H1355.51V1011.42H1382.53V909.508L1382.44 909.465Z" stroke="#231F20" stroke-width="4" stroke-miterlimit="10"/>
<path d="M1377.73 1369.16C1380.37 1369.16 1382.45 1367.04 1382.45 1364.44V1262.58H1355.42V1333.66H1363.46C1364.76 1333.66 1365.84 1334.7 1365.84 1336.04V1350.26C1365.84 1351.56 1364.8 1352.64 1363.46 1352.64H1349.24C1347.94 1352.64 1346.86 1351.6 1346.86 1350.26V1342.22H1275.78V1369.24H1377.69L1377.73 1369.16Z" stroke="#231F20" stroke-width="4" stroke-miterlimit="10"/>
<path d="M719.028 1364.4C719.028 1367.04 721.147 1369.11 723.741 1369.11H825.606V1342.09H754.525V1350.13C754.525 1351.43 753.488 1352.51 752.147 1352.51H737.923C736.625 1352.51 735.545 1351.47 735.545 1350.13V1335.91C735.545 1334.61 736.582 1333.53 737.923 1333.53H745.965V1262.45H718.942V1364.35L719.028 1364.4Z" stroke="#231F20" stroke-width="4" stroke-miterlimit="10"/>
<path d="M2214.14 1369.15C2214.14 1379.57 2205.62 1388.09 2195.2 1388.09H1460.66C1450.24 1388.09 1441.72 1379.57 1441.72 1369.15V904.753C1441.72 894.333 1450.24 885.815 1460.66 885.815H2195.2C2205.62 885.815 2214.14 894.333 2214.14 904.753V1369.15Z" stroke="#231F20" stroke-width="4" stroke-miterlimit="10"/>
<path d="M2190.44 1115.62H2204.67C2209.9 1115.62 2214.14 1111.38 2214.14 1106.15V904.753C2214.14 894.333 2205.62 885.815 2195.2 885.815H1460.66C1450.24 885.815 1441.72 894.333 1441.72 904.753V1106.15C1441.72 1111.38 1445.96 1115.62 1451.19 1115.62H1465.41C1477.17 1115.62 1486.73 1125.17 1486.73 1136.93C1486.73 1148.69 1477.17 1158.25 1465.41 1158.25H1451.19C1445.96 1158.25 1441.72 1162.48 1441.72 1167.72V1369.11C1441.72 1379.53 1450.24 1388.05 1460.66 1388.05H2195.2C2205.62 1388.05 2214.14 1379.53 2214.14 1369.11V1167.72C2214.14 1162.48 2209.9 1158.25 2204.67 1158.25H2190.44C2178.68 1158.25 2169.13 1148.69 2169.13 1136.93C2169.13 1125.13 2178.68 1115.62 2190.44 1115.62Z" stroke="#231F20" stroke-width="4" stroke-miterlimit="10"/>
<path d="M1465.42 1153.53C1474.58 1153.53 1482.02 1146.1 1482.02 1136.93C1482.02 1127.76 1474.58 1120.33 1465.42 1120.33C1456.25 1120.33 1448.81 1127.76 1448.81 1136.93C1448.81 1146.1 1456.25 1153.53 1465.42 1153.53Z" stroke="#231F20" stroke-width="4" stroke-miterlimit="10"/>
<path d="M1472.51 1132.83L1465.41 1128.72L1458.28 1132.83V1141.04L1465.41 1145.15L1472.51 1141.04V1132.83Z" stroke="#231F20" stroke-width="4" stroke-miterlimit="10"/>
<path d="M2190.44 1153.53C2199.61 1153.53 2207.05 1146.1 2207.05 1136.93C2207.05 1127.76 2199.61 1120.33 2190.44 1120.33C2181.27 1120.33 2173.84 1127.76 2173.84 1136.93C2173.84 1146.1 2181.27 1153.53 2190.44 1153.53Z" stroke="#231F20" stroke-width="4" stroke-miterlimit="10"/>
<path d="M2197.53 1132.83L2190.44 1128.72L2183.35 1132.83V1141.04L2190.44 1145.15L2197.53 1141.04V1132.83Z" stroke="#231F20" stroke-width="4" stroke-miterlimit="10"/>
<path d="M1500.96 904.754C1498.32 904.754 1496.24 906.873 1496.24 909.467V1011.33H1523.27V940.251H1515.22C1513.93 940.251 1512.85 939.214 1512.85 937.873V923.649C1512.85 922.352 1513.88 921.271 1515.22 921.271H1529.45C1530.75 921.271 1531.83 922.308 1531.83 923.649V931.691H1602.91V904.668H1501L1500.96 904.754Z" stroke="#231F20" stroke-width="4" stroke-miterlimit="10"/>
<path d="M2159.62 909.465C2159.62 906.827 2157.5 904.752 2154.9 904.752H2053.04V931.775H2124.12V923.733C2124.12 922.436 2125.16 921.355 2126.5 921.355H2140.72C2142.02 921.355 2143.1 922.392 2143.1 923.733V937.957C2143.1 939.254 2142.06 940.335 2140.72 940.335H2132.68V1011.42H2159.7V909.508L2159.62 909.465Z" stroke="#231F20" stroke-width="4" stroke-miterlimit="10"/>
<path d="M2154.9 1369.16C2157.54 1369.16 2159.62 1367.04 2159.62 1364.44V1262.58H2132.59V1333.66H2140.64C2141.93 1333.66 2143.01 1334.7 2143.01 1336.04V1350.26C2143.01 1351.56 2141.98 1352.64 2140.64 1352.64H2126.41C2125.11 1352.64 2124.03 1351.6 2124.03 1350.26V1342.22H2052.95V1369.24H2154.86L2154.9 1369.16Z" stroke="#231F20" stroke-width="4" stroke-miterlimit="10"/>
<path d="M1496.2 1364.4C1496.2 1367.04 1498.32 1369.11 1500.91 1369.11H1602.78V1342.09H1531.7V1350.13C1531.7 1351.43 1530.66 1352.51 1529.32 1352.51H1515.09C1513.8 1352.51 1512.72 1351.47 1512.72 1350.13V1335.91C1512.72 1334.61 1513.75 1333.53 1515.09 1333.53H1523.14V1262.45H1496.11V1364.35L1496.2 1364.4Z" stroke="#231F20" stroke-width="4" stroke-miterlimit="10"/>
<path d="M2218.89 904.753C2218.89 894.333 2227.41 885.815 2237.83 885.815H3372.78C3383.2 885.815 3391.72 894.333 3391.72 904.753V1369.15C3391.72 1379.57 3383.2 1388.09 3372.78 1388.09H2237.83C2227.41 1388.09 2218.89 1379.57 2218.89 1369.15V904.753Z" stroke="#231F20" stroke-width="4" stroke-miterlimit="10"/>
<path d="M2242.58 1158.25H2228.36C2223.13 1158.25 2218.89 1162.48 2218.89 1167.72V1369.11C2218.89 1379.53 2227.41 1388.05 2237.83 1388.05H3372.78C3383.2 1388.05 3391.72 1379.53 3391.72 1369.11V1167.72C3391.72 1162.48 3387.48 1158.25 3382.25 1158.25H3368.02C3356.26 1158.25 3346.71 1148.69 3346.71 1136.93C3346.71 1125.17 3356.26 1115.62 3368.02 1115.62H3382.25C3387.48 1115.62 3391.72 1111.38 3391.72 1106.15V904.753C3391.72 894.333 3383.2 885.815 3372.78 885.815H2237.83C2227.41 885.815 2218.89 894.333 2218.89 904.753V1106.15C2218.89 1111.38 2223.13 1115.62 2228.36 1115.62H2242.58C2254.35 1115.62 2263.9 1125.17 2263.9 1136.93C2263.9 1148.73 2254.35 1158.25 2242.58 1158.25Z" stroke="#231F20" stroke-width="4" stroke-miterlimit="10"/>
<path d="M3368.07 1153.53C3377.24 1153.53 3384.67 1146.1 3384.67 1136.93C3384.67 1127.76 3377.24 1120.33 3368.07 1120.33C3358.9 1120.33 3351.46 1127.76 3351.46 1136.93C3351.46 1146.1 3358.9 1153.53 3368.07 1153.53Z" stroke="#231F20" stroke-width="4" stroke-miterlimit="10"/>
<path d="M3360.93 1141.04L3368.07 1145.15L3375.16 1141.04V1132.83L3368.07 1128.72L3360.93 1132.83V1141.04Z" stroke="#231F20" stroke-width="4" stroke-miterlimit="10"/>
<path d="M2242.59 1153.53C2251.75 1153.53 2259.19 1146.1 2259.19 1136.93C2259.19 1127.76 2251.75 1120.33 2242.59 1120.33C2233.42 1120.33 2225.98 1127.76 2225.98 1136.93C2225.98 1146.1 2233.42 1153.53 2242.59 1153.53Z" stroke="#231F20" stroke-width="4" stroke-miterlimit="10"/>
<path d="M2235.45 1141.04L2242.58 1145.15L2249.68 1141.04V1132.83L2242.58 1128.72L2235.45 1132.83V1141.04Z" stroke="#231F20" stroke-width="4" stroke-miterlimit="10"/>
<path d="M2932.07 1369.16C2934.71 1369.16 2936.79 1367.04 2936.79 1364.44V1262.58H2909.76V1333.66H2917.81C2919.1 1333.66 2920.18 1334.7 2920.18 1336.04V1350.26C2920.18 1351.56 2919.15 1352.64 2917.81 1352.64H2903.58C2902.28 1352.64 2901.2 1351.6 2901.2 1350.26V1342.22H2830.12V1369.24H2932.03L2932.07 1369.16Z" stroke="#231F20" stroke-width="4" stroke-miterlimit="10"/>
<path d="M2273.37 1364.4C2273.37 1367.04 2275.49 1369.11 2278.08 1369.11H2379.95V1342.09H2308.87V1350.13C2308.87 1351.43 2307.83 1352.51 2306.49 1352.51H2292.26C2290.97 1352.51 2289.89 1351.47 2289.89 1350.13V1335.91C2289.89 1334.61 2290.92 1333.53 2292.26 1333.53H2300.31V1262.45H2273.28V1364.35L2273.37 1364.4Z" stroke="#231F20" stroke-width="4" stroke-miterlimit="10"/>
<path d="M2278.13 904.754C2275.49 904.754 2273.41 906.873 2273.41 909.467V1011.33H2300.44V940.251H2292.39C2291.1 940.251 2290.02 939.214 2290.02 937.873V923.649C2290.02 922.352 2291.05 921.271 2292.39 921.271H2306.62C2307.92 921.271 2309 922.308 2309 923.649V931.691H2380.08V904.668H2278.17L2278.13 904.754Z" stroke="#231F20" stroke-width="4" stroke-miterlimit="10"/>
<path d="M2936.79 909.465C2936.79 906.827 2934.67 904.752 2932.07 904.752H2830.21V931.775H2901.29V923.733C2901.29 922.436 2902.33 921.355 2903.67 921.355H2917.89C2919.19 921.355 2920.27 922.392 2920.27 923.733V937.957C2920.27 939.254 2919.23 940.335 2917.89 940.335H2909.85V1011.42H2936.87V909.508L2936.79 909.465Z" stroke="#231F20" stroke-width="4" stroke-miterlimit="10"/>
<path d="M1436.97 862.078C1436.97 872.498 1428.45 881.015 1418.03 881.015H283.035C272.615 881.015 264.097 872.498 264.097 862.078V397.678C264.097 387.258 272.615 378.74 283.035 378.74H1417.98C1428.4 378.74 1436.92 387.258 1436.92 397.678V862.078H1436.97Z" stroke="#231F20" stroke-width="4" stroke-miterlimit="10"/>
<path d="M1413.27 608.541H1427.5C1432.73 608.541 1436.97 604.304 1436.97 599.072V397.678C1436.97 387.258 1428.45 378.74 1418.03 378.74H283.035C272.615 378.74 264.097 387.258 264.097 397.678V599.072C264.097 604.304 268.334 608.541 273.566 608.541H287.791C299.551 608.541 309.106 618.096 309.106 629.856C309.106 641.616 299.551 651.172 287.791 651.172H273.566C268.334 651.172 264.097 655.409 264.097 660.64V862.034C264.097 872.454 272.615 880.972 283.035 880.972H1417.98C1428.4 880.972 1436.92 872.454 1436.92 862.034V660.64C1436.92 655.409 1432.69 651.172 1427.45 651.172H1413.23C1401.47 651.172 1391.91 641.616 1391.91 629.856C1391.91 618.053 1401.47 608.541 1413.23 608.541H1413.27Z" stroke="#231F20" stroke-width="4" stroke-miterlimit="10"/>
<path d="M304.401 631.136C305.052 621.989 298.165 614.047 289.019 613.397C279.872 612.746 271.93 619.633 271.279 628.779C270.629 637.925 277.516 645.867 286.662 646.518C295.808 647.169 303.75 640.282 304.401 631.136Z" stroke="#231F20" stroke-width="4" stroke-miterlimit="10"/>
<path d="M294.882 625.746L287.791 621.682L280.7 625.746V633.961L287.791 638.068L294.882 633.961V625.746Z" stroke="#231F20" stroke-width="4" stroke-miterlimit="10"/>
<path d="M1413.27 646.501C1422.44 646.501 1429.87 639.068 1429.87 629.899C1429.87 620.729 1422.44 613.296 1413.27 613.296C1404.1 613.296 1396.67 620.729 1396.67 629.899C1396.67 639.068 1404.1 646.501 1413.27 646.501Z" stroke="#231F20" stroke-width="4" stroke-miterlimit="10"/>
<path d="M1420.36 625.75L1413.27 621.686L1406.14 625.75V633.965L1413.27 638.072L1420.36 633.965V625.75Z" stroke="#231F20" stroke-width="4" stroke-miterlimit="10"/>
<path d="M723.741 397.678C721.104 397.678 719.028 399.797 719.028 402.391V504.255H746.051V433.175H738.009C736.712 433.175 735.631 432.137 735.631 430.797V416.572C735.631 415.275 736.669 414.194 738.009 414.194H752.234C753.531 414.194 754.612 415.232 754.612 416.572V424.614H825.692V397.635H723.784L723.741 397.678Z" stroke="#231F20" stroke-width="4" stroke-miterlimit="10"/>
<path d="M1382.44 402.432C1382.44 399.795 1380.33 397.72 1377.73 397.72H1275.87V424.742H1346.95V416.7C1346.95 415.403 1347.99 414.322 1349.33 414.322H1363.55C1364.85 414.322 1365.93 415.36 1365.93 416.7V430.925C1365.93 432.222 1364.89 433.303 1363.55 433.303H1355.51V504.383H1382.53V402.476L1382.44 402.432Z" stroke="#231F20" stroke-width="4" stroke-miterlimit="10"/>
<path d="M1377.73 862.076C1380.37 862.076 1382.45 859.958 1382.45 857.364V755.499H1355.42V826.579H1363.46C1364.76 826.579 1365.84 827.617 1365.84 828.957V843.182C1365.84 844.479 1364.8 845.56 1363.46 845.56H1349.24C1347.94 845.56 1346.86 844.522 1346.86 843.182V835.14H1275.78V862.163H1377.69L1377.73 862.076Z" stroke="#231F20" stroke-width="4" stroke-miterlimit="10"/>
<path d="M719.028 857.323C719.028 859.96 721.147 862.036 723.741 862.036H825.606V835.013H754.525V843.055C754.525 844.352 753.488 845.433 752.147 845.433H737.923C736.625 845.433 735.545 844.395 735.545 843.055V828.83C735.545 827.533 736.582 826.452 737.923 826.452H745.965V755.372H718.942V857.28L719.028 857.323Z" stroke="#231F20" stroke-width="4" stroke-miterlimit="10"/>
<path d="M1417.98 373.984H283.035C272.571 373.984 264.097 365.51 264.097 355.047V20.9609C264.097 10.4977 272.571 2.02344 283.035 2.02344H1417.98C1428.45 2.02344 1436.92 10.4977 1436.92 20.9609V355.047C1436.92 365.51 1428.45 373.984 1417.98 373.984Z" stroke="#231F20" stroke-width="4" stroke-miterlimit="10"/>
<path d="M2214.14 862.078C2214.14 872.498 2205.62 881.015 2195.2 881.015H1460.66C1450.24 881.015 1441.72 872.498 1441.72 862.078V397.678C1441.72 387.258 1450.24 378.74 1460.66 378.74H2195.2C2205.62 378.74 2214.14 387.258 2214.14 397.678V862.078Z" stroke="#231F20" stroke-width="4" stroke-miterlimit="10"/>
<path d="M2190.44 608.541H2204.67C2209.9 608.541 2214.14 604.304 2214.14 599.072V397.678C2214.14 387.258 2205.62 378.74 2195.2 378.74H1460.66C1450.24 378.74 1441.72 387.258 1441.72 397.678V599.072C1441.72 604.304 1445.96 608.541 1451.19 608.541H1465.41C1477.17 608.541 1486.73 618.096 1486.73 629.856C1486.73 641.616 1477.17 651.172 1465.41 651.172H1451.19C1445.96 651.172 1441.72 655.409 1441.72 660.64V862.034C1441.72 872.454 1450.24 880.972 1460.66 880.972H2195.2C2205.62 880.972 2214.14 872.454 2214.14 862.034V660.64C2214.14 655.409 2209.9 651.172 2204.67 651.172H2190.44C2178.68 651.172 2169.13 641.616 2169.13 629.856C2169.13 618.053 2178.68 608.541 2190.44 608.541Z" stroke="#231F20" stroke-width="4" stroke-miterlimit="10"/>
<path d="M1465.42 646.501C1474.58 646.501 1482.02 639.068 1482.02 629.899C1482.02 620.729 1474.58 613.296 1465.42 613.296C1456.25 613.296 1448.81 620.729 1448.81 629.899C1448.81 639.068 1456.25 646.501 1465.42 646.501Z" stroke="#231F20" stroke-width="4" stroke-miterlimit="10"/>
<path d="M1472.51 625.75L1465.41 621.686L1458.28 625.75V633.965L1465.41 638.072L1472.51 633.965V625.75Z" stroke="#231F20" stroke-width="4" stroke-miterlimit="10"/>
<path d="M2190.44 646.501C2199.61 646.501 2207.05 639.068 2207.05 629.899C2207.05 620.729 2199.61 613.296 2190.44 613.296C2181.27 613.296 2173.84 620.729 2173.84 629.899C2173.84 639.068 2181.27 646.501 2190.44 646.501Z" stroke="#231F20" stroke-width="4" stroke-miterlimit="10"/>
<path d="M2197.53 625.75L2190.44 621.686L2183.35 625.75V633.965L2190.44 638.072L2197.53 633.965V625.75Z" stroke="#231F20" stroke-width="4" stroke-miterlimit="10"/>
<path d="M1500.96 397.678C1498.32 397.678 1496.24 399.797 1496.24 402.391V504.255H1523.27V433.175H1515.22C1513.93 433.175 1512.85 432.137 1512.85 430.797V416.572C1512.85 415.275 1513.88 414.194 1515.22 414.194H1529.45C1530.75 414.194 1531.83 415.232 1531.83 416.572V424.614H1602.91V397.635H1501L1500.96 397.678Z" stroke="#231F20" stroke-width="4" stroke-miterlimit="10"/>
<path d="M2159.62 402.432C2159.62 399.795 2157.5 397.72 2154.9 397.72H2053.04V424.742H2124.12V416.7C2124.12 415.403 2125.16 414.322 2126.5 414.322H2140.72C2142.02 414.322 2143.1 415.36 2143.1 416.7V430.925C2143.1 432.222 2142.06 433.303 2140.72 433.303H2132.68V504.383H2159.7V402.476L2159.62 402.432Z" stroke="#231F20" stroke-width="4" stroke-miterlimit="10"/>
<path d="M2154.9 862.076C2157.54 862.076 2159.62 859.958 2159.62 857.364V755.499H2132.59V826.579H2140.64C2141.93 826.579 2143.01 827.617 2143.01 828.957V843.182C2143.01 844.479 2141.98 845.56 2140.64 845.56H2126.41C2125.11 845.56 2124.03 844.522 2124.03 843.182V835.14H2052.95V862.163H2154.86L2154.9 862.076Z" stroke="#231F20" stroke-width="4" stroke-miterlimit="10"/>
<path d="M1496.2 857.323C1496.2 859.96 1498.32 862.036 1500.91 862.036H1602.78V835.013H1531.7V843.055C1531.7 844.352 1530.66 845.433 1529.32 845.433H1515.09C1513.8 845.433 1512.72 844.395 1512.72 843.055V828.83C1512.72 827.533 1513.75 826.452 1515.09 826.452H1523.14V755.372H1496.11V857.28L1496.2 857.323Z" stroke="#231F20" stroke-width="4" stroke-miterlimit="10"/>
<path d="M2218.89 397.678C2218.89 387.258 2227.41 378.74 2237.83 378.74H3372.78C3383.2 378.74 3391.72 387.258 3391.72 397.678V862.078C3391.72 872.498 3383.2 881.015 3372.78 881.015H2237.83C2227.41 881.015 2218.89 872.498 2218.89 862.078V397.678Z" stroke="#231F20" stroke-width="4" stroke-miterlimit="10"/>
<path d="M2242.58 651.214H2228.36C2223.13 651.214 2218.89 655.451 2218.89 660.682V862.077C2218.89 872.496 2227.41 881.014 2237.83 881.014H3372.78C3383.2 881.014 3391.72 872.496 3391.72 862.077V660.682C3391.72 655.451 3387.48 651.214 3382.25 651.214H3368.02C3356.26 651.214 3346.71 641.658 3346.71 629.898C3346.71 618.138 3356.26 608.583 3368.02 608.583H3382.25C3387.48 608.583 3391.72 604.345 3391.72 599.114V397.72C3391.72 387.3 3383.2 378.782 3372.78 378.782H2237.83C2227.41 378.782 2218.89 387.3 2218.89 397.72V599.114C2218.89 604.345 2223.13 608.583 2228.36 608.583H2242.58C2254.35 608.583 2263.9 618.138 2263.9 629.898C2263.9 641.658 2254.35 651.214 2242.58 651.214Z" stroke="#231F20" stroke-width="4" stroke-miterlimit="10"/>
<path d="M3368.07 646.501C3377.24 646.501 3384.67 639.068 3384.67 629.899C3384.67 620.729 3377.24 613.296 3368.07 613.296C3358.9 613.296 3351.46 620.729 3351.46 629.899C3351.46 639.068 3358.9 646.501 3368.07 646.501Z" stroke="#231F20" stroke-width="4" stroke-miterlimit="10"/>
<path d="M3360.93 633.965L3368.07 638.072L3375.16 633.965V625.75L3368.07 621.686L3360.93 625.75V633.965Z" stroke="#231F20" stroke-width="4" stroke-miterlimit="10"/>
<path d="M2242.59 646.501C2251.75 646.501 2259.19 639.068 2259.19 629.899C2259.19 620.729 2251.75 613.296 2242.59 613.296C2233.42 613.296 2225.98 620.729 2225.98 629.899C2225.98 639.068 2233.42 646.501 2242.59 646.501Z" stroke="#231F20" stroke-width="4" stroke-miterlimit="10"/>
<path d="M2235.45 633.965L2242.58 638.072L2249.68 633.965V625.75L2242.58 621.686L2235.45 625.75V633.965Z" stroke="#231F20" stroke-width="4" stroke-miterlimit="10"/>
<path d="M2932.07 862.076C2934.71 862.076 2936.79 859.958 2936.79 857.364V755.499H2909.76V826.579H2917.81C2919.1 826.579 2920.18 827.617 2920.18 828.957V843.182C2920.18 844.479 2919.15 845.56 2917.81 845.56H2903.58C2902.28 845.56 2901.2 844.522 2901.2 843.182V835.14H2830.12V862.163H2932.03L2932.07 862.076Z" stroke="#231F20" stroke-width="4" stroke-miterlimit="10"/>
<path d="M2273.37 857.323C2273.37 859.96 2275.49 862.036 2278.08 862.036H2379.95V835.013H2308.87V843.055C2308.87 844.352 2307.83 845.433 2306.49 845.433H2292.26C2290.97 845.433 2289.89 844.395 2289.89 843.055V828.83C2289.89 827.533 2290.92 826.452 2292.26 826.452H2300.31V755.372H2273.28V857.28L2273.37 857.323Z" stroke="#231F20" stroke-width="4" stroke-miterlimit="10"/>
<path d="M2278.13 397.678C2275.49 397.678 2273.41 399.797 2273.41 402.391V504.255H2300.44V433.175H2292.39C2291.1 433.175 2290.02 432.137 2290.02 430.797V416.572C2290.02 415.275 2291.05 414.194 2292.39 414.194H2306.62C2307.92 414.194 2309 415.232 2309 416.572V424.614H2380.08V397.635H2278.17L2278.13 397.678Z" stroke="#231F20" stroke-width="4" stroke-miterlimit="10"/>
<path d="M2936.79 402.432C2936.79 399.795 2934.67 397.72 2932.07 397.72H2830.21V424.742H2901.29V416.7C2901.29 415.403 2902.33 414.322 2903.67 414.322H2917.89C2919.19 414.322 2920.27 415.36 2920.27 416.7V430.925C2920.27 432.222 2919.23 433.303 2917.89 433.303H2909.85V504.383H2936.87V402.476L2936.79 402.432Z" stroke="#231F20" stroke-width="4" stroke-miterlimit="10"/>
</svg>
