<?xml version="1.0" encoding="UTF-8" standalone="no"?>
<!DOCTYPE svg PUBLIC "-//W3C//DTD SVG 1.1//EN" "http://www.w3.org/Graphics/SVG/1.1/DTD/svg11.dtd">
<svg width="100%" height="100%" viewBox="0 0 2197 2229" version="1.1" xmlns="http://www.w3.org/2000/svg" xmlns:xlink="http://www.w3.org/1999/xlink" xml:space="preserve" xmlns:serif="http://www.serif.com/" style="fill-rule:evenodd;clip-rule:evenodd;stroke-miterlimit:10;">
    <g transform="matrix(1,0,0,1,-3872.9,-186.9)">
        <path d="M5985.35,207L5287.11,207C5251.96,207 5223.47,235.489 5223.47,270.633L5223.47,968.78C5223.47,1003.92 5251.96,1032.41 5287.11,1032.41L5985.35,1032.41C6020.51,1032.41 6049,1003.92 6049,968.78L6049,270.633C6049,235.489 6020.51,207 5985.35,207Z" style="fill:none;fill-rule:nonzero;stroke:rgb(1,1,1);stroke-width:4px;"/>
        <path d="M5979.32,249.799L5293.11,249.799C5278.27,249.799 5266.27,261.838 5266.27,276.671L5266.27,757.803C5266.27,776.788 5281.63,792.186 5300.62,792.186L5436.85,792.186C5451.69,792.186 5463.73,804.188 5463.73,819.058L5463.73,955.269C5463.73,974.253 5479.13,989.614 5498.11,989.614L5979.32,989.614C5994.15,989.614 6006.19,977.612 6006.19,962.741L6006.19,276.671C6006.19,261.838 5994.15,249.799 5979.32,249.799Z" style="fill:none;fill-rule:nonzero;stroke:rgb(1,1,1);stroke-width:4px;"/>
        <rect x="4432" y="1036.78" width="33.2" height="17.47" style="fill:none;fill-rule:nonzero;stroke:rgb(1,1,1);stroke-width:4px;"/>
        <rect x="4531.59" y="935.46" width="18.34" height="34.065" style="fill:none;fill-rule:nonzero;stroke:rgb(1,1,1);stroke-width:4px;"/>
        <rect x="5178.04" y="935.46" width="28.83" height="34.065" style="fill:none;fill-rule:nonzero;stroke:rgb(1,1,1);stroke-width:4px;"/>
        <rect x="4531.59" y="1373.06" width="18.34" height="34.06" style="fill:none;fill-rule:nonzero;stroke:rgb(1,1,1);stroke-width:4px;"/>
        <rect x="5178.04" y="1373.06" width="17.47" height="34.06" style="fill:none;fill-rule:nonzero;stroke:rgb(1,1,1);stroke-width:4px;"/>
        <rect x="4531.59" y="1815.03" width="18.34" height="34.06" style="fill:none;fill-rule:nonzero;stroke:rgb(1,1,1);stroke-width:4px;"/>
        <rect x="5178.04" y="1815.03" width="17.47" height="34.06" style="fill:none;fill-rule:nonzero;stroke:rgb(1,1,1);stroke-width:4px;"/>
        <rect x="5820.12" y="1373.06" width="18.35" height="34.06" style="fill:none;fill-rule:nonzero;stroke:rgb(1,1,1);stroke-width:4px;"/>
        <rect x="5820.12" y="1815.03" width="18.35" height="34.06" style="fill:none;fill-rule:nonzero;stroke:rgb(1,1,1);stroke-width:4px;"/>
        <rect x="4432" y="1477.87" width="33.2" height="18.35" style="fill:none;fill-rule:nonzero;stroke:rgb(1,1,1);stroke-width:4px;"/>
        <rect x="4432" y="1919.84" width="33.2" height="17.47" style="fill:none;fill-rule:nonzero;stroke:rgb(1,1,1);stroke-width:4px;"/>
        <rect x="5077.58" y="1036.78" width="33.19" height="17.47" style="fill:none;fill-rule:nonzero;stroke:rgb(1,1,1);stroke-width:4px;"/>
        <rect x="5077.58" y="1477.87" width="33.19" height="18.35" style="fill:none;fill-rule:nonzero;stroke:rgb(1,1,1);stroke-width:4px;"/>
        <rect x="5077.58" y="1919.84" width="33.19" height="17.47" style="fill:none;fill-rule:nonzero;stroke:rgb(1,1,1);stroke-width:4px;"/>
        <rect x="5723.15" y="1477.87" width="34.07" height="18.35" style="fill:none;fill-rule:nonzero;stroke:rgb(1,1,1);stroke-width:4px;"/>
        <rect x="5723.15" y="1919.84" width="34.07" height="17.47" style="fill:none;fill-rule:nonzero;stroke:rgb(1,1,1);stroke-width:4px;"/>
        <rect x="4531.59" y="2256.99" width="18.34" height="34.07" style="fill:none;fill-rule:nonzero;stroke:rgb(1,1,1);stroke-width:4px;"/>
        <rect x="5178.04" y="2256.99" width="17.47" height="34.07" style="fill:none;fill-rule:nonzero;stroke:rgb(1,1,1);stroke-width:4px;"/>
        <rect x="5820.12" y="2256.99" width="18.35" height="34.07" style="fill:none;fill-rule:nonzero;stroke:rgb(1,1,1);stroke-width:4px;"/>
        <rect x="4432" y="2361.81" width="33.2" height="17.47" style="fill:none;fill-rule:nonzero;stroke:rgb(1,1,1);stroke-width:4px;"/>
        <rect x="5077.58" y="2361.81" width="33.19" height="17.47" style="fill:none;fill-rule:nonzero;stroke:rgb(1,1,1);stroke-width:4px;"/>
        <rect x="5723.15" y="2361.81" width="34.07" height="17.47" style="fill:none;fill-rule:nonzero;stroke:rgb(1,1,1);stroke-width:4px;"/>
        <path d="M4213.37,2073.38C4214.69,2072.92 4216.28,2072.7 4217.6,2072.7L4256.11,2072.7C4257.43,2072.7 4258.34,2073.57 4258.34,2074.93L4258.34,2183.56C4258.34,2184.47 4258.79,2184.89 4259.66,2184.89L4280.39,2184.89C4281.71,2184.89 4282.62,2185.8 4282.62,2187.13L4282.62,2222.44C4282.62,2223.77 4281.71,2224.68 4280.39,2224.68L4184.86,2224.68C4183.54,2224.68 4182.64,2223.77 4182.64,2222.44L4182.64,2187.13C4182.64,2185.8 4183.54,2184.89 4184.86,2184.89L4210.46,2184.89C4211.33,2184.89 4211.78,2184.44 4211.78,2183.56L4211.78,2114.49C4211.56,2113.81 4211.11,2113.35 4210.46,2113.35L4182.64,2120.06C4181.31,2120.06 4180.41,2119.15 4180.41,2117.82L4180.41,2083.19C4180.41,2081.87 4180.86,2080.73 4182.64,2080.27L4213.37,2073.34L4213.37,2073.38Z" style="fill:none;fill-rule:nonzero;stroke:rgb(1,1,1);stroke-width:4px;stroke-miterlimit:4;"/>
        <path d="M4832.8,2112.61L4831.25,2078.31C4831.25,2076.99 4832.12,2076.31 4833.48,2076.09C4841.75,2073.86 4864.69,2070.95 4884.75,2070.95C4915.51,2070.95 4936.02,2075.41 4936.02,2109.25C4936.02,2128.66 4932.66,2136.22 4914.86,2151.14C4888.34,2173.2 4882.1,2178.75 4882.1,2182.79C4882.1,2184.79 4882.33,2185.02 4884.33,2185.02L4934.7,2185.02C4936.02,2185.02 4936.93,2185.92 4936.93,2187.25L4936.93,2222.45C4936.93,2223.77 4936.02,2224.68 4934.7,2224.68L4831.06,2224.68C4829.28,2224.68 4827.73,2224.22 4827.73,2222.45L4827.73,2193.25C4827.73,2186.57 4828.19,2183.66 4829.28,2180.33C4831.74,2173.42 4839.52,2162.96 4852.67,2151.59C4875.19,2132.21 4884.75,2123.75 4884.75,2116.84C4884.75,2109.93 4880.06,2110.16 4868.69,2110.16C4861.78,2110.16 4842.39,2113.06 4835.03,2114.84C4833.7,2115.07 4832.8,2113.93 4832.8,2112.61Z" style="fill:none;fill-rule:nonzero;stroke:rgb(1,1,1);stroke-width:4px;stroke-miterlimit:4;"/>
        <path d="M5539.21,2136.69C5539.21,2137.37 5539.89,2137.59 5540.53,2137.59C5567.47,2137.59 5579.01,2148.5 5579.01,2177.68C5579.01,2217.55 5553.43,2226.42 5515.6,2226.42C5503.15,2226.42 5487.79,2224.65 5474.66,2222.19C5473.34,2221.97 5472.44,2221.29 5472.44,2219.97L5474.89,2186.1C5474.89,2185.42 5475.79,2184.78 5477.11,2184.78C5484.7,2186.1 5499.37,2187.24 5507.18,2187.24C5522.54,2187.24 5528.08,2185.01 5528.08,2173.65C5528.08,2164.06 5521.18,2163.15 5491.37,2163.15L5483.15,2163.15C5481.83,2163.15 5480.92,2162.73 5480.92,2161.83L5480.92,2138.69C5480.92,2137.14 5481.15,2136.23 5483.38,2134.87C5508.54,2119.06 5515.86,2114.37 5515.86,2112.15C5515.86,2111.24 5514.95,2111.01 5514.31,2111.01L5475.61,2111.01C5474.28,2111.01 5473.61,2110.15 5473.61,2108.79L5473.61,2074.92C5473.61,2073.6 5474.51,2072.7 5475.83,2072.7L5573.73,2072.7C5574.86,2072.7 5575.96,2072.92 5575.96,2074.24L5575.96,2108.79C5575.96,2109.65 5575.96,2111.01 5573.73,2112.79C5564.6,2119.92 5556.15,2125.47 5540.34,2135.29C5539.44,2135.74 5539.25,2135.97 5539.25,2136.61L5539.21,2136.69Z" style="fill:none;fill-rule:nonzero;stroke:rgb(1,1,1);stroke-width:4px;stroke-miterlimit:4;"/>
        <path d="M4172.55,1734.85C4172.55,1724.87 4173,1721.97 4199.07,1637.32C4199.53,1635.55 4200.62,1635.1 4201.98,1635.1L4241.43,1635.1C4242.75,1635.1 4243.89,1635.77 4243.89,1637.54C4225.41,1690.89 4216.27,1719.79 4216.27,1723.78C4216.27,1725.32 4216.95,1725.55 4217.85,1725.55L4232.78,1725.55C4233.69,1725.55 4234.1,1725.1 4234.1,1724.23L4234.1,1689.57C4234.1,1688.25 4235.01,1687.35 4236.33,1687.35L4276.01,1687.35C4277.33,1687.35 4278.24,1688.25 4278.24,1689.57L4278.24,1724.23C4278.24,1725.13 4278.69,1725.55 4279.56,1725.55L4288.25,1725.55C4289.57,1725.55 4290.48,1726.45 4290.48,1727.77L4290.48,1761.79C4290.48,1763.11 4289.57,1764.01 4288.25,1764.01L4279.56,1764.01C4278.65,1764.01 4278.24,1764.47 4278.24,1765.33L4278.24,1783.98C4278.24,1785.3 4277.33,1786.2 4276.01,1786.2L4236.33,1786.2C4235.01,1786.2 4234.1,1785.3 4234.1,1783.98L4234.1,1765.33C4234.1,1764.43 4233.65,1764.01 4232.78,1764.01L4174.81,1764.01C4173.49,1764.01 4172.58,1763.11 4172.58,1761.79L4172.58,1734.89L4172.55,1734.85Z" style="fill:none;fill-rule:nonzero;stroke:rgb(1,1,1);stroke-width:4px;stroke-miterlimit:4;"/>
        <path d="M4881.51,1673.18C4879.96,1673.18 4879.5,1673.63 4879.28,1674.94L4878.37,1689.14C4878.37,1690.23 4878.82,1690.9 4879.69,1690.9C4916.47,1690.9 4933.44,1697.78 4933.44,1732.33C4933.44,1780.4 4906.68,1787.95 4867.68,1787.95C4854.75,1787.95 4836.91,1785.96 4827.99,1784.19C4827.09,1783.97 4826.86,1783.52 4826.86,1782.2L4829.09,1747.2C4829.09,1746.53 4830,1745.62 4831.09,1746.07C4838.46,1747.84 4854.49,1748.74 4862.76,1748.74C4876.14,1748.74 4882.15,1747.2 4882.15,1737.66C4882.15,1727.03 4879.47,1725.27 4850.03,1725.27L4834.87,1725.27C4832.41,1725.27 4830.18,1723.95 4830.18,1721.29L4832.64,1637.99C4832.64,1635.55 4833.09,1635.1 4835.1,1635.1L4926.26,1635.1C4927.58,1635.1 4928.48,1636 4928.48,1637.31L4928.48,1671C4928.48,1672.31 4927.58,1673.22 4926.26,1673.22L4881.43,1673.22L4881.51,1673.18Z" style="fill:none;fill-rule:nonzero;stroke:rgb(1,1,1);stroke-width:4px;stroke-miterlimit:4;"/>
        <path d="M5531.87,1684.48C5531.65,1684.93 5531.42,1685.8 5531.42,1686.47C5531.42,1687.37 5531.65,1688.05 5533.2,1688.05C5538.82,1687.15 5542.39,1687.15 5545.31,1687.15C5575.3,1687.15 5583.38,1703.11 5583.38,1736.99C5583.38,1780.85 5559.89,1787.95 5527.62,1787.95C5486.44,1787.95 5468.07,1778.19 5468.07,1736.76C5468.07,1701.98 5472.32,1681.82 5510.16,1637.31C5511.76,1635.55 5512.86,1635.1 5515.55,1635.1L5563.49,1635.1C5566.41,1635.1 5566.64,1635.77 5566.64,1638.63C5566.64,1640.39 5549.41,1657.44 5531.91,1684.48L5531.87,1684.48ZM5524.93,1717.49C5515.74,1717.49 5513.96,1719.71 5513.96,1734.36C5513.96,1749 5516.65,1751.41 5524.93,1751.41C5533.66,1751.41 5536.35,1749.64 5536.35,1734.36C5536.35,1719.07 5533.43,1717.49 5524.93,1717.49Z" style="fill:none;fill-rule:nonzero;stroke:rgb(1,1,1);stroke-width:4px;stroke-miterlimit:4;"/>
        <path d="M4250.8,1296.36C4245.68,1311.46 4244.82,1322.58 4244.82,1337.23C4244.82,1339.87 4243.91,1339.87 4242.37,1339.87L4196.19,1339.87C4194.42,1339.87 4192.84,1339.45 4192.84,1337.65L4192.84,1331.43C4192.84,1278.31 4230.82,1245.65 4230.82,1231.86C4230.82,1230.96 4230.37,1230.54 4229.5,1230.54L4180.01,1230.54C4178.69,1230.54 4177.79,1229.64 4177.79,1228.32L4177.79,1190.98C4177.79,1189.67 4178.69,1188.76 4180.01,1188.76L4283.02,1188.76C4284.33,1188.76 4285.24,1189.67 4285.24,1190.98L4285.24,1218.56C4285.24,1219.88 4285.01,1222.33 4283.92,1225.23C4271.28,1256.12 4260.17,1268.33 4250.84,1296.32L4250.8,1296.36Z" style="fill:none;fill-rule:nonzero;stroke:rgb(1,1,1);stroke-width:4px;stroke-miterlimit:4;"/>
        <path d="M4824.93,1223.45C4824.93,1193.75 4847.33,1186.14 4880.15,1186.14C4912.96,1186.14 4935.37,1193.75 4935.37,1223.45C4935.37,1241.1 4931.84,1250.49 4915.41,1257.84C4915.18,1257.84 4914.32,1258.52 4914.32,1259.85C4914.32,1260.98 4915.22,1261.4 4915.63,1261.63C4935.59,1271.02 4938.68,1282.19 4938.68,1300.94C4938.68,1334.23 4913.42,1342.49 4880.15,1342.49C4846.88,1342.49 4821.62,1334.23 4821.62,1300.94C4821.62,1282.19 4824.93,1271.02 4844.66,1262.72C4845.11,1262.5 4845.98,1262.04 4845.98,1260.94C4845.98,1259.62 4845.07,1258.94 4844.89,1258.94C4828.46,1251.55 4824.93,1241.51 4824.93,1223.41L4824.93,1223.45ZM4879.92,1277.5C4870.82,1277.5 4867.52,1283.97 4867.52,1293.14C4867.52,1304.31 4871.05,1306.09 4880.15,1306.09C4889.24,1306.09 4893,1304.08 4893,1293.14C4893,1283.97 4889.47,1277.5 4879.92,1277.5ZM4880.15,1218.98C4871.28,1218.98 4868.16,1220.53 4868.16,1231.93C4868.16,1240.64 4870.15,1247.57 4879.7,1247.57C4889.24,1247.57 4891.46,1240.64 4891.46,1231.93C4891.46,1220.76 4888.57,1218.98 4880.15,1218.98Z" style="fill:none;fill-rule:nonzero;stroke:rgb(1,1,1);stroke-width:4px;stroke-miterlimit:4;"/>
        <path d="M4148.73,747.472C4150.05,747.02 4151.63,746.794 4152.95,746.794L4191.47,746.794C4192.79,746.794 4193.69,747.66 4193.69,749.017L4193.69,857.026C4193.69,857.93 4194.15,858.344 4195.02,858.344L4215.74,858.344C4217.07,858.344 4217.97,859.249 4217.97,860.567L4217.97,895.679C4217.97,896.997 4217.07,897.901 4215.74,897.901L4120.22,897.901C4118.9,897.901 4117.99,896.997 4117.99,895.679L4117.99,860.567C4117.99,859.249 4118.9,858.344 4120.22,858.344L4145.82,858.344C4146.69,858.344 4147.14,857.892 4147.14,857.026L4147.14,788.348C4146.91,787.669 4146.46,787.217 4145.82,787.217L4117.99,793.886C4116.67,793.886 4115.76,792.981 4115.76,791.663L4115.76,757.229C4115.76,755.911 4116.22,754.781 4117.99,754.329L4148.73,747.434L4148.73,747.472Z" style="fill:none;fill-rule:nonzero;stroke:rgb(1,1,1);stroke-width:4px;stroke-miterlimit:4;"/>
        <path d="M4333.27,891.361C4322.8,898.288 4314.97,900.522 4296.48,900.522C4277.99,900.522 4270.39,898.288 4259.92,891.361C4243.43,880.42 4238.06,845.781 4238.06,822.348C4238.06,798.915 4243.43,764.276 4259.92,753.335C4270.39,746.407 4278.22,744.174 4296.48,744.174C4314.74,744.174 4322.8,746.407 4333.27,753.335C4349.79,764.276 4355.12,798.687 4355.12,822.348C4355.12,846.008 4349.79,880.42 4333.27,891.361ZM4290.24,860.091C4292.02,863.422 4293.15,863.877 4296.48,863.877C4300.04,863.877 4301.62,863.195 4302.95,860.091C4305.4,854.526 4307.41,836.431 4307.41,822.348C4307.41,808.265 4305.63,789.98 4302.95,784.378C4301.4,781.046 4300.04,780.592 4296.48,780.592C4293.12,780.592 4291.57,781.273 4290.24,784.378C4287.79,789.526 4285.78,808.038 4285.78,822.348C4285.78,836.658 4287.79,854.942 4290.24,860.091Z" style="fill:none;fill-rule:nonzero;stroke:rgb(1,1,1);stroke-width:4px;stroke-miterlimit:4;"/>
        <path d="M4796.92,747.472C4798.24,747.02 4799.83,746.794 4801.15,746.794L4839.66,746.794C4840.99,746.794 4841.89,747.66 4841.89,749.017L4841.89,857.026C4841.89,857.93 4842.35,858.344 4843.21,858.344L4863.94,858.344C4865.26,858.344 4866.17,859.249 4866.17,860.567L4866.17,895.679C4866.17,896.997 4865.26,897.901 4863.94,897.901L4768.42,897.901C4767.1,897.901 4766.19,896.997 4766.19,895.679L4766.19,860.567C4766.19,859.249 4767.1,858.344 4768.42,858.344L4794.02,858.344C4794.88,858.344 4795.34,857.892 4795.34,857.026L4795.34,788.348C4795.11,787.669 4794.66,787.217 4794.02,787.217L4766.19,793.886C4764.87,793.886 4763.96,792.981 4763.96,791.663L4763.96,757.229C4763.96,755.911 4764.41,754.781 4766.19,754.329L4796.92,747.434L4796.92,747.472Z" style="fill:none;fill-rule:nonzero;stroke:rgb(1,1,1);stroke-width:4px;stroke-miterlimit:4;"/>
        <path d="M4927.09,747.472C4928.41,747.02 4929.99,746.794 4931.32,746.794L4969.83,746.794C4971.15,746.794 4972.06,747.66 4972.06,749.017L4972.06,857.026C4972.06,857.93 4972.51,858.344 4973.38,858.344L4994.11,858.344C4995.43,858.344 4996.33,859.249 4996.33,860.567L4996.33,895.679C4996.33,896.997 4995.43,897.901 4994.11,897.901L4898.58,897.901C4897.26,897.901 4896.35,896.997 4896.35,895.679L4896.35,860.567C4896.35,859.249 4897.26,858.344 4898.58,858.344L4924.18,858.344C4925.05,858.344 4925.5,857.892 4925.5,857.026L4925.5,788.348C4925.27,787.669 4924.82,787.217 4924.18,787.217L4896.35,793.886C4895.03,793.886 4894.12,792.981 4894.12,791.663L4894.12,757.229C4894.12,755.911 4894.58,754.781 4896.35,754.329L4927.09,747.434L4927.09,747.472Z" style="fill:none;fill-rule:nonzero;stroke:rgb(1,1,1);stroke-width:4px;stroke-miterlimit:4;"/>
        <path d="M5519.19,1290.16C5519.41,1289.71 5519.64,1288.84 5519.64,1288.16C5519.64,1287.29 5519.41,1286.61 5517.87,1286.61C5512.29,1287.52 5508.75,1287.52 5505.85,1287.52C5476.09,1287.52 5468.07,1271.47 5468.07,1237.4C5468.07,1193.28 5491.39,1186.14 5523.4,1186.14C5564.28,1186.14 5582.51,1195.92 5582.51,1237.62C5582.51,1272.6 5578.29,1292.88 5540.73,1337.64C5539.15,1339.42 5538.06,1339.87 5535.38,1339.87L5487.81,1339.87C5484.91,1339.87 5484.68,1339.19 5484.68,1336.32C5484.68,1334.54 5501.78,1317.39 5519.15,1290.2L5519.19,1290.16ZM5526.08,1256.73C5535.19,1256.73 5536.97,1254.51 5536.97,1239.78C5536.97,1225.04 5534.29,1222.85 5526.08,1222.85C5517.41,1222.85 5515.42,1224.4 5515.42,1239.78C5515.42,1255.15 5517.64,1256.73 5526.08,1256.73Z" style="fill:none;fill-rule:nonzero;stroke:rgb(1,1,1);stroke-width:4px;stroke-miterlimit:4;"/>
        <rect x="3952.4" y="602.674" width="555.6" height="27.95" style="fill:none;fill-rule:nonzero;stroke:rgb(1,1,1);stroke-width:4px;"/>
        <rect x="4597.11" y="602.674" width="555.6" height="27.95" style="fill:none;fill-rule:nonzero;stroke:rgb(1,1,1);stroke-width:4px;"/>
        <rect x="4538.58" y="662.069" width="28.83" height="267.277" style="fill:none;fill-rule:nonzero;stroke:rgb(1,1,1);stroke-width:4px;"/>
        <rect x="3893" y="662.069" width="27.95" height="348.511" style="fill:none;fill-rule:nonzero;stroke:rgb(1,1,1);stroke-width:4px;"/>
        <rect x="3952.4" y="1042.02" width="473.48" height="27.95" style="fill:none;fill-rule:nonzero;stroke:rgb(1,1,1);stroke-width:4px;"/>
        <rect x="4597.98" y="1042.02" width="473.48" height="27.95" style="fill:none;fill-rule:nonzero;stroke:rgb(1,1,1);stroke-width:4px;"/>
        <rect x="4471.31" y="1042.02" width="34.94" height="27.95" style="fill:none;fill-rule:nonzero;stroke:rgb(1,1,1);stroke-width:4px;"/>
        <rect x="4538.58" y="975.639" width="28.83" height="34.941" style="fill:none;fill-rule:nonzero;stroke:rgb(1,1,1);stroke-width:4px;"/>
        <rect x="5184.15" y="662.069" width="25.34" height="267.277" style="fill:none;fill-rule:nonzero;stroke:rgb(1,1,1);stroke-width:4px;"/>
        <rect x="3893" y="1103.16" width="27.95" height="347.64" style="fill:none;fill-rule:nonzero;stroke:rgb(1,1,1);stroke-width:4px;"/>
        <rect x="5244.43" y="1043.77" width="555.6" height="26.2" style="fill:none;fill-rule:nonzero;stroke:rgb(1,1,1);stroke-width:4px;"/>
        <rect x="4538.58" y="1100.54" width="28.83" height="267.28" style="fill:none;fill-rule:nonzero;stroke:rgb(1,1,1);stroke-width:4px;"/>
        <rect x="5184.15" y="1100.54" width="28.83" height="267.28" style="fill:none;fill-rule:nonzero;stroke:rgb(1,1,1);stroke-width:4px;"/>
        <rect x="5184.15" y="975.639" width="25.34" height="34.941" style="fill:none;fill-rule:nonzero;stroke:rgb(1,1,1);stroke-width:4px;"/>
        <rect x="5116.89" y="1042.02" width="34.94" height="27.95" style="fill:none;fill-rule:nonzero;stroke:rgb(1,1,1);stroke-width:4px;"/>
        <rect x="5184.15" y="1413.24" width="28.83" height="34.94" style="fill:none;fill-rule:nonzero;stroke:rgb(1,1,1);stroke-width:4px;"/>
        <rect x="4538.58" y="1413.24" width="28.83" height="34.94" style="fill:none;fill-rule:nonzero;stroke:rgb(1,1,1);stroke-width:4px;"/>
        <rect x="5827.11" y="1100.54" width="28.83" height="267.28" style="fill:none;fill-rule:nonzero;stroke:rgb(1,1,1);stroke-width:4px;"/>
        <rect x="5827.11" y="1413.24" width="28.83" height="34.94" style="fill:none;fill-rule:nonzero;stroke:rgb(1,1,1);stroke-width:4px;"/>
        <rect x="5244.43" y="1483.99" width="473.48" height="27.95" style="fill:none;fill-rule:nonzero;stroke:rgb(1,1,1);stroke-width:4px;"/>
        <rect x="5763.34" y="1483.99" width="34.94" height="27.95" style="fill:none;fill-rule:nonzero;stroke:rgb(1,1,1);stroke-width:4px;"/>
        <rect x="4597.98" y="1483.99" width="473.48" height="27.95" style="fill:none;fill-rule:nonzero;stroke:rgb(1,1,1);stroke-width:4px;"/>
        <rect x="5116.89" y="1483.99" width="34.94" height="27.95" style="fill:none;fill-rule:nonzero;stroke:rgb(1,1,1);stroke-width:4px;"/>
        <rect x="4471.31" y="1483.99" width="34.94" height="27.95" style="fill:none;fill-rule:nonzero;stroke:rgb(1,1,1);stroke-width:4px;"/>
        <rect x="3952.4" y="1483.99" width="473.48" height="27.95" style="fill:none;fill-rule:nonzero;stroke:rgb(1,1,1);stroke-width:4px;"/>
        <rect x="3893" y="1543.38" width="27.95" height="348.51" style="fill:none;fill-rule:nonzero;stroke:rgb(1,1,1);stroke-width:4px;"/>
        <rect x="4538.58" y="1541.64" width="28.83" height="267.27" style="fill:none;fill-rule:nonzero;stroke:rgb(1,1,1);stroke-width:4px;"/>
        <rect x="5184.15" y="1541.64" width="28.83" height="267.27" style="fill:none;fill-rule:nonzero;stroke:rgb(1,1,1);stroke-width:4px;"/>
        <rect x="5827.11" y="1541.64" width="28.83" height="267.27" style="fill:none;fill-rule:nonzero;stroke:rgb(1,1,1);stroke-width:4px;"/>
        <rect x="5184.15" y="1855.21" width="28.83" height="34.93" style="fill:none;fill-rule:nonzero;stroke:rgb(1,1,1);stroke-width:4px;"/>
        <rect x="5827.11" y="1855.21" width="28.83" height="34.93" style="fill:none;fill-rule:nonzero;stroke:rgb(1,1,1);stroke-width:4px;"/>
        <rect x="4538.58" y="1855.21" width="28.83" height="34.93" style="fill:none;fill-rule:nonzero;stroke:rgb(1,1,1);stroke-width:4px;"/>
        <rect x="5827.11" y="1984.48" width="28.83" height="267.27" style="fill:none;fill-rule:nonzero;stroke:rgb(1,1,1);stroke-width:4px;"/>
        <rect x="5827.11" y="2297.17" width="28.83" height="34.94" style="fill:none;fill-rule:nonzero;stroke:rgb(1,1,1);stroke-width:4px;"/>
        <rect x="5244.43" y="1925.08" width="473.48" height="28.83" style="fill:none;fill-rule:nonzero;stroke:rgb(1,1,1);stroke-width:4px;"/>
        <rect x="5763.34" y="1925.08" width="34.94" height="28.83" style="fill:none;fill-rule:nonzero;stroke:rgb(1,1,1);stroke-width:4px;"/>
        <rect x="5244.43" y="2367.05" width="473.48" height="27.95" style="fill:none;fill-rule:nonzero;stroke:rgb(1,1,1);stroke-width:4px;"/>
        <rect x="5763.34" y="2367.05" width="34.94" height="27.95" style="fill:none;fill-rule:nonzero;stroke:rgb(1,1,1);stroke-width:4px;"/>
        <rect x="3893" y="1983.6" width="27.95" height="348.51" style="fill:none;fill-rule:nonzero;stroke:rgb(1,1,1);stroke-width:4px;"/>
        <rect x="4538.58" y="1984.48" width="28.83" height="267.27" style="fill:none;fill-rule:nonzero;stroke:rgb(1,1,1);stroke-width:4px;"/>
        <rect x="4538.58" y="2297.17" width="28.83" height="34.94" style="fill:none;fill-rule:nonzero;stroke:rgb(1,1,1);stroke-width:4px;"/>
        <rect x="5184.15" y="1984.48" width="28.83" height="267.27" style="fill:none;fill-rule:nonzero;stroke:rgb(1,1,1);stroke-width:4px;"/>
        <rect x="5184.15" y="2297.17" width="28.83" height="34.94" style="fill:none;fill-rule:nonzero;stroke:rgb(1,1,1);stroke-width:4px;"/>
        <rect x="3952.4" y="1925.08" width="473.48" height="28.83" style="fill:none;fill-rule:nonzero;stroke:rgb(1,1,1);stroke-width:4px;"/>
        <rect x="4471.31" y="1925.08" width="34.94" height="28.83" style="fill:none;fill-rule:nonzero;stroke:rgb(1,1,1);stroke-width:4px;"/>
        <rect x="3952.4" y="2367.05" width="473.48" height="27.95" style="fill:none;fill-rule:nonzero;stroke:rgb(1,1,1);stroke-width:4px;"/>
        <rect x="4471.31" y="2367.05" width="34.94" height="27.95" style="fill:none;fill-rule:nonzero;stroke:rgb(1,1,1);stroke-width:4px;"/>
        <rect x="4597.98" y="1925.08" width="473.48" height="28.83" style="fill:none;fill-rule:nonzero;stroke:rgb(1,1,1);stroke-width:4px;"/>
        <rect x="5116.89" y="1925.08" width="34.94" height="28.83" style="fill:none;fill-rule:nonzero;stroke:rgb(1,1,1);stroke-width:4px;"/>
        <rect x="4597.98" y="2367.05" width="473.48" height="27.95" style="fill:none;fill-rule:nonzero;stroke:rgb(1,1,1);stroke-width:4px;"/>
        <rect x="5116.89" y="2367.05" width="34.94" height="27.95" style="fill:none;fill-rule:nonzero;stroke:rgb(1,1,1);stroke-width:4px;"/>
    </g>
</svg>
