<svg width="195" height="49" viewBox="0 0 195 49" fill="none" xmlns="http://www.w3.org/2000/svg">
<g id="g12">
<path id="path16" d="M58.1713 30.1031C58.6201 30.635 59.2066 30.8833 60.6917 30.8833C62.2801 30.8833 62.8675 30.635 63.2821 30.1031C63.972 29.2877 64.3174 26.9837 64.3174 24.3954C64.3174 21.7717 63.972 19.8222 63.2821 18.971C62.8675 18.4391 62.2801 18.2267 60.7609 18.2267C59.2066 18.2267 58.6201 18.4391 58.1713 18.971C57.4804 19.8222 57.1008 21.7717 57.1008 24.3954C57.1008 26.9837 57.4804 29.2877 58.1713 30.1031ZM66.7002 32.5142C65.4227 33.8607 63.5924 34.4285 60.6917 34.4285C57.7909 34.4285 56.0646 33.8607 54.8216 32.5142C53.475 31.0247 52.5081 27.9763 52.5081 24.4304C52.5081 20.8501 53.4401 18.0493 54.8216 16.5958C56.0646 15.2134 57.9293 14.7526 60.7609 14.7526C63.6959 14.7526 65.4227 15.2485 66.7002 16.5958C68.0125 18.0852 68.9102 20.8501 68.9102 24.4304C68.9102 27.9763 68.0125 31.0247 66.7002 32.5142Z" fill="white"/>
<path id="path18" d="M75.5476 30.3156C75.5476 30.493 75.6169 30.635 75.8237 30.6702C76.4453 30.8123 77.2053 30.8123 77.8269 30.8123C80.9346 30.8123 82.0049 29.6423 82.0049 24.3601C82.0049 19.2905 81.1072 18.1915 77.7576 18.1915C76.8942 18.1915 76.3418 18.2626 75.8237 18.3688C75.5818 18.404 75.5476 18.6164 75.5476 18.7937V30.3156ZM86.7012 24.3243C86.7012 31.0248 84.5253 34.0739 78.1372 34.0739C77.378 34.0739 76.2383 34.003 75.8237 34.003C75.6169 34.003 75.5476 34.0739 75.5476 34.2864V40.1005C75.5476 40.313 75.4092 40.4551 75.2022 40.4551H71.3695C71.1618 40.4551 71.0242 40.313 71.0242 40.1005V15.8867C71.0242 15.7452 71.0933 15.6031 71.4038 15.4969C72.7161 15.0361 75.6168 14.7526 77.7919 14.7526C84.94 14.7526 86.7012 17.4113 86.7012 24.3243Z" fill="white"/>
<path id="path20" d="M93.2993 23.1192H99.6874C99.9635 23.1192 100.067 23.048 100.067 22.0913C100.067 19.3967 99.4112 17.9783 96.7866 17.9783C93.7139 17.9783 93.0916 20.1058 93.0916 22.8707C93.0916 23.0129 93.1608 23.1192 93.2993 23.1192ZM97.4774 34.4285C90.7439 34.4285 88.603 30.635 88.603 24.6437C88.603 18.2977 91.2269 14.7526 96.8558 14.7526C102.381 14.7526 104.038 17.8369 104.038 22.9769C104.038 25.388 103.935 25.9909 103.106 25.9909H93.3684C93.1958 25.9909 93.1608 26.0613 93.1608 26.2034C93.1608 29.9968 94.922 30.9537 98.134 30.9537C99.8944 30.9537 101.932 30.4929 103.003 30.1383C103.176 30.1383 103.313 30.1742 103.382 30.3156L103.624 33.0813C103.624 33.2226 103.555 33.3296 103.382 33.3999C102.036 34.0379 99.8944 34.4285 97.4774 34.4285Z" fill="white"/>
<path id="path22" d="M117.23 34.074C117.022 34.074 116.884 33.9319 116.884 33.7194V21.7367C116.884 19.0422 116.297 18.3329 113.535 18.3329C112.499 18.3329 111.669 18.404 111.083 18.5461C110.841 18.6164 110.738 18.6876 110.738 18.9007V33.7194C110.738 33.9319 110.6 34.074 110.392 34.074H106.56C106.352 34.074 106.214 33.9319 106.214 33.7194V15.8515C106.214 15.639 106.352 15.5322 106.56 15.4969C108.424 15.1782 111.532 14.7526 113.707 14.7526C119.784 14.7526 121.409 16.3476 121.409 21.5235V33.7194C121.409 33.9319 121.269 34.074 121.063 34.074H117.23Z" fill="white"/>
<path id="path24" d="M130.039 34.4285C127.277 34.4285 125.86 33.1163 125.86 30.5288V18.9006C125.86 18.7585 125.792 18.6875 125.654 18.6875H123.271C123.064 18.6875 122.925 18.546 122.925 18.3329V15.4617C122.925 15.2485 123.064 15.1071 123.271 15.1071H125.654C125.792 15.1071 125.86 15.036 125.86 14.894V10.463C125.86 10.2498 125.999 10.1084 126.206 10.1084H130.039C130.247 10.1084 130.385 10.2498 130.385 10.463V14.894C130.385 15.036 130.453 15.1071 130.591 15.1071H133.493C133.699 15.1071 133.838 15.2485 133.838 15.4617V18.3329C133.838 18.546 133.699 18.6875 133.493 18.6875H130.591C130.453 18.6875 130.385 18.7585 130.385 18.9006V29.4299C130.385 30.5992 130.764 30.9185 131.868 30.9185H132.94C133.112 30.9185 133.285 30.9896 133.285 31.273L133.182 33.6483C133.182 33.8607 133.009 34.0739 132.836 34.1092C132.076 34.2864 131.006 34.4285 130.039 34.4285Z" fill="white"/>
<path id="path26" d="M142.736 18.4041C142.183 18.4041 141.286 18.4752 140.733 18.6876C140.526 18.7938 140.491 18.9007 140.491 19.0781V33.7194C140.491 33.9678 140.353 34.1093 140.111 34.074H136.313C136.106 34.074 135.968 33.9319 135.968 33.7194V15.8515C135.968 15.639 136.106 15.5322 136.313 15.497C138.039 15.1072 140.595 14.7527 142.805 14.7527C143.944 14.7527 144.67 14.7878 145.602 14.8941C145.775 14.9299 145.809 15.001 145.809 15.1782L145.636 18.4392C145.636 18.5461 145.568 18.6524 145.395 18.6164C144.566 18.4752 143.702 18.4041 142.736 18.4041Z" fill="white"/>
<path id="path28" d="M152.067 30.1031C152.516 30.635 153.103 30.8833 154.588 30.8833C156.177 30.8833 156.764 30.635 157.179 30.1031C157.869 29.2877 158.214 26.9837 158.214 24.3954C158.214 21.7717 157.869 19.8222 157.179 18.971C156.764 18.4391 156.176 18.2267 154.658 18.2267C153.103 18.2267 152.516 18.4391 152.067 18.971C151.377 19.8222 150.998 21.7717 150.998 24.3954C150.998 26.9837 151.377 29.2877 152.067 30.1031ZM160.597 32.5142C159.319 33.8607 157.489 34.4285 154.588 34.4285C151.688 34.4285 149.962 33.8607 148.718 32.5142C147.371 31.0247 146.405 27.9763 146.405 24.4304C146.405 20.8501 147.336 18.0493 148.718 16.5958C149.962 15.2134 151.826 14.7526 154.658 14.7526C157.593 14.7526 159.319 15.2485 160.597 16.5958C161.909 18.0852 162.807 20.8501 162.807 24.4304C162.807 27.9763 161.909 31.0247 160.597 32.5142Z" fill="white"/>
<g id="g30">
<path id="path32" d="M175.892 34.0737C175.685 34.0737 175.547 33.9316 175.547 33.7192V21.7364C175.547 19.0418 174.961 18.3326 172.198 18.3326C171.162 18.3326 170.333 18.4037 169.746 18.5458C169.505 18.6161 169.4 18.6873 169.4 18.9004V33.7192C169.4 33.9316 169.263 34.0737 169.056 34.0737H165.223C165.015 34.0737 164.877 33.9316 164.877 33.7192V15.8512C164.877 15.6387 165.015 15.5319 165.223 15.4966C167.087 15.1778 170.195 14.7523 172.371 14.7523C178.448 14.7523 180.071 16.3473 180.071 21.5232V33.7192C180.071 33.9316 179.933 34.0737 179.726 34.0737H175.892Z" fill="white"/>
</g>
<g id="g34">
<path id="path36" d="M182.381 33.7545L182.555 30.6702C182.555 30.564 182.693 30.493 182.83 30.5288C183.971 30.7765 185.627 30.9185 186.768 30.9185C189.22 30.9185 189.6 30.6701 189.6 28.8981C189.6 27.8343 189.012 27.3023 186.284 25.388C183.488 23.4738 182.521 22.481 182.521 20.1058C182.521 16.0998 184.592 14.7526 189.081 14.7526C190.739 14.7526 192.638 14.9298 193.708 15.1423C193.812 15.1782 193.881 15.2134 193.881 15.3906L193.674 18.5461C193.674 18.6163 193.571 18.7234 193.431 18.6876C192.397 18.5102 190.912 18.3328 189.91 18.3328C187.734 18.3328 187.009 18.4751 187.009 19.9996C187.009 21.2399 187.597 21.6305 190.324 23.3675C193.363 25.3529 194.191 26.6643 194.191 28.8621C194.191 33.3999 191.774 34.4285 187.493 34.4285C185.594 34.4285 183.694 34.2513 182.589 34.038C182.486 34.003 182.381 33.9318 182.381 33.7545Z" fill="white"/>
</g>
<g id="Group 4">
<g id="Group 3">
<path id="path14" d="M27.7106 3.05176e-05L26.8063 5.90722C35.1053 7.45318 41.4202 14.9217 41.4202 23.8807C41.4202 33.9563 33.4361 42.1533 23.6222 42.1533C13.8084 42.1533 5.82436 33.9563 5.82436 23.8807C5.82436 14.9217 12.1393 7.45318 20.4383 5.90722L19.534 3.05176e-05C8.45127 1.99471 0 11.9402 0 23.8807C0 37.2536 10.597 48.1328 23.6222 48.1328C36.6476 48.1328 47.2445 37.2536 47.2445 23.8807C47.2445 11.9402 38.7933 1.99471 27.7106 3.05176e-05Z" fill="white"/>
<g id="g40">
<path id="Subtract" fill-rule="evenodd" clip-rule="evenodd" d="M23.6226 10.1074C23.6238 10.1087 27.2814 15.3564 30.5024 20.3839C33.2807 24.7203 34.0896 30.0764 30.6628 33.8908C28.7691 35.9988 26.2118 37.027 23.659 37.0323C23.6574 37.0323 23.6558 37.0327 23.6543 37.0331C23.6526 37.0335 23.651 37.0339 23.6492 37.0339V37.0354C23.6466 37.0354 23.6441 37.0352 23.6415 37.035C23.639 37.0348 23.6364 37.0346 23.6338 37.0346C23.6321 37.0346 23.6304 37.0347 23.6287 37.0348C23.6278 37.0348 23.6269 37.0349 23.6261 37.0349V37.0354L23.6222 37.0352L23.6182 37.0354V37.0349C23.6174 37.0349 23.6166 37.0349 23.6158 37.0348C23.6141 37.0347 23.6124 37.0346 23.6106 37.0346C23.608 37.0346 23.6055 37.0348 23.6029 37.035C23.6004 37.0352 23.5978 37.0354 23.5952 37.0354V37.0339C23.5935 37.0339 23.5918 37.0335 23.5901 37.0331C23.5885 37.0327 23.587 37.0323 23.5853 37.0323C21.0326 37.027 18.4753 35.9988 16.5815 33.8908C13.1548 30.0764 13.9637 24.7203 16.742 20.3839C19.963 15.3564 23.6206 10.1087 23.6218 10.1074L23.6222 10.1088L23.6226 10.1074ZM25.4527 23.05C26.0775 22.4622 26.9024 21.9644 27.7218 22.0384C27.8358 22.0487 27.9498 22.0701 28.0631 22.1039C29.964 22.6702 30.7292 25.9317 30.6744 27.649C30.5491 31.5695 27.3518 34.6437 23.5329 34.5152C23.3418 34.5088 23.1842 34.4943 23.0441 34.4755C21.2806 34.3453 19.5744 33.5555 18.3241 32.0687C17.2526 30.7947 16.7774 29.2891 16.7814 27.7525C20.2502 27.9434 23.0005 25.3566 25.3803 23.1181C25.4045 23.0954 25.4286 23.0727 25.4527 23.05Z" fill="white"/>
</g>
</g>
<g id="g42">
<path id="path54" d="M27.6081 22.3047C26.7888 22.2307 25.9639 22.7285 25.339 23.3163C22.9426 25.57 20.1718 28.2116 16.6678 28.0187C16.6637 29.5554 17.1389 31.061 18.2104 32.335C19.4608 33.8217 21.1669 34.6115 22.9305 34.7418C23.0705 34.7605 23.2281 34.7751 23.4193 34.7815C27.2382 34.91 30.4355 31.8358 30.5607 27.9153C30.6155 26.1979 29.8504 22.9365 27.9494 22.3701C27.8362 22.3364 27.7221 22.3149 27.6081 22.3047Z" fill="url(#paint0_linear_1056_30)"/>
<g id="g40_2">
<g id="g42_2">
<path id="path54_2" d="M27.6547 22.4133C26.8354 22.3393 26.0105 22.8371 25.3857 23.4249C22.9892 25.6787 20.2184 28.3203 16.7144 28.1274C16.7103 29.664 17.1856 31.1696 18.257 32.4436C19.5074 33.9304 21.2136 34.7202 22.9771 34.8504C23.1172 34.8692 23.2748 34.8837 23.4659 34.8902C27.2848 35.0186 30.4821 31.9445 30.6074 28.0239C30.6621 26.3066 29.897 23.0451 27.9961 22.4788C27.8828 22.445 27.7688 22.4236 27.6547 22.4133Z" fill="url(#paint1_linear_1056_30)"/>
</g>
<path id="Vector" d="M27.6516 22.2183C26.8226 22.1436 25.9883 22.6465 25.3562 23.2403C22.9317 25.5174 20.1287 28.1868 16.5835 27.9918C16.5795 29.5443 17.0601 31.0659 18.1444 32.3529C19.4094 33.8552 21.1353 34.6531 22.9196 34.7849C23.0612 34.8038 23.2208 34.8186 23.4141 34.825C27.2776 34.955 30.5122 31.8486 30.6389 27.8872C30.6942 26.1521 29.9201 22.8567 27.9973 22.2842C27.8827 22.2501 27.7676 22.2285 27.6521 22.2183H27.6516Z" fill="url(#paint2_linear_1056_30)"/>
</g>
</g>
</g>
</g>
<defs>
<linearGradient id="paint0_linear_1056_30" x1="16.6606" y1="28.2437" x2="34.1925" y2="28.8035" gradientUnits="userSpaceOnUse">
<stop stop-color="#006CFA"/>
<stop offset="1" stop-color="#00BDFF"/>
</linearGradient>
<linearGradient id="paint1_linear_1056_30" x1="16.7072" y1="28.3523" x2="34.2391" y2="28.9121" gradientUnits="userSpaceOnUse">
<stop stop-color="#006CFA"/>
<stop offset="1" stop-color="#00BDFF"/>
</linearGradient>
<linearGradient id="paint2_linear_1056_30" x1="16.5754" y1="28.219" x2="34.3122" y2="28.7868" gradientUnits="userSpaceOnUse">
<stop stop-color="#006FFF"/>
<stop offset="0.16" stop-color="#037FFA"/>
<stop offset="0.48" stop-color="#0BABEF"/>
<stop offset="0.92" stop-color="#19F1DD"/>
<stop offset="1" stop-color="#1CFFDA"/>
</linearGradient>
</defs>
</svg>
